<?xml version="1.0" encoding="UTF-8" standalone="no"?>
<!DOCTYPE svg PUBLIC "-//W3C//DTD SVG 1.1//EN"
 "http://www.w3.org/Graphics/SVG/1.1/DTD/svg11.dtd">
<!-- Generated by graphviz version 10.0.1 (20240210.2158)
 -->
<!-- Title: AELogger Pages: 1 -->
<svg width="1553pt" height="928pt"
 viewBox="0.00 0.00 1553.30 927.85" xmlns="http://www.w3.org/2000/svg" xmlns:xlink="http://www.w3.org/1999/xlink">
<g id="graph0" class="graph" transform="scale(1 1) rotate(0) translate(4 923.85)">
<title>AELogger</title>
<!-- Node1 -->
<g id="Node000001" class="node">
<title>Node1</title>
<g id="a_Node000001"><a xlink:title="The ArtyK&#39;s Engine&#39;s Logger module – it manages the writing to the log files.">
<polygon fill="#999999" stroke="#666666" points="1545.3,-271.85 1486.55,-271.85 1486.55,-251.85 1545.3,-251.85 1545.3,-271.85"/>
<text text-anchor="middle" x="1515.93" y="-258.35" font-family="Helvetica,sans-Serif" font-size="10.00">AELogger</text>
</a>
</g>
</g>
<!-- Node2 -->
<g id="Node000002" class="node">
<title>Node2</title>
<g id="a_Node000002"><a xlink:href="../../d0/d8a/class_____a_e_module_base.html" target="_top" xlink:title=" ">
<polygon fill="white" stroke="#666666" points="1040.43,-723.85 885.68,-723.85 885.68,-703.85 1040.43,-703.85 1040.43,-723.85"/>
<text text-anchor="middle" x="963.05" y="-710.35" font-family="Helvetica,sans-Serif" font-size="10.00">__AEModuleBase&lt; AELogger &gt;</text>
</a>
</g>
</g>
<!-- Node2&#45;&gt;Node1 -->
<g id="edge1_Node000001_Node000002" class="edge">
<title>Node2&#45;&gt;Node1</title>
<g id="a_edge1_Node000001_Node000002"><a xlink:title=" ">
<path fill="none" stroke="#63b8ff" d="M1001.41,-699.02C1094.03,-660.43 1336.27,-547.95 1468.55,-378.85 1495.07,-344.95 1508.24,-293.94 1512.9,-272.23"/>
<polygon fill="#63b8ff" stroke="#63b8ff" points="1000.19,-695.74 992.28,-702.79 1002.85,-702.21 1000.19,-695.74"/>
</a>
</g>
</g>
<!-- Node3 -->
<g id="Node000003" class="node">
<title>Node3</title>
<g id="a_Node000003"><a xlink:title=" ">
<polygon fill="white" stroke="#666666" points="444.3,-561.85 315.8,-561.85 315.8,-541.85 444.3,-541.85 444.3,-561.85"/>
<text text-anchor="middle" x="380.05" y="-548.35" font-family="Helvetica,sans-Serif" font-size="10.00">std::atomic&lt; std::size_t &gt;</text>
</a>
</g>
</g>
<!-- Node3&#45;&gt;Node2 -->
<g id="edge2_Node000002_Node000003" class="edge">
<title>Node3&#45;&gt;Node2</title>
<g id="a_edge2_Node000002_Node000003"><a xlink:title=" ">
<path fill="none" stroke="#9a32cd" stroke-dasharray="5,2" d="M400.23,-570.41C414.33,-585.06 432.94,-606.66 444.3,-628.85 458.55,-656.68 437.85,-677.36 462.3,-696.85 494.5,-722.52 753.53,-719.48 885.44,-716.18"/>
<polygon fill="#9a32cd" stroke="#9a32cd" points="402.73,-567.96 393.2,-563.32 397.76,-572.88 402.73,-567.96"/>
</a>
</g>
<text text-anchor="middle" x="656.93" y="-720.35" font-family="Helvetica,sans-Serif" font-size="10.00" fill="grey"> m_ullModulesAlive</text>
</g>
<!-- Node10 -->
<g id="Node000010" class="node">
<title>Node10</title>
<g id="a_Node000010"><a xlink:href="../../d0/d8a/class_____a_e_module_base.html" target="_top" xlink:title="This is a base class for all the modules in the engine; all basic modules inherit from it.">
<polygon fill="white" stroke="#666666" points="715.55,-629.85 598.3,-629.85 598.3,-609.85 715.55,-609.85 715.55,-629.85"/>
<text text-anchor="middle" x="656.93" y="-616.35" font-family="Helvetica,sans-Serif" font-size="10.00">__AEModuleBase&lt; T &gt;</text>
</a>
</g>
</g>
<!-- Node3&#45;&gt;Node10 -->
<g id="edge11_Node000010_Node000003" class="edge">
<title>Node3&#45;&gt;Node10</title>
<g id="a_edge11_Node000010_Node000003"><a xlink:title=" ">
<path fill="none" stroke="#9a32cd" stroke-dasharray="5,2" d="M434.46,-565.06C486.75,-578 565.39,-597.45 613.53,-609.36"/>
<polygon fill="#9a32cd" stroke="#9a32cd" points="435.41,-561.69 424.87,-562.69 433.73,-568.49 435.41,-561.69"/>
</a>
</g>
<text text-anchor="middle" x="510.68" y="-596.35" font-family="Helvetica,sans-Serif" font-size="10.00" fill="grey"> m_ullModulesAlive</text>
</g>
<!-- Node12 -->
<g id="Node000012" class="node">
<title>Node12</title>
<g id="a_Node000012"><a xlink:href="../../d0/d8a/class_____a_e_module_base.html" target="_top" xlink:title=" ">
<polygon fill="white" stroke="#666666" points="1046.8,-589.85 879.3,-589.85 879.3,-569.85 1046.8,-569.85 1046.8,-589.85"/>
<text text-anchor="middle" x="963.05" y="-576.35" font-family="Helvetica,sans-Serif" font-size="10.00">__AEModuleBase&lt; AEFileWriter &gt;</text>
</a>
</g>
</g>
<!-- Node3&#45;&gt;Node12 -->
<g id="edge16_Node000012_Node000003" class="edge">
<title>Node3&#45;&gt;Node12</title>
<g id="a_edge16_Node000012_Node000003"><a xlink:title=" ">
<path fill="none" stroke="#9a32cd" stroke-dasharray="5,2" d="M455.67,-549.03C492.24,-547.78 536.95,-546.46 577.05,-545.85 648.04,-544.76 666,-540.54 736.8,-545.85 795.76,-550.28 862.68,-561.13 908.15,-569.39"/>
<polygon fill="#9a32cd" stroke="#9a32cd" points="455.98,-545.52 446.11,-549.36 456.22,-552.51 455.98,-545.52"/>
</a>
</g>
<text text-anchor="middle" x="656.93" y="-548.35" font-family="Helvetica,sans-Serif" font-size="10.00" fill="grey"> m_ullModulesAlive</text>
</g>
<!-- Node4 -->
<g id="Node000004" class="node">
<title>Node4</title>
<g id="a_Node000004"><a xlink:title=" ">
<polygon fill="white" stroke="#666666" points="172.68,-527.85 130.43,-527.85 130.43,-507.85 172.68,-507.85 172.68,-527.85"/>
<text text-anchor="middle" x="151.55" y="-514.35" font-family="Helvetica,sans-Serif" font-size="10.00">size_t</text>
</a>
</g>
</g>
<!-- Node4&#45;&gt;Node3 -->
<g id="edge3_Node000003_Node000004" class="edge">
<title>Node4&#45;&gt;Node3</title>
<g id="a_edge3_Node000003_Node000004"><a xlink:title=" ">
<path fill="none" stroke="#9a32cd" stroke-dasharray="5,2" d="M184.36,-524.5C193.74,-526.35 204.04,-528.28 213.55,-529.85 247.16,-535.38 284.78,-540.47 315.65,-544.36"/>
<polygon fill="#9a32cd" stroke="#9a32cd" points="185.08,-521.07 174.59,-522.52 183.7,-527.93 185.08,-521.07"/>
</a>
</g>
<text text-anchor="middle" x="255.68" y="-543.35" font-family="Helvetica,sans-Serif" font-size="10.00" fill="grey"> ptr</text>
</g>
<!-- Node11 -->
<g id="Node000011" class="node">
<title>Node11</title>
<g id="a_Node000011"><a xlink:href="../../db/d15/class_a_e_file_writer.html" target="_top" xlink:title="ArtyK&#39;s Engine File Writer; umm, it writes data to given file.">
<polygon fill="white" stroke="#666666" points="1301.68,-436.85 1230.18,-436.85 1230.18,-416.85 1301.68,-416.85 1301.68,-436.85"/>
<text text-anchor="middle" x="1265.93" y="-423.35" font-family="Helvetica,sans-Serif" font-size="10.00">AEFileWriter</text>
</a>
</g>
</g>
<!-- Node4&#45;&gt;Node11 -->
<g id="edge24_Node000011_Node000004" class="edge">
<title>Node4&#45;&gt;Node11</title>
<g id="a_edge24_Node000011_Node000004"><a xlink:title=" ">
<path fill="none" stroke="#9a32cd" stroke-dasharray="5,2" d="M183.97,-506.01C193.36,-502.89 203.77,-499.84 213.55,-497.85 285.89,-483.14 305.23,-483.85 379.05,-483.85 379.05,-483.85 379.05,-483.85 964.05,-483.85 1062.94,-483.85 1176.96,-453.76 1231.92,-437.31"/>
<polygon fill="#9a32cd" stroke="#9a32cd" points="182.84,-502.69 174.55,-509.28 185.14,-509.3 182.84,-502.69"/>
</a>
</g>
<text text-anchor="middle" x="656.93" y="-486.35" font-family="Helvetica,sans-Serif" font-size="10.00" fill="grey"> m_szLastWrittenAmount</text>
</g>
<!-- Node5 -->
<g id="Node000005" class="node">
<title>Node5</title>
<g id="a_Node000005"><a xlink:title=" ">
<polygon fill="white" stroke="#666666" points="195.55,-434.85 107.55,-434.85 107.55,-414.85 195.55,-414.85 195.55,-434.85"/>
<text text-anchor="middle" x="151.55" y="-421.35" font-family="Helvetica,sans-Serif" font-size="10.00">std::atomic&lt; T &gt;</text>
</a>
</g>
</g>
<!-- Node5&#45;&gt;Node3 -->
<g id="edge4_Node000003_Node000005" class="edge">
<title>Node5&#45;&gt;Node3</title>
<g id="a_edge4_Node000003_Node000005"><a xlink:title=" ">
<path fill="none" stroke="orange" stroke-dasharray="5,2" d="M198.61,-438.95C228.1,-448.99 266.55,-464.03 297.8,-482.85 326.34,-500.03 354.91,-527.17 369.36,-541.76"/>
<polygon fill="orange" stroke="orange" points="199.81,-435.66 189.22,-435.82 197.6,-442.3 199.81,-435.66"/>
</a>
</g>
<text text-anchor="middle" x="255.68" y="-485.35" font-family="Helvetica,sans-Serif" font-size="10.00" fill="grey"> &lt; std::size_t &gt;</text>
</g>
<!-- Node7 -->
<g id="Node000007" class="node">
<title>Node7</title>
<g id="a_Node000007"><a xlink:title=" ">
<polygon fill="white" stroke="#666666" points="431.55,-782.85 328.55,-782.85 328.55,-762.85 431.55,-762.85 431.55,-782.85"/>
<text text-anchor="middle" x="380.05" y="-769.35" font-family="Helvetica,sans-Serif" font-size="10.00">std::atomic&lt; ullint &gt;</text>
</a>
</g>
</g>
<!-- Node5&#45;&gt;Node7 -->
<g id="edge8_Node000007_Node000005" class="edge">
<title>Node5&#45;&gt;Node7</title>
<g id="a_edge8_Node000007_Node000005"><a xlink:title=" ">
<path fill="none" stroke="orange" stroke-dasharray="5,2" d="M164.77,-444.71C175.63,-460.67 192.95,-482.4 213.55,-494.85 246.49,-514.75 272.2,-486.12 297.8,-514.85 320.43,-540.25 304.84,-634.65 315.8,-666.85 328.78,-704.99 356.8,-744.28 370.78,-762.46"/>
<polygon fill="orange" stroke="orange" points="167.81,-442.96 159.42,-436.48 161.94,-446.77 167.81,-442.96"/>
</a>
</g>
<text text-anchor="middle" x="255.68" y="-517.35" font-family="Helvetica,sans-Serif" font-size="10.00" fill="grey"> &lt; ullint &gt;</text>
</g>
<!-- Node24 -->
<g id="Node000024" class="node">
<title>Node24</title>
<g id="a_Node000024"><a xlink:title=" ">
<polygon fill="white" stroke="#666666" points="429.3,-129.85 330.8,-129.85 330.8,-109.85 429.3,-109.85 429.3,-129.85"/>
<text text-anchor="middle" x="380.05" y="-116.35" font-family="Helvetica,sans-Serif" font-size="10.00">std::atomic&lt; cint &gt;</text>
</a>
</g>
</g>
<!-- Node5&#45;&gt;Node24 -->
<g id="edge38_Node000024_Node000005" class="edge">
<title>Node5&#45;&gt;Node24</title>
<g id="a_edge38_Node000024_Node000005"><a xlink:title=" ">
<path fill="none" stroke="orange" stroke-dasharray="5,2" d="M192.76,-408.27C193.73,-407.5 194.66,-406.69 195.55,-405.85 208.28,-393.85 201.05,-383.08 213.55,-370.85 243.32,-341.73 274.08,-364.08 297.8,-329.85 322.08,-294.81 288.78,-171.83 315.8,-138.85 319.72,-134.06 324.81,-130.45 330.39,-127.73"/>
<polygon fill="orange" stroke="orange" points="191.06,-405.2 184.57,-413.58 194.87,-411.07 191.06,-405.2"/>
</a>
</g>
<text text-anchor="middle" x="255.68" y="-373.35" font-family="Helvetica,sans-Serif" font-size="10.00" fill="grey"> &lt; cint &gt;</text>
</g>
<!-- Node30 -->
<g id="Node000030" class="node">
<title>Node30</title>
<g id="a_Node000030"><a xlink:title=" ">
<polygon fill="white" stroke="#666666" points="430.43,-396.85 329.68,-396.85 329.68,-376.85 430.43,-376.85 430.43,-396.85"/>
<text text-anchor="middle" x="380.05" y="-383.35" font-family="Helvetica,sans-Serif" font-size="10.00">std::atomic&lt; bool &gt;</text>
</a>
</g>
</g>
<!-- Node5&#45;&gt;Node30 -->
<g id="edge50_Node000030_Node000005" class="edge">
<title>Node5&#45;&gt;Node30</title>
<g id="a_edge50_Node000030_Node000005"><a xlink:title=" ">
<path fill="none" stroke="orange" stroke-dasharray="5,2" d="M207.11,-415.7C244.37,-409.45 293.34,-401.23 329.49,-395.17"/>
<polygon fill="orange" stroke="orange" points="206.73,-412.21 197.45,-417.32 207.89,-419.12 206.73,-412.21"/>
</a>
</g>
<text text-anchor="middle" x="255.68" y="-415.35" font-family="Helvetica,sans-Serif" font-size="10.00" fill="grey"> &lt; bool &gt;</text>
</g>
<!-- Node6 -->
<g id="Node000006" class="node">
<title>Node6</title>
<g id="a_Node000006"><a xlink:title=" ">
<polygon fill="white" stroke="#666666" points="28.8,-374.85 0,-374.85 0,-354.85 28.8,-354.85 28.8,-374.85"/>
<text text-anchor="middle" x="14.4" y="-361.35" font-family="Helvetica,sans-Serif" font-size="10.00">T</text>
</a>
</g>
</g>
<!-- Node6&#45;&gt;Node5 -->
<g id="edge5_Node000005_Node000006" class="edge">
<title>Node6&#45;&gt;Node5</title>
<g id="a_edge5_Node000005_Node000006"><a xlink:title=" ">
<path fill="none" stroke="#9a32cd" stroke-dasharray="5,2" d="M39.61,-375.64C58.19,-383.92 84.48,-395.62 107.55,-405.85 113.82,-408.63 120.6,-411.63 126.89,-414.41"/>
<polygon fill="#9a32cd" stroke="#9a32cd" points="41.08,-372.46 30.52,-371.59 38.23,-378.86 41.08,-372.46"/>
</a>
</g>
<text text-anchor="middle" x="68.18" y="-399.35" font-family="Helvetica,sans-Serif" font-size="10.00" fill="grey"> ptr</text>
</g>
<!-- Node28 -->
<g id="Node000028" class="node">
<title>Node28</title>
<g id="a_Node000028"><a xlink:title=" ">
<polygon fill="white" stroke="#666666" points="297.8,-328.85 213.55,-328.85 213.55,-308.85 297.8,-308.85 297.8,-328.85"/>
<text text-anchor="middle" x="255.68" y="-315.35" font-family="Helvetica,sans-Serif" font-size="10.00">std::vector&lt; T &gt;</text>
</a>
</g>
</g>
<!-- Node6&#45;&gt;Node28 -->
<g id="edge43_Node000028_Node000006" class="edge">
<title>Node6&#45;&gt;Node28</title>
<g id="a_edge43_Node000028_Node000006"><a xlink:title=" ">
<path fill="none" stroke="#9a32cd" stroke-dasharray="5,2" d="M40.4,-360.04C81.4,-352.16 163.33,-336.41 213.16,-326.83"/>
<polygon fill="#9a32cd" stroke="#9a32cd" points="39.94,-356.57 30.78,-361.89 41.27,-363.44 39.94,-356.57"/>
</a>
</g>
<text text-anchor="middle" x="68.18" y="-360.35" font-family="Helvetica,sans-Serif" font-size="10.00" fill="grey"> elements</text>
</g>
<!-- Node7&#45;&gt;Node1 -->
<g id="edge45_Node000001_Node000007" class="edge">
<title>Node7&#45;&gt;Node1</title>
<g id="a_edge45_Node000001_Node000007"><a xlink:title=" ">
<path fill="none" stroke="#9a32cd" stroke-dasharray="5,2" d="M402.91,-790.35C447.6,-824.31 553.85,-895.85 655.93,-895.85 655.93,-895.85 655.93,-895.85 1266.93,-895.85 1406.69,-895.85 1499.87,-354.76 1513.26,-272.33"/>
<polygon fill="#9a32cd" stroke="#9a32cd" points="405.1,-787.62 395.05,-784.26 400.81,-793.15 405.1,-787.62"/>
</a>
</g>
<text text-anchor="middle" x="963.05" y="-910.35" font-family="Helvetica,sans-Serif" font-size="10.00" fill="grey"> m_ullFilledCount</text>
<text text-anchor="middle" x="963.05" y="-898.35" font-family="Helvetica,sans-Serif" font-size="10.00" fill="grey">m_ullNodeNumber</text>
</g>
<!-- Node7&#45;&gt;Node2 -->
<g id="edge6_Node000002_Node000007" class="edge">
<title>Node7&#45;&gt;Node2</title>
<g id="a_edge6_Node000002_Node000007"><a xlink:title=" ">
<path fill="none" stroke="#9a32cd" stroke-dasharray="5,2" d="M442.96,-784.31C535.95,-799.08 716.27,-818.16 861.3,-775.85 896.79,-765.5 932.18,-739.05 950.07,-724.26"/>
<polygon fill="#9a32cd" stroke="#9a32cd" points="443.71,-780.88 433.28,-782.73 442.59,-787.79 443.71,-780.88"/>
</a>
</g>
<text text-anchor="middle" x="656.93" y="-803.35" font-family="Helvetica,sans-Serif" font-size="10.00" fill="grey"> m_ullInstanceCounter</text>
</g>
<!-- Node7&#45;&gt;Node10 -->
<g id="edge12_Node000010_Node000007" class="edge">
<title>Node7&#45;&gt;Node10</title>
<g id="a_edge12_Node000010_Node000007"><a xlink:title=" ">
<path fill="none" stroke="#9a32cd" stroke-dasharray="5,2" d="M401.91,-755.39C417.98,-742.26 440.99,-724.15 462.3,-709.85 465.35,-707.8 573.68,-645.31 577.05,-643.85 589.13,-638.62 602.72,-634.05 615.17,-630.34"/>
<polygon fill="#9a32cd" stroke="#9a32cd" points="399.97,-752.45 394.48,-761.51 404.43,-757.85 399.97,-752.45"/>
</a>
</g>
<text text-anchor="middle" x="510.68" y="-712.35" font-family="Helvetica,sans-Serif" font-size="10.00" fill="grey"> m_ullInstanceCounter</text>
</g>
<!-- Node7&#45;&gt;Node11 -->
<g id="edge23_Node000011_Node000007" class="edge">
<title>Node7&#45;&gt;Node11</title>
<g id="a_edge23_Node000011_Node000007"><a xlink:title=" ">
<path fill="none" stroke="#9a32cd" stroke-dasharray="5,2" d="M412.03,-787.91C426.9,-794.49 445.17,-801.65 462.3,-805.85 512.06,-818.06 525.87,-814.4 577.05,-816.85 788.9,-826.98 877.53,-860.64 1046.8,-732.85 1162.13,-645.78 1241.18,-480.3 1260.39,-437.28"/>
<polygon fill="#9a32cd" stroke="#9a32cd" points="413.8,-784.87 403.25,-783.9 410.89,-791.24 413.8,-784.87"/>
</a>
</g>
<text text-anchor="middle" x="808.05" y="-830.35" font-family="Helvetica,sans-Serif" font-size="10.00" fill="grey"> m_ullTotalWrites</text>
</g>
<!-- Node7&#45;&gt;Node12 -->
<g id="edge17_Node000012_Node000007" class="edge">
<title>Node7&#45;&gt;Node12</title>
<g id="a_edge17_Node000012_Node000007"><a xlink:title=" ">
<path fill="none" stroke="#9a32cd" stroke-dasharray="5,2" d="M442.74,-764.93C479,-758 524.38,-745.21 559.05,-721.85 569.82,-714.6 566.22,-706.01 577.05,-698.85 686.15,-626.75 737.68,-665.51 861.3,-622.85 888.98,-613.3 919.82,-599.68 940,-590.34"/>
<polygon fill="#9a32cd" stroke="#9a32cd" points="442.51,-761.41 433.29,-766.63 443.75,-768.3 442.51,-761.41"/>
</a>
</g>
<text text-anchor="middle" x="656.93" y="-701.35" font-family="Helvetica,sans-Serif" font-size="10.00" fill="grey"> m_ullInstanceCounter</text>
</g>
<!-- Node8 -->
<g id="Node000008" class="node">
<title>Node8</title>
<g id="a_Node000008"><a xlink:title=" ">
<polygon fill="white" stroke="#666666" points="169.68,-782.85 133.43,-782.85 133.43,-762.85 169.68,-762.85 169.68,-782.85"/>
<text text-anchor="middle" x="151.55" y="-769.35" font-family="Helvetica,sans-Serif" font-size="10.00">ullint</text>
</a>
</g>
</g>
<!-- Node8&#45;&gt;Node7 -->
<g id="edge7_Node000007_Node000008" class="edge">
<title>Node8&#45;&gt;Node7</title>
<g id="a_edge7_Node000007_Node000008"><a xlink:title=" ">
<path fill="none" stroke="#9a32cd" stroke-dasharray="5,2" d="M181.34,-772.85C218.28,-772.85 282.99,-772.85 328.28,-772.85"/>
<polygon fill="#9a32cd" stroke="#9a32cd" points="181.46,-769.35 171.46,-772.85 181.46,-776.35 181.46,-769.35"/>
</a>
</g>
<text text-anchor="middle" x="255.68" y="-775.35" font-family="Helvetica,sans-Serif" font-size="10.00" fill="grey"> ptr</text>
</g>
<!-- Node9 -->
<g id="Node000009" class="node">
<title>Node9</title>
<g id="a_Node000009"><a xlink:title=" ">
<polygon fill="white" stroke="#666666" points="411.68,-657.85 348.43,-657.85 348.43,-637.85 411.68,-637.85 411.68,-657.85"/>
<text text-anchor="middle" x="380.05" y="-644.35" font-family="Helvetica,sans-Serif" font-size="10.00">const ullint</text>
</a>
</g>
</g>
<!-- Node9&#45;&gt;Node2 -->
<g id="edge9_Node000002_Node000009" class="edge">
<title>Node9&#45;&gt;Node2</title>
<g id="a_edge9_Node000002_Node000009"><a xlink:title=" ">
<path fill="none" stroke="#9a32cd" stroke-dasharray="5,2" d="M394.85,-667.32C409.29,-685.88 433.79,-712.76 462.3,-724.85 623.49,-793.2 841,-746.99 925.95,-724.33"/>
<polygon fill="#9a32cd" stroke="#9a32cd" points="397.77,-665.38 388.99,-659.46 392.16,-669.56 397.77,-665.38"/>
</a>
</g>
<text text-anchor="middle" x="656.93" y="-762.35" font-family="Helvetica,sans-Serif" font-size="10.00" fill="grey"> m_ullModuleId</text>
</g>
<!-- Node9&#45;&gt;Node10 -->
<g id="edge13_Node000010_Node000009" class="edge">
<title>Node9&#45;&gt;Node10</title>
<g id="a_edge13_Node000010_Node000009"><a xlink:title=" ">
<path fill="none" stroke="#9a32cd" stroke-dasharray="5,2" d="M423.28,-643.55C470.04,-638.79 545.7,-631.08 597.98,-625.75"/>
<polygon fill="#9a32cd" stroke="#9a32cd" points="423.15,-640.04 413.55,-644.54 423.86,-647.01 423.15,-640.04"/>
</a>
</g>
<text text-anchor="middle" x="510.68" y="-640.35" font-family="Helvetica,sans-Serif" font-size="10.00" fill="grey"> m_ullModuleId</text>
</g>
<!-- Node9&#45;&gt;Node12 -->
<g id="edge18_Node000012_Node000009" class="edge">
<title>Node9&#45;&gt;Node12</title>
<g id="a_edge18_Node000012_Node000009"><a xlink:title=" ">
<path fill="none" stroke="#9a32cd" stroke-dasharray="5,2" d="M401.02,-630.03C416.53,-617.38 439.23,-601.37 462.3,-593.85 537.24,-569.43 757.4,-572.61 878.99,-576.52"/>
<polygon fill="#9a32cd" stroke="#9a32cd" points="398.88,-627.26 393.5,-636.39 403.4,-632.6 398.88,-627.26"/>
</a>
</g>
<text text-anchor="middle" x="656.93" y="-579.35" font-family="Helvetica,sans-Serif" font-size="10.00" fill="grey"> m_ullModuleId</text>
</g>
<!-- Node10&#45;&gt;Node2 -->
<g id="edge10_Node000002_Node000010" class="edge">
<title>Node10&#45;&gt;Node2</title>
<g id="a_edge10_Node000002_Node000010"><a xlink:title=" ">
<path fill="none" stroke="orange" stroke-dasharray="5,2" d="M703.19,-633.57C714.2,-636.92 725.92,-640.51 736.8,-643.85 804.91,-664.79 884.49,-689.61 928.49,-703.35"/>
<polygon fill="orange" stroke="orange" points="704.53,-630.32 693.94,-630.76 702.49,-637.02 704.53,-630.32"/>
</a>
</g>
<text text-anchor="middle" x="808.05" y="-683.35" font-family="Helvetica,sans-Serif" font-size="10.00" fill="grey"> &lt; AELogger &gt;</text>
</g>
<!-- Node10&#45;&gt;Node12 -->
<g id="edge19_Node000012_Node000010" class="edge">
<title>Node10&#45;&gt;Node12</title>
<g id="a_edge19_Node000012_Node000010"><a xlink:title=" ">
<path fill="none" stroke="orange" stroke-dasharray="5,2" d="M727.13,-611.19C766.48,-606.22 816.66,-599.8 861.3,-593.85 869.7,-592.73 878.5,-591.54 887.24,-590.34"/>
<polygon fill="orange" stroke="orange" points="726.79,-607.71 717.31,-612.43 727.67,-614.65 726.79,-607.71"/>
</a>
</g>
<text text-anchor="middle" x="808.05" y="-609.35" font-family="Helvetica,sans-Serif" font-size="10.00" fill="grey"> &lt; AEFileWriter &gt;</text>
</g>
<!-- Node11&#45;&gt;Node1 -->
<g id="edge14_Node000001_Node000011" class="edge">
<title>Node11&#45;&gt;Node1</title>
<g id="a_edge14_Node000001_Node000011"><a xlink:title=" ">
<path fill="none" stroke="#9a32cd" stroke-dasharray="5,2" d="M1301.42,-411.84C1343.36,-392.65 1415.16,-356.73 1468.55,-313.85 1484.21,-301.28 1499.06,-283.14 1507.56,-271.95"/>
<polygon fill="#9a32cd" stroke="#9a32cd" points="1300.23,-408.54 1292.55,-415.84 1303.11,-414.92 1300.23,-408.54"/>
</a>
</g>
<text text-anchor="middle" x="1430.68" y="-365.35" font-family="Helvetica,sans-Serif" font-size="10.00" fill="grey"> m_fwLogger</text>
</g>
<!-- Node12&#45;&gt;Node11 -->
<g id="edge15_Node000011_Node000012" class="edge">
<title>Node12&#45;&gt;Node11</title>
<g id="a_edge15_Node000011_Node000012"><a xlink:title=" ">
<path fill="none" stroke="#63b8ff" d="M998.12,-564.8C1033.66,-548.9 1090.81,-522.72 1139.05,-497.85 1178.52,-477.51 1223.59,-451.35 1247.64,-437.15"/>
<polygon fill="#63b8ff" stroke="#63b8ff" points="996.91,-561.51 989.2,-568.78 999.76,-567.91 996.91,-561.51"/>
</a>
</g>
</g>
<!-- Node13 -->
<g id="Node000013" class="node">
<title>Node13</title>
<g id="a_Node000013"><a xlink:title=" ">
<polygon fill="white" stroke="#666666" points="705.43,-255.85 608.43,-255.85 608.43,-235.85 705.43,-235.85 705.43,-255.85"/>
<text text-anchor="middle" x="656.93" y="-242.35" font-family="Helvetica,sans-Serif" font-size="10.00">unsigned long long</text>
</a>
</g>
</g>
<!-- Node13&#45;&gt;Node1 -->
<g id="edge46_Node000001_Node000013" class="edge">
<title>Node13&#45;&gt;Node1</title>
<g id="a_edge46_Node000001_Node000013"><a xlink:title=" ">
<path fill="none" stroke="#9a32cd" stroke-dasharray="5,2" d="M717.17,-242.74C839.98,-236.93 1131.2,-226.41 1374.8,-242.85 1413.5,-245.46 1457.81,-252.09 1486.06,-256.78"/>
<polygon fill="#9a32cd" stroke="#9a32cd" points="717.15,-239.24 707.33,-243.22 717.49,-246.23 717.15,-239.24"/>
</a>
</g>
<text text-anchor="middle" x="1101.93" y="-236.35" font-family="Helvetica,sans-Serif" font-size="10.00" fill="grey"> m_ullQueueSize</text>
</g>
<!-- Node13&#45;&gt;Node11 -->
<g id="edge20_Node000011_Node000013" class="edge">
<title>Node13&#45;&gt;Node11</title>
<g id="a_edge20_Node000011_Node000013"><a xlink:title=" ">
<path fill="none" stroke="#9a32cd" stroke-dasharray="5,2" d="M712.51,-258.85C757.29,-269.47 822.36,-284.81 879.3,-297.85 994.6,-324.26 1028.62,-313.45 1139.05,-355.85 1181.68,-372.22 1227.32,-401.2 1250.14,-416.59"/>
<polygon fill="#9a32cd" stroke="#9a32cd" points="713.59,-255.51 703.05,-256.6 711.97,-262.32 713.59,-255.51"/>
</a>
</g>
<text text-anchor="middle" x="963.05" y="-329.35" font-family="Helvetica,sans-Serif" font-size="10.00" fill="grey"> m_ullFlushInterval</text>
</g>
<!-- Node20 -->
<g id="Node000020" class="node">
<title>Node20</title>
<g id="a_Node000020"><a xlink:title=" ">
<polygon fill="white" stroke="#666666" points="1040.43,-157.85 885.68,-157.85 885.68,-137.85 1040.43,-137.85 1040.43,-157.85"/>
<text text-anchor="middle" x="963.05" y="-144.35" font-family="Helvetica,sans-Serif" font-size="10.00">std::pair&lt; ullint, AELogEntry * &gt;</text>
</a>
</g>
</g>
<!-- Node13&#45;&gt;Node20 -->
<g id="edge30_Node000020_Node000013" class="edge">
<title>Node13&#45;&gt;Node20</title>
<g id="a_edge30_Node000020_Node000013"><a xlink:title=" ">
<path fill="none" stroke="#9a32cd" stroke-dasharray="5,2" d="M703.89,-232.05C714.7,-228.76 726.17,-225.21 736.8,-221.85 806.46,-199.81 887.81,-172.76 931.15,-158.24"/>
<polygon fill="#9a32cd" stroke="#9a32cd" points="702.92,-228.69 694.37,-234.94 704.96,-235.38 702.92,-228.69"/>
</a>
</g>
<text text-anchor="middle" x="808.05" y="-218.35" font-family="Helvetica,sans-Serif" font-size="10.00" fill="grey"> first_type</text>
</g>
<!-- Node14 -->
<g id="Node000014" class="node">
<title>Node14</title>
<g id="a_Node000014"><a xlink:title=" ">
<polygon fill="white" stroke="#666666" points="992.8,-455.85 933.3,-455.85 933.3,-435.85 992.8,-435.85 992.8,-455.85"/>
<text text-anchor="middle" x="963.05" y="-442.35" font-family="Helvetica,sans-Serif" font-size="10.00">std::string</text>
</a>
</g>
</g>
<!-- Node14&#45;&gt;Node11 -->
<g id="edge21_Node000011_Node000014" class="edge">
<title>Node14&#45;&gt;Node11</title>
<g id="a_edge21_Node000011_Node000014"><a xlink:title=" ">
<path fill="none" stroke="#9a32cd" stroke-dasharray="5,2" d="M1004.33,-443.31C1063.67,-439.56 1173.58,-432.62 1229.81,-429.07"/>
<polygon fill="#9a32cd" stroke="#9a32cd" points="1004.44,-439.79 994.68,-443.92 1004.88,-446.78 1004.44,-439.79"/>
</a>
</g>
<text text-anchor="middle" x="1101.93" y="-441.35" font-family="Helvetica,sans-Serif" font-size="10.00" fill="grey"> m_sFilename</text>
</g>
<!-- Node15 -->
<g id="Node000015" class="node">
<title>Node15</title>
<g id="a_Node000015"><a xlink:title=" ">
<polygon fill="white" stroke="#666666" points="720.05,-447.85 593.8,-447.85 593.8,-427.85 720.05,-427.85 720.05,-447.85"/>
<text text-anchor="middle" x="656.93" y="-434.35" font-family="Helvetica,sans-Serif" font-size="10.00">std::basic_string&lt; Char &gt;</text>
</a>
</g>
</g>
<!-- Node15&#45;&gt;Node14 -->
<g id="edge22_Node000014_Node000015" class="edge">
<title>Node15&#45;&gt;Node14</title>
<g id="a_edge22_Node000014_Node000015"><a xlink:title=" ">
<path fill="none" stroke="#63b8ff" d="M731.56,-439.79C796.26,-441.49 887.04,-443.88 932.98,-445.09"/>
<polygon fill="#63b8ff" stroke="#63b8ff" points="731.8,-436.29 721.72,-439.53 731.62,-443.29 731.8,-436.29"/>
</a>
</g>
</g>
<!-- Node16 -->
<g id="Node000016" class="node">
<title>Node16</title>
<g id="a_Node000016"><a xlink:title=" ">
<polygon fill="white" stroke="#666666" points="984.55,-417.85 941.55,-417.85 941.55,-397.85 984.55,-397.85 984.55,-417.85"/>
<text text-anchor="middle" x="963.05" y="-404.35" font-family="Helvetica,sans-Serif" font-size="10.00">FILE *</text>
</a>
</g>
</g>
<!-- Node16&#45;&gt;Node11 -->
<g id="edge25_Node000011_Node000016" class="edge">
<title>Node16&#45;&gt;Node11</title>
<g id="a_edge25_Node000011_Node000016"><a xlink:title=" ">
<path fill="none" stroke="#9a32cd" stroke-dasharray="5,2" d="M996.21,-409.87C1031.31,-412.07 1089.18,-415.7 1139.05,-418.85 1169.75,-420.79 1204.67,-423.01 1229.93,-424.62"/>
<polygon fill="#9a32cd" stroke="#9a32cd" points="996.5,-406.38 986.3,-409.24 996.07,-413.36 996.5,-406.38"/>
</a>
</g>
<text text-anchor="middle" x="1101.93" y="-421.35" font-family="Helvetica,sans-Serif" font-size="10.00" fill="grey"> m_fpFilestr</text>
</g>
<!-- Node17 -->
<g id="Node000017" class="node">
<title>Node17</title>
<g id="a_Node000017"><a xlink:title=" ">
<polygon fill="white" stroke="#666666" points="171.55,-129.85 131.55,-129.85 131.55,-109.85 171.55,-109.85 171.55,-129.85"/>
<text text-anchor="middle" x="151.55" y="-116.35" font-family="Helvetica,sans-Serif" font-size="10.00">int8_t</text>
</a>
</g>
</g>
<!-- Node17&#45;&gt;Node11 -->
<g id="edge26_Node000011_Node000017" class="edge">
<title>Node17&#45;&gt;Node11</title>
<g id="a_edge26_Node000011_Node000017"><a xlink:title=" ">
<path fill="none" stroke="#9a32cd" stroke-dasharray="5,2" d="M176.05,-136.63C206.76,-157.82 262.9,-194.01 315.8,-214.85 490.76,-283.76 1079.84,-393.26 1229.9,-420.54"/>
<polygon fill="#9a32cd" stroke="#9a32cd" points="178.09,-133.79 167.89,-130.93 174.08,-139.53 178.09,-133.79"/>
</a>
</g>
<text text-anchor="middle" x="656.93" y="-325.35" font-family="Helvetica,sans-Serif" font-size="10.00" fill="grey"> m_cFlags</text>
</g>
<!-- Node21 -->
<g id="Node000021" class="node">
<title>Node21</title>
<g id="a_Node000021"><a xlink:href="../../da/dea/struct_a_e_log_entry.html" target="_top" xlink:title="The structure for the data of the log entry to be manipulated with the log files.">
<polygon fill="white" stroke="#666666" points="691.18,-88.85 622.68,-88.85 622.68,-68.85 691.18,-68.85 691.18,-88.85"/>
<text text-anchor="middle" x="656.93" y="-75.35" font-family="Helvetica,sans-Serif" font-size="10.00">AELogEntry</text>
</a>
</g>
</g>
<!-- Node17&#45;&gt;Node21 -->
<g id="edge35_Node000021_Node000017" class="edge">
<title>Node17&#45;&gt;Node21</title>
<g id="a_edge35_Node000021_Node000017"><a xlink:title=" ">
<path fill="none" stroke="#9a32cd" stroke-dasharray="5,2" d="M171,-102.03C199.37,-76.02 256.65,-28.78 315.8,-10.85 435.09,25.31 583.85,-41.47 636.42,-68.36"/>
<polygon fill="#9a32cd" stroke="#9a32cd" points="168.86,-99.25 163.95,-108.64 173.64,-104.36 168.86,-99.25"/>
</a>
</g>
<text text-anchor="middle" x="380.05" y="-13.35" font-family="Helvetica,sans-Serif" font-size="10.00" fill="grey"> m_cLogType</text>
</g>
<!-- Node17&#45;&gt;Node24 -->
<g id="edge37_Node000024_Node000017" class="edge">
<title>Node17&#45;&gt;Node24</title>
<g id="a_edge37_Node000024_Node000017"><a xlink:title=" ">
<path fill="none" stroke="#9a32cd" stroke-dasharray="5,2" d="M183.15,-119.85C221.04,-119.85 286.03,-119.85 330.69,-119.85"/>
<polygon fill="#9a32cd" stroke="#9a32cd" points="183.37,-116.35 173.37,-119.85 183.37,-123.35 183.37,-116.35"/>
</a>
</g>
<text text-anchor="middle" x="255.68" y="-122.35" font-family="Helvetica,sans-Serif" font-size="10.00" fill="grey"> ptr</text>
</g>
<!-- Node18 -->
<g id="Node000018" class="node">
<title>Node18</title>
<g id="a_Node000018"><a xlink:title=" ">
<polygon fill="white" stroke="#666666" points="1297.18,-271.85 1234.68,-271.85 1234.68,-251.85 1297.18,-251.85 1297.18,-271.85"/>
<text text-anchor="middle" x="1265.93" y="-258.35" font-family="Helvetica,sans-Serif" font-size="10.00">std::mutex</text>
</a>
</g>
</g>
<!-- Node18&#45;&gt;Node1 -->
<g id="edge27_Node000001_Node000018" class="edge">
<title>Node18&#45;&gt;Node1</title>
<g id="a_edge27_Node000001_Node000018"><a xlink:title=" ">
<path fill="none" stroke="#9a32cd" stroke-dasharray="5,2" d="M1309.05,-261.85C1359.51,-261.85 1442.67,-261.85 1486.25,-261.85"/>
<polygon fill="#9a32cd" stroke="#9a32cd" points="1309.1,-258.35 1299.1,-261.85 1309.1,-265.35 1309.1,-258.35"/>
</a>
</g>
<text text-anchor="middle" x="1430.68" y="-264.35" font-family="Helvetica,sans-Serif" font-size="10.00" fill="grey"> m_mtxAllocLock</text>
</g>
<!-- Node19 -->
<g id="Node000019" class="node">
<title>Node19</title>
<g id="a_Node000019"><a xlink:title=" ">
<polygon fill="white" stroke="#666666" points="1374.8,-195.85 1157.05,-195.85 1157.05,-175.85 1374.8,-175.85 1374.8,-195.85"/>
<text text-anchor="middle" x="1265.93" y="-182.35" font-family="Helvetica,sans-Serif" font-size="10.00">std::vector&lt; std::pair&lt; ullint, AELogEntry * &gt; &gt;</text>
</a>
</g>
</g>
<!-- Node19&#45;&gt;Node1 -->
<g id="edge28_Node000001_Node000019" class="edge">
<title>Node19&#45;&gt;Node1</title>
<g id="a_edge28_Node000001_Node000019"><a xlink:title=" ">
<path fill="none" stroke="#9a32cd" stroke-dasharray="5,2" d="M1355.3,-175.02C1392.32,-174.43 1434.56,-179.21 1468.55,-197.85 1490.21,-209.73 1504.34,-236.54 1510.82,-251.42"/>
<polygon fill="#9a32cd" stroke="#9a32cd" points="1355.39,-171.51 1345.5,-175.32 1355.6,-178.51 1355.39,-171.51"/>
</a>
</g>
<text text-anchor="middle" x="1430.68" y="-200.35" font-family="Helvetica,sans-Serif" font-size="10.00" fill="grey"> m_vAllocTable</text>
</g>
<!-- Node20&#45;&gt;Node19 -->
<g id="edge29_Node000019_Node000020" class="edge">
<title>Node20&#45;&gt;Node19</title>
<g id="a_edge29_Node000019_Node000020"><a xlink:title=" ">
<path fill="none" stroke="#9a32cd" stroke-dasharray="5,2" d="M1051.99,-148.69C1080.07,-150.33 1111.1,-153.61 1139.05,-159.85 1147.43,-161.72 1148.78,-164.54 1157.05,-166.85 1168.86,-170.15 1181.57,-173 1193.97,-175.41"/>
<polygon fill="#9a32cd" stroke="#9a32cd" points="1052.25,-145.2 1042.08,-148.18 1051.89,-152.19 1052.25,-145.2"/>
</a>
</g>
<text text-anchor="middle" x="1101.93" y="-162.35" font-family="Helvetica,sans-Serif" font-size="10.00" fill="grey"> elements</text>
</g>
<!-- Node21&#45;&gt;Node1 -->
<g id="edge47_Node000001_Node000021" class="edge">
<title>Node21&#45;&gt;Node1</title>
<g id="a_edge47_Node000001_Node000021"><a xlink:title=" ">
<path fill="none" stroke="#9a32cd" stroke-dasharray="5,2" d="M702.52,-66.5C834.92,-32.7 1231.22,47.34 1468.55,-131.85 1507.56,-161.31 1513.85,-226.37 1514.79,-251.58"/>
<polygon fill="#9a32cd" stroke="#9a32cd" points="701.89,-63.04 693.09,-68.95 703.65,-69.82 701.89,-63.04"/>
</a>
</g>
<text text-anchor="middle" x="1101.93" y="-36.35" font-family="Helvetica,sans-Serif" font-size="10.00" fill="grey"> m_lepLastNode</text>
<text text-anchor="middle" x="1101.93" y="-24.35" font-family="Helvetica,sans-Serif" font-size="10.00" fill="grey">m_lepQueue</text>
</g>
<!-- Node21&#45;&gt;Node20 -->
<g id="edge31_Node000020_Node000021" class="edge">
<title>Node21&#45;&gt;Node20</title>
<g id="a_edge31_Node000020_Node000021"><a xlink:title=" ">
<path fill="none" stroke="#9a32cd" stroke-dasharray="5,2" d="M702.83,-89.04C759.94,-102 858.06,-124.26 915.81,-137.36"/>
<polygon fill="#9a32cd" stroke="#9a32cd" points="703.64,-85.63 693.11,-86.83 702.09,-92.46 703.64,-85.63"/>
</a>
</g>
<text text-anchor="middle" x="808.05" y="-126.35" font-family="Helvetica,sans-Serif" font-size="10.00" fill="grey"> second_type</text>
</g>
<!-- Node21&#45;&gt;Node21 -->
<g id="edge34_Node000021_Node000021" class="edge">
<title>Node21&#45;&gt;Node21</title>
<g id="a_edge34_Node000021_Node000021"><a xlink:title=" ">
<path fill="none" stroke="#9a32cd" stroke-dasharray="5,2" d="M631.08,-100.29C634.41,-104.15 643.02,-106.85 656.93,-106.85 682.35,-106.85 690.09,-97.83 680.16,-89.19"/>
<polygon fill="#9a32cd" stroke="#9a32cd" points="634.46,-101.2 633.34,-90.66 627.64,-99.6 634.46,-101.2"/>
</a>
</g>
<text text-anchor="middle" x="656.93" y="-109.35" font-family="Helvetica,sans-Serif" font-size="10.00" fill="grey"> m_pNextNode</text>
</g>
<!-- Node22 -->
<g id="Node000022" class="node">
<title>Node22</title>
<g id="a_Node000022"><a xlink:title=" ">
<polygon fill="white" stroke="#666666" points="397.43,-89.85 362.68,-89.85 362.68,-69.85 397.43,-69.85 397.43,-89.85"/>
<text text-anchor="middle" x="380.05" y="-76.35" font-family="Helvetica,sans-Serif" font-size="10.00">char</text>
</a>
</g>
</g>
<!-- Node22&#45;&gt;Node21 -->
<g id="edge32_Node000021_Node000022" class="edge">
<title>Node22&#45;&gt;Node21</title>
<g id="a_edge32_Node000021_Node000022"><a xlink:title=" ">
<path fill="none" stroke="#9a32cd" stroke-dasharray="5,2" d="M408.91,-79C424.59,-78.56 444.54,-78.07 462.3,-77.85 518.43,-77.16 583.73,-77.8 622.34,-78.32"/>
<polygon fill="#9a32cd" stroke="#9a32cd" points="409.26,-75.48 399.37,-79.27 409.46,-82.48 409.26,-75.48"/>
</a>
</g>
<text text-anchor="middle" x="510.68" y="-92.35" font-family="Helvetica,sans-Serif" font-size="10.00" fill="grey"> m_sLogMessage</text>
<text text-anchor="middle" x="510.68" y="-80.35" font-family="Helvetica,sans-Serif" font-size="10.00" fill="grey">m_sModuleName</text>
</g>
<!-- Node23 -->
<g id="Node000023" class="node">
<title>Node23</title>
<g id="a_Node000023"><a xlink:title=" ">
<polygon fill="white" stroke="#666666" points="401.55,-51.85 358.55,-51.85 358.55,-31.85 401.55,-31.85 401.55,-51.85"/>
<text text-anchor="middle" x="380.05" y="-38.35" font-family="Helvetica,sans-Serif" font-size="10.00">time_t</text>
</a>
</g>
</g>
<!-- Node23&#45;&gt;Node21 -->
<g id="edge33_Node000021_Node000023" class="edge">
<title>Node23&#45;&gt;Node21</title>
<g id="a_edge33_Node000021_Node000023"><a xlink:title=" ">
<path fill="none" stroke="#9a32cd" stroke-dasharray="5,2" d="M413.08,-44.85C448.77,-48.33 508.17,-54.53 559.05,-61.85 580.18,-64.89 603.77,-69.01 622.38,-72.44"/>
<polygon fill="#9a32cd" stroke="#9a32cd" points="413.73,-41.39 403.44,-43.92 413.06,-48.36 413.73,-41.39"/>
</a>
</g>
<text text-anchor="middle" x="510.68" y="-64.35" font-family="Helvetica,sans-Serif" font-size="10.00" fill="grey"> m_tmLogTime</text>
</g>
<!-- Node24&#45;&gt;Node21 -->
<g id="edge36_Node000021_Node000024" class="edge">
<title>Node24&#45;&gt;Node21</title>
<g id="a_edge36_Node000021_Node000024"><a xlink:title=" ">
<path fill="none" stroke="#9a32cd" stroke-dasharray="5,2" d="M440.99,-115.78C475.64,-112.93 519.97,-108.44 559.05,-101.85 580.36,-98.26 603.95,-92.69 622.52,-87.93"/>
<polygon fill="#9a32cd" stroke="#9a32cd" points="440.83,-112.28 431.14,-116.56 441.39,-119.26 440.83,-112.28"/>
</a>
</g>
<text text-anchor="middle" x="510.68" y="-117.35" font-family="Helvetica,sans-Serif" font-size="10.00" fill="grey"> m_cStatus</text>
</g>
<!-- Node25 -->
<g id="Node000025" class="node">
<title>Node25</title>
<g id="a_Node000025"><a xlink:title=" ">
<polygon fill="white" stroke="#666666" points="705.05,-168.85 608.8,-168.85 608.8,-148.85 705.05,-148.85 705.05,-168.85"/>
<text text-anchor="middle" x="656.93" y="-155.35" font-family="Helvetica,sans-Serif" font-size="10.00">std::pair&lt; T1, T2 &gt;</text>
</a>
</g>
</g>
<!-- Node25&#45;&gt;Node20 -->
<g id="edge39_Node000020_Node000025" class="edge">
<title>Node25&#45;&gt;Node20</title>
<g id="a_edge39_Node000020_Node000025"><a xlink:title=" ">
<path fill="none" stroke="orange" stroke-dasharray="5,2" d="M716.89,-156.72C764.9,-154.98 833.04,-152.52 885.31,-150.63"/>
<polygon fill="orange" stroke="orange" points="716.82,-153.22 706.96,-157.08 717.08,-160.21 716.82,-153.22"/>
</a>
</g>
<text text-anchor="middle" x="808.05" y="-157.35" font-family="Helvetica,sans-Serif" font-size="10.00" fill="grey"> &lt; ullint, AELogEntry * &gt;</text>
</g>
<!-- Node26 -->
<g id="Node000026" class="node">
<title>Node26</title>
<g id="a_Node000026"><a xlink:title=" ">
<polygon fill="white" stroke="#666666" points="394.45,-167.85 365.65,-167.85 365.65,-147.85 394.45,-147.85 394.45,-167.85"/>
<text text-anchor="middle" x="380.05" y="-154.35" font-family="Helvetica,sans-Serif" font-size="10.00">T1</text>
</a>
</g>
</g>
<!-- Node26&#45;&gt;Node25 -->
<g id="edge40_Node000025_Node000026" class="edge">
<title>Node26&#45;&gt;Node25</title>
<g id="a_edge40_Node000025_Node000026"><a xlink:title=" ">
<path fill="none" stroke="#9a32cd" stroke-dasharray="5,2" d="M406.14,-157.94C451.92,-158.11 549.69,-158.46 608.42,-158.68"/>
<polygon fill="#9a32cd" stroke="#9a32cd" points="406.21,-154.44 396.19,-157.91 406.18,-161.44 406.21,-154.44"/>
</a>
</g>
<text text-anchor="middle" x="510.68" y="-160.35" font-family="Helvetica,sans-Serif" font-size="10.00" fill="grey"> first_type</text>
</g>
<!-- Node27 -->
<g id="Node000027" class="node">
<title>Node27</title>
<g id="a_Node000027"><a xlink:title=" ">
<polygon fill="white" stroke="#666666" points="394.45,-205.85 365.65,-205.85 365.65,-185.85 394.45,-185.85 394.45,-205.85"/>
<text text-anchor="middle" x="380.05" y="-192.35" font-family="Helvetica,sans-Serif" font-size="10.00">T2</text>
</a>
</g>
</g>
<!-- Node27&#45;&gt;Node25 -->
<g id="edge41_Node000025_Node000027" class="edge">
<title>Node27&#45;&gt;Node25</title>
<g id="a_edge41_Node000025_Node000027"><a xlink:title=" ">
<path fill="none" stroke="#9a32cd" stroke-dasharray="5,2" d="M406.23,-192.98C440.74,-189 504.66,-181.42 559.05,-173.85 575.23,-171.6 592.9,-168.93 608.67,-166.46"/>
<polygon fill="#9a32cd" stroke="#9a32cd" points="405.96,-189.49 396.42,-194.11 406.75,-196.45 405.96,-189.49"/>
</a>
</g>
<text text-anchor="middle" x="510.68" y="-187.35" font-family="Helvetica,sans-Serif" font-size="10.00" fill="grey"> second_type</text>
</g>
<!-- Node28&#45;&gt;Node19 -->
<g id="edge42_Node000019_Node000028" class="edge">
<title>Node28&#45;&gt;Node19</title>
<g id="a_edge42_Node000019_Node000028"><a xlink:title=" ">
<path fill="none" stroke="orange" stroke-dasharray="5,2" d="M292.4,-304.25C350.82,-281.06 470.96,-236.25 577.05,-214.85 778.73,-174.17 1020.17,-175.08 1156.74,-180.05"/>
<polygon fill="orange" stroke="orange" points="291.28,-300.93 283.29,-307.89 293.88,-307.43 291.28,-300.93"/>
</a>
</g>
<text text-anchor="middle" x="656.93" y="-217.35" font-family="Helvetica,sans-Serif" font-size="10.00" fill="grey"> &lt; std::pair&lt; ullint, AELogEntry * &gt; &gt;</text>
</g>
<!-- Node29 -->
<g id="Node000029" class="node">
<title>Node29</title>
<g id="a_Node000029"><a xlink:title=" ">
<polygon fill="white" stroke="#666666" points="1297.18,-157.85 1234.68,-157.85 1234.68,-137.85 1297.18,-137.85 1297.18,-157.85"/>
<text text-anchor="middle" x="1265.93" y="-144.35" font-family="Helvetica,sans-Serif" font-size="10.00">std::thread</text>
</a>
</g>
</g>
<!-- Node29&#45;&gt;Node1 -->
<g id="edge44_Node000001_Node000029" class="edge">
<title>Node29&#45;&gt;Node1</title>
<g id="a_edge44_Node000001_Node000029"><a xlink:title=" ">
<path fill="none" stroke="#9a32cd" stroke-dasharray="5,2" d="M1308.44,-138.69C1352.24,-131.5 1421.32,-127.41 1468.55,-159.85 1500.14,-181.54 1510.57,-230.25 1513.7,-251.55"/>
<polygon fill="#9a32cd" stroke="#9a32cd" points="1308.06,-135.21 1298.83,-140.41 1309.29,-142.1 1308.06,-135.21"/>
</a>
</g>
<text text-anchor="middle" x="1430.68" y="-162.35" font-family="Helvetica,sans-Serif" font-size="10.00" fill="grey"> m_trdWriter</text>
</g>
<!-- Node30&#45;&gt;Node1 -->
<g id="edge48_Node000001_Node000030" class="edge">
<title>Node30&#45;&gt;Node1</title>
<g id="a_edge48_Node000001_Node000030"><a xlink:title=" ">
<path fill="none" stroke="#9a32cd" stroke-dasharray="5,2" d="M441.68,-377.28C512.91,-365.5 634.36,-343.71 736.8,-316.85 801.31,-299.94 813.46,-280.43 879.3,-269.85 952.8,-258.04 972.45,-266.15 1046.8,-269.85 1095.98,-272.3 1107.87,-278.4 1157.05,-280.85 1253.71,-285.66 1278.03,-282.4 1374.8,-280.85 1416.48,-280.18 1427.55,-285.4 1468.55,-277.85 1475.42,-276.59 1482.64,-274.49 1489.3,-272.22"/>
<polygon fill="#9a32cd" stroke="#9a32cd" points="441.49,-373.77 432.19,-378.84 442.62,-380.68 441.49,-373.77"/>
</a>
</g>
<text text-anchor="middle" x="963.05" y="-284.35" font-family="Helvetica,sans-Serif" font-size="10.00" fill="grey"> m_bQueueFilled</text>
<text text-anchor="middle" x="963.05" y="-272.35" font-family="Helvetica,sans-Serif" font-size="10.00" fill="grey">m_bRunTrd</text>
</g>
<!-- Node31 -->
<g id="Node000031" class="node">
<title>Node31</title>
<g id="a_Node000031"><a xlink:title=" ">
<polygon fill="white" stroke="#666666" points="168.55,-396.85 134.55,-396.85 134.55,-376.85 168.55,-376.85 168.55,-396.85"/>
<text text-anchor="middle" x="151.55" y="-383.35" font-family="Helvetica,sans-Serif" font-size="10.00">bool</text>
</a>
</g>
</g>
<!-- Node31&#45;&gt;Node30 -->
<g id="edge49_Node000030_Node000031" class="edge">
<title>Node31&#45;&gt;Node30</title>
<g id="a_edge49_Node000030_Node000031"><a xlink:title=" ">
<path fill="none" stroke="#9a32cd" stroke-dasharray="5,2" d="M180.22,-386.85C217.29,-386.85 283.73,-386.85 329.54,-386.85"/>
<polygon fill="#9a32cd" stroke="#9a32cd" points="180.35,-383.35 170.35,-386.85 180.35,-390.35 180.35,-383.35"/>
</a>
</g>
<text text-anchor="middle" x="255.68" y="-389.35" font-family="Helvetica,sans-Serif" font-size="10.00" fill="grey"> ptr</text>
</g>
</g>
</svg>
