<?xml version="1.0" encoding="UTF-8" standalone="no"?>
<!DOCTYPE svg PUBLIC "-//W3C//DTD SVG 1.1//EN"
 "http://www.w3.org/Graphics/SVG/1.1/DTD/svg11.dtd">
<!-- Generated by graphviz version 10.0.1 (20240210.2158)
 -->
<!-- Title: AELogger::logWriterThread Pages: 1 -->
<!--zoomable 409 -->

<svg id="main" version="1.1" xmlns="http://www.w3.org/2000/svg" xmlns:xlink="http://www.w3.org/1999/xlink" xml:space="preserve" onload="init(evt)">
<style type="text/css"><![CDATA[
.node, .edge {opacity: 0.7;}
.node.selected, .edge.selected {opacity: 1;}
.edge:hover path { stroke: red; }
.edge:hover polygon { stroke: red; fill: red; }
]]></style>

<defs>
  <circle id="rim" cx="0" cy="0" r="7"/>
  <circle id="rim2" cx="0" cy="0" r="3.5"/>
  <g id="zoomPlus">
    <use xlink:href="#rim" fill="#404040"><set attributeName="fill" to="#808080" begin="zoomplus.mouseover" end="zoomplus.mouseout"/></use>
    <path d="M-4,0h8M0,-4v8" fill="none" stroke="white" stroke-width="1.5" pointer-events="none"/>
  </g>
  <g id="zoomMin">
    <use xlink:href="#rim" fill="#404040"><set attributeName="fill" to="#808080" begin="zoomminus.mouseover" end="zoomminus.mouseout"/></use>
    <path d="M-4,0h8" fill="none" stroke="white" stroke-width="1.5" pointer-events="none"/>
  </g>
  <g id="arrowUp" transform="translate(30 24)">
    <use xlink:href="#rim"/>
    <path pointer-events="none" fill="none" stroke="white" stroke-width="1.5" d="M0,-3.0v7 M-2.5,-0.5L0,-3.0L2.5,-0.5"/>
  </g>
  <g id="arrowRight" transform="rotate(90) translate(36 -43)">
    <use xlink:href="#rim"/>
    <path pointer-events="none" fill="none" stroke="white" stroke-width="1.5" d="M0,-3.0v7 M-2.5,-0.5L0,-3.0L2.5,-0.5"/>
  </g>
  <g id="arrowDown" transform="rotate(180) translate(-30 -48)">
    <use xlink:href="#rim"/>
    <path pointer-events="none" fill="none" stroke="white" stroke-width="1.5" d="M0,-3.0v7 M-2.5,-0.5L0,-3.0L2.5,-0.5"/>
  </g>
  <g id="arrowLeft" transform="rotate(270) translate(-36 17)">
    <use xlink:href="#rim"/>
    <path pointer-events="none" fill="none" stroke="white" stroke-width="1.5" d="M0,-3.0v7 M-2.5,-0.5L0,-3.0L2.5,-0.5"/>
  </g>
  <g id="resetDef">
    <use xlink:href="#rim2" fill="#404040"><set attributeName="fill" to="#808080" begin="reset.mouseover" end="reset.mouseout"/></use>
  </g>
</defs>
<script type="application/ecmascript">
var viewWidth = 898;
var viewHeight = 409;
var sectionId = 'dynsection-31';
</script>
<script type="application/ecmascript" xlink:href="../../svg.min.js"/>
<svg id="graph" class="graph">
<g id="viewport">
<title>AELogger::logWriterThread</title>
<!-- Node1 -->
<g id="Node000001" class="node">
<title>Node1</title>
<g id="a_Node000001"><a xlink:title="The function of the log writing thread to...read the entries, format them, write them,...">
<polygon fill="#999999" stroke="#666666" points="133,-267.64 0,-267.64 0,-247.64 133,-247.64 133,-267.64"/>
<text text-anchor="middle" x="66.5" y="-254.14" font-family="Helvetica,sans-Serif" font-size="10.00">AELogger::logWriterThread</text>
</a>
</g>
</g>
<!-- Node2 -->
<g id="Node000002" class="node">
<title>Node2</title>
<g id="a_Node000002"><a xlink:href="../../da/dea/struct_a_e_log_entry.html#a58aeadbca0c2c0863b534a52d40d22a8" target="_top" xlink:title="Clears the current entry and sets its values to zero/invalid.">
<polygon fill="white" stroke="#666666" points="300.5,-400.64 181.75,-400.64 181.75,-380.64 300.5,-380.64 300.5,-400.64"/>
<text text-anchor="middle" x="241.12" y="-387.14" font-family="Helvetica,sans-Serif" font-size="10.00">AELogEntry::clearEntry</text>
</a>
</g>
</g>
<!-- Node1&#45;&gt;Node2 -->
<g id="edge1_Node000001_Node000002" class="edge">
<title>Node1&#45;&gt;Node2</title>
<g id="a_edge1_Node000001_Node000002"><a xlink:title=" ">
<path fill="none" stroke="#63b8ff" d="M74.37,-267.94C89.17,-289.36 126.2,-339.01 169,-366.64 174.61,-370.26 180.83,-373.4 187.18,-376.09"/>
<polygon fill="#63b8ff" stroke="#63b8ff" points="185.91,-379.35 196.5,-379.68 188.43,-372.82 185.91,-379.35"/>
</a>
</g>
</g>
<!-- Node3 -->
<g id="Node000003" class="node">
<title>Node3</title>
<g id="a_Node000003"><a xlink:href="../../db/d15/class_a_e_file_writer.html#a0c238267ee45ca15672d4e9246cdca2c" target="_top" xlink:title="Flushes the opened file.">
<polygon fill="white" stroke="#666666" points="521.62,-362.64 408.12,-362.64 408.12,-342.64 521.62,-342.64 521.62,-362.64"/>
<text text-anchor="middle" x="464.88" y="-349.14" font-family="Helvetica,sans-Serif" font-size="10.00">AEFileWriter::flushFile</text>
</a>
</g>
</g>
<!-- Node1&#45;&gt;Node3 -->
<g id="edge2_Node000001_Node000003" class="edge">
<title>Node1&#45;&gt;Node3</title>
<g id="a_edge2_Node000001_Node000003"><a xlink:title=" ">
<path fill="none" stroke="#63b8ff" d="M77.23,-268.12C94.02,-285.4 130.38,-319.39 169,-333.64 243.26,-361.04 335.13,-362.32 396.4,-359"/>
<polygon fill="#63b8ff" stroke="#63b8ff" points="396.58,-362.5 406.35,-358.4 396.15,-355.51 396.58,-362.5"/>
</a>
</g>
</g>
<!-- Node4 -->
<g id="Node000004" class="node">
<title>Node4</title>
<g id="a_Node000004"><a xlink:href="../../da/dea/struct_a_e_log_entry.html#ab803ea47d06098feab470f265498f617" target="_top" xlink:title="Formats the passed entry to the given c&#45;string.">
<polygon fill="white" stroke="#666666" points="527.25,-324.64 402.5,-324.64 402.5,-304.64 527.25,-304.64 527.25,-324.64"/>
<text text-anchor="middle" x="464.88" y="-311.14" font-family="Helvetica,sans-Serif" font-size="10.00">AELogEntry::formatEntry</text>
</a>
</g>
</g>
<!-- Node1&#45;&gt;Node4 -->
<g id="edge3_Node000001_Node000004" class="edge">
<title>Node1&#45;&gt;Node4</title>
<g id="a_edge3_Node000001_Node000004"><a xlink:title=" ">
<path fill="none" stroke="#63b8ff" d="M133.4,-267.12C204.49,-277.34 317.36,-293.57 391.04,-304.17"/>
<polygon fill="#63b8ff" stroke="#63b8ff" points="390.17,-307.58 400.57,-305.54 391.17,-300.65 390.17,-307.58"/>
</a>
</g>
</g>
<!-- Node7 -->
<g id="Node000007" class="node">
<title>Node7</title>
<g id="a_Node000007"><a xlink:href="../../d0/d8a/class_____a_e_module_base.html#a625c82f27195de3f9ab5af4fc7437e2f" target="_top" xlink:title="Get the name of the module.">
<polygon fill="white" stroke="#666666" points="580.5,-248.64 349.25,-248.64 349.25,-228.64 580.5,-228.64 580.5,-248.64"/>
<text text-anchor="middle" x="464.88" y="-235.14" font-family="Helvetica,sans-Serif" font-size="10.00">__AEModuleBase&lt; AELogger &gt;::getModuleName</text>
</a>
</g>
</g>
<!-- Node1&#45;&gt;Node7 -->
<g id="edge6_Node000001_Node000007" class="edge">
<title>Node1&#45;&gt;Node7</title>
<g id="a_edge6_Node000001_Node000007"><a xlink:title=" ">
<path fill="none" stroke="#63b8ff" d="M91.99,-247.27C112.22,-239.29 141.91,-228.93 169,-224.64 243.19,-212.88 329.07,-219.17 388.95,-226.7"/>
<polygon fill="#63b8ff" stroke="#63b8ff" points="388.32,-230.15 398.69,-227.97 389.23,-223.21 388.32,-230.15"/>
</a>
</g>
</g>
<!-- Node8 -->
<g id="Node000008" class="node">
<title>Node8</title>
<g id="a_Node000008"><a xlink:href="../../de/dde/namespaceace_1_1utils.html#ae3cab8babc7164fe97d71c65b247e848" target="_top" xlink:title="Convenient sleep function to sleep the thread for microseconds.">
<polygon fill="white" stroke="#666666" points="290.38,-115.64 191.88,-115.64 191.88,-95.64 290.38,-95.64 290.38,-115.64"/>
<text text-anchor="middle" x="241.12" y="-102.14" font-family="Helvetica,sans-Serif" font-size="10.00">ace::utils::sleepUS</text>
</a>
</g>
</g>
<!-- Node1&#45;&gt;Node8 -->
<g id="edge7_Node000001_Node000008" class="edge">
<title>Node1&#45;&gt;Node8</title>
<g id="a_edge7_Node000001_Node000008"><a xlink:title=" ">
<path fill="none" stroke="#63b8ff" d="M72.27,-247.49C84.54,-222.49 119.76,-157.61 169,-124.64 172.72,-122.15 176.75,-119.99 180.94,-118.11"/>
<polygon fill="#63b8ff" stroke="#63b8ff" points="182.11,-121.41 190.17,-114.54 179.58,-114.88 182.11,-121.41"/>
</a>
</g>
</g>
<!-- Node9 -->
<g id="Node000009" class="node">
<title>Node9</title>
<g id="a_Node000009"><a xlink:href="../../db/d15/class_a_e_file_writer.html#a01d537821c5760615e126f1c159b67da" target="_top" xlink:title="Write binary data, as is, to file, and flush if necessary.">
<polygon fill="white" stroke="#666666" points="532.12,-286.64 397.62,-286.64 397.62,-266.64 532.12,-266.64 532.12,-286.64"/>
<text text-anchor="middle" x="464.88" y="-273.14" font-family="Helvetica,sans-Serif" font-size="10.00">AEFileWriter::writeData_ptr</text>
</a>
</g>
</g>
<!-- Node1&#45;&gt;Node9 -->
<g id="edge8_Node000001_Node000009" class="edge">
<title>Node1&#45;&gt;Node9</title>
<g id="a_edge8_Node000001_Node000009"><a xlink:title=" ">
<path fill="none" stroke="#63b8ff" d="M133.26,-257.69C182.78,-258.04 252.32,-259.19 313.25,-262.64 336.91,-263.98 362.6,-266.11 385.96,-268.31"/>
<polygon fill="#63b8ff" stroke="#63b8ff" points="385.42,-271.78 395.71,-269.25 386.09,-264.81 385.42,-271.78"/>
</a>
</g>
</g>
<!-- Node10 -->
<g id="Node000010" class="node">
<title>Node10</title>
<g id="a_Node000010"><a xlink:href="../../d8/dfc/class_a_e_logger.html#ac533941173224cb21fe09326726ce754" target="_top" xlink:title="Request a log entry to be written to the opened log file.">
<polygon fill="white" stroke="#666666" points="296.75,-153.64 185.5,-153.64 185.5,-133.64 296.75,-133.64 296.75,-153.64"/>
<text text-anchor="middle" x="241.12" y="-140.14" font-family="Helvetica,sans-Serif" font-size="10.00">AELogger::writeToLog</text>
</a>
</g>
</g>
<!-- Node1&#45;&gt;Node10 -->
<g id="edge9_Node000001_Node000010" class="edge">
<title>Node1&#45;&gt;Node10</title>
<g id="a_edge9_Node000001_Node000010"><a xlink:title=" ">
<path fill="none" stroke="#63b8ff" d="M81.75,-247.22C101.2,-233.1 137.28,-207.29 169,-186.64 183.17,-177.42 199.26,-167.63 212.55,-159.73"/>
<polygon fill="#63b8ff" stroke="#63b8ff" points="213.96,-162.96 220.79,-154.86 210.4,-156.94 213.96,-162.96"/>
</a>
</g>
</g>
<!-- Node19 -->
<g id="Node000019" class="node">
<title>Node19</title>
<g id="a_Node000019"><a xlink:href="../../d8/dfc/class_a_e_logger.html#a54bad71bcfea05c3d17d7ba1bacfec8c" target="_top" xlink:title="Writes to log directly, without thinking of the queue.">
<polygon fill="white" stroke="#666666" points="313.25,-324.64 169,-324.64 169,-304.64 313.25,-304.64 313.25,-324.64"/>
<text text-anchor="middle" x="241.12" y="-311.14" font-family="Helvetica,sans-Serif" font-size="10.00">AELogger::writeToLogDirectly</text>
</a>
</g>
</g>
<!-- Node1&#45;&gt;Node19 -->
<g id="edge20_Node000001_Node000019" class="edge">
<title>Node1&#45;&gt;Node19</title>
<g id="a_edge20_Node000001_Node000019"><a xlink:title=" ">
<path fill="none" stroke="#63b8ff" d="M99.16,-268.09C126.82,-277.23 167.18,-290.55 197.64,-300.61"/>
<polygon fill="#63b8ff" stroke="#63b8ff" points="196.34,-303.87 206.93,-303.68 198.54,-297.22 196.34,-303.87"/>
</a>
</g>
</g>
<!-- Node5 -->
<g id="Node000005" class="node">
<title>Node5</title>
<g id="a_Node000005"><a xlink:href="../../de/dde/namespaceace_1_1utils.html#a2458b79e1a70255b471414a4bb5680ce" target="_top" xlink:title="Formats the current **(c)time point as YYYY&#45;MM&#45;DD.HH:mm:SS string**.">
<polygon fill="white" stroke="#666666" points="735.62,-305.64 626.62,-305.64 626.62,-285.64 735.62,-285.64 735.62,-305.64"/>
<text text-anchor="middle" x="681.12" y="-292.14" font-family="Helvetica,sans-Serif" font-size="10.00">ace::utils::formatDate</text>
</a>
</g>
</g>
<!-- Node4&#45;&gt;Node5 -->
<g id="edge4_Node000004_Node000005" class="edge">
<title>Node4&#45;&gt;Node5</title>
<g id="a_edge4_Node000004_Node000005"><a xlink:title=" ">
<path fill="none" stroke="#63b8ff" d="M527.56,-309.17C554.94,-306.74 587.18,-303.88 614.95,-301.42"/>
<polygon fill="#63b8ff" stroke="#63b8ff" points="614.99,-304.93 624.65,-300.56 614.38,-297.96 614.99,-304.93"/>
</a>
</g>
</g>
<!-- Node6 -->
<g id="Node000006" class="node">
<title>Node6</title>
<g id="a_Node000006"><a xlink:href="../../da/dea/struct_a_e_log_entry.html#a958d25c57a94cfae8e7f31843e6c63ef" target="_top" xlink:title="Deduces the entry&#39;s log type and returns a c&#45;string of it.">
<polygon fill="white" stroke="#666666" points="745.75,-343.64 616.5,-343.64 616.5,-323.64 745.75,-323.64 745.75,-343.64"/>
<text text-anchor="middle" x="681.12" y="-330.14" font-family="Helvetica,sans-Serif" font-size="10.00">AELogEntry::typeToString</text>
</a>
</g>
</g>
<!-- Node4&#45;&gt;Node6 -->
<g id="edge5_Node000004_Node000006" class="edge">
<title>Node4&#45;&gt;Node6</title>
<g id="a_edge5_Node000004_Node000006"><a xlink:title=" ">
<path fill="none" stroke="#63b8ff" d="M527.56,-320.11C551.68,-322.25 579.57,-324.72 604.86,-326.96"/>
<polygon fill="#63b8ff" stroke="#63b8ff" points="604.49,-330.45 614.76,-327.84 605.11,-323.47 604.49,-330.45"/>
</a>
</g>
</g>
<!-- Node10&#45;&gt;Node7 -->
<g id="edge10_Node000010_Node000007" class="edge">
<title>Node10&#45;&gt;Node7</title>
<g id="a_edge10_Node000010_Node000007"><a xlink:title=" ">
<path fill="none" stroke="#63b8ff" d="M261.5,-153.98C276.19,-162.13 296.62,-174.18 313.25,-186.64 330.62,-199.65 329.74,-210.14 349.25,-219.64 352.96,-221.45 356.81,-223.08 360.75,-224.57"/>
<polygon fill="#63b8ff" stroke="#63b8ff" points="359.34,-227.79 369.93,-227.68 361.58,-221.16 359.34,-227.79"/>
</a>
</g>
</g>
<!-- Node11 -->
<g id="Node000011" class="node">
<title>Node11</title>
<g id="a_Node000011"><a xlink:href="../../de/dde/namespaceace_1_1utils.html#ac3eadc5f289b54059322023f3c5eed96" target="_top" xlink:title="Checks if the passed string is alpha&#45;numeric with underscores (contains only numbers,...">
<polygon fill="white" stroke="#666666" points="520.12,-210.64 409.62,-210.64 409.62,-190.64 520.12,-190.64 520.12,-210.64"/>
<text text-anchor="middle" x="464.88" y="-197.14" font-family="Helvetica,sans-Serif" font-size="10.00">ace::utils::isAlNumUs</text>
</a>
</g>
</g>
<!-- Node10&#45;&gt;Node11 -->
<g id="edge11_Node000010_Node000011" class="edge">
<title>Node10&#45;&gt;Node11</title>
<g id="a_edge11_Node000010_Node000011"><a xlink:title=" ">
<path fill="none" stroke="#63b8ff" d="M267.27,-153.98C288.74,-162.47 320.59,-174.24 349.25,-181.64 364.96,-185.69 382.12,-189.08 398.26,-191.81"/>
<polygon fill="#63b8ff" stroke="#63b8ff" points="397.31,-195.2 407.74,-193.35 398.44,-188.29 397.31,-195.2"/>
</a>
</g>
</g>
<!-- Node12 -->
<g id="Node000012" class="node">
<title>Node12</title>
<g id="a_Node000012"><a xlink:href="../../d8/dfc/class_a_e_logger.html#a4d512bf9f4d0a6a1b6a332b9c99e22ac" target="_top" xlink:title="Checks if a log file isn&#39;t open by this logger.">
<polygon fill="white" stroke="#666666" points="516,-172.64 413.75,-172.64 413.75,-152.64 516,-152.64 516,-172.64"/>
<text text-anchor="middle" x="464.88" y="-159.14" font-family="Helvetica,sans-Serif" font-size="10.00">AELogger::isClosed</text>
</a>
</g>
</g>
<!-- Node10&#45;&gt;Node12 -->
<g id="edge12_Node000010_Node000012" class="edge">
<title>Node10&#45;&gt;Node12</title>
<g id="a_edge12_Node000010_Node000012"><a xlink:title=" ">
<path fill="none" stroke="#63b8ff" d="M297.22,-148.36C329.12,-151.09 369.35,-154.54 402.29,-157.36"/>
<polygon fill="#63b8ff" stroke="#63b8ff" points="401.84,-160.84 412.1,-158.2 402.44,-153.86 401.84,-160.84"/>
</a>
</g>
</g>
<!-- Node15 -->
<g id="Node000015" class="node">
<title>Node15</title>
<g id="a_Node000015"><a xlink:href="../../de/dde/namespaceace_1_1utils.html#a878c53ede8589dbc6a50734c9c4ad4d7" target="_top" xlink:title="Checks if the value is within some range.">
<polygon fill="white" stroke="#666666" points="517.12,-134.64 412.62,-134.64 412.62,-114.64 517.12,-114.64 517.12,-134.64"/>
<text text-anchor="middle" x="464.88" y="-121.14" font-family="Helvetica,sans-Serif" font-size="10.00">ace::utils::isInRange</text>
</a>
</g>
</g>
<!-- Node10&#45;&gt;Node15 -->
<g id="edge15_Node000010_Node000015" class="edge">
<title>Node10&#45;&gt;Node15</title>
<g id="a_edge15_Node000010_Node000015"><a xlink:title=" ">
<path fill="none" stroke="#63b8ff" d="M297.22,-138.92C328.78,-136.21 368.48,-132.81 401.22,-130.01"/>
<polygon fill="#63b8ff" stroke="#63b8ff" points="401.31,-133.51 410.98,-129.17 400.71,-126.54 401.31,-133.51"/>
</a>
</g>
</g>
<!-- Node16 -->
<g id="Node000016" class="node">
<title>Node16</title>
<g id="a_Node000016"><a xlink:href="../../da/dea/struct_a_e_log_entry.html#a42447b345f72f22ec655556af2db7c28" target="_top" xlink:title="Allocates the queue of the given size on the heap and returns the pointer to it&#39;s first node.">
<polygon fill="white" stroke="#666666" points="528.38,-96.64 401.38,-96.64 401.38,-76.64 528.38,-76.64 528.38,-96.64"/>
<text text-anchor="middle" x="464.88" y="-83.14" font-family="Helvetica,sans-Serif" font-size="10.00">AELogEntry::makeQueue</text>
</a>
</g>
</g>
<!-- Node10&#45;&gt;Node16 -->
<g id="edge16_Node000010_Node000016" class="edge">
<title>Node10&#45;&gt;Node16</title>
<g id="a_edge16_Node000010_Node000016"><a xlink:title=" ">
<path fill="none" stroke="#63b8ff" d="M287.39,-133.18C296.09,-130.72 305.04,-127.86 313.25,-124.64 330.1,-118.04 332.11,-111.42 349.25,-105.64 362.22,-101.27 376.37,-97.88 390.16,-95.26"/>
<polygon fill="#63b8ff" stroke="#63b8ff" points="390.39,-98.78 399.62,-93.58 389.17,-91.88 390.39,-98.78"/>
</a>
</g>
</g>
<!-- Node17 -->
<g id="Node000017" class="node">
<title>Node17</title>
<g id="a_Node000017"><a xlink:href="../../d8/dfc/class_a_e_logger.html#af4bff840ffdcfcb5ecb1251fddbf9690" target="_top" xlink:title="Checks for the given index number and returns the pointer in the queue of log entries.">
<polygon fill="white" stroke="#666666" points="525.75,-58.64 404,-58.64 404,-38.64 525.75,-38.64 525.75,-58.64"/>
<text text-anchor="middle" x="464.88" y="-45.14" font-family="Helvetica,sans-Serif" font-size="10.00">AELogger::ptrFromIndex</text>
</a>
</g>
</g>
<!-- Node10&#45;&gt;Node17 -->
<g id="edge17_Node000010_Node000017" class="edge">
<title>Node10&#45;&gt;Node17</title>
<g id="a_edge17_Node000010_Node000017"><a xlink:title=" ">
<path fill="none" stroke="#63b8ff" d="M296.9,-133.59C302.72,-131.21 308.31,-128.27 313.25,-124.64 337.39,-106.88 324.28,-84.21 349.25,-67.64 362.03,-59.16 377.33,-54.04 392.53,-51.03"/>
<polygon fill="#63b8ff" stroke="#63b8ff" points="392.76,-54.54 402.05,-49.45 391.61,-47.64 392.76,-54.54"/>
</a>
</g>
</g>
<!-- Node18 -->
<g id="Node000018" class="node">
<title>Node18</title>
<g id="a_Node000018"><a xlink:href="../../d8/dfc/class_a_e_logger.html#a50dfd96a74d13471faebd4de499db5bf" target="_top" xlink:title="Request a debug log entry to be written to the opened log file.">
<polygon fill="white" stroke="#666666" points="534.38,-20.64 395.38,-20.64 395.38,-0.64 534.38,-0.64 534.38,-20.64"/>
<text text-anchor="middle" x="464.88" y="-7.14" font-family="Helvetica,sans-Serif" font-size="10.00">AELogger::writeToLogDebug</text>
</a>
</g>
</g>
<!-- Node10&#45;&gt;Node18 -->
<g id="edge18_Node000010_Node000018" class="edge">
<title>Node10&#45;&gt;Node18</title>
<g id="a_edge18_Node000010_Node000018"><a xlink:title=" ">
<path fill="none" stroke="#63b8ff" d="M274.6,-133.15C287.95,-129.99 302.72,-125.15 313.25,-115.64 346.75,-85.37 314.32,-49.26 349.25,-20.64 367.39,-5.78 392.69,-0.5 414.9,0"/>
<polygon fill="#63b8ff" stroke="#63b8ff" points="414.63,-3.5 424.67,-0.13 414.72,3.5 414.63,-3.5"/>
</a>
</g>
</g>
<!-- Node13 -->
<g id="Node000013" class="node">
<title>Node13</title>
<g id="a_Node000013"><a xlink:href="../../db/d15/class_a_e_file_writer.html#a0743145db01b527ae9612f359e5c0090" target="_top" xlink:title="Checks if a file isn&#39;t open by this file&#45;writer.">
<polygon fill="white" stroke="#666666" points="738.62,-172.64 623.62,-172.64 623.62,-152.64 738.62,-152.64 738.62,-172.64"/>
<text text-anchor="middle" x="681.12" y="-159.14" font-family="Helvetica,sans-Serif" font-size="10.00">AEFileWriter::isClosed</text>
</a>
</g>
</g>
<!-- Node12&#45;&gt;Node13 -->
<g id="edge13_Node000012_Node000013" class="edge">
<title>Node12&#45;&gt;Node13</title>
<g id="a_edge13_Node000012_Node000013"><a xlink:title=" ">
<path fill="none" stroke="#63b8ff" d="M516.38,-162.64C544.92,-162.64 580.98,-162.64 611.99,-162.64"/>
<polygon fill="#63b8ff" stroke="#63b8ff" points="611.65,-166.14 621.65,-162.64 611.65,-159.14 611.65,-166.14"/>
</a>
</g>
</g>
<!-- Node14 -->
<g id="Node000014" class="node">
<title>Node14</title>
<g id="a_Node000014"><a xlink:href="../../db/d15/class_a_e_file_writer.html#a47e3c08c276394bce7b612331cf4762d" target="_top" xlink:title="Checks if a file is open by this file&#45;writer.">
<polygon fill="white" stroke="#666666" points="890,-172.64 781.75,-172.64 781.75,-152.64 890,-152.64 890,-172.64"/>
<text text-anchor="middle" x="835.88" y="-159.14" font-family="Helvetica,sans-Serif" font-size="10.00">AEFileWriter::isOpen</text>
</a>
</g>
</g>
<!-- Node13&#45;&gt;Node14 -->
<g id="edge14_Node000013_Node000014" class="edge">
<title>Node13&#45;&gt;Node14</title>
<g id="a_edge14_Node000013_Node000014"><a xlink:title=" ">
<path fill="none" stroke="#63b8ff" d="M739,-162.64C749.11,-162.64 759.71,-162.64 770.01,-162.64"/>
<polygon fill="#63b8ff" stroke="#63b8ff" points="769.98,-166.14 779.98,-162.64 769.98,-159.14 769.98,-166.14"/>
</a>
</g>
</g>
<!-- Node18&#45;&gt;Node10 -->
<g id="edge19_Node000018_Node000010" class="edge">
<title>Node18&#45;&gt;Node10</title>
<g id="a_edge19_Node000018_Node000010"><a xlink:title=" ">
<path fill="none" stroke="#63b8ff" d="M395.03,-19.16C378.6,-22.37 362.12,-28.09 349.25,-38.64 314.32,-67.26 346.75,-103.37 313.25,-133.64 311.32,-135.38 309.26,-136.96 307.08,-138.4"/>
<polygon fill="#63b8ff" stroke="#63b8ff" points="305.48,-135.29 298.3,-143.08 308.77,-141.47 305.48,-135.29"/>
</a>
</g>
</g>
<!-- Node19&#45;&gt;Node3 -->
<g id="edge21_Node000019_Node000003" class="edge">
<title>Node19&#45;&gt;Node3</title>
<g id="a_edge21_Node000019_Node000003"><a xlink:title=" ">
<path fill="none" stroke="#63b8ff" d="M300.48,-325.11C316.3,-327.92 333.43,-330.92 349.25,-333.64 364.61,-336.27 381.14,-339.05 396.73,-341.64"/>
<polygon fill="#63b8ff" stroke="#63b8ff" points="395.95,-345.06 406.39,-343.24 397.1,-338.15 395.95,-345.06"/>
</a>
</g>
</g>
<!-- Node19&#45;&gt;Node4 -->
<g id="edge22_Node000019_Node000004" class="edge">
<title>Node19&#45;&gt;Node4</title>
<g id="a_edge22_Node000019_Node000004"><a xlink:title=" ">
<path fill="none" stroke="#63b8ff" d="M313.51,-314.64C338.32,-314.64 366.17,-314.64 391.1,-314.64"/>
<polygon fill="#63b8ff" stroke="#63b8ff" points="390.81,-318.14 400.81,-314.64 390.81,-311.14 390.81,-318.14"/>
</a>
</g>
</g>
<!-- Node19&#45;&gt;Node9 -->
<g id="edge23_Node000019_Node000009" class="edge">
<title>Node19&#45;&gt;Node9</title>
<g id="a_edge23_Node000019_Node000009"><a xlink:title=" ">
<path fill="none" stroke="#63b8ff" d="M300.48,-304.17C316.3,-301.36 333.43,-298.35 349.25,-295.64 362.06,-293.44 375.69,-291.15 388.91,-288.94"/>
<polygon fill="#63b8ff" stroke="#63b8ff" points="389.11,-292.46 398.4,-287.36 387.96,-285.55 389.11,-292.46"/>
</a>
</g>
</g>
</g>
</svg>

<g id="navigator" transform="translate(0 0)" fill="#404254">
  <rect fill="#f2f5e9" fill-opacity="0.5" stroke="#606060" stroke-width=".5" x="0" y="0" width="60" height="60"/>
  <use id="zoomplus" xlink:href="#zoomPlus" x="17" y="9" onmousedown="handleZoom(evt,'in')"/>
  <use id="zoomminus" xlink:href="#zoomMin" x="42" y="9" onmousedown="handleZoom(evt,'out')"/>
  <use id="reset" xlink:href="#resetDef" x="30" y="36" onmousedown="handleReset()"/>
   <use id="arrowup" xlink:href="#arrowUp" x="0" y="0" onmousedown="handlePan(0,-1)"/>
  <use id="arrowright" xlink:href="#arrowRight" x="0" y="0" onmousedown="handlePan(1,0)"/>
  <use id="arrowdown" xlink:href="#arrowDown" x="0" y="0" onmousedown="handlePan(0,1)"/>
  <use id="arrowleft" xlink:href="#arrowLeft" x="0" y="0" onmousedown="handlePan(-1,0)"/>
</g>
<svg viewBox="0 0 15 15" width="100%" height="30px" preserveAspectRatio="xMaxYMin meet">
 <g id="arrow_out" transform="scale(0.3 0.3)">
  <a xlink:href="class_a_e_logger_a5938787b6933f4b96ebff10643bd2497_cgraph_org.svg" target="_base">
   <rect id="button" ry="5" rx="5" y="6" x="6" height="38" width="38"
        fill="#f2f5e9" fill-opacity="0.5" stroke="#606060" stroke-width="1.0"/>
   <path id="arrow"
     d="M 11.500037,31.436501 C 11.940474,20.09759 22.043105,11.32322 32.158766,21.979434 L 37.068811,17.246167 C 37.068811,17.246167 37.088388,32 37.088388,32 L 22.160133,31.978069 C 22.160133,31.978069 26.997745,27.140456 26.997745,27.140456 C 18.528582,18.264221 13.291696,25.230495 11.500037,31.436501 z"
     style="fill:#404040;"/>
  </a>
 </g>
</svg>

<style type='text/css'>
<![CDATA[
[data-mouse-over-selected='false'] { opacity: 0.7; }
[data-mouse-over-selected='true']  { opacity: 1.0; }
]]>
</style>
<script type="application/ecmascript"><![CDATA[
document.addEventListener('DOMContentLoaded', (event) => {
  highlightEdges();
  highlightAdjacentNodes();
});
]]></script>
</svg>
