<?xml version="1.0" encoding="UTF-8" standalone="no"?>
<!DOCTYPE svg PUBLIC "-//W3C//DTD SVG 1.1//EN"
 "http://www.w3.org/Graphics/SVG/1.1/DTD/svg11.dtd">
<!-- Generated by graphviz version 10.0.1 (20240210.2158)
 -->
<!-- Title: AELogger::AELogger Pages: 1 -->
<!--zoomable 553 -->

<svg id="main" version="1.1" xmlns="http://www.w3.org/2000/svg" xmlns:xlink="http://www.w3.org/1999/xlink" xml:space="preserve" onload="init(evt)">
<style type="text/css"><![CDATA[
.node, .edge {opacity: 0.7;}
.node.selected, .edge.selected {opacity: 1;}
.edge:hover path { stroke: red; }
.edge:hover polygon { stroke: red; fill: red; }
]]></style>

<defs>
  <circle id="rim" cx="0" cy="0" r="7"/>
  <circle id="rim2" cx="0" cy="0" r="3.5"/>
  <g id="zoomPlus">
    <use xlink:href="#rim" fill="#404040"><set attributeName="fill" to="#808080" begin="zoomplus.mouseover" end="zoomplus.mouseout"/></use>
    <path d="M-4,0h8M0,-4v8" fill="none" stroke="white" stroke-width="1.5" pointer-events="none"/>
  </g>
  <g id="zoomMin">
    <use xlink:href="#rim" fill="#404040"><set attributeName="fill" to="#808080" begin="zoomminus.mouseover" end="zoomminus.mouseout"/></use>
    <path d="M-4,0h8" fill="none" stroke="white" stroke-width="1.5" pointer-events="none"/>
  </g>
  <g id="arrowUp" transform="translate(30 24)">
    <use xlink:href="#rim"/>
    <path pointer-events="none" fill="none" stroke="white" stroke-width="1.5" d="M0,-3.0v7 M-2.5,-0.5L0,-3.0L2.5,-0.5"/>
  </g>
  <g id="arrowRight" transform="rotate(90) translate(36 -43)">
    <use xlink:href="#rim"/>
    <path pointer-events="none" fill="none" stroke="white" stroke-width="1.5" d="M0,-3.0v7 M-2.5,-0.5L0,-3.0L2.5,-0.5"/>
  </g>
  <g id="arrowDown" transform="rotate(180) translate(-30 -48)">
    <use xlink:href="#rim"/>
    <path pointer-events="none" fill="none" stroke="white" stroke-width="1.5" d="M0,-3.0v7 M-2.5,-0.5L0,-3.0L2.5,-0.5"/>
  </g>
  <g id="arrowLeft" transform="rotate(270) translate(-36 17)">
    <use xlink:href="#rim"/>
    <path pointer-events="none" fill="none" stroke="white" stroke-width="1.5" d="M0,-3.0v7 M-2.5,-0.5L0,-3.0L2.5,-0.5"/>
  </g>
  <g id="resetDef">
    <use xlink:href="#rim2" fill="#404040"><set attributeName="fill" to="#808080" begin="reset.mouseover" end="reset.mouseout"/></use>
  </g>
</defs>
<script type="application/ecmascript">
var viewWidth = 1343;
var viewHeight = 553;
var sectionId = 'dynsection-2';
</script>
<script type="application/ecmascript" xlink:href="../../svg.min.js"/>
<svg id="graph" class="graph">
<g id="viewport">
<title>AELogger::AELogger</title>
<!-- Node1 -->
<g id="Node000001" class="node">
<title>Node1</title>
<g id="a_Node000001"><a xlink:title="Class constructor – it opens the file with the given path and name and start logging to it.">
<polygon fill="#999999" stroke="#666666" points="107.5,-314 0,-314 0,-294 107.5,-294 107.5,-314"/>
<text text-anchor="middle" x="53.75" y="-300.5" font-family="Helvetica,sans-Serif" font-size="10.00">AELogger::AELogger</text>
</a>
</g>
</g>
<!-- Node2 -->
<g id="Node000002" class="node">
<title>Node2</title>
<g id="a_Node000002"><a xlink:href="../../d0/d8a/class_____a_e_module_base.html#a625c82f27195de3f9ab5af4fc7437e2f" target="_top" xlink:title="Get the name of the module.">
<polygon fill="white" stroke="#666666" points="1025.25,-314 794,-314 794,-294 1025.25,-294 1025.25,-314"/>
<text text-anchor="middle" x="909.62" y="-300.5" font-family="Helvetica,sans-Serif" font-size="10.00">__AEModuleBase&lt; AELogger &gt;::getModuleName</text>
</a>
</g>
</g>
<!-- Node1&#45;&gt;Node2 -->
<g id="edge1_Node000001_Node000002" class="edge">
<title>Node1&#45;&gt;Node2</title>
<g id="a_edge1_Node000001_Node000002"><a xlink:title=" ">
<path fill="none" stroke="#63b8ff" d="M107.84,-304C241.02,-304 592.2,-304 782.22,-304"/>
<polygon fill="#63b8ff" stroke="#63b8ff" points="782.15,-307.5 792.15,-304 782.15,-300.5 782.15,-307.5"/>
</a>
</g>
</g>
<!-- Node3 -->
<g id="Node000003" class="node">
<title>Node3</title>
<g id="a_Node000003"><a xlink:href="../../db/d15/class_a_e_file_writer.html#a47e3c08c276394bce7b612331cf4762d" target="_top" xlink:title="Checks if a file is open by this file&#45;writer.">
<polygon fill="white" stroke="#666666" points="1334.75,-67 1226.5,-67 1226.5,-47 1334.75,-47 1334.75,-67"/>
<text text-anchor="middle" x="1280.62" y="-53.5" font-family="Helvetica,sans-Serif" font-size="10.00">AEFileWriter::isOpen</text>
</a>
</g>
</g>
<!-- Node1&#45;&gt;Node3 -->
<g id="edge2_Node000001_Node000003" class="edge">
<title>Node1&#45;&gt;Node3</title>
<g id="a_edge2_Node000001_Node000003"><a xlink:title=" ">
<path fill="none" stroke="#63b8ff" d="M58.47,-293.54C78.2,-240.08 175.99,0 340.88,0 340.88,0 340.88,0 910.62,0 1025.07,0 1157.17,-27.11 1228.14,-43.94"/>
<polygon fill="#63b8ff" stroke="#63b8ff" points="1226.98,-47.26 1237.52,-46.19 1228.61,-40.45 1226.98,-47.26"/>
</a>
</g>
</g>
<!-- Node4 -->
<g id="Node000004" class="node">
<title>Node4</title>
<g id="a_Node000004"><a xlink:href="../../d8/dfc/class_a_e_logger.html#a284034896688215f7e87242764c5985d" target="_top" xlink:title="Starts the log&#45;writing thread.">
<polygon fill="white" stroke="#666666" points="254,-352 143.5,-352 143.5,-332 254,-332 254,-352"/>
<text text-anchor="middle" x="198.75" y="-338.5" font-family="Helvetica,sans-Serif" font-size="10.00">AELogger::startWriter</text>
</a>
</g>
</g>
<!-- Node1&#45;&gt;Node4 -->
<g id="edge3_Node000001_Node000004" class="edge">
<title>Node1&#45;&gt;Node4</title>
<g id="a_edge3_Node000001_Node000004"><a xlink:title=" ">
<path fill="none" stroke="#63b8ff" d="M94.2,-314.48C110.77,-318.89 130.23,-324.06 147.79,-328.72"/>
<polygon fill="#63b8ff" stroke="#63b8ff" points="146.4,-331.98 156.96,-331.16 148.2,-325.21 146.4,-331.98"/>
</a>
</g>
</g>
<!-- Node11 -->
<g id="Node000011" class="node">
<title>Node11</title>
<g id="a_Node000011"><a xlink:href="../../d8/dfc/class_a_e_logger.html#ac533941173224cb21fe09326726ce754" target="_top" xlink:title="Request a log entry to be written to the opened log file.">
<polygon fill="white" stroke="#666666" points="741.5,-466 630.25,-466 630.25,-446 741.5,-446 741.5,-466"/>
<text text-anchor="middle" x="685.88" y="-452.5" font-family="Helvetica,sans-Serif" font-size="10.00">AELogger::writeToLog</text>
</a>
</g>
</g>
<!-- Node1&#45;&gt;Node11 -->
<g id="edge40_Node000001_Node000011" class="edge">
<title>Node1&#45;&gt;Node11</title>
<g id="a_edge40_Node000001_Node000011"><a xlink:title=" ">
<path fill="none" stroke="#63b8ff" d="M65.53,-314.17C97.28,-343.57 194.23,-429.48 290,-475 348.03,-502.58 366.04,-503.71 429.75,-512 494.98,-520.49 513.87,-527.69 577.75,-512 608.58,-504.43 640.37,-486.26 661.23,-472.65"/>
<polygon fill="#63b8ff" stroke="#63b8ff" points="662.93,-475.73 669.28,-467.25 659.03,-469.91 662.93,-475.73"/>
</a>
</g>
</g>
<!-- Node4&#45;&gt;Node2 -->
<g id="edge29_Node000004_Node000002" class="edge">
<title>Node4&#45;&gt;Node2</title>
<g id="a_edge29_Node000004_Node000002"><a xlink:title=" ">
<path fill="none" stroke="#63b8ff" d="M254.48,-340.55C354.52,-337.7 573.62,-330.52 758,-318 768.91,-317.26 780.25,-316.39 791.6,-315.45"/>
<polygon fill="#63b8ff" stroke="#63b8ff" points="791.75,-318.95 801.42,-314.62 791.16,-311.98 791.75,-318.95"/>
</a>
</g>
</g>
<!-- Node5 -->
<g id="Node000005" class="node">
<title>Node5</title>
<g id="a_Node000005"><a xlink:href="../../d8/dfc/class_a_e_logger.html#a2f64d8f5de2f249f7cb973a82ec1e48a" target="_top" xlink:title="Close the file, if it was opened.">
<polygon fill="white" stroke="#666666" points="393.75,-428 290,-428 290,-408 393.75,-408 393.75,-428"/>
<text text-anchor="middle" x="341.88" y="-414.5" font-family="Helvetica,sans-Serif" font-size="10.00">AELogger::closeLog</text>
</a>
</g>
</g>
<!-- Node4&#45;&gt;Node5 -->
<g id="edge4_Node000004_Node000005" class="edge">
<title>Node4&#45;&gt;Node5</title>
<g id="a_edge4_Node000004_Node000005"><a xlink:title=" ">
<path fill="none" stroke="#63b8ff" d="M219.08,-352.41C243.04,-365.31 284.11,-387.43 311.86,-402.38"/>
<polygon fill="#63b8ff" stroke="#63b8ff" points="309.98,-405.34 320.45,-407 313.3,-399.18 309.98,-405.34"/>
</a>
</g>
</g>
<!-- Node4&#45;&gt;Node11 -->
<g id="edge39_Node000004_Node000011" class="edge">
<title>Node4&#45;&gt;Node11</title>
<g id="a_edge39_Node000004_Node000011"><a xlink:title=" ">
<path fill="none" stroke="#63b8ff" d="M207.09,-352.23C221.2,-371.25 253.93,-412.37 290,-437 345.39,-474.83 363.92,-481.09 429.75,-494 494.3,-506.66 512.93,-505.16 577.75,-494 603.47,-489.57 631.2,-479.58 652,-470.95"/>
<polygon fill="#63b8ff" stroke="#63b8ff" points="653.28,-474.21 661.1,-467.07 650.53,-467.78 653.28,-474.21"/>
</a>
</g>
</g>
<!-- Node23 -->
<g id="Node000023" class="node">
<title>Node23</title>
<g id="a_Node000023"><a xlink:href="../../d8/dfc/class_a_e_logger.html#a5938787b6933f4b96ebff10643bd2497" target="_top" xlink:title="The function of the log writing thread to...read the entries, format them, write them,...">
<polygon fill="white" stroke="#666666" points="570.25,-200 437.25,-200 437.25,-180 570.25,-180 570.25,-200"/>
<text text-anchor="middle" x="503.75" y="-186.5" font-family="Helvetica,sans-Serif" font-size="10.00">AELogger::logWriterThread</text>
</a>
</g>
</g>
<!-- Node4&#45;&gt;Node23 -->
<g id="edge30_Node000004_Node000023" class="edge">
<title>Node4&#45;&gt;Node23</title>
<g id="a_edge30_Node000004_Node000023"><a xlink:title=" ">
<path fill="none" stroke="#63b8ff" d="M220.58,-331.55C272.92,-305.29 410.19,-236.43 471.91,-205.47"/>
<polygon fill="#63b8ff" stroke="#63b8ff" points="473.46,-208.61 480.83,-201 470.32,-202.35 473.46,-208.61"/>
</a>
</g>
</g>
<!-- Node6 -->
<g id="Node000006" class="node">
<title>Node6</title>
<g id="a_Node000006"><a xlink:href="../../db/d15/class_a_e_file_writer.html#a05ceb471801ae111d68859f9d3b9eb78" target="_top" xlink:title="Closes the currently opened file.">
<polygon fill="white" stroke="#666666" points="562,-466 445.5,-466 445.5,-446 562,-446 562,-466"/>
<text text-anchor="middle" x="503.75" y="-452.5" font-family="Helvetica,sans-Serif" font-size="10.00">AEFileWriter::closeFile</text>
</a>
</g>
</g>
<!-- Node5&#45;&gt;Node6 -->
<g id="edge5_Node000005_Node000006" class="edge">
<title>Node5&#45;&gt;Node6</title>
<g id="a_edge5_Node000005_Node000006"><a xlink:title=" ">
<path fill="none" stroke="#63b8ff" d="M386.98,-428.48C405.77,-432.95 427.88,-438.21 447.72,-442.92"/>
<polygon fill="#63b8ff" stroke="#63b8ff" points="446.77,-446.29 457.31,-445.2 448.39,-439.48 446.77,-446.29"/>
</a>
</g>
</g>
<!-- Node7 -->
<g id="Node000007" class="node">
<title>Node7</title>
<g id="a_Node000007"><a xlink:href="../../db/d15/class_a_e_file_writer.html#a26ea7c97bfdbed142df1863d8d47d895" target="_top" xlink:title="Returns the full name of currently open file, including the relative path, if such was provided.">
<polygon fill="white" stroke="#666666" points="577.75,-428 429.75,-428 429.75,-408 577.75,-408 577.75,-428"/>
<text text-anchor="middle" x="503.75" y="-414.5" font-family="Helvetica,sans-Serif" font-size="10.00">AEFileWriter::getFullFileName</text>
</a>
</g>
</g>
<!-- Node5&#45;&gt;Node7 -->
<g id="edge6_Node000005_Node000007" class="edge">
<title>Node5&#45;&gt;Node7</title>
<g id="a_edge6_Node000005_Node000007"><a xlink:title=" ">
<path fill="none" stroke="#63b8ff" d="M393.9,-418C401.69,-418 409.9,-418 418.18,-418"/>
<polygon fill="#63b8ff" stroke="#63b8ff" points="417.97,-421.5 427.97,-418 417.97,-414.5 417.97,-421.5"/>
</a>
</g>
</g>
<!-- Node8 -->
<g id="Node000008" class="node">
<title>Node8</title>
<g id="a_Node000008"><a xlink:href="../../d8/dfc/class_a_e_logger.html#a4d512bf9f4d0a6a1b6a332b9c99e22ac" target="_top" xlink:title="Checks if a log file isn&#39;t open by this logger.">
<polygon fill="white" stroke="#666666" points="960.75,-542 858.5,-542 858.5,-522 960.75,-522 960.75,-542"/>
<text text-anchor="middle" x="909.62" y="-528.5" font-family="Helvetica,sans-Serif" font-size="10.00">AELogger::isClosed</text>
</a>
</g>
</g>
<!-- Node5&#45;&gt;Node8 -->
<g id="edge7_Node000005_Node000008" class="edge">
<title>Node5&#45;&gt;Node8</title>
<g id="a_edge7_Node000005_Node000008"><a xlink:title=" ">
<path fill="none" stroke="#63b8ff" d="M350.88,-428.41C364.78,-445.6 395.22,-479.44 429.75,-494 569.73,-553.01 752.96,-547.28 847.01,-539.07"/>
<polygon fill="#63b8ff" stroke="#63b8ff" points="847.16,-542.57 856.8,-538.17 846.52,-535.6 847.16,-542.57"/>
</a>
</g>
</g>
<!-- Node10 -->
<g id="Node000010" class="node">
<title>Node10</title>
<g id="a_Node000010"><a xlink:href="../../d8/dfc/class_a_e_logger.html#a53b212c259c40bda694476f09d1f171b" target="_top" xlink:title="Stops the log&#45;writing thread (after flushing the log queue).">
<polygon fill="white" stroke="#666666" points="558.62,-390 448.88,-390 448.88,-370 558.62,-370 558.62,-390"/>
<text text-anchor="middle" x="503.75" y="-376.5" font-family="Helvetica,sans-Serif" font-size="10.00">AELogger::stopWriter</text>
</a>
</g>
</g>
<!-- Node5&#45;&gt;Node10 -->
<g id="edge10_Node000005_Node000010" class="edge">
<title>Node5&#45;&gt;Node10</title>
<g id="a_edge10_Node000005_Node000010"><a xlink:title=" ">
<path fill="none" stroke="#63b8ff" d="M386.98,-407.52C405.77,-403.05 427.88,-397.79 447.72,-393.08"/>
<polygon fill="#63b8ff" stroke="#63b8ff" points="448.39,-396.52 457.31,-390.8 446.77,-389.71 448.39,-396.52"/>
</a>
</g>
</g>
<!-- Node5&#45;&gt;Node11 -->
<g id="edge27_Node000005_Node000011" class="edge">
<title>Node5&#45;&gt;Node11</title>
<g id="a_edge27_Node000005_Node000011"><a xlink:title=" ">
<path fill="none" stroke="#63b8ff" d="M353.85,-428.32C369.34,-442.11 399.16,-465.86 429.75,-475 500.52,-496.14 587,-481.8 638.92,-469.15"/>
<polygon fill="#63b8ff" stroke="#63b8ff" points="639.47,-472.62 648.3,-466.78 637.75,-465.84 639.47,-472.62"/>
</a>
</g>
</g>
<!-- Node17 -->
<g id="Node000017" class="node">
<title>Node17</title>
<g id="a_Node000017"><a xlink:href="../../d8/dfc/class_a_e_logger.html#a54bad71bcfea05c3d17d7ba1bacfec8c" target="_top" xlink:title="Writes to log directly, without thinking of the queue.">
<polygon fill="white" stroke="#666666" points="758,-200 613.75,-200 613.75,-180 758,-180 758,-200"/>
<text text-anchor="middle" x="685.88" y="-186.5" font-family="Helvetica,sans-Serif" font-size="10.00">AELogger::writeToLogDirectly</text>
</a>
</g>
</g>
<!-- Node5&#45;&gt;Node17 -->
<g id="edge28_Node000005_Node000017" class="edge">
<title>Node5&#45;&gt;Node17</title>
<g id="a_edge28_Node000005_Node000017"><a xlink:title=" ">
<path fill="none" stroke="#63b8ff" d="M358.46,-407.61C412.65,-371.48 593.21,-251.11 659.87,-206.67"/>
<polygon fill="#63b8ff" stroke="#63b8ff" points="661.56,-209.75 667.94,-201.29 657.68,-203.92 661.56,-209.75"/>
</a>
</g>
</g>
<!-- Node9 -->
<g id="Node000009" class="node">
<title>Node9</title>
<g id="a_Node000009"><a xlink:href="../../db/d15/class_a_e_file_writer.html#a0743145db01b527ae9612f359e5c0090" target="_top" xlink:title="Checks if a file isn&#39;t open by this file&#45;writer.">
<polygon fill="white" stroke="#666666" points="1183.38,-361 1068.38,-361 1068.38,-341 1183.38,-341 1183.38,-361"/>
<text text-anchor="middle" x="1125.88" y="-347.5" font-family="Helvetica,sans-Serif" font-size="10.00">AEFileWriter::isClosed</text>
</a>
</g>
</g>
<!-- Node8&#45;&gt;Node9 -->
<g id="edge8_Node000008_Node000009" class="edge">
<title>Node8&#45;&gt;Node9</title>
<g id="a_edge8_Node000008_Node000009"><a xlink:title=" ">
<path fill="none" stroke="#63b8ff" d="M961.12,-532.67C982.43,-530.77 1006.58,-525.55 1025.25,-513 1076.7,-478.41 1106.27,-407.41 1118.38,-372.02"/>
<polygon fill="#63b8ff" stroke="#63b8ff" points="1121.57,-373.51 1121.35,-362.92 1114.92,-371.34 1121.57,-373.51"/>
</a>
</g>
</g>
<!-- Node9&#45;&gt;Node3 -->
<g id="edge9_Node000009_Node000003" class="edge">
<title>Node9&#45;&gt;Node3</title>
<g id="a_edge9_Node000009_Node000003"><a xlink:title=" ">
<path fill="none" stroke="#63b8ff" d="M1132.31,-340.54C1154.58,-297.67 1239.08,-135.03 1269.03,-77.4"/>
<polygon fill="#63b8ff" stroke="#63b8ff" points="1272.05,-79.17 1273.56,-68.68 1265.84,-75.94 1272.05,-79.17"/>
</a>
</g>
</g>
<!-- Node10&#45;&gt;Node2 -->
<g id="edge11_Node000010_Node000002" class="edge">
<title>Node10&#45;&gt;Node2</title>
<g id="a_edge11_Node000010_Node000002"><a xlink:title=" ">
<path fill="none" stroke="#63b8ff" d="M558.89,-384.57C611.94,-386.86 693.93,-384.47 758,-356 777.83,-347.18 774.49,-332.5 794,-323 797.71,-321.19 801.56,-319.56 805.5,-318.07"/>
<polygon fill="#63b8ff" stroke="#63b8ff" points="806.33,-321.48 814.68,-314.96 804.09,-314.85 806.33,-321.48"/>
</a>
</g>
</g>
<!-- Node10&#45;&gt;Node11 -->
<g id="edge12_Node000010_Node000011" class="edge">
<title>Node10&#45;&gt;Node11</title>
<g id="a_edge12_Node000010_Node000011"><a xlink:title=" ">
<path fill="none" stroke="#63b8ff" d="M551.61,-390.46C560.41,-392.91 569.45,-395.76 577.75,-399 606.46,-410.2 637.34,-427.21 658.53,-439.73"/>
<polygon fill="#63b8ff" stroke="#63b8ff" points="656.71,-442.73 667.09,-444.87 660.32,-436.72 656.71,-442.73"/>
</a>
</g>
</g>
<!-- Node10&#45;&gt;Node17 -->
<g id="edge21_Node000010_Node000017" class="edge">
<title>Node10&#45;&gt;Node17</title>
<g id="a_edge21_Node000010_Node000017"><a xlink:title=" ">
<path fill="none" stroke="#63b8ff" d="M518.26,-369.66C533.38,-357.84 558.3,-337.59 577.75,-318 613.44,-282.05 650.33,-235.52 670.15,-209.62"/>
<polygon fill="#63b8ff" stroke="#63b8ff" points="672.92,-211.75 676.18,-201.67 667.35,-207.52 672.92,-211.75"/>
</a>
</g>
</g>
<!-- Node11&#45;&gt;Node2 -->
<g id="edge13_Node000011_Node000002" class="edge">
<title>Node11&#45;&gt;Node2</title>
<g id="a_edge13_Node000011_Node000002"><a xlink:title=" ">
<path fill="none" stroke="#63b8ff" d="M702.01,-445.53C717.55,-434.21 741.7,-414.94 758,-394 779.74,-366.08 765.47,-343.93 794,-323 795.57,-321.85 797.18,-320.76 798.82,-319.73"/>
<polygon fill="#63b8ff" stroke="#63b8ff" points="800.19,-322.97 807.32,-315.14 796.86,-316.81 800.19,-322.97"/>
</a>
</g>
</g>
<!-- Node11&#45;&gt;Node8 -->
<g id="edge15_Node000011_Node000008" class="edge">
<title>Node11&#45;&gt;Node8</title>
<g id="a_edge15_Node000011_Node000008"><a xlink:title=" ">
<path fill="none" stroke="#63b8ff" d="M702.47,-466.4C722.69,-479.39 759.48,-501.31 794,-513 810.77,-518.68 829.51,-522.7 846.91,-525.53"/>
<polygon fill="#63b8ff" stroke="#63b8ff" points="846.2,-528.96 856.61,-526.99 847.25,-522.04 846.2,-528.96"/>
</a>
</g>
</g>
<!-- Node12 -->
<g id="Node000012" class="node">
<title>Node12</title>
<g id="a_Node000012"><a xlink:href="../../de/dde/namespaceace_1_1utils.html#ac3eadc5f289b54059322023f3c5eed96" target="_top" xlink:title="Checks if the passed string is alpha&#45;numeric with underscores (contains only numbers,...">
<polygon fill="white" stroke="#666666" points="964.88,-466 854.38,-466 854.38,-446 964.88,-446 964.88,-466"/>
<text text-anchor="middle" x="909.62" y="-452.5" font-family="Helvetica,sans-Serif" font-size="10.00">ace::utils::isAlNumUs</text>
</a>
</g>
</g>
<!-- Node11&#45;&gt;Node12 -->
<g id="edge14_Node000011_Node000012" class="edge">
<title>Node11&#45;&gt;Node12</title>
<g id="a_edge14_Node000011_Node000012"><a xlink:title=" ">
<path fill="none" stroke="#63b8ff" d="M741.97,-456C772.61,-456 810.93,-456 843.09,-456"/>
<polygon fill="#63b8ff" stroke="#63b8ff" points="842.68,-459.5 852.68,-456 842.68,-452.5 842.68,-459.5"/>
</a>
</g>
</g>
<!-- Node13 -->
<g id="Node000013" class="node">
<title>Node13</title>
<g id="a_Node000013"><a xlink:href="../../de/dde/namespaceace_1_1utils.html#a878c53ede8589dbc6a50734c9c4ad4d7" target="_top" xlink:title="Checks if the value is within some range.">
<polygon fill="white" stroke="#666666" points="961.88,-428 857.38,-428 857.38,-408 961.88,-408 961.88,-428"/>
<text text-anchor="middle" x="909.62" y="-414.5" font-family="Helvetica,sans-Serif" font-size="10.00">ace::utils::isInRange</text>
</a>
</g>
</g>
<!-- Node11&#45;&gt;Node13 -->
<g id="edge16_Node000011_Node000013" class="edge">
<title>Node11&#45;&gt;Node13</title>
<g id="a_edge16_Node000011_Node000013"><a xlink:title=" ">
<path fill="none" stroke="#63b8ff" d="M741.9,-446.12C758.63,-443.15 777.06,-439.91 794,-437 810.88,-434.1 829.17,-431.04 846.08,-428.24"/>
<polygon fill="#63b8ff" stroke="#63b8ff" points="846.18,-431.77 855.47,-426.68 845.03,-424.86 846.18,-431.77"/>
</a>
</g>
</g>
<!-- Node14 -->
<g id="Node000014" class="node">
<title>Node14</title>
<g id="a_Node000014"><a xlink:href="../../da/dea/struct_a_e_log_entry.html#a42447b345f72f22ec655556af2db7c28" target="_top" xlink:title="Allocates the queue of the given size on the heap and returns the pointer to it&#39;s first node.">
<polygon fill="white" stroke="#666666" points="973.12,-390 846.12,-390 846.12,-370 973.12,-370 973.12,-390"/>
<text text-anchor="middle" x="909.62" y="-376.5" font-family="Helvetica,sans-Serif" font-size="10.00">AELogEntry::makeQueue</text>
</a>
</g>
</g>
<!-- Node11&#45;&gt;Node14 -->
<g id="edge17_Node000011_Node000014" class="edge">
<title>Node11&#45;&gt;Node14</title>
<g id="a_edge17_Node000011_Node000014"><a xlink:title=" ">
<path fill="none" stroke="#63b8ff" d="M702.47,-445.6C722.69,-432.61 759.48,-410.69 794,-399 806.96,-394.61 821.11,-391.21 834.9,-388.59"/>
<polygon fill="#63b8ff" stroke="#63b8ff" points="835.13,-392.1 844.36,-386.91 833.91,-385.21 835.13,-392.1"/>
</a>
</g>
</g>
<!-- Node15 -->
<g id="Node000015" class="node">
<title>Node15</title>
<g id="a_Node000015"><a xlink:href="../../d8/dfc/class_a_e_logger.html#af4bff840ffdcfcb5ecb1251fddbf9690" target="_top" xlink:title="Checks for the given index number and returns the pointer in the queue of log entries.">
<polygon fill="white" stroke="#666666" points="970.5,-352 848.75,-352 848.75,-332 970.5,-332 970.5,-352"/>
<text text-anchor="middle" x="909.62" y="-338.5" font-family="Helvetica,sans-Serif" font-size="10.00">AELogger::ptrFromIndex</text>
</a>
</g>
</g>
<!-- Node11&#45;&gt;Node15 -->
<g id="edge18_Node000011_Node000015" class="edge">
<title>Node11&#45;&gt;Node15</title>
<g id="a_edge18_Node000011_Node000015"><a xlink:title=" ">
<path fill="none" stroke="#63b8ff" d="M699.04,-445.56C713.26,-433.31 737.48,-412.34 758,-394 774.18,-379.53 774.49,-370.5 794,-361 807.3,-354.53 822.38,-350.2 837.13,-347.33"/>
<polygon fill="#63b8ff" stroke="#63b8ff" points="837.56,-350.8 846.82,-345.66 836.37,-343.91 837.56,-350.8"/>
</a>
</g>
</g>
<!-- Node16 -->
<g id="Node000016" class="node">
<title>Node16</title>
<g id="a_Node000016"><a xlink:href="../../d8/dfc/class_a_e_logger.html#a50dfd96a74d13471faebd4de499db5bf" target="_top" xlink:title="Request a debug log entry to be written to the opened log file.">
<polygon fill="white" stroke="#666666" points="979.12,-504 840.12,-504 840.12,-484 979.12,-484 979.12,-504"/>
<text text-anchor="middle" x="909.62" y="-490.5" font-family="Helvetica,sans-Serif" font-size="10.00">AELogger::writeToLogDebug</text>
</a>
</g>
</g>
<!-- Node11&#45;&gt;Node16 -->
<g id="edge19_Node000011_Node000016" class="edge">
<title>Node11&#45;&gt;Node16</title>
<g id="a_edge19_Node000011_Node000016"><a xlink:title=" ">
<path fill="none" stroke="#63b8ff" d="M741.9,-457.29C758.63,-459.85 777.06,-463.09 794,-466 821.26,-470.68 852.2,-475.79 875.05,-480.92"/>
<polygon fill="#63b8ff" stroke="#63b8ff" points="874.2,-484.31 884.74,-483.25 875.83,-477.51 874.2,-484.31"/>
</a>
</g>
</g>
<!-- Node16&#45;&gt;Node11 -->
<g id="edge20_Node000016_Node000011" class="edge">
<title>Node16&#45;&gt;Node11</title>
<g id="a_edge20_Node000016_Node000011"><a xlink:title=" ">
<path fill="none" stroke="#63b8ff" d="M839.81,-491.5C824.71,-489.21 808.81,-486.54 794,-484 768.55,-479.63 739.74,-474.51 718.41,-469.32"/>
<polygon fill="#63b8ff" stroke="#63b8ff" points="719.42,-465.97 708.86,-466.81 717.65,-472.74 719.42,-465.97"/>
</a>
</g>
</g>
<!-- Node18 -->
<g id="Node000018" class="node">
<title>Node18</title>
<g id="a_Node000018"><a xlink:href="../../db/d15/class_a_e_file_writer.html#a0c238267ee45ca15672d4e9246cdca2c" target="_top" xlink:title="Flushes the opened file.">
<polygon fill="white" stroke="#666666" points="966.38,-238 852.88,-238 852.88,-218 966.38,-218 966.38,-238"/>
<text text-anchor="middle" x="909.62" y="-224.5" font-family="Helvetica,sans-Serif" font-size="10.00">AEFileWriter::flushFile</text>
</a>
</g>
</g>
<!-- Node17&#45;&gt;Node18 -->
<g id="edge22_Node000017_Node000018" class="edge">
<title>Node17&#45;&gt;Node18</title>
<g id="a_edge22_Node000017_Node000018"><a xlink:title=" ">
<path fill="none" stroke="#63b8ff" d="M748.06,-200.48C777.04,-205.45 811.74,-211.4 841.46,-216.49"/>
<polygon fill="#63b8ff" stroke="#63b8ff" points="840.64,-219.9 851.09,-218.14 841.82,-213 840.64,-219.9"/>
</a>
</g>
</g>
<!-- Node19 -->
<g id="Node000019" class="node">
<title>Node19</title>
<g id="a_Node000019"><a xlink:href="../../da/dea/struct_a_e_log_entry.html#ab803ea47d06098feab470f265498f617" target="_top" xlink:title="Formats the passed entry to the given c&#45;string.">
<polygon fill="white" stroke="#666666" points="972,-124 847.25,-124 847.25,-104 972,-104 972,-124"/>
<text text-anchor="middle" x="909.62" y="-110.5" font-family="Helvetica,sans-Serif" font-size="10.00">AELogEntry::formatEntry</text>
</a>
</g>
</g>
<!-- Node17&#45;&gt;Node19 -->
<g id="edge23_Node000017_Node000019" class="edge">
<title>Node17&#45;&gt;Node19</title>
<g id="a_edge23_Node000017_Node000019"><a xlink:title=" ">
<path fill="none" stroke="#63b8ff" d="M732.14,-179.55C740.84,-177.08 749.79,-174.22 758,-171 774.85,-164.4 777.36,-159.09 794,-152 815.58,-142.8 840.19,-134.39 861.07,-127.82"/>
<polygon fill="#63b8ff" stroke="#63b8ff" points="861.95,-131.21 870.47,-124.92 859.88,-124.53 861.95,-131.21"/>
</a>
</g>
</g>
<!-- Node22 -->
<g id="Node000022" class="node">
<title>Node22</title>
<g id="a_Node000022"><a xlink:href="../../db/d15/class_a_e_file_writer.html#a01d537821c5760615e126f1c159b67da" target="_top" xlink:title="Write binary data, as is, to file, and flush if necessary.">
<polygon fill="white" stroke="#666666" points="976.88,-181 842.38,-181 842.38,-161 976.88,-161 976.88,-181"/>
<text text-anchor="middle" x="909.62" y="-167.5" font-family="Helvetica,sans-Serif" font-size="10.00">AEFileWriter::writeData_ptr</text>
</a>
</g>
</g>
<!-- Node17&#45;&gt;Node22 -->
<g id="edge26_Node000017_Node000022" class="edge">
<title>Node17&#45;&gt;Node22</title>
<g id="a_edge26_Node000017_Node000022"><a xlink:title=" ">
<path fill="none" stroke="#63b8ff" d="M758.26,-183.88C781.33,-181.91 807.02,-179.71 830.54,-177.69"/>
<polygon fill="#63b8ff" stroke="#63b8ff" points="830.72,-181.19 840.39,-176.85 830.13,-174.21 830.72,-181.19"/>
</a>
</g>
</g>
<!-- Node20 -->
<g id="Node000020" class="node">
<title>Node20</title>
<g id="a_Node000020"><a xlink:href="../../de/dde/namespaceace_1_1utils.html#a2458b79e1a70255b471414a4bb5680ce" target="_top" xlink:title="Formats the current **(c)time point as YYYY&#45;MM&#45;DD.HH:mm:SS string**.">
<polygon fill="white" stroke="#666666" points="1180.38,-143 1071.38,-143 1071.38,-123 1180.38,-123 1180.38,-143"/>
<text text-anchor="middle" x="1125.88" y="-129.5" font-family="Helvetica,sans-Serif" font-size="10.00">ace::utils::formatDate</text>
</a>
</g>
</g>
<!-- Node19&#45;&gt;Node20 -->
<g id="edge24_Node000019_Node000020" class="edge">
<title>Node19&#45;&gt;Node20</title>
<g id="a_edge24_Node000019_Node000020"><a xlink:title=" ">
<path fill="none" stroke="#63b8ff" d="M972.31,-119.47C999.69,-121.9 1031.93,-124.76 1059.7,-127.22"/>
<polygon fill="#63b8ff" stroke="#63b8ff" points="1059.13,-130.68 1069.4,-128.08 1059.74,-123.71 1059.13,-130.68"/>
</a>
</g>
</g>
<!-- Node21 -->
<g id="Node000021" class="node">
<title>Node21</title>
<g id="a_Node000021"><a xlink:href="../../da/dea/struct_a_e_log_entry.html#a958d25c57a94cfae8e7f31843e6c63ef" target="_top" xlink:title="Deduces the entry&#39;s log type and returns a c&#45;string of it.">
<polygon fill="white" stroke="#666666" points="1190.5,-105 1061.25,-105 1061.25,-85 1190.5,-85 1190.5,-105"/>
<text text-anchor="middle" x="1125.88" y="-91.5" font-family="Helvetica,sans-Serif" font-size="10.00">AELogEntry::typeToString</text>
</a>
</g>
</g>
<!-- Node19&#45;&gt;Node21 -->
<g id="edge25_Node000019_Node000021" class="edge">
<title>Node19&#45;&gt;Node21</title>
<g id="a_edge25_Node000019_Node000021"><a xlink:title=" ">
<path fill="none" stroke="#63b8ff" d="M972.31,-108.53C996.43,-106.39 1024.32,-103.92 1049.61,-101.67"/>
<polygon fill="#63b8ff" stroke="#63b8ff" points="1049.86,-105.17 1059.51,-100.8 1049.24,-98.19 1049.86,-105.17"/>
</a>
</g>
</g>
<!-- Node23&#45;&gt;Node2 -->
<g id="edge34_Node000023_Node000002" class="edge">
<title>Node23&#45;&gt;Node2</title>
<g id="a_edge34_Node000023_Node000002"><a xlink:title=" ">
<path fill="none" stroke="#63b8ff" d="M532.77,-200.49C554.66,-208.51 585.94,-219.58 613.75,-228 695.87,-252.85 792.38,-276.74 852.03,-290.89"/>
<polygon fill="#63b8ff" stroke="#63b8ff" points="851.08,-294.27 861.61,-293.16 852.69,-287.45 851.08,-294.27"/>
</a>
</g>
</g>
<!-- Node23&#45;&gt;Node11 -->
<g id="edge37_Node000023_Node000011" class="edge">
<title>Node23&#45;&gt;Node11</title>
<g id="a_edge37_Node000023_Node000011"><a xlink:title=" ">
<path fill="none" stroke="#63b8ff" d="M511.81,-200.43C538.82,-240.32 635.89,-383.65 671.58,-436.37"/>
<polygon fill="#63b8ff" stroke="#63b8ff" points="668.51,-438.07 677.01,-444.39 674.31,-434.15 668.51,-438.07"/>
</a>
</g>
</g>
<!-- Node23&#45;&gt;Node17 -->
<g id="edge38_Node000023_Node000017" class="edge">
<title>Node23&#45;&gt;Node17</title>
<g id="a_edge38_Node000023_Node000017"><a xlink:title=" ">
<path fill="none" stroke="#63b8ff" d="M570.54,-190C580.8,-190 591.52,-190 602.09,-190"/>
<polygon fill="#63b8ff" stroke="#63b8ff" points="601.98,-193.5 611.98,-190 601.98,-186.5 601.98,-193.5"/>
</a>
</g>
</g>
<!-- Node23&#45;&gt;Node18 -->
<g id="edge32_Node000023_Node000018" class="edge">
<title>Node23&#45;&gt;Node18</title>
<g id="a_edge32_Node000023_Node000018"><a xlink:title=" ">
<path fill="none" stroke="#63b8ff" d="M558.08,-200.48C575.74,-203.64 595.53,-206.83 613.75,-209 691.52,-218.26 781.39,-223.23 841.28,-225.74"/>
<polygon fill="#63b8ff" stroke="#63b8ff" points="840.83,-229.22 850.97,-226.13 841.12,-222.23 840.83,-229.22"/>
</a>
</g>
</g>
<!-- Node23&#45;&gt;Node19 -->
<g id="edge33_Node000023_Node000019" class="edge">
<title>Node23&#45;&gt;Node19</title>
<g id="a_edge33_Node000023_Node000019"><a xlink:title=" ">
<path fill="none" stroke="#63b8ff" d="M510.39,-179.57C524.19,-155.29 562.33,-95.37 613.75,-73 703.28,-34.05 821.24,-74.91 876.93,-99"/>
<polygon fill="#63b8ff" stroke="#63b8ff" points="875.26,-102.09 885.82,-102.95 878.11,-95.69 875.26,-102.09"/>
</a>
</g>
</g>
<!-- Node23&#45;&gt;Node22 -->
<g id="edge36_Node000023_Node000022" class="edge">
<title>Node23&#45;&gt;Node22</title>
<g id="a_edge36_Node000023_Node000022"><a xlink:title=" ">
<path fill="none" stroke="#63b8ff" d="M512.31,-179.64C528.26,-158.78 567.68,-112.26 613.75,-95 673.79,-72.51 699.11,-69.67 758,-95 779.37,-104.19 774.37,-120.52 794,-133 810.63,-143.57 830.51,-151.51 849.01,-157.31"/>
<polygon fill="#63b8ff" stroke="#63b8ff" points="847.97,-160.66 858.55,-160.14 849.96,-153.94 847.97,-160.66"/>
</a>
</g>
</g>
<!-- Node24 -->
<g id="Node000024" class="node">
<title>Node24</title>
<g id="a_Node000024"><a xlink:href="../../da/dea/struct_a_e_log_entry.html#a58aeadbca0c2c0863b534a52d40d22a8" target="_top" xlink:title="Clears the current entry and sets its values to zero/invalid.">
<polygon fill="white" stroke="#666666" points="745.25,-162 626.5,-162 626.5,-142 745.25,-142 745.25,-162"/>
<text text-anchor="middle" x="685.88" y="-148.5" font-family="Helvetica,sans-Serif" font-size="10.00">AELogEntry::clearEntry</text>
</a>
</g>
</g>
<!-- Node23&#45;&gt;Node24 -->
<g id="edge31_Node000023_Node000024" class="edge">
<title>Node23&#45;&gt;Node24</title>
<g id="a_edge31_Node000023_Node000024"><a xlink:title=" ">
<path fill="none" stroke="#63b8ff" d="M554.45,-179.52C576,-174.97 601.45,-169.6 624.12,-164.82"/>
<polygon fill="#63b8ff" stroke="#63b8ff" points="624.8,-168.25 633.86,-162.76 623.35,-161.4 624.8,-168.25"/>
</a>
</g>
</g>
<!-- Node25 -->
<g id="Node000025" class="node">
<title>Node25</title>
<g id="a_Node000025"><a xlink:href="../../de/dde/namespaceace_1_1utils.html#ae3cab8babc7164fe97d71c65b247e848" target="_top" xlink:title="Convenient sleep function to sleep the thread for microseconds.">
<polygon fill="white" stroke="#666666" points="735.12,-124 636.62,-124 636.62,-104 735.12,-104 735.12,-124"/>
<text text-anchor="middle" x="685.88" y="-110.5" font-family="Helvetica,sans-Serif" font-size="10.00">ace::utils::sleepUS</text>
</a>
</g>
</g>
<!-- Node23&#45;&gt;Node25 -->
<g id="edge35_Node000023_Node000025" class="edge">
<title>Node23&#45;&gt;Node25</title>
<g id="a_edge35_Node000023_Node000025"><a xlink:title=" ">
<path fill="none" stroke="#63b8ff" d="M521.57,-179.7C542.52,-167.23 579.72,-146.25 613.75,-133 618.63,-131.1 623.77,-129.32 628.96,-127.67"/>
<polygon fill="#63b8ff" stroke="#63b8ff" points="629.6,-131.14 638.17,-124.91 627.59,-124.43 629.6,-131.14"/>
</a>
</g>
</g>
</g>
</svg>

<g id="navigator" transform="translate(0 0)" fill="#404254">
  <rect fill="#f2f5e9" fill-opacity="0.5" stroke="#606060" stroke-width=".5" x="0" y="0" width="60" height="60"/>
  <use id="zoomplus" xlink:href="#zoomPlus" x="17" y="9" onmousedown="handleZoom(evt,'in')"/>
  <use id="zoomminus" xlink:href="#zoomMin" x="42" y="9" onmousedown="handleZoom(evt,'out')"/>
  <use id="reset" xlink:href="#resetDef" x="30" y="36" onmousedown="handleReset()"/>
   <use id="arrowup" xlink:href="#arrowUp" x="0" y="0" onmousedown="handlePan(0,-1)"/>
  <use id="arrowright" xlink:href="#arrowRight" x="0" y="0" onmousedown="handlePan(1,0)"/>
  <use id="arrowdown" xlink:href="#arrowDown" x="0" y="0" onmousedown="handlePan(0,1)"/>
  <use id="arrowleft" xlink:href="#arrowLeft" x="0" y="0" onmousedown="handlePan(-1,0)"/>
</g>
<svg viewBox="0 0 15 15" width="100%" height="30px" preserveAspectRatio="xMaxYMin meet">
 <g id="arrow_out" transform="scale(0.3 0.3)">
  <a xlink:href="class_a_e_logger_a134f36542cb09532588436c53df9653d_cgraph_org.svg" target="_base">
   <rect id="button" ry="5" rx="5" y="6" x="6" height="38" width="38"
        fill="#f2f5e9" fill-opacity="0.5" stroke="#606060" stroke-width="1.0"/>
   <path id="arrow"
     d="M 11.500037,31.436501 C 11.940474,20.09759 22.043105,11.32322 32.158766,21.979434 L 37.068811,17.246167 C 37.068811,17.246167 37.088388,32 37.088388,32 L 22.160133,31.978069 C 22.160133,31.978069 26.997745,27.140456 26.997745,27.140456 C 18.528582,18.264221 13.291696,25.230495 11.500037,31.436501 z"
     style="fill:#404040;"/>
  </a>
 </g>
</svg>

<style type='text/css'>
<![CDATA[
[data-mouse-over-selected='false'] { opacity: 0.7; }
[data-mouse-over-selected='true']  { opacity: 1.0; }
]]>
</style>
<script type="application/ecmascript"><![CDATA[
document.addEventListener('DOMContentLoaded', (event) => {
  highlightEdges();
  highlightAdjacentNodes();
});
]]></script>
</svg>
