<?xml version="1.0" encoding="UTF-8" standalone="no"?>
<!DOCTYPE svg PUBLIC "-//W3C//DTD SVG 1.1//EN"
 "http://www.w3.org/Graphics/SVG/1.1/DTD/svg11.dtd">
<!-- Generated by graphviz version 10.0.1 (20240210.2158)
 -->
<!-- Title: AELogger::writeToLogDebug Pages: 1 -->
<svg width="857pt" height="218pt"
 viewBox="0.00 0.00 856.75 218.00" xmlns="http://www.w3.org/2000/svg" xmlns:xlink="http://www.w3.org/1999/xlink">
<g id="graph0" class="graph" transform="scale(1 1) rotate(0) translate(4 214)">
<title>AELogger::writeToLogDebug</title>
<!-- Node1 -->
<g id="Node000001" class="node">
<title>Node1</title>
<g id="a_Node000001"><a xlink:title="Request a debug log entry to be written to the opened log file.">
<polygon fill="#999999" stroke="#666666" points="139,-115 0,-115 0,-95 139,-95 139,-115"/>
<text text-anchor="middle" x="69.5" y="-101.5" font-family="Helvetica,sans-Serif" font-size="10.00">AELogger::writeToLogDebug</text>
</a>
</g>
</g>
<!-- Node2 -->
<g id="Node000002" class="node">
<title>Node2</title>
<g id="a_Node000002"><a xlink:href="../../d8/dfc/class_a_e_logger.html#ac533941173224cb21fe09326726ce754" target="_top" xlink:title="Request a log entry to be written to the opened log file.">
<polygon fill="white" stroke="#666666" points="286.25,-115 175,-115 175,-95 286.25,-95 286.25,-115"/>
<text text-anchor="middle" x="230.62" y="-101.5" font-family="Helvetica,sans-Serif" font-size="10.00">AELogger::writeToLog</text>
</a>
</g>
</g>
<!-- Node1&#45;&gt;Node2 -->
<g id="edge1_Node000001_Node000002" class="edge">
<title>Node1&#45;&gt;Node2</title>
<g id="a_edge1_Node000001_Node000002"><a xlink:title=" ">
<path fill="none" stroke="#63b8ff" d="M139.37,-98.3C147.27,-98.22 155.31,-98.23 163.18,-98.33"/>
<polygon fill="#63b8ff" stroke="#63b8ff" points="162.97,-101.83 173.03,-98.51 163.1,-94.83 162.97,-101.83"/>
</a>
</g>
</g>
<!-- Node2&#45;&gt;Node1 -->
<g id="edge10_Node000002_Node000001" class="edge">
<title>Node2&#45;&gt;Node1</title>
<g id="a_edge10_Node000002_Node000001"><a xlink:title=" ">
<path fill="none" stroke="#63b8ff" d="M174.55,-111.46C166.84,-111.65 158.79,-111.74 150.73,-111.75"/>
<polygon fill="#63b8ff" stroke="#63b8ff" points="150.9,-108.25 140.88,-111.7 150.87,-115.25 150.9,-108.25"/>
</a>
</g>
</g>
<!-- Node3 -->
<g id="Node000003" class="node">
<title>Node3</title>
<g id="a_Node000003"><a xlink:href="../../d0/d8a/class_____a_e_module_base.html#a625c82f27195de3f9ab5af4fc7437e2f" target="_top" xlink:title="Get the name of the module.">
<polygon fill="white" stroke="#666666" points="553.5,-210 322.25,-210 322.25,-190 553.5,-190 553.5,-210"/>
<text text-anchor="middle" x="437.88" y="-196.5" font-family="Helvetica,sans-Serif" font-size="10.00">__AEModuleBase&lt; AELogger &gt;::getModuleName</text>
</a>
</g>
</g>
<!-- Node2&#45;&gt;Node3 -->
<g id="edge2_Node000002_Node000003" class="edge">
<title>Node2&#45;&gt;Node3</title>
<g id="a_edge2_Node000002_Node000003"><a xlink:title=" ">
<path fill="none" stroke="#63b8ff" d="M240.46,-115.36C255.43,-132.15 287.55,-165.04 322.25,-181 326.31,-182.87 330.52,-184.55 334.84,-186.08"/>
<polygon fill="#63b8ff" stroke="#63b8ff" points="333.69,-189.38 344.28,-189.07 335.81,-182.71 333.69,-189.38"/>
</a>
</g>
</g>
<!-- Node4 -->
<g id="Node000004" class="node">
<title>Node4</title>
<g id="a_Node000004"><a xlink:href="../../de/dde/namespaceace_1_1utils.html#ac3eadc5f289b54059322023f3c5eed96" target="_top" xlink:title="Checks if the passed string is alpha&#45;numeric with underscores (contains only numbers,...">
<polygon fill="white" stroke="#666666" points="493.12,-172 382.62,-172 382.62,-152 493.12,-152 493.12,-172"/>
<text text-anchor="middle" x="437.88" y="-158.5" font-family="Helvetica,sans-Serif" font-size="10.00">ace::utils::isAlNumUs</text>
</a>
</g>
</g>
<!-- Node2&#45;&gt;Node4 -->
<g id="edge3_Node000002_Node000004" class="edge">
<title>Node2&#45;&gt;Node4</title>
<g id="a_edge3_Node000002_Node000004"><a xlink:title=" ">
<path fill="none" stroke="#63b8ff" d="M252.36,-115.33C270.41,-123.93 297.5,-135.86 322.25,-143 337.92,-147.52 355.12,-151.08 371.33,-153.83"/>
<polygon fill="#63b8ff" stroke="#63b8ff" points="370.44,-157.23 380.87,-155.37 371.55,-150.32 370.44,-157.23"/>
</a>
</g>
</g>
<!-- Node5 -->
<g id="Node000005" class="node">
<title>Node5</title>
<g id="a_Node000005"><a xlink:href="../../d8/dfc/class_a_e_logger.html#a4d512bf9f4d0a6a1b6a332b9c99e22ac" target="_top" xlink:title="Checks if a log file isn&#39;t open by this logger.">
<polygon fill="white" stroke="#666666" points="489,-134 386.75,-134 386.75,-114 489,-114 489,-134"/>
<text text-anchor="middle" x="437.88" y="-120.5" font-family="Helvetica,sans-Serif" font-size="10.00">AELogger::isClosed</text>
</a>
</g>
</g>
<!-- Node2&#45;&gt;Node5 -->
<g id="edge4_Node000002_Node000005" class="edge">
<title>Node2&#45;&gt;Node5</title>
<g id="a_edge4_Node000002_Node000005"><a xlink:title=" ">
<path fill="none" stroke="#63b8ff" d="M286.63,-110.09C313.87,-112.61 346.86,-115.67 374.98,-118.27"/>
<polygon fill="#63b8ff" stroke="#63b8ff" points="374.51,-121.74 384.79,-119.18 375.16,-114.77 374.51,-121.74"/>
</a>
</g>
</g>
<!-- Node8 -->
<g id="Node000008" class="node">
<title>Node8</title>
<g id="a_Node000008"><a xlink:href="../../de/dde/namespaceace_1_1utils.html#a878c53ede8589dbc6a50734c9c4ad4d7" target="_top" xlink:title="Checks if the value is within some range.">
<polygon fill="white" stroke="#666666" points="490.12,-96 385.62,-96 385.62,-76 490.12,-76 490.12,-96"/>
<text text-anchor="middle" x="437.88" y="-82.5" font-family="Helvetica,sans-Serif" font-size="10.00">ace::utils::isInRange</text>
</a>
</g>
</g>
<!-- Node2&#45;&gt;Node8 -->
<g id="edge7_Node000002_Node000008" class="edge">
<title>Node2&#45;&gt;Node8</title>
<g id="a_edge7_Node000002_Node000008"><a xlink:title=" ">
<path fill="none" stroke="#63b8ff" d="M286.63,-99.91C313.55,-97.42 346.1,-94.4 374.01,-91.82"/>
<polygon fill="#63b8ff" stroke="#63b8ff" points="374.11,-95.33 383.74,-90.92 373.46,-88.36 374.11,-95.33"/>
</a>
</g>
</g>
<!-- Node9 -->
<g id="Node000009" class="node">
<title>Node9</title>
<g id="a_Node000009"><a xlink:href="../../da/dea/struct_a_e_log_entry.html#a42447b345f72f22ec655556af2db7c28" target="_top" xlink:title="Allocates the queue of the given size on the heap and returns the pointer to it&#39;s first node.">
<polygon fill="white" stroke="#666666" points="501.38,-58 374.38,-58 374.38,-38 501.38,-38 501.38,-58"/>
<text text-anchor="middle" x="437.88" y="-44.5" font-family="Helvetica,sans-Serif" font-size="10.00">AELogEntry::makeQueue</text>
</a>
</g>
</g>
<!-- Node2&#45;&gt;Node9 -->
<g id="edge8_Node000002_Node000009" class="edge">
<title>Node2&#45;&gt;Node9</title>
<g id="a_edge8_Node000002_Node000009"><a xlink:title=" ">
<path fill="none" stroke="#63b8ff" d="M252.36,-94.67C270.41,-86.07 297.5,-74.14 322.25,-67 335.2,-63.27 349.19,-60.19 362.81,-57.68"/>
<polygon fill="#63b8ff" stroke="#63b8ff" points="363.38,-61.13 372.63,-55.96 362.18,-54.24 363.38,-61.13"/>
</a>
</g>
</g>
<!-- Node10 -->
<g id="Node000010" class="node">
<title>Node10</title>
<g id="a_Node000010"><a xlink:href="../../d8/dfc/class_a_e_logger.html#af4bff840ffdcfcb5ecb1251fddbf9690" target="_top" xlink:title="Checks for the given index number and returns the pointer in the queue of log entries.">
<polygon fill="white" stroke="#666666" points="498.75,-20 377,-20 377,0 498.75,0 498.75,-20"/>
<text text-anchor="middle" x="437.88" y="-6.5" font-family="Helvetica,sans-Serif" font-size="10.00">AELogger::ptrFromIndex</text>
</a>
</g>
</g>
<!-- Node2&#45;&gt;Node10 -->
<g id="edge9_Node000002_Node000010" class="edge">
<title>Node2&#45;&gt;Node10</title>
<g id="a_edge9_Node000002_Node000010"><a xlink:title=" ">
<path fill="none" stroke="#63b8ff" d="M240.46,-94.64C255.43,-77.85 287.55,-44.96 322.25,-29 335.69,-22.82 350.83,-18.62 365.59,-15.78"/>
<polygon fill="#63b8ff" stroke="#63b8ff" points="366.03,-19.25 375.29,-14.11 364.84,-12.36 366.03,-19.25"/>
</a>
</g>
</g>
<!-- Node6 -->
<g id="Node000006" class="node">
<title>Node6</title>
<g id="a_Node000006"><a xlink:href="../../db/d15/class_a_e_file_writer.html#a0743145db01b527ae9612f359e5c0090" target="_top" xlink:title="Checks if a file isn&#39;t open by this file&#45;writer.">
<polygon fill="white" stroke="#666666" points="704.5,-134 589.5,-134 589.5,-114 704.5,-114 704.5,-134"/>
<text text-anchor="middle" x="647" y="-120.5" font-family="Helvetica,sans-Serif" font-size="10.00">AEFileWriter::isClosed</text>
</a>
</g>
</g>
<!-- Node5&#45;&gt;Node6 -->
<g id="edge5_Node000005_Node000006" class="edge">
<title>Node5&#45;&gt;Node6</title>
<g id="a_edge5_Node000005_Node000006"><a xlink:title=" ">
<path fill="none" stroke="#63b8ff" d="M489.28,-124C515.92,-124 549,-124 577.89,-124"/>
<polygon fill="#63b8ff" stroke="#63b8ff" points="577.63,-127.5 587.63,-124 577.63,-120.5 577.63,-127.5"/>
</a>
</g>
</g>
<!-- Node7 -->
<g id="Node000007" class="node">
<title>Node7</title>
<g id="a_Node000007"><a xlink:href="../../db/d15/class_a_e_file_writer.html#a47e3c08c276394bce7b612331cf4762d" target="_top" xlink:title="Checks if a file is open by this file&#45;writer.">
<polygon fill="white" stroke="#666666" points="848.75,-134 740.5,-134 740.5,-114 848.75,-114 848.75,-134"/>
<text text-anchor="middle" x="794.62" y="-120.5" font-family="Helvetica,sans-Serif" font-size="10.00">AEFileWriter::isOpen</text>
</a>
</g>
</g>
<!-- Node6&#45;&gt;Node7 -->
<g id="edge6_Node000006_Node000007" class="edge">
<title>Node6&#45;&gt;Node7</title>
<g id="a_edge6_Node000006_Node000007"><a xlink:title=" ">
<path fill="none" stroke="#63b8ff" d="M704.72,-124C712.64,-124 720.84,-124 728.9,-124"/>
<polygon fill="#63b8ff" stroke="#63b8ff" points="728.65,-127.5 738.65,-124 728.65,-120.5 728.65,-127.5"/>
</a>
</g>
</g>
</g>
</svg>
