<?xml version="1.0" encoding="UTF-8" standalone="no"?>
<!DOCTYPE svg PUBLIC "-//W3C//DTD SVG 1.1//EN"
 "http://www.w3.org/Graphics/SVG/1.1/DTD/svg11.dtd">
<!-- Generated by graphviz version 10.0.1 (20240210.2158)
 -->
<!-- Title: AELogger::openLog Pages: 1 -->
<!--zoomable 669 -->

<svg id="main" version="1.1" xmlns="http://www.w3.org/2000/svg" xmlns:xlink="http://www.w3.org/1999/xlink" xml:space="preserve" onload="init(evt)">
<style type="text/css"><![CDATA[
.node, .edge {opacity: 0.7;}
.node.selected, .edge.selected {opacity: 1;}
.edge:hover path { stroke: red; }
.edge:hover polygon { stroke: red; fill: red; }
]]></style>

<defs>
  <circle id="rim" cx="0" cy="0" r="7"/>
  <circle id="rim2" cx="0" cy="0" r="3.5"/>
  <g id="zoomPlus">
    <use xlink:href="#rim" fill="#404040"><set attributeName="fill" to="#808080" begin="zoomplus.mouseover" end="zoomplus.mouseout"/></use>
    <path d="M-4,0h8M0,-4v8" fill="none" stroke="white" stroke-width="1.5" pointer-events="none"/>
  </g>
  <g id="zoomMin">
    <use xlink:href="#rim" fill="#404040"><set attributeName="fill" to="#808080" begin="zoomminus.mouseover" end="zoomminus.mouseout"/></use>
    <path d="M-4,0h8" fill="none" stroke="white" stroke-width="1.5" pointer-events="none"/>
  </g>
  <g id="arrowUp" transform="translate(30 24)">
    <use xlink:href="#rim"/>
    <path pointer-events="none" fill="none" stroke="white" stroke-width="1.5" d="M0,-3.0v7 M-2.5,-0.5L0,-3.0L2.5,-0.5"/>
  </g>
  <g id="arrowRight" transform="rotate(90) translate(36 -43)">
    <use xlink:href="#rim"/>
    <path pointer-events="none" fill="none" stroke="white" stroke-width="1.5" d="M0,-3.0v7 M-2.5,-0.5L0,-3.0L2.5,-0.5"/>
  </g>
  <g id="arrowDown" transform="rotate(180) translate(-30 -48)">
    <use xlink:href="#rim"/>
    <path pointer-events="none" fill="none" stroke="white" stroke-width="1.5" d="M0,-3.0v7 M-2.5,-0.5L0,-3.0L2.5,-0.5"/>
  </g>
  <g id="arrowLeft" transform="rotate(270) translate(-36 17)">
    <use xlink:href="#rim"/>
    <path pointer-events="none" fill="none" stroke="white" stroke-width="1.5" d="M0,-3.0v7 M-2.5,-0.5L0,-3.0L2.5,-0.5"/>
  </g>
  <g id="resetDef">
    <use xlink:href="#rim2" fill="#404040"><set attributeName="fill" to="#808080" begin="reset.mouseover" end="reset.mouseout"/></use>
  </g>
</defs>
<script type="application/ecmascript">
var viewWidth = 1474;
var viewHeight = 669;
var sectionId = 'dynsection-11';
</script>
<script type="application/ecmascript" xlink:href="../../svg.min.js"/>
<svg id="graph" class="graph">
<g id="viewport">
<title>AELogger::openLog</title>
<!-- Node1 -->
<g id="Node000001" class="node">
<title>Node1</title>
<g id="a_Node000001"><a xlink:title="Open the file to start logging.">
<polygon fill="#999999" stroke="#666666" points="101.5,-471 0,-471 0,-451 101.5,-451 101.5,-471"/>
<text text-anchor="middle" x="50.75" y="-457.5" font-family="Helvetica,sans-Serif" font-size="10.00">AELogger::openLog</text>
</a>
</g>
</g>
<!-- Node2 -->
<g id="Node000002" class="node">
<title>Node2</title>
<g id="a_Node000002"><a xlink:href="../../d8/dfc/class_a_e_logger.html#a53b588f9874535299d612a4c71de9950" target="_top" xlink:title="Open the file to start logging.">
<polygon fill="white" stroke="#666666" points="239,-471 137.5,-471 137.5,-451 239,-451 239,-471"/>
<text text-anchor="middle" x="188.25" y="-457.5" font-family="Helvetica,sans-Serif" font-size="10.00">AELogger::openLog</text>
</a>
</g>
</g>
<!-- Node1&#45;&gt;Node2 -->
<g id="edge1_Node000001_Node000002" class="edge">
<title>Node1&#45;&gt;Node2</title>
<g id="a_edge1_Node000001_Node000002"><a xlink:title=" ">
<path fill="none" stroke="#63b8ff" d="M101.82,-461C109.71,-461 117.95,-461 126.06,-461"/>
<polygon fill="#63b8ff" stroke="#63b8ff" points="125.87,-464.5 135.87,-461 125.87,-457.5 125.87,-464.5"/>
</a>
</g>
</g>
<!-- Node3 -->
<g id="Node000003" class="node">
<title>Node3</title>
<g id="a_Node000003"><a xlink:href="../../d0/d8a/class_____a_e_module_base.html#a625c82f27195de3f9ab5af4fc7437e2f" target="_top" xlink:title="Get the name of the module.">
<polygon fill="white" stroke="#666666" points="1156.75,-319 925.5,-319 925.5,-299 1156.75,-299 1156.75,-319"/>
<text text-anchor="middle" x="1041.12" y="-305.5" font-family="Helvetica,sans-Serif" font-size="10.00">__AEModuleBase&lt; AELogger &gt;::getModuleName</text>
</a>
</g>
</g>
<!-- Node2&#45;&gt;Node3 -->
<g id="edge2_Node000002_Node000003" class="edge">
<title>Node2&#45;&gt;Node3</title>
<g id="a_edge2_Node000002_Node000003"><a xlink:title=" ">
<path fill="none" stroke="#63b8ff" d="M196.95,-450.51C227.18,-410.68 342.44,-271 472.38,-271 472.38,-271 472.38,-271 636.25,-271 748.92,-271 878.49,-285.84 959.84,-296.97"/>
<polygon fill="#63b8ff" stroke="#63b8ff" points="959.1,-300.4 969.49,-298.31 960.06,-293.47 959.1,-300.4"/>
</a>
</g>
</g>
<!-- Node4 -->
<g id="Node000004" class="node">
<title>Node4</title>
<g id="a_Node000004"><a xlink:href="../../db/d15/class_a_e_file_writer.html#a939fe602eecb15ba71448a9de13bb2c0" target="_top" xlink:title="Open(and create) file with given name and flag.">
<polygon fill="white" stroke="#666666" points="1098.25,-623 984,-623 984,-603 1098.25,-603 1098.25,-623"/>
<text text-anchor="middle" x="1041.12" y="-609.5" font-family="Helvetica,sans-Serif" font-size="10.00">AEFileWriter::openFile</text>
</a>
</g>
</g>
<!-- Node2&#45;&gt;Node4 -->
<g id="edge3_Node000002_Node000004" class="edge">
<title>Node2&#45;&gt;Node4</title>
<g id="a_edge3_Node000002_Node000004"><a xlink:title=" ">
<path fill="none" stroke="#63b8ff" d="M199.48,-471.45C234.26,-505.79 352.43,-613 472.38,-613 472.38,-613 472.38,-613 636.25,-613 754.37,-613 891.93,-613 972.19,-613"/>
<polygon fill="#63b8ff" stroke="#63b8ff" points="972.09,-616.5 982.09,-613 972.09,-609.5 972.09,-616.5"/>
</a>
</g>
</g>
<!-- Node8 -->
<g id="Node000008" class="node">
<title>Node8</title>
<g id="a_Node000008"><a xlink:href="../../d8/dfc/class_a_e_logger.html#a284034896688215f7e87242764c5985d" target="_top" xlink:title="Starts the log&#45;writing thread.">
<polygon fill="white" stroke="#666666" points="385.5,-395 275,-395 275,-375 385.5,-375 385.5,-395"/>
<text text-anchor="middle" x="330.25" y="-381.5" font-family="Helvetica,sans-Serif" font-size="10.00">AELogger::startWriter</text>
</a>
</g>
</g>
<!-- Node2&#45;&gt;Node8 -->
<g id="edge8_Node000002_Node000008" class="edge">
<title>Node2&#45;&gt;Node8</title>
<g id="a_edge8_Node000002_Node000008"><a xlink:title=" ">
<path fill="none" stroke="#63b8ff" d="M208.42,-450.59C232.2,-437.69 272.94,-415.57 300.47,-400.62"/>
<polygon fill="#63b8ff" stroke="#63b8ff" points="301.86,-403.85 308.98,-396 298.52,-397.7 301.86,-403.85"/>
</a>
</g>
</g>
<!-- Node14 -->
<g id="Node000014" class="node">
<title>Node14</title>
<g id="a_Node000014"><a xlink:href="../../d8/dfc/class_a_e_logger.html#ac533941173224cb21fe09326726ce754" target="_top" xlink:title="Request a log entry to be written to the opened log file.">
<polygon fill="white" stroke="#666666" points="873,-395 761.75,-395 761.75,-375 873,-375 873,-395"/>
<text text-anchor="middle" x="817.38" y="-381.5" font-family="Helvetica,sans-Serif" font-size="10.00">AELogger::writeToLog</text>
</a>
</g>
</g>
<!-- Node2&#45;&gt;Node14 -->
<g id="edge44_Node000002_Node000014" class="edge">
<title>Node2&#45;&gt;Node14</title>
<g id="a_edge44_Node000002_Node000014"><a xlink:title=" ">
<path fill="none" stroke="#63b8ff" d="M211.44,-471.4C286.06,-504.8 533.12,-602.29 709.25,-518 758.32,-494.52 792.08,-436.38 807.27,-405.32"/>
<polygon fill="#63b8ff" stroke="#63b8ff" points="810.28,-407.13 811.37,-396.59 803.95,-404.15 810.28,-407.13"/>
</a>
</g>
</g>
<!-- Node5 -->
<g id="Node000005" class="node">
<title>Node5</title>
<g id="a_Node000005"><a xlink:href="../../de/dde/namespaceace_1_1utils.html#a6eb2322353edc04f78dbc3589e60d98c" target="_top" xlink:title="A wrapper to make the proper cross&#45;compiler version of fopen().">
<polygon fill="white" stroke="#666666" points="1306.62,-661 1208.12,-661 1208.12,-641 1306.62,-641 1306.62,-661"/>
<text text-anchor="middle" x="1257.38" y="-647.5" font-family="Helvetica,sans-Serif" font-size="10.00">ace::utils::fopenCC</text>
</a>
</g>
</g>
<!-- Node4&#45;&gt;Node5 -->
<g id="edge4_Node000004_Node000005" class="edge">
<title>Node4&#45;&gt;Node5</title>
<g id="a_edge4_Node000004_Node000005"><a xlink:title=" ">
<path fill="none" stroke="#63b8ff" d="M1098.7,-623.03C1128.95,-628.4 1166.19,-635 1196.87,-640.45"/>
<polygon fill="#63b8ff" stroke="#63b8ff" points="1195.91,-643.83 1206.37,-642.13 1197.13,-636.94 1195.91,-643.83"/>
</a>
</g>
</g>
<!-- Node6 -->
<g id="Node000006" class="node">
<title>Node6</title>
<g id="a_Node000006"><a xlink:href="../../db/d15/class_a_e_file_writer.html#a0743145db01b527ae9612f359e5c0090" target="_top" xlink:title="Checks if a file isn&#39;t open by this file&#45;writer.">
<polygon fill="white" stroke="#666666" points="1314.88,-585 1199.88,-585 1199.88,-565 1314.88,-565 1314.88,-585"/>
<text text-anchor="middle" x="1257.38" y="-571.5" font-family="Helvetica,sans-Serif" font-size="10.00">AEFileWriter::isClosed</text>
</a>
</g>
</g>
<!-- Node4&#45;&gt;Node6 -->
<g id="edge5_Node000004_Node000006" class="edge">
<title>Node4&#45;&gt;Node6</title>
<g id="a_edge5_Node000004_Node000006"><a xlink:title=" ">
<path fill="none" stroke="#63b8ff" d="M1098.72,-603.9C1117.24,-600.85 1137.88,-597.36 1156.75,-594 1168.05,-591.99 1180.05,-589.77 1191.66,-587.58"/>
<polygon fill="#63b8ff" stroke="#63b8ff" points="1191.99,-591.08 1201.16,-585.78 1190.68,-584.2 1191.99,-591.08"/>
</a>
</g>
</g>
<!-- Node7 -->
<g id="Node000007" class="node">
<title>Node7</title>
<g id="a_Node000007"><a xlink:href="../../db/d15/class_a_e_file_writer.html#a47e3c08c276394bce7b612331cf4762d" target="_top" xlink:title="Checks if a file is open by this file&#45;writer.">
<polygon fill="white" stroke="#666666" points="1466.25,-604 1358,-604 1358,-584 1466.25,-584 1466.25,-604"/>
<text text-anchor="middle" x="1412.12" y="-590.5" font-family="Helvetica,sans-Serif" font-size="10.00">AEFileWriter::isOpen</text>
</a>
</g>
</g>
<!-- Node4&#45;&gt;Node7 -->
<g id="edge7_Node000004_Node000007" class="edge">
<title>Node4&#45;&gt;Node7</title>
<g id="a_edge7_Node000004_Node000007"><a xlink:title=" ">
<path fill="none" stroke="#63b8ff" d="M1098.57,-610.09C1165.31,-606.66 1276.18,-600.95 1346.36,-597.33"/>
<polygon fill="#63b8ff" stroke="#63b8ff" points="1346.37,-600.84 1356.17,-596.83 1346.01,-593.85 1346.37,-600.84"/>
</a>
</g>
</g>
<!-- Node6&#45;&gt;Node7 -->
<g id="edge6_Node000006_Node000007" class="edge">
<title>Node6&#45;&gt;Node7</title>
<g id="a_edge6_Node000006_Node000007"><a xlink:title=" ">
<path fill="none" stroke="#63b8ff" d="M1315.25,-582.07C1325.47,-583.35 1336.18,-584.68 1346.6,-585.97"/>
<polygon fill="#63b8ff" stroke="#63b8ff" points="1345.88,-589.41 1356.24,-587.17 1346.75,-582.47 1345.88,-589.41"/>
</a>
</g>
</g>
<!-- Node8&#45;&gt;Node3 -->
<g id="edge33_Node000008_Node000003" class="edge">
<title>Node8&#45;&gt;Node3</title>
<g id="a_edge33_Node000008_Node000003"><a xlink:title=" ">
<path fill="none" stroke="#63b8ff" d="M364.35,-374.54C408.67,-361.05 489.98,-338.14 561.25,-328 680.11,-311.09 817.11,-307.21 914.04,-307.04"/>
<polygon fill="#63b8ff" stroke="#63b8ff" points="913.85,-310.54 923.85,-307.04 913.85,-303.54 913.85,-310.54"/>
</a>
</g>
</g>
<!-- Node9 -->
<g id="Node000009" class="node">
<title>Node9</title>
<g id="a_Node000009"><a xlink:href="../../d8/dfc/class_a_e_logger.html#a2f64d8f5de2f249f7cb973a82ec1e48a" target="_top" xlink:title="Close the file, if it was opened.">
<polygon fill="white" stroke="#666666" points="525.25,-433 421.5,-433 421.5,-413 525.25,-413 525.25,-433"/>
<text text-anchor="middle" x="473.38" y="-419.5" font-family="Helvetica,sans-Serif" font-size="10.00">AELogger::closeLog</text>
</a>
</g>
</g>
<!-- Node8&#45;&gt;Node9 -->
<g id="edge9_Node000008_Node000009" class="edge">
<title>Node8&#45;&gt;Node9</title>
<g id="a_edge9_Node000008_Node000009"><a xlink:title=" ">
<path fill="none" stroke="#63b8ff" d="M370.19,-395.48C386.38,-399.85 405.38,-404.96 422.58,-409.59"/>
<polygon fill="#63b8ff" stroke="#63b8ff" points="421.54,-412.94 432.1,-412.16 423.36,-406.18 421.54,-412.94"/>
</a>
</g>
</g>
<!-- Node8&#45;&gt;Node14 -->
<g id="edge43_Node000008_Node000014" class="edge">
<title>Node8&#45;&gt;Node14</title>
<g id="a_edge43_Node000008_Node000014"><a xlink:title=" ">
<path fill="none" stroke="#63b8ff" d="M385.96,-385C475.61,-385 653.48,-385 750.12,-385"/>
<polygon fill="#63b8ff" stroke="#63b8ff" points="749.98,-388.5 759.98,-385 749.98,-381.5 749.98,-388.5"/>
</a>
</g>
</g>
<!-- Node26 -->
<g id="Node000026" class="node">
<title>Node26</title>
<g id="a_Node000026"><a xlink:href="../../d8/dfc/class_a_e_logger.html#a5938787b6933f4b96ebff10643bd2497" target="_top" xlink:title="The function of the log writing thread to...read the entries, format them, write them,...">
<polygon fill="white" stroke="#666666" points="701.75,-167 568.75,-167 568.75,-147 701.75,-147 701.75,-167"/>
<text text-anchor="middle" x="635.25" y="-153.5" font-family="Helvetica,sans-Serif" font-size="10.00">AELogger::logWriterThread</text>
</a>
</g>
</g>
<!-- Node8&#45;&gt;Node26 -->
<g id="edge34_Node000008_Node000026" class="edge">
<title>Node8&#45;&gt;Node26</title>
<g id="a_edge34_Node000008_Node000026"><a xlink:title=" ">
<path fill="none" stroke="#63b8ff" d="M340.37,-374.58C356,-357.04 389.32,-321.01 421.5,-295 483.21,-245.13 563.48,-197.08 605.59,-173"/>
<polygon fill="#63b8ff" stroke="#63b8ff" points="607.15,-176.14 614.12,-168.16 603.69,-170.05 607.15,-176.14"/>
</a>
</g>
</g>
<!-- Node10 -->
<g id="Node000010" class="node">
<title>Node10</title>
<g id="a_Node000010"><a xlink:href="../../db/d15/class_a_e_file_writer.html#a05ceb471801ae111d68859f9d3b9eb78" target="_top" xlink:title="Closes the currently opened file.">
<polygon fill="white" stroke="#666666" points="693.5,-509 577,-509 577,-489 693.5,-489 693.5,-509"/>
<text text-anchor="middle" x="635.25" y="-495.5" font-family="Helvetica,sans-Serif" font-size="10.00">AEFileWriter::closeFile</text>
</a>
</g>
</g>
<!-- Node9&#45;&gt;Node10 -->
<g id="edge10_Node000009_Node000010" class="edge">
<title>Node9&#45;&gt;Node10</title>
<g id="a_edge10_Node000009_Node000010"><a xlink:title=" ">
<path fill="none" stroke="#63b8ff" d="M487.14,-433.32C503.42,-446.01 532.89,-467.42 561.25,-480 565.49,-481.88 569.96,-483.61 574.51,-485.18"/>
<polygon fill="#63b8ff" stroke="#63b8ff" points="573.16,-488.43 583.75,-488.13 575.29,-481.76 573.16,-488.43"/>
</a>
</g>
</g>
<!-- Node11 -->
<g id="Node000011" class="node">
<title>Node11</title>
<g id="a_Node000011"><a xlink:href="../../db/d15/class_a_e_file_writer.html#a26ea7c97bfdbed142df1863d8d47d895" target="_top" xlink:title="Returns the full name of currently open file, including the relative path, if such was provided.">
<polygon fill="white" stroke="#666666" points="709.25,-471 561.25,-471 561.25,-451 709.25,-451 709.25,-471"/>
<text text-anchor="middle" x="635.25" y="-457.5" font-family="Helvetica,sans-Serif" font-size="10.00">AEFileWriter::getFullFileName</text>
</a>
</g>
</g>
<!-- Node9&#45;&gt;Node11 -->
<g id="edge11_Node000009_Node000011" class="edge">
<title>Node9&#45;&gt;Node11</title>
<g id="a_edge11_Node000009_Node000011"><a xlink:title=" ">
<path fill="none" stroke="#63b8ff" d="M518.48,-433.48C537.27,-437.95 559.38,-443.21 579.22,-447.92"/>
<polygon fill="#63b8ff" stroke="#63b8ff" points="578.27,-451.29 588.81,-450.2 579.89,-444.48 578.27,-451.29"/>
</a>
</g>
</g>
<!-- Node12 -->
<g id="Node000012" class="node">
<title>Node12</title>
<g id="a_Node000012"><a xlink:href="../../d8/dfc/class_a_e_logger.html#a4d512bf9f4d0a6a1b6a332b9c99e22ac" target="_top" xlink:title="Checks if a log file isn&#39;t open by this logger.">
<polygon fill="white" stroke="#666666" points="1092.25,-585 990,-585 990,-565 1092.25,-565 1092.25,-585"/>
<text text-anchor="middle" x="1041.12" y="-571.5" font-family="Helvetica,sans-Serif" font-size="10.00">AELogger::isClosed</text>
</a>
</g>
</g>
<!-- Node9&#45;&gt;Node12 -->
<g id="edge12_Node000009_Node000012" class="edge">
<title>Node9&#45;&gt;Node12</title>
<g id="a_edge12_Node000009_Node000012"><a xlink:title=" ">
<path fill="none" stroke="#63b8ff" d="M480.22,-433.22C492.37,-453.39 522.48,-498.1 561.25,-518 697.28,-587.83 882.95,-587.04 978.19,-580.84"/>
<polygon fill="#63b8ff" stroke="#63b8ff" points="978.39,-584.34 988.12,-580.15 977.9,-577.36 978.39,-584.34"/>
</a>
</g>
</g>
<!-- Node13 -->
<g id="Node000013" class="node">
<title>Node13</title>
<g id="a_Node000013"><a xlink:href="../../d8/dfc/class_a_e_logger.html#a53b212c259c40bda694476f09d1f171b" target="_top" xlink:title="Stops the log&#45;writing thread (after flushing the log queue).">
<polygon fill="white" stroke="#666666" points="690.12,-357 580.38,-357 580.38,-337 690.12,-337 690.12,-357"/>
<text text-anchor="middle" x="635.25" y="-343.5" font-family="Helvetica,sans-Serif" font-size="10.00">AELogger::stopWriter</text>
</a>
</g>
</g>
<!-- Node9&#45;&gt;Node13 -->
<g id="edge14_Node000009_Node000013" class="edge">
<title>Node9&#45;&gt;Node13</title>
<g id="a_edge14_Node000009_Node000013"><a xlink:title=" ">
<path fill="none" stroke="#63b8ff" d="M496.27,-412.59C523.7,-399.55 570.91,-377.11 602.36,-362.16"/>
<polygon fill="#63b8ff" stroke="#63b8ff" points="603.47,-365.51 611,-358.05 600.46,-359.19 603.47,-365.51"/>
</a>
</g>
</g>
<!-- Node9&#45;&gt;Node14 -->
<g id="edge31_Node000009_Node000014" class="edge">
<title>Node9&#45;&gt;Node14</title>
<g id="a_edge31_Node000009_Node000014"><a xlink:title=" ">
<path fill="none" stroke="#63b8ff" d="M525.74,-418.17C573.35,-413.6 646.14,-406.35 709.25,-399 722.5,-397.46 736.65,-395.69 750.18,-393.95"/>
<polygon fill="#63b8ff" stroke="#63b8ff" points="750.4,-397.45 759.86,-392.69 749.49,-390.51 750.4,-397.45"/>
</a>
</g>
</g>
<!-- Node20 -->
<g id="Node000020" class="node">
<title>Node20</title>
<g id="a_Node000020"><a xlink:href="../../d8/dfc/class_a_e_logger.html#a54bad71bcfea05c3d17d7ba1bacfec8c" target="_top" xlink:title="Writes to log directly, without thinking of the queue.">
<polygon fill="white" stroke="#666666" points="889.5,-91 745.25,-91 745.25,-71 889.5,-71 889.5,-91"/>
<text text-anchor="middle" x="817.38" y="-77.5" font-family="Helvetica,sans-Serif" font-size="10.00">AELogger::writeToLogDirectly</text>
</a>
</g>
</g>
<!-- Node9&#45;&gt;Node20 -->
<g id="edge32_Node000009_Node000020" class="edge">
<title>Node9&#45;&gt;Node20</title>
<g id="a_edge32_Node000009_Node000020"><a xlink:title=" ">
<path fill="none" stroke="#63b8ff" d="M474.1,-412.55C473.6,-370.94 477.59,-215.53 561.25,-138 607.34,-95.29 678.21,-82.1 733.56,-79"/>
<polygon fill="#63b8ff" stroke="#63b8ff" points="733.43,-82.51 743.26,-78.57 733.11,-75.52 733.43,-82.51"/>
</a>
</g>
</g>
<!-- Node12&#45;&gt;Node6 -->
<g id="edge13_Node000012_Node000006" class="edge">
<title>Node12&#45;&gt;Node6</title>
<g id="a_edge13_Node000012_Node000006"><a xlink:title=" ">
<path fill="none" stroke="#63b8ff" d="M1092.63,-575C1121.17,-575 1157.23,-575 1188.24,-575"/>
<polygon fill="#63b8ff" stroke="#63b8ff" points="1187.9,-578.5 1197.9,-575 1187.9,-571.5 1187.9,-578.5"/>
</a>
</g>
</g>
<!-- Node13&#45;&gt;Node3 -->
<g id="edge15_Node000013_Node000003" class="edge">
<title>Node13&#45;&gt;Node3</title>
<g id="a_edge15_Node000013_Node000003"><a xlink:title=" ">
<path fill="none" stroke="#63b8ff" d="M690.3,-341.91C748.18,-336.47 841.93,-327.65 917.82,-320.51"/>
<polygon fill="#63b8ff" stroke="#63b8ff" points="917.74,-324.03 927.37,-319.61 917.08,-317.06 917.74,-324.03"/>
</a>
</g>
</g>
<!-- Node13&#45;&gt;Node14 -->
<g id="edge16_Node000013_Node000014" class="edge">
<title>Node13&#45;&gt;Node14</title>
<g id="a_edge16_Node000013_Node000014"><a xlink:title=" ">
<path fill="none" stroke="#63b8ff" d="M685.95,-357.48C707.5,-362.03 732.95,-367.4 755.62,-372.18"/>
<polygon fill="#63b8ff" stroke="#63b8ff" points="754.85,-375.6 765.36,-374.24 756.3,-368.75 754.85,-375.6"/>
</a>
</g>
</g>
<!-- Node13&#45;&gt;Node20 -->
<g id="edge25_Node000013_Node000020" class="edge">
<title>Node13&#45;&gt;Node20</title>
<g id="a_edge25_Node000013_Node000020"><a xlink:title=" ">
<path fill="none" stroke="#63b8ff" d="M639.92,-336.54C651.56,-304.37 690.16,-205.02 745.25,-138 758.07,-122.41 775.77,-108.2 790.31,-97.87"/>
<polygon fill="#63b8ff" stroke="#63b8ff" points="792.26,-100.77 798.52,-92.23 788.3,-95.01 792.26,-100.77"/>
</a>
</g>
</g>
<!-- Node14&#45;&gt;Node3 -->
<g id="edge17_Node000014_Node000003" class="edge">
<title>Node14&#45;&gt;Node3</title>
<g id="a_edge17_Node000014_Node000003"><a xlink:title=" ">
<path fill="none" stroke="#63b8ff" d="M858.79,-374.6C869.18,-371.07 880.08,-366.57 889.5,-361 908.19,-349.96 905.99,-337.5 925.5,-328 929.21,-326.19 933.06,-324.56 937,-323.07"/>
<polygon fill="#63b8ff" stroke="#63b8ff" points="937.83,-326.48 946.18,-319.96 935.59,-319.85 937.83,-326.48"/>
</a>
</g>
</g>
<!-- Node14&#45;&gt;Node12 -->
<g id="edge19_Node000014_Node000012" class="edge">
<title>Node14&#45;&gt;Node12</title>
<g id="a_edge19_Node000014_Node000012"><a xlink:title=" ">
<path fill="none" stroke="#63b8ff" d="M824.43,-395.25C839.11,-419.36 878.82,-480.48 925.5,-518 947.93,-536.03 977,-550.41 1000.25,-560.21"/>
<polygon fill="#63b8ff" stroke="#63b8ff" points="998.82,-563.41 1009.41,-563.95 1001.47,-556.93 998.82,-563.41"/>
</a>
</g>
</g>
<!-- Node15 -->
<g id="Node000015" class="node">
<title>Node15</title>
<g id="a_Node000015"><a xlink:href="../../de/dde/namespaceace_1_1utils.html#ac3eadc5f289b54059322023f3c5eed96" target="_top" xlink:title="Checks if the passed string is alpha&#45;numeric with underscores (contains only numbers,...">
<polygon fill="white" stroke="#666666" points="1096.38,-509 985.88,-509 985.88,-489 1096.38,-489 1096.38,-509"/>
<text text-anchor="middle" x="1041.12" y="-495.5" font-family="Helvetica,sans-Serif" font-size="10.00">ace::utils::isAlNumUs</text>
</a>
</g>
</g>
<!-- Node14&#45;&gt;Node15 -->
<g id="edge18_Node000014_Node000015" class="edge">
<title>Node14&#45;&gt;Node15</title>
<g id="a_edge18_Node000014_Node000015"><a xlink:title=" ">
<path fill="none" stroke="#63b8ff" d="M826.52,-395.37C842.9,-415.39 881.97,-459.25 925.5,-480 940.52,-487.16 957.75,-491.68 974.22,-494.51"/>
<polygon fill="#63b8ff" stroke="#63b8ff" points="973.55,-497.95 983.97,-495.99 974.61,-491.03 973.55,-497.95"/>
</a>
</g>
</g>
<!-- Node16 -->
<g id="Node000016" class="node">
<title>Node16</title>
<g id="a_Node000016"><a xlink:href="../../de/dde/namespaceace_1_1utils.html#a878c53ede8589dbc6a50734c9c4ad4d7" target="_top" xlink:title="Checks if the value is within some range.">
<polygon fill="white" stroke="#666666" points="1093.38,-471 988.88,-471 988.88,-451 1093.38,-451 1093.38,-471"/>
<text text-anchor="middle" x="1041.12" y="-457.5" font-family="Helvetica,sans-Serif" font-size="10.00">ace::utils::isInRange</text>
</a>
</g>
</g>
<!-- Node14&#45;&gt;Node16 -->
<g id="edge20_Node000014_Node000016" class="edge">
<title>Node14&#45;&gt;Node16</title>
<g id="a_edge20_Node000014_Node000016"><a xlink:title=" ">
<path fill="none" stroke="#63b8ff" d="M833.97,-395.4C854.19,-408.39 890.98,-430.31 925.5,-442 941.96,-447.57 960.31,-451.55 977.43,-454.37"/>
<polygon fill="#63b8ff" stroke="#63b8ff" points="976.56,-457.78 986.97,-455.83 977.62,-450.86 976.56,-457.78"/>
</a>
</g>
</g>
<!-- Node17 -->
<g id="Node000017" class="node">
<title>Node17</title>
<g id="a_Node000017"><a xlink:href="../../da/dea/struct_a_e_log_entry.html#a42447b345f72f22ec655556af2db7c28" target="_top" xlink:title="Allocates the queue of the given size on the heap and returns the pointer to it&#39;s first node.">
<polygon fill="white" stroke="#666666" points="1104.62,-433 977.62,-433 977.62,-413 1104.62,-413 1104.62,-433"/>
<text text-anchor="middle" x="1041.12" y="-419.5" font-family="Helvetica,sans-Serif" font-size="10.00">AELogEntry::makeQueue</text>
</a>
</g>
</g>
<!-- Node14&#45;&gt;Node17 -->
<g id="edge21_Node000014_Node000017" class="edge">
<title>Node14&#45;&gt;Node17</title>
<g id="a_edge21_Node000014_Node000017"><a xlink:title=" ">
<path fill="none" stroke="#63b8ff" d="M873.4,-394.88C890.13,-397.85 908.56,-401.09 925.5,-404 938.62,-406.25 952.6,-408.61 966.12,-410.86"/>
<polygon fill="#63b8ff" stroke="#63b8ff" points="965.41,-414.29 975.85,-412.48 966.56,-407.38 965.41,-414.29"/>
</a>
</g>
</g>
<!-- Node18 -->
<g id="Node000018" class="node">
<title>Node18</title>
<g id="a_Node000018"><a xlink:href="../../d8/dfc/class_a_e_logger.html#af4bff840ffdcfcb5ecb1251fddbf9690" target="_top" xlink:title="Checks for the given index number and returns the pointer in the queue of log entries.">
<polygon fill="white" stroke="#666666" points="1102,-395 980.25,-395 980.25,-375 1102,-375 1102,-395"/>
<text text-anchor="middle" x="1041.12" y="-381.5" font-family="Helvetica,sans-Serif" font-size="10.00">AELogger::ptrFromIndex</text>
</a>
</g>
</g>
<!-- Node14&#45;&gt;Node18 -->
<g id="edge22_Node000014_Node000018" class="edge">
<title>Node14&#45;&gt;Node18</title>
<g id="a_edge22_Node000014_Node000018"><a xlink:title=" ">
<path fill="none" stroke="#63b8ff" d="M873.47,-385C902.26,-385 937.84,-385 968.71,-385"/>
<polygon fill="#63b8ff" stroke="#63b8ff" points="968.34,-388.5 978.34,-385 968.34,-381.5 968.34,-388.5"/>
</a>
</g>
</g>
<!-- Node19 -->
<g id="Node000019" class="node">
<title>Node19</title>
<g id="a_Node000019"><a xlink:href="../../d8/dfc/class_a_e_logger.html#a50dfd96a74d13471faebd4de499db5bf" target="_top" xlink:title="Request a debug log entry to be written to the opened log file.">
<polygon fill="white" stroke="#666666" points="1110.62,-357 971.62,-357 971.62,-337 1110.62,-337 1110.62,-357"/>
<text text-anchor="middle" x="1041.12" y="-343.5" font-family="Helvetica,sans-Serif" font-size="10.00">AELogger::writeToLogDebug</text>
</a>
</g>
</g>
<!-- Node14&#45;&gt;Node19 -->
<g id="edge23_Node000014_Node000019" class="edge">
<title>Node14&#45;&gt;Node19</title>
<g id="a_edge23_Node000014_Node000019"><a xlink:title=" ">
<path fill="none" stroke="#63b8ff" d="M838.9,-374.57C860.45,-368.41 895.34,-362.17 925.5,-357 936.72,-355.07 948.57,-353.07 960.22,-351.22"/>
<polygon fill="#63b8ff" stroke="#63b8ff" points="960.47,-354.73 969.81,-349.73 959.39,-347.81 960.47,-354.73"/>
</a>
</g>
</g>
<!-- Node19&#45;&gt;Node14 -->
<g id="edge24_Node000019_Node000014" class="edge">
<title>Node19&#45;&gt;Node14</title>
<g id="a_edge24_Node000019_Node000014"><a xlink:title=" ">
<path fill="none" stroke="#63b8ff" d="M1017.71,-357.4C994.59,-363.41 957.51,-369.51 925.5,-375 912.26,-377.27 898.12,-379.75 884.59,-381.94"/>
<polygon fill="#63b8ff" stroke="#63b8ff" points="884.23,-378.46 874.9,-383.48 885.32,-385.37 884.23,-378.46"/>
</a>
</g>
</g>
<!-- Node21 -->
<g id="Node000021" class="node">
<title>Node21</title>
<g id="a_Node000021"><a xlink:href="../../db/d15/class_a_e_file_writer.html#a0c238267ee45ca15672d4e9246cdca2c" target="_top" xlink:title="Flushes the opened file.">
<polygon fill="white" stroke="#666666" points="1097.88,-110 984.38,-110 984.38,-90 1097.88,-90 1097.88,-110"/>
<text text-anchor="middle" x="1041.12" y="-96.5" font-family="Helvetica,sans-Serif" font-size="10.00">AEFileWriter::flushFile</text>
</a>
</g>
</g>
<!-- Node20&#45;&gt;Node21 -->
<g id="edge26_Node000020_Node000021" class="edge">
<title>Node20&#45;&gt;Node21</title>
<g id="a_edge26_Node000020_Node000021"><a xlink:title=" ">
<path fill="none" stroke="#63b8ff" d="M889.76,-87.12C916.34,-89.39 946.4,-91.97 972.62,-94.22"/>
<polygon fill="#63b8ff" stroke="#63b8ff" points="972.22,-97.69 982.48,-95.06 972.81,-90.72 972.22,-97.69"/>
</a>
</g>
</g>
<!-- Node22 -->
<g id="Node000022" class="node">
<title>Node22</title>
<g id="a_Node000022"><a xlink:href="../../da/dea/struct_a_e_log_entry.html#ab803ea47d06098feab470f265498f617" target="_top" xlink:title="Formats the passed entry to the given c&#45;string.">
<polygon fill="white" stroke="#666666" points="1103.5,-63 978.75,-63 978.75,-43 1103.5,-43 1103.5,-63"/>
<text text-anchor="middle" x="1041.12" y="-49.5" font-family="Helvetica,sans-Serif" font-size="10.00">AELogEntry::formatEntry</text>
</a>
</g>
</g>
<!-- Node20&#45;&gt;Node22 -->
<g id="edge27_Node000020_Node000022" class="edge">
<title>Node20&#45;&gt;Node22</title>
<g id="a_edge27_Node000020_Node000022"><a xlink:title=" ">
<path fill="none" stroke="#63b8ff" d="M889.76,-71.99C914.57,-68.85 942.42,-65.34 967.35,-62.19"/>
<polygon fill="#63b8ff" stroke="#63b8ff" points="967.59,-65.69 977.07,-60.96 966.71,-58.74 967.59,-65.69"/>
</a>
</g>
</g>
<!-- Node25 -->
<g id="Node000025" class="node">
<title>Node25</title>
<g id="a_Node000025"><a xlink:href="../../db/d15/class_a_e_file_writer.html#a01d537821c5760615e126f1c159b67da" target="_top" xlink:title="Write binary data, as is, to file, and flush if necessary.">
<polygon fill="white" stroke="#666666" points="1108.38,-20 973.88,-20 973.88,0 1108.38,0 1108.38,-20"/>
<text text-anchor="middle" x="1041.12" y="-6.5" font-family="Helvetica,sans-Serif" font-size="10.00">AEFileWriter::writeData_ptr</text>
</a>
</g>
</g>
<!-- Node20&#45;&gt;Node25 -->
<g id="edge30_Node000020_Node000025" class="edge">
<title>Node20&#45;&gt;Node25</title>
<g id="a_edge30_Node000020_Node000025"><a xlink:title=" ">
<path fill="none" stroke="#63b8ff" d="M838.82,-70.51C860.02,-59.99 894.36,-43.97 925.5,-34 938.87,-29.72 953.36,-26 967.41,-22.85"/>
<polygon fill="#63b8ff" stroke="#63b8ff" points="968.02,-26.3 977.06,-20.77 966.55,-19.46 968.02,-26.3"/>
</a>
</g>
</g>
<!-- Node23 -->
<g id="Node000023" class="node">
<title>Node23</title>
<g id="a_Node000023"><a xlink:href="../../de/dde/namespaceace_1_1utils.html#a2458b79e1a70255b471414a4bb5680ce" target="_top" xlink:title="Formats the current **(c)time point as YYYY&#45;MM&#45;DD.HH:mm:SS string**.">
<polygon fill="white" stroke="#666666" points="1311.88,-44 1202.88,-44 1202.88,-24 1311.88,-24 1311.88,-44"/>
<text text-anchor="middle" x="1257.38" y="-30.5" font-family="Helvetica,sans-Serif" font-size="10.00">ace::utils::formatDate</text>
</a>
</g>
</g>
<!-- Node22&#45;&gt;Node23 -->
<g id="edge28_Node000022_Node000023" class="edge">
<title>Node22&#45;&gt;Node23</title>
<g id="a_edge28_Node000022_Node000023"><a xlink:title=" ">
<path fill="none" stroke="#63b8ff" d="M1103.81,-47.53C1131.19,-45.1 1163.43,-42.24 1191.2,-39.78"/>
<polygon fill="#63b8ff" stroke="#63b8ff" points="1191.24,-43.29 1200.9,-38.92 1190.63,-36.32 1191.24,-43.29"/>
</a>
</g>
</g>
<!-- Node24 -->
<g id="Node000024" class="node">
<title>Node24</title>
<g id="a_Node000024"><a xlink:href="../../da/dea/struct_a_e_log_entry.html#a958d25c57a94cfae8e7f31843e6c63ef" target="_top" xlink:title="Deduces the entry&#39;s log type and returns a c&#45;string of it.">
<polygon fill="white" stroke="#666666" points="1322,-82 1192.75,-82 1192.75,-62 1322,-62 1322,-82"/>
<text text-anchor="middle" x="1257.38" y="-68.5" font-family="Helvetica,sans-Serif" font-size="10.00">AELogEntry::typeToString</text>
</a>
</g>
</g>
<!-- Node22&#45;&gt;Node24 -->
<g id="edge29_Node000022_Node000024" class="edge">
<title>Node22&#45;&gt;Node24</title>
<g id="a_edge29_Node000022_Node000024"><a xlink:title=" ">
<path fill="none" stroke="#63b8ff" d="M1103.81,-58.47C1127.93,-60.61 1155.82,-63.08 1181.11,-65.33"/>
<polygon fill="#63b8ff" stroke="#63b8ff" points="1180.74,-68.81 1191.01,-66.2 1181.36,-61.83 1180.74,-68.81"/>
</a>
</g>
</g>
<!-- Node26&#45;&gt;Node3 -->
<g id="edge38_Node000026_Node000003" class="edge">
<title>Node26&#45;&gt;Node3</title>
<g id="a_edge38_Node000026_Node000003"><a xlink:title=" ">
<path fill="none" stroke="#63b8ff" d="M653.5,-167.35C674.58,-179.69 711.61,-200.34 745.25,-214 807.23,-239.17 825.81,-236.52 889.5,-257 927.38,-269.18 970.25,-284.09 1000.53,-294.81"/>
<polygon fill="#63b8ff" stroke="#63b8ff" points="999.07,-298.01 1009.66,-298.06 1001.41,-291.41 999.07,-298.01"/>
</a>
</g>
</g>
<!-- Node26&#45;&gt;Node14 -->
<g id="edge41_Node000026_Node000014" class="edge">
<title>Node26&#45;&gt;Node14</title>
<g id="a_edge41_Node000026_Node000014"><a xlink:title=" ">
<path fill="none" stroke="#63b8ff" d="M644.46,-167.39C672.47,-202.85 764.6,-319.47 801.2,-365.79"/>
<polygon fill="#63b8ff" stroke="#63b8ff" points="798.24,-367.69 807.18,-373.36 803.73,-363.35 798.24,-367.69"/>
</a>
</g>
</g>
<!-- Node26&#45;&gt;Node20 -->
<g id="edge42_Node000026_Node000020" class="edge">
<title>Node26&#45;&gt;Node20</title>
<g id="a_edge42_Node000026_Node000020"><a xlink:title=" ">
<path fill="none" stroke="#63b8ff" d="M656.02,-146.69C677.61,-135.63 713.39,-117.92 745.25,-105 753.84,-101.52 763.14,-98.12 772.1,-95.03"/>
<polygon fill="#63b8ff" stroke="#63b8ff" points="772.99,-98.42 781.35,-91.9 770.76,-91.78 772.99,-98.42"/>
</a>
</g>
</g>
<!-- Node26&#45;&gt;Node21 -->
<g id="edge36_Node000026_Node000021" class="edge">
<title>Node26&#45;&gt;Node21</title>
<g id="a_edge36_Node000026_Node000021"><a xlink:title=" ">
<path fill="none" stroke="#63b8ff" d="M693.59,-146.51C710.23,-143.6 728.44,-140.55 745.25,-138 823.16,-126.2 913.01,-114.96 972.85,-107.81"/>
<polygon fill="#63b8ff" stroke="#63b8ff" points="973.02,-111.31 982.54,-106.65 972.19,-104.36 973.02,-111.31"/>
</a>
</g>
</g>
<!-- Node26&#45;&gt;Node22 -->
<g id="edge37_Node000026_Node000022" class="edge">
<title>Node26&#45;&gt;Node22</title>
<g id="a_edge37_Node000026_Node000022"><a xlink:title=" ">
<path fill="none" stroke="#63b8ff" d="M643.86,-146.75C659.89,-126.11 699.45,-79.96 745.25,-62 816.85,-33.93 905.9,-35.69 967.3,-41.95"/>
<polygon fill="#63b8ff" stroke="#63b8ff" points="966.61,-45.39 976.93,-43 967.37,-38.43 966.61,-45.39"/>
</a>
</g>
</g>
<!-- Node26&#45;&gt;Node25 -->
<g id="edge40_Node000026_Node000025" class="edge">
<title>Node26&#45;&gt;Node25</title>
<g id="a_edge40_Node000026_Node000025"><a xlink:title=" ">
<path fill="none" stroke="#63b8ff" d="M641.7,-146.79C655.35,-122.38 693.67,-60.76 745.25,-35 812.86,-1.24 900.13,1.98 962.14,-1.39"/>
<polygon fill="#63b8ff" stroke="#63b8ff" points="961.71,-4.87 971.91,-2 962.14,2.11 961.71,-4.87"/>
</a>
</g>
</g>
<!-- Node27 -->
<g id="Node000027" class="node">
<title>Node27</title>
<g id="a_Node000027"><a xlink:href="../../da/dea/struct_a_e_log_entry.html#a58aeadbca0c2c0863b534a52d40d22a8" target="_top" xlink:title="Clears the current entry and sets its values to zero/invalid.">
<polygon fill="white" stroke="#666666" points="876.75,-205 758,-205 758,-185 876.75,-185 876.75,-205"/>
<text text-anchor="middle" x="817.38" y="-191.5" font-family="Helvetica,sans-Serif" font-size="10.00">AELogEntry::clearEntry</text>
</a>
</g>
</g>
<!-- Node26&#45;&gt;Node27 -->
<g id="edge35_Node000026_Node000027" class="edge">
<title>Node26&#45;&gt;Node27</title>
<g id="a_edge35_Node000026_Node000027"><a xlink:title=" ">
<path fill="none" stroke="#63b8ff" d="M685.95,-167.48C707.5,-172.03 732.95,-177.4 755.62,-182.18"/>
<polygon fill="#63b8ff" stroke="#63b8ff" points="754.85,-185.6 765.36,-184.24 756.3,-178.75 754.85,-185.6"/>
</a>
</g>
</g>
<!-- Node28 -->
<g id="Node000028" class="node">
<title>Node28</title>
<g id="a_Node000028"><a xlink:href="../../de/dde/namespaceace_1_1utils.html#ae3cab8babc7164fe97d71c65b247e848" target="_top" xlink:title="Convenient sleep function to sleep the thread for microseconds.">
<polygon fill="white" stroke="#666666" points="866.62,-167 768.12,-167 768.12,-147 866.62,-147 866.62,-167"/>
<text text-anchor="middle" x="817.38" y="-153.5" font-family="Helvetica,sans-Serif" font-size="10.00">ace::utils::sleepUS</text>
</a>
</g>
</g>
<!-- Node26&#45;&gt;Node28 -->
<g id="edge39_Node000026_Node000028" class="edge">
<title>Node26&#45;&gt;Node28</title>
<g id="a_edge39_Node000026_Node000028"><a xlink:title=" ">
<path fill="none" stroke="#63b8ff" d="M702.04,-157C719.85,-157 739.03,-157 756.49,-157"/>
<polygon fill="#63b8ff" stroke="#63b8ff" points="756.17,-160.5 766.17,-157 756.17,-153.5 756.17,-160.5"/>
</a>
</g>
</g>
</g>
</svg>

<g id="navigator" transform="translate(0 0)" fill="#404254">
  <rect fill="#f2f5e9" fill-opacity="0.5" stroke="#606060" stroke-width=".5" x="0" y="0" width="60" height="60"/>
  <use id="zoomplus" xlink:href="#zoomPlus" x="17" y="9" onmousedown="handleZoom(evt,'in')"/>
  <use id="zoomminus" xlink:href="#zoomMin" x="42" y="9" onmousedown="handleZoom(evt,'out')"/>
  <use id="reset" xlink:href="#resetDef" x="30" y="36" onmousedown="handleReset()"/>
   <use id="arrowup" xlink:href="#arrowUp" x="0" y="0" onmousedown="handlePan(0,-1)"/>
  <use id="arrowright" xlink:href="#arrowRight" x="0" y="0" onmousedown="handlePan(1,0)"/>
  <use id="arrowdown" xlink:href="#arrowDown" x="0" y="0" onmousedown="handlePan(0,1)"/>
  <use id="arrowleft" xlink:href="#arrowLeft" x="0" y="0" onmousedown="handlePan(-1,0)"/>
</g>
<svg viewBox="0 0 15 15" width="100%" height="30px" preserveAspectRatio="xMaxYMin meet">
 <g id="arrow_out" transform="scale(0.3 0.3)">
  <a xlink:href="class_a_e_logger_acbfddb2d8f459f32ce58d7c06cc2ddaa_cgraph_org.svg" target="_base">
   <rect id="button" ry="5" rx="5" y="6" x="6" height="38" width="38"
        fill="#f2f5e9" fill-opacity="0.5" stroke="#606060" stroke-width="1.0"/>
   <path id="arrow"
     d="M 11.500037,31.436501 C 11.940474,20.09759 22.043105,11.32322 32.158766,21.979434 L 37.068811,17.246167 C 37.068811,17.246167 37.088388,32 37.088388,32 L 22.160133,31.978069 C 22.160133,31.978069 26.997745,27.140456 26.997745,27.140456 C 18.528582,18.264221 13.291696,25.230495 11.500037,31.436501 z"
     style="fill:#404040;"/>
  </a>
 </g>
</svg>

<style type='text/css'>
<![CDATA[
[data-mouse-over-selected='false'] { opacity: 0.7; }
[data-mouse-over-selected='true']  { opacity: 1.0; }
]]>
</style>
<script type="application/ecmascript"><![CDATA[
document.addEventListener('DOMContentLoaded', (event) => {
  highlightEdges();
  highlightAdjacentNodes();
});
]]></script>
</svg>
