<?xml version="1.0" encoding="UTF-8" standalone="no"?>
<!DOCTYPE svg PUBLIC "-//W3C//DTD SVG 1.1//EN"
 "http://www.w3.org/Graphics/SVG/1.1/DTD/svg11.dtd">
<!-- Generated by graphviz version 10.0.1 (20240210.2158)
 -->
<!-- Title: AELogger::closeLog Pages: 1 -->
<svg width="1053pt" height="370pt"
 viewBox="0.00 0.00 1052.75 370.00" xmlns="http://www.w3.org/2000/svg" xmlns:xlink="http://www.w3.org/1999/xlink">
<g id="graph0" class="graph" transform="scale(1 1) rotate(0) translate(4 366)">
<title>AELogger::closeLog</title>
<!-- Node1 -->
<g id="Node000001" class="node">
<title>Node1</title>
<g id="a_Node000001"><a xlink:title="Close the file, if it was opened.">
<polygon fill="#999999" stroke="#666666" points="103.75,-267 0,-267 0,-247 103.75,-247 103.75,-267"/>
<text text-anchor="middle" x="51.88" y="-253.5" font-family="Helvetica,sans-Serif" font-size="10.00">AELogger::closeLog</text>
</a>
</g>
</g>
<!-- Node2 -->
<g id="Node000002" class="node">
<title>Node2</title>
<g id="a_Node000002"><a xlink:href="../../db/d15/class_a_e_file_writer.html#a05ceb471801ae111d68859f9d3b9eb78" target="_top" xlink:title="Closes the currently opened file.">
<polygon fill="white" stroke="#666666" points="272,-362 155.5,-362 155.5,-342 272,-342 272,-362"/>
<text text-anchor="middle" x="213.75" y="-348.5" font-family="Helvetica,sans-Serif" font-size="10.00">AEFileWriter::closeFile</text>
</a>
</g>
</g>
<!-- Node1&#45;&gt;Node2 -->
<g id="edge1_Node000001_Node000002" class="edge">
<title>Node1&#45;&gt;Node2</title>
<g id="a_edge1_Node000001_Node000002"><a xlink:title=" ">
<path fill="none" stroke="#63b8ff" d="M61.65,-267.29C76.2,-283.69 106.98,-315.66 139.75,-333 142.99,-334.71 146.4,-336.28 149.89,-337.71"/>
<polygon fill="#63b8ff" stroke="#63b8ff" points="148.55,-340.95 159.15,-341.09 150.95,-334.38 148.55,-340.95"/>
</a>
</g>
</g>
<!-- Node3 -->
<g id="Node000003" class="node">
<title>Node3</title>
<g id="a_Node000003"><a xlink:href="../../db/d15/class_a_e_file_writer.html#a26ea7c97bfdbed142df1863d8d47d895" target="_top" xlink:title="Returns the full name of currently open file, including the relative path, if such was provided.">
<polygon fill="white" stroke="#666666" points="287.75,-324 139.75,-324 139.75,-304 287.75,-304 287.75,-324"/>
<text text-anchor="middle" x="213.75" y="-310.5" font-family="Helvetica,sans-Serif" font-size="10.00">AEFileWriter::getFullFileName</text>
</a>
</g>
</g>
<!-- Node1&#45;&gt;Node3 -->
<g id="edge2_Node000001_Node000003" class="edge">
<title>Node1&#45;&gt;Node3</title>
<g id="a_edge2_Node000001_Node000003"><a xlink:title=" ">
<path fill="none" stroke="#63b8ff" d="M79.38,-267.42C96.52,-274.08 119.37,-282.78 139.75,-290 149.25,-293.36 159.51,-296.83 169.24,-300.05"/>
<polygon fill="#63b8ff" stroke="#63b8ff" points="167.91,-303.3 178.5,-303.09 170.09,-296.65 167.91,-303.3"/>
</a>
</g>
</g>
<!-- Node4 -->
<g id="Node000004" class="node">
<title>Node4</title>
<g id="a_Node000004"><a xlink:href="../../d8/dfc/class_a_e_logger.html#a4d512bf9f4d0a6a1b6a332b9c99e22ac" target="_top" xlink:title="Checks if a log file isn&#39;t open by this logger.">
<polygon fill="white" stroke="#666666" points="670.75,-248 568.5,-248 568.5,-228 670.75,-228 670.75,-248"/>
<text text-anchor="middle" x="619.62" y="-234.5" font-family="Helvetica,sans-Serif" font-size="10.00">AELogger::isClosed</text>
</a>
</g>
</g>
<!-- Node1&#45;&gt;Node4 -->
<g id="edge3_Node000001_Node000004" class="edge">
<title>Node1&#45;&gt;Node4</title>
<g id="a_edge3_Node000001_Node000004"><a xlink:title=" ">
<path fill="none" stroke="#63b8ff" d="M104.08,-255.28C208.24,-251.78 444.44,-243.85 556.89,-240.07"/>
<polygon fill="#63b8ff" stroke="#63b8ff" points="556.96,-243.57 566.84,-239.74 556.72,-236.58 556.96,-243.57"/>
</a>
</g>
</g>
<!-- Node7 -->
<g id="Node000007" class="node">
<title>Node7</title>
<g id="a_Node000007"><a xlink:href="../../d8/dfc/class_a_e_logger.html#a53b212c259c40bda694476f09d1f171b" target="_top" xlink:title="Stops the log&#45;writing thread (after flushing the log queue).">
<polygon fill="white" stroke="#666666" points="268.62,-210 158.88,-210 158.88,-190 268.62,-190 268.62,-210"/>
<text text-anchor="middle" x="213.75" y="-196.5" font-family="Helvetica,sans-Serif" font-size="10.00">AELogger::stopWriter</text>
</a>
</g>
</g>
<!-- Node1&#45;&gt;Node7 -->
<g id="edge6_Node000001_Node000007" class="edge">
<title>Node1&#45;&gt;Node7</title>
<g id="a_edge6_Node000001_Node000007"><a xlink:title=" ">
<path fill="none" stroke="#63b8ff" d="M79.38,-246.58C96.52,-239.92 119.37,-231.22 139.75,-224 149.25,-220.64 159.51,-217.17 169.24,-213.95"/>
<polygon fill="#63b8ff" stroke="#63b8ff" points="170.09,-217.35 178.5,-210.91 167.91,-210.7 170.09,-217.35"/>
</a>
</g>
</g>
<!-- Node9 -->
<g id="Node000009" class="node">
<title>Node9</title>
<g id="a_Node000009"><a xlink:href="../../d8/dfc/class_a_e_logger.html#ac533941173224cb21fe09326726ce754" target="_top" xlink:title="Request a log entry to be written to the opened log file.">
<polygon fill="white" stroke="#666666" points="451.5,-143 340.25,-143 340.25,-123 451.5,-123 451.5,-143"/>
<text text-anchor="middle" x="395.88" y="-129.5" font-family="Helvetica,sans-Serif" font-size="10.00">AELogger::writeToLog</text>
</a>
</g>
</g>
<!-- Node1&#45;&gt;Node9 -->
<g id="edge23_Node000001_Node000009" class="edge">
<title>Node1&#45;&gt;Node9</title>
<g id="a_edge23_Node000001_Node000009"><a xlink:title=" ">
<path fill="none" stroke="#63b8ff" d="M61.29,-246.71C75.56,-230.03 106.23,-197.29 139.75,-181 199.61,-151.91 275.3,-140.41 328.64,-135.88"/>
<polygon fill="#63b8ff" stroke="#63b8ff" points="328.8,-139.38 338.49,-135.12 328.25,-132.4 328.8,-139.38"/>
</a>
</g>
</g>
<!-- Node15 -->
<g id="Node000015" class="node">
<title>Node15</title>
<g id="a_Node000015"><a xlink:href="../../d8/dfc/class_a_e_logger.html#a54bad71bcfea05c3d17d7ba1bacfec8c" target="_top" xlink:title="Writes to log directly, without thinking of the queue.">
<polygon fill="white" stroke="#666666" points="468,-286 323.75,-286 323.75,-266 468,-266 468,-286"/>
<text text-anchor="middle" x="395.88" y="-272.5" font-family="Helvetica,sans-Serif" font-size="10.00">AELogger::writeToLogDirectly</text>
</a>
</g>
</g>
<!-- Node1&#45;&gt;Node15 -->
<g id="edge24_Node000001_Node000015" class="edge">
<title>Node1&#45;&gt;Node15</title>
<g id="a_edge24_Node000001_Node000015"><a xlink:title=" ">
<path fill="none" stroke="#63b8ff" d="M104.08,-259.84C159.01,-262.9 247.09,-267.79 311.94,-271.39"/>
<polygon fill="#63b8ff" stroke="#63b8ff" points="311.66,-274.88 321.84,-271.94 312.05,-267.89 311.66,-274.88"/>
</a>
</g>
</g>
<!-- Node5 -->
<g id="Node000005" class="node">
<title>Node5</title>
<g id="a_Node000005"><a xlink:href="../../db/d15/class_a_e_file_writer.html#a0743145db01b527ae9612f359e5c0090" target="_top" xlink:title="Checks if a file isn&#39;t open by this file&#45;writer.">
<polygon fill="white" stroke="#666666" points="893.38,-248 778.38,-248 778.38,-228 893.38,-228 893.38,-248"/>
<text text-anchor="middle" x="835.88" y="-234.5" font-family="Helvetica,sans-Serif" font-size="10.00">AEFileWriter::isClosed</text>
</a>
</g>
</g>
<!-- Node4&#45;&gt;Node5 -->
<g id="edge4_Node000004_Node000005" class="edge">
<title>Node4&#45;&gt;Node5</title>
<g id="a_edge4_Node000004_Node000005"><a xlink:title=" ">
<path fill="none" stroke="#63b8ff" d="M671.13,-238C699.67,-238 735.73,-238 766.74,-238"/>
<polygon fill="#63b8ff" stroke="#63b8ff" points="766.4,-241.5 776.4,-238 766.4,-234.5 766.4,-241.5"/>
</a>
</g>
</g>
<!-- Node6 -->
<g id="Node000006" class="node">
<title>Node6</title>
<g id="a_Node000006"><a xlink:href="../../db/d15/class_a_e_file_writer.html#a47e3c08c276394bce7b612331cf4762d" target="_top" xlink:title="Checks if a file is open by this file&#45;writer.">
<polygon fill="white" stroke="#666666" points="1044.75,-248 936.5,-248 936.5,-228 1044.75,-228 1044.75,-248"/>
<text text-anchor="middle" x="990.62" y="-234.5" font-family="Helvetica,sans-Serif" font-size="10.00">AEFileWriter::isOpen</text>
</a>
</g>
</g>
<!-- Node5&#45;&gt;Node6 -->
<g id="edge5_Node000005_Node000006" class="edge">
<title>Node5&#45;&gt;Node6</title>
<g id="a_edge5_Node000005_Node000006"><a xlink:title=" ">
<path fill="none" stroke="#63b8ff" d="M893.75,-238C903.86,-238 914.46,-238 924.76,-238"/>
<polygon fill="#63b8ff" stroke="#63b8ff" points="924.73,-241.5 934.73,-238 924.73,-234.5 924.73,-241.5"/>
</a>
</g>
</g>
<!-- Node8 -->
<g id="Node000008" class="node">
<title>Node8</title>
<g id="a_Node000008"><a xlink:href="../../d0/d8a/class_____a_e_module_base.html#a625c82f27195de3f9ab5af4fc7437e2f" target="_top" xlink:title="Get the name of the module.">
<polygon fill="white" stroke="#666666" points="735.25,-210 504,-210 504,-190 735.25,-190 735.25,-210"/>
<text text-anchor="middle" x="619.62" y="-196.5" font-family="Helvetica,sans-Serif" font-size="10.00">__AEModuleBase&lt; AELogger &gt;::getModuleName</text>
</a>
</g>
</g>
<!-- Node7&#45;&gt;Node8 -->
<g id="edge7_Node000007_Node000008" class="edge">
<title>Node7&#45;&gt;Node8</title>
<g id="a_edge7_Node000007_Node000008"><a xlink:title=" ">
<path fill="none" stroke="#63b8ff" d="M268.8,-200C325.64,-200 417.07,-200 492.21,-200"/>
<polygon fill="#63b8ff" stroke="#63b8ff" points="492.13,-203.5 502.13,-200 492.13,-196.5 492.13,-203.5"/>
</a>
</g>
</g>
<!-- Node7&#45;&gt;Node9 -->
<g id="edge8_Node000007_Node000009" class="edge">
<title>Node7&#45;&gt;Node9</title>
<g id="a_edge8_Node000007_Node000009"><a xlink:title=" ">
<path fill="none" stroke="#63b8ff" d="M242.89,-189.53C273.43,-178.17 322.37,-159.97 356.43,-147.3"/>
<polygon fill="#63b8ff" stroke="#63b8ff" points="357.36,-150.69 365.51,-143.92 354.92,-144.13 357.36,-150.69"/>
</a>
</g>
</g>
<!-- Node7&#45;&gt;Node15 -->
<g id="edge17_Node000007_Node000015" class="edge">
<title>Node7&#45;&gt;Node15</title>
<g id="a_edge17_Node000007_Node000015"><a xlink:title=" ">
<path fill="none" stroke="#63b8ff" d="M239.42,-210.41C270.59,-223.56 324.44,-246.28 359.86,-261.23"/>
<polygon fill="#63b8ff" stroke="#63b8ff" points="358.25,-264.34 368.82,-265.01 360.97,-257.9 358.25,-264.34"/>
</a>
</g>
</g>
<!-- Node9&#45;&gt;Node4 -->
<g id="edge11_Node000009_Node000004" class="edge">
<title>Node9&#45;&gt;Node4</title>
<g id="a_edge11_Node000009_Node000004"><a xlink:title=" ">
<path fill="none" stroke="#63b8ff" d="M406.04,-143.22C423.25,-161.69 462.41,-200.41 504,-219 520.39,-226.33 539.24,-230.86 556.86,-233.65"/>
<polygon fill="#63b8ff" stroke="#63b8ff" points="556.33,-237.11 566.72,-235.03 557.3,-230.17 556.33,-237.11"/>
</a>
</g>
</g>
<!-- Node9&#45;&gt;Node8 -->
<g id="edge9_Node000009_Node000008" class="edge">
<title>Node9&#45;&gt;Node8</title>
<g id="a_edge9_Node000009_Node000008"><a xlink:title=" ">
<path fill="none" stroke="#63b8ff" d="M416.04,-143.4C437.04,-154.37 472,-171.35 504,-181 511.7,-183.32 519.78,-185.38 527.94,-187.2"/>
<polygon fill="#63b8ff" stroke="#63b8ff" points="527.1,-190.6 537.61,-189.23 528.54,-183.75 527.1,-190.6"/>
</a>
</g>
</g>
<!-- Node10 -->
<g id="Node000010" class="node">
<title>Node10</title>
<g id="a_Node000010"><a xlink:href="../../de/dde/namespaceace_1_1utils.html#ac3eadc5f289b54059322023f3c5eed96" target="_top" xlink:title="Checks if the passed string is alpha&#45;numeric with underscores (contains only numbers,...">
<polygon fill="white" stroke="#666666" points="674.88,-172 564.38,-172 564.38,-152 674.88,-152 674.88,-172"/>
<text text-anchor="middle" x="619.62" y="-158.5" font-family="Helvetica,sans-Serif" font-size="10.00">ace::utils::isAlNumUs</text>
</a>
</g>
</g>
<!-- Node9&#45;&gt;Node10 -->
<g id="edge10_Node000009_Node000010" class="edge">
<title>Node9&#45;&gt;Node10</title>
<g id="a_edge10_Node000009_Node000010"><a xlink:title=" ">
<path fill="none" stroke="#63b8ff" d="M451.97,-140.21C482.61,-144.21 520.93,-149.22 553.09,-153.43"/>
<polygon fill="#63b8ff" stroke="#63b8ff" points="552.32,-156.86 562.69,-154.69 553.23,-149.92 552.32,-156.86"/>
</a>
</g>
</g>
<!-- Node11 -->
<g id="Node000011" class="node">
<title>Node11</title>
<g id="a_Node000011"><a xlink:href="../../de/dde/namespaceace_1_1utils.html#a878c53ede8589dbc6a50734c9c4ad4d7" target="_top" xlink:title="Checks if the value is within some range.">
<polygon fill="white" stroke="#666666" points="671.88,-134 567.38,-134 567.38,-114 671.88,-114 671.88,-134"/>
<text text-anchor="middle" x="619.62" y="-120.5" font-family="Helvetica,sans-Serif" font-size="10.00">ace::utils::isInRange</text>
</a>
</g>
</g>
<!-- Node9&#45;&gt;Node11 -->
<g id="edge12_Node000009_Node000011" class="edge">
<title>Node9&#45;&gt;Node11</title>
<g id="a_edge12_Node000009_Node000011"><a xlink:title=" ">
<path fill="none" stroke="#63b8ff" d="M451.97,-130.76C483.53,-129.48 523.23,-127.87 555.97,-126.54"/>
<polygon fill="#63b8ff" stroke="#63b8ff" points="555.87,-130.05 565.72,-126.15 555.59,-123.06 555.87,-130.05"/>
</a>
</g>
</g>
<!-- Node12 -->
<g id="Node000012" class="node">
<title>Node12</title>
<g id="a_Node000012"><a xlink:href="../../da/dea/struct_a_e_log_entry.html#a42447b345f72f22ec655556af2db7c28" target="_top" xlink:title="Allocates the queue of the given size on the heap and returns the pointer to it&#39;s first node.">
<polygon fill="white" stroke="#666666" points="683.12,-96 556.12,-96 556.12,-76 683.12,-76 683.12,-96"/>
<text text-anchor="middle" x="619.62" y="-82.5" font-family="Helvetica,sans-Serif" font-size="10.00">AELogEntry::makeQueue</text>
</a>
</g>
</g>
<!-- Node9&#45;&gt;Node12 -->
<g id="edge13_Node000009_Node000012" class="edge">
<title>Node9&#45;&gt;Node12</title>
<g id="a_edge13_Node000009_Node000012"><a xlink:title=" ">
<path fill="none" stroke="#63b8ff" d="M433.37,-122.58C453.99,-116.91 480.31,-110.05 504,-105 517.02,-102.22 530.95,-99.62 544.46,-97.28"/>
<polygon fill="#63b8ff" stroke="#63b8ff" points="544.9,-100.75 554.17,-95.63 543.73,-93.85 544.9,-100.75"/>
</a>
</g>
</g>
<!-- Node13 -->
<g id="Node000013" class="node">
<title>Node13</title>
<g id="a_Node000013"><a xlink:href="../../d8/dfc/class_a_e_logger.html#af4bff840ffdcfcb5ecb1251fddbf9690" target="_top" xlink:title="Checks for the given index number and returns the pointer in the queue of log entries.">
<polygon fill="white" stroke="#666666" points="680.5,-58 558.75,-58 558.75,-38 680.5,-38 680.5,-58"/>
<text text-anchor="middle" x="619.62" y="-44.5" font-family="Helvetica,sans-Serif" font-size="10.00">AELogger::ptrFromIndex</text>
</a>
</g>
</g>
<!-- Node9&#45;&gt;Node13 -->
<g id="edge14_Node000009_Node000013" class="edge">
<title>Node9&#45;&gt;Node13</title>
<g id="a_edge14_Node000009_Node000013"><a xlink:title=" ">
<path fill="none" stroke="#63b8ff" d="M409.86,-122.65C429.17,-107.81 467.18,-80.79 504,-67 517.62,-61.9 532.67,-58.17 547.25,-55.43"/>
<polygon fill="#63b8ff" stroke="#63b8ff" points="547.53,-58.94 556.79,-53.79 546.34,-52.04 547.53,-58.94"/>
</a>
</g>
</g>
<!-- Node14 -->
<g id="Node000014" class="node">
<title>Node14</title>
<g id="a_Node000014"><a xlink:href="../../d8/dfc/class_a_e_logger.html#a50dfd96a74d13471faebd4de499db5bf" target="_top" xlink:title="Request a debug log entry to be written to the opened log file.">
<polygon fill="white" stroke="#666666" points="689.12,-20 550.12,-20 550.12,0 689.12,0 689.12,-20"/>
<text text-anchor="middle" x="619.62" y="-6.5" font-family="Helvetica,sans-Serif" font-size="10.00">AELogger::writeToLogDebug</text>
</a>
</g>
</g>
<!-- Node9&#45;&gt;Node14 -->
<g id="edge15_Node000009_Node000014" class="edge">
<title>Node9&#45;&gt;Node14</title>
<g id="a_edge15_Node000009_Node000014"><a xlink:title=" ">
<path fill="none" stroke="#63b8ff" d="M401.12,-122.81C414.06,-99.32 455.17,-44.64 504,-20 514.75,-14.57 526.73,-10.64 538.77,-7.92"/>
<polygon fill="#63b8ff" stroke="#63b8ff" points="539.19,-11.41 548.33,-6.05 537.84,-4.54 539.19,-11.41"/>
</a>
</g>
</g>
<!-- Node14&#45;&gt;Node9 -->
<g id="edge16_Node000014_Node000009" class="edge">
<title>Node14&#45;&gt;Node9</title>
<g id="a_edge16_Node000014_Node000009"><a xlink:title=" ">
<path fill="none" stroke="#63b8ff" d="M565.48,-20.5C545.37,-23.59 522.82,-28.5 504,-38 467.35,-56.5 435.05,-91.91 415.74,-114.1"/>
<polygon fill="#63b8ff" stroke="#63b8ff" points="413.18,-111.72 409.28,-121.57 418.47,-116.3 413.18,-111.72"/>
</a>
</g>
</g>
<!-- Node16 -->
<g id="Node000016" class="node">
<title>Node16</title>
<g id="a_Node000016"><a xlink:href="../../db/d15/class_a_e_file_writer.html#a0c238267ee45ca15672d4e9246cdca2c" target="_top" xlink:title="Flushes the opened file.">
<polygon fill="white" stroke="#666666" points="676.38,-324 562.88,-324 562.88,-304 676.38,-304 676.38,-324"/>
<text text-anchor="middle" x="619.62" y="-310.5" font-family="Helvetica,sans-Serif" font-size="10.00">AEFileWriter::flushFile</text>
</a>
</g>
</g>
<!-- Node15&#45;&gt;Node16 -->
<g id="edge18_Node000015_Node000016" class="edge">
<title>Node15&#45;&gt;Node16</title>
<g id="a_edge18_Node000015_Node000016"><a xlink:title=" ">
<path fill="none" stroke="#63b8ff" d="M455.23,-286.47C471.05,-289.28 488.18,-292.29 504,-295 519.36,-297.63 535.89,-300.41 551.48,-303"/>
<polygon fill="#63b8ff" stroke="#63b8ff" points="550.7,-306.42 561.14,-304.6 551.85,-299.51 550.7,-306.42"/>
</a>
</g>
</g>
<!-- Node17 -->
<g id="Node000017" class="node">
<title>Node17</title>
<g id="a_Node000017"><a xlink:href="../../da/dea/struct_a_e_log_entry.html#ab803ea47d06098feab470f265498f617" target="_top" xlink:title="Formats the passed entry to the given c&#45;string.">
<polygon fill="white" stroke="#666666" points="682,-286 557.25,-286 557.25,-266 682,-266 682,-286"/>
<text text-anchor="middle" x="619.62" y="-272.5" font-family="Helvetica,sans-Serif" font-size="10.00">AELogEntry::formatEntry</text>
</a>
</g>
</g>
<!-- Node15&#45;&gt;Node17 -->
<g id="edge19_Node000015_Node000017" class="edge">
<title>Node15&#45;&gt;Node17</title>
<g id="a_edge19_Node000015_Node000017"><a xlink:title=" ">
<path fill="none" stroke="#63b8ff" d="M468.26,-276C493.07,-276 520.92,-276 545.85,-276"/>
<polygon fill="#63b8ff" stroke="#63b8ff" points="545.56,-279.5 555.56,-276 545.56,-272.5 545.56,-279.5"/>
</a>
</g>
</g>
<!-- Node20 -->
<g id="Node000020" class="node">
<title>Node20</title>
<g id="a_Node000020"><a xlink:href="../../db/d15/class_a_e_file_writer.html#a01d537821c5760615e126f1c159b67da" target="_top" xlink:title="Write binary data, as is, to file, and flush if necessary.">
<polygon fill="white" stroke="#666666" points="686.88,-362 552.38,-362 552.38,-342 686.88,-342 686.88,-362"/>
<text text-anchor="middle" x="619.62" y="-348.5" font-family="Helvetica,sans-Serif" font-size="10.00">AEFileWriter::writeData_ptr</text>
</a>
</g>
</g>
<!-- Node15&#45;&gt;Node20 -->
<g id="edge22_Node000015_Node000020" class="edge">
<title>Node15&#45;&gt;Node20</title>
<g id="a_edge22_Node000015_Node000020"><a xlink:title=" ">
<path fill="none" stroke="#63b8ff" d="M412.47,-286.4C432.69,-299.39 469.48,-321.31 504,-333 515.75,-336.98 528.46,-340.14 541.01,-342.65"/>
<polygon fill="#63b8ff" stroke="#63b8ff" points="540,-346.03 550.47,-344.42 541.28,-339.14 540,-346.03"/>
</a>
</g>
</g>
<!-- Node18 -->
<g id="Node000018" class="node">
<title>Node18</title>
<g id="a_Node000018"><a xlink:href="../../de/dde/namespaceace_1_1utils.html#a2458b79e1a70255b471414a4bb5680ce" target="_top" xlink:title="Formats the current **(c)time point as YYYY&#45;MM&#45;DD.HH:mm:SS string**.">
<polygon fill="white" stroke="#666666" points="890.38,-286 781.38,-286 781.38,-266 890.38,-266 890.38,-286"/>
<text text-anchor="middle" x="835.88" y="-272.5" font-family="Helvetica,sans-Serif" font-size="10.00">ace::utils::formatDate</text>
</a>
</g>
</g>
<!-- Node17&#45;&gt;Node18 -->
<g id="edge20_Node000017_Node000018" class="edge">
<title>Node17&#45;&gt;Node18</title>
<g id="a_edge20_Node000017_Node000018"><a xlink:title=" ">
<path fill="none" stroke="#63b8ff" d="M682.31,-276C709.69,-276 741.93,-276 769.7,-276"/>
<polygon fill="#63b8ff" stroke="#63b8ff" points="769.39,-279.5 779.39,-276 769.39,-272.5 769.39,-279.5"/>
</a>
</g>
</g>
<!-- Node19 -->
<g id="Node000019" class="node">
<title>Node19</title>
<g id="a_Node000019"><a xlink:href="../../da/dea/struct_a_e_log_entry.html#a958d25c57a94cfae8e7f31843e6c63ef" target="_top" xlink:title="Deduces the entry&#39;s log type and returns a c&#45;string of it.">
<polygon fill="white" stroke="#666666" points="900.5,-324 771.25,-324 771.25,-304 900.5,-304 900.5,-324"/>
<text text-anchor="middle" x="835.88" y="-310.5" font-family="Helvetica,sans-Serif" font-size="10.00">AELogEntry::typeToString</text>
</a>
</g>
</g>
<!-- Node17&#45;&gt;Node19 -->
<g id="edge21_Node000017_Node000019" class="edge">
<title>Node17&#45;&gt;Node19</title>
<g id="a_edge21_Node000017_Node000019"><a xlink:title=" ">
<path fill="none" stroke="#63b8ff" d="M682.24,-285.93C699.42,-288.78 718.07,-291.94 735.25,-295 746.55,-297.01 758.55,-299.23 770.16,-301.42"/>
<polygon fill="#63b8ff" stroke="#63b8ff" points="769.18,-304.8 779.66,-303.22 770.49,-297.92 769.18,-304.8"/>
</a>
</g>
</g>
</g>
</svg>
