<?xml version="1.0" encoding="UTF-8" standalone="no"?>
<!DOCTYPE svg PUBLIC "-//W3C//DTD SVG 1.1//EN"
 "http://www.w3.org/Graphics/SVG/1.1/DTD/svg11.dtd">
<!-- Generated by graphviz version 10.0.1 (20240210.2158)
 -->
<!-- Title: AELogger::openLog Pages: 1 -->
<svg width="1337pt" height="669pt"
 viewBox="0.00 0.00 1336.75 669.00" xmlns="http://www.w3.org/2000/svg" xmlns:xlink="http://www.w3.org/1999/xlink">
<g id="graph0" class="graph" transform="scale(1 1) rotate(0) translate(4 665)">
<title>AELogger::openLog</title>
<!-- Node1 -->
<g id="Node000001" class="node">
<title>Node1</title>
<g id="a_Node000001"><a xlink:title="Open the file to start logging.">
<polygon fill="#999999" stroke="#666666" points="101.5,-471 0,-471 0,-451 101.5,-451 101.5,-471"/>
<text text-anchor="middle" x="50.75" y="-457.5" font-family="Helvetica,sans-Serif" font-size="10.00">AELogger::openLog</text>
</a>
</g>
</g>
<!-- Node2 -->
<g id="Node000002" class="node">
<title>Node2</title>
<g id="a_Node000002"><a xlink:href="../../d0/d8a/class_____a_e_module_base.html#a625c82f27195de3f9ab5af4fc7437e2f" target="_top" xlink:title="Get the name of the module.">
<polygon fill="white" stroke="#666666" points="1019.25,-319 788,-319 788,-299 1019.25,-299 1019.25,-319"/>
<text text-anchor="middle" x="903.62" y="-305.5" font-family="Helvetica,sans-Serif" font-size="10.00">__AEModuleBase&lt; AELogger &gt;::getModuleName</text>
</a>
</g>
</g>
<!-- Node1&#45;&gt;Node2 -->
<g id="edge1_Node000001_Node000002" class="edge">
<title>Node1&#45;&gt;Node2</title>
<g id="a_edge1_Node000001_Node000002"><a xlink:title=" ">
<path fill="none" stroke="#63b8ff" d="M59.45,-450.51C89.68,-410.68 204.94,-271 334.88,-271 334.88,-271 334.88,-271 498.75,-271 611.42,-271 740.99,-285.84 822.34,-296.97"/>
<polygon fill="#63b8ff" stroke="#63b8ff" points="821.6,-300.4 831.99,-298.31 822.56,-293.47 821.6,-300.4"/>
</a>
</g>
</g>
<!-- Node3 -->
<g id="Node000003" class="node">
<title>Node3</title>
<g id="a_Node000003"><a xlink:href="../../db/d15/class_a_e_file_writer.html#a939fe602eecb15ba71448a9de13bb2c0" target="_top" xlink:title="Open(and create) file with given name and flag.">
<polygon fill="white" stroke="#666666" points="960.75,-623 846.5,-623 846.5,-603 960.75,-603 960.75,-623"/>
<text text-anchor="middle" x="903.62" y="-609.5" font-family="Helvetica,sans-Serif" font-size="10.00">AEFileWriter::openFile</text>
</a>
</g>
</g>
<!-- Node1&#45;&gt;Node3 -->
<g id="edge2_Node000001_Node000003" class="edge">
<title>Node1&#45;&gt;Node3</title>
<g id="a_edge2_Node000001_Node000003"><a xlink:title=" ">
<path fill="none" stroke="#63b8ff" d="M61.98,-471.45C96.76,-505.79 214.93,-613 334.88,-613 334.88,-613 334.88,-613 498.75,-613 616.87,-613 754.43,-613 834.69,-613"/>
<polygon fill="#63b8ff" stroke="#63b8ff" points="834.59,-616.5 844.59,-613 834.59,-609.5 834.59,-616.5"/>
</a>
</g>
</g>
<!-- Node7 -->
<g id="Node000007" class="node">
<title>Node7</title>
<g id="a_Node000007"><a xlink:href="../../d8/dfc/class_a_e_logger.html#a284034896688215f7e87242764c5985d" target="_top" xlink:title="Starts the log&#45;writing thread.">
<polygon fill="white" stroke="#666666" points="248,-395 137.5,-395 137.5,-375 248,-375 248,-395"/>
<text text-anchor="middle" x="192.75" y="-381.5" font-family="Helvetica,sans-Serif" font-size="10.00">AELogger::startWriter</text>
</a>
</g>
</g>
<!-- Node1&#45;&gt;Node7 -->
<g id="edge7_Node000001_Node000007" class="edge">
<title>Node1&#45;&gt;Node7</title>
<g id="a_edge7_Node000001_Node000007"><a xlink:title=" ">
<path fill="none" stroke="#63b8ff" d="M70.92,-450.59C94.7,-437.69 135.44,-415.57 162.97,-400.62"/>
<polygon fill="#63b8ff" stroke="#63b8ff" points="164.36,-403.85 171.48,-396 161.02,-397.7 164.36,-403.85"/>
</a>
</g>
</g>
<!-- Node13 -->
<g id="Node000013" class="node">
<title>Node13</title>
<g id="a_Node000013"><a xlink:href="../../d8/dfc/class_a_e_logger.html#ac533941173224cb21fe09326726ce754" target="_top" xlink:title="Request a log entry to be written to the opened log file.">
<polygon fill="white" stroke="#666666" points="735.5,-395 624.25,-395 624.25,-375 735.5,-375 735.5,-395"/>
<text text-anchor="middle" x="679.88" y="-381.5" font-family="Helvetica,sans-Serif" font-size="10.00">AELogger::writeToLog</text>
</a>
</g>
</g>
<!-- Node1&#45;&gt;Node13 -->
<g id="edge43_Node000001_Node000013" class="edge">
<title>Node1&#45;&gt;Node13</title>
<g id="a_edge43_Node000001_Node000013"><a xlink:title=" ">
<path fill="none" stroke="#63b8ff" d="M73.94,-471.4C148.56,-504.8 395.62,-602.29 571.75,-518 620.82,-494.52 654.58,-436.38 669.77,-405.32"/>
<polygon fill="#63b8ff" stroke="#63b8ff" points="672.78,-407.13 673.87,-396.59 666.45,-404.15 672.78,-407.13"/>
</a>
</g>
</g>
<!-- Node4 -->
<g id="Node000004" class="node">
<title>Node4</title>
<g id="a_Node000004"><a xlink:href="../../de/dde/namespaceace_1_1utils.html#a6eb2322353edc04f78dbc3589e60d98c" target="_top" xlink:title="A wrapper to make the proper cross&#45;compiler version of fopen().">
<polygon fill="white" stroke="#666666" points="1169.12,-661 1070.62,-661 1070.62,-641 1169.12,-641 1169.12,-661"/>
<text text-anchor="middle" x="1119.88" y="-647.5" font-family="Helvetica,sans-Serif" font-size="10.00">ace::utils::fopenCC</text>
</a>
</g>
</g>
<!-- Node3&#45;&gt;Node4 -->
<g id="edge3_Node000003_Node000004" class="edge">
<title>Node3&#45;&gt;Node4</title>
<g id="a_edge3_Node000003_Node000004"><a xlink:title=" ">
<path fill="none" stroke="#63b8ff" d="M961.2,-623.03C991.45,-628.4 1028.69,-635 1059.37,-640.45"/>
<polygon fill="#63b8ff" stroke="#63b8ff" points="1058.41,-643.83 1068.87,-642.13 1059.63,-636.94 1058.41,-643.83"/>
</a>
</g>
</g>
<!-- Node5 -->
<g id="Node000005" class="node">
<title>Node5</title>
<g id="a_Node000005"><a xlink:href="../../db/d15/class_a_e_file_writer.html#a0743145db01b527ae9612f359e5c0090" target="_top" xlink:title="Checks if a file isn&#39;t open by this file&#45;writer.">
<polygon fill="white" stroke="#666666" points="1177.38,-585 1062.38,-585 1062.38,-565 1177.38,-565 1177.38,-585"/>
<text text-anchor="middle" x="1119.88" y="-571.5" font-family="Helvetica,sans-Serif" font-size="10.00">AEFileWriter::isClosed</text>
</a>
</g>
</g>
<!-- Node3&#45;&gt;Node5 -->
<g id="edge4_Node000003_Node000005" class="edge">
<title>Node3&#45;&gt;Node5</title>
<g id="a_edge4_Node000003_Node000005"><a xlink:title=" ">
<path fill="none" stroke="#63b8ff" d="M961.22,-603.9C979.74,-600.85 1000.38,-597.36 1019.25,-594 1030.55,-591.99 1042.55,-589.77 1054.16,-587.58"/>
<polygon fill="#63b8ff" stroke="#63b8ff" points="1054.49,-591.08 1063.66,-585.78 1053.18,-584.2 1054.49,-591.08"/>
</a>
</g>
</g>
<!-- Node6 -->
<g id="Node000006" class="node">
<title>Node6</title>
<g id="a_Node000006"><a xlink:href="../../db/d15/class_a_e_file_writer.html#a47e3c08c276394bce7b612331cf4762d" target="_top" xlink:title="Checks if a file is open by this file&#45;writer.">
<polygon fill="white" stroke="#666666" points="1328.75,-604 1220.5,-604 1220.5,-584 1328.75,-584 1328.75,-604"/>
<text text-anchor="middle" x="1274.62" y="-590.5" font-family="Helvetica,sans-Serif" font-size="10.00">AEFileWriter::isOpen</text>
</a>
</g>
</g>
<!-- Node3&#45;&gt;Node6 -->
<g id="edge6_Node000003_Node000006" class="edge">
<title>Node3&#45;&gt;Node6</title>
<g id="a_edge6_Node000003_Node000006"><a xlink:title=" ">
<path fill="none" stroke="#63b8ff" d="M961.07,-610.09C1027.81,-606.66 1138.68,-600.95 1208.86,-597.33"/>
<polygon fill="#63b8ff" stroke="#63b8ff" points="1208.87,-600.84 1218.67,-596.83 1208.51,-593.85 1208.87,-600.84"/>
</a>
</g>
</g>
<!-- Node5&#45;&gt;Node6 -->
<g id="edge5_Node000005_Node000006" class="edge">
<title>Node5&#45;&gt;Node6</title>
<g id="a_edge5_Node000005_Node000006"><a xlink:title=" ">
<path fill="none" stroke="#63b8ff" d="M1177.75,-582.07C1187.97,-583.35 1198.68,-584.68 1209.1,-585.97"/>
<polygon fill="#63b8ff" stroke="#63b8ff" points="1208.38,-589.41 1218.74,-587.17 1209.25,-582.47 1208.38,-589.41"/>
</a>
</g>
</g>
<!-- Node7&#45;&gt;Node2 -->
<g id="edge32_Node000007_Node000002" class="edge">
<title>Node7&#45;&gt;Node2</title>
<g id="a_edge32_Node000007_Node000002"><a xlink:title=" ">
<path fill="none" stroke="#63b8ff" d="M226.85,-374.54C271.17,-361.05 352.48,-338.14 423.75,-328 542.61,-311.09 679.61,-307.21 776.54,-307.04"/>
<polygon fill="#63b8ff" stroke="#63b8ff" points="776.35,-310.54 786.35,-307.04 776.35,-303.54 776.35,-310.54"/>
</a>
</g>
</g>
<!-- Node8 -->
<g id="Node000008" class="node">
<title>Node8</title>
<g id="a_Node000008"><a xlink:href="../../d8/dfc/class_a_e_logger.html#a2f64d8f5de2f249f7cb973a82ec1e48a" target="_top" xlink:title="Close the file, if it was opened.">
<polygon fill="white" stroke="#666666" points="387.75,-433 284,-433 284,-413 387.75,-413 387.75,-433"/>
<text text-anchor="middle" x="335.88" y="-419.5" font-family="Helvetica,sans-Serif" font-size="10.00">AELogger::closeLog</text>
</a>
</g>
</g>
<!-- Node7&#45;&gt;Node8 -->
<g id="edge8_Node000007_Node000008" class="edge">
<title>Node7&#45;&gt;Node8</title>
<g id="a_edge8_Node000007_Node000008"><a xlink:title=" ">
<path fill="none" stroke="#63b8ff" d="M232.69,-395.48C248.88,-399.85 267.88,-404.96 285.08,-409.59"/>
<polygon fill="#63b8ff" stroke="#63b8ff" points="284.04,-412.94 294.6,-412.16 285.86,-406.18 284.04,-412.94"/>
</a>
</g>
</g>
<!-- Node7&#45;&gt;Node13 -->
<g id="edge42_Node000007_Node000013" class="edge">
<title>Node7&#45;&gt;Node13</title>
<g id="a_edge42_Node000007_Node000013"><a xlink:title=" ">
<path fill="none" stroke="#63b8ff" d="M248.46,-385C338.11,-385 515.98,-385 612.62,-385"/>
<polygon fill="#63b8ff" stroke="#63b8ff" points="612.48,-388.5 622.48,-385 612.48,-381.5 612.48,-388.5"/>
</a>
</g>
</g>
<!-- Node25 -->
<g id="Node000025" class="node">
<title>Node25</title>
<g id="a_Node000025"><a xlink:href="../../d8/dfc/class_a_e_logger.html#a5938787b6933f4b96ebff10643bd2497" target="_top" xlink:title="The function of the log writing thread to...read the entries, format them, write them,...">
<polygon fill="white" stroke="#666666" points="564.25,-167 431.25,-167 431.25,-147 564.25,-147 564.25,-167"/>
<text text-anchor="middle" x="497.75" y="-153.5" font-family="Helvetica,sans-Serif" font-size="10.00">AELogger::logWriterThread</text>
</a>
</g>
</g>
<!-- Node7&#45;&gt;Node25 -->
<g id="edge33_Node000007_Node000025" class="edge">
<title>Node7&#45;&gt;Node25</title>
<g id="a_edge33_Node000007_Node000025"><a xlink:title=" ">
<path fill="none" stroke="#63b8ff" d="M202.87,-374.58C218.5,-357.04 251.82,-321.01 284,-295 345.71,-245.13 425.98,-197.08 468.09,-173"/>
<polygon fill="#63b8ff" stroke="#63b8ff" points="469.65,-176.14 476.62,-168.16 466.19,-170.05 469.65,-176.14"/>
</a>
</g>
</g>
<!-- Node9 -->
<g id="Node000009" class="node">
<title>Node9</title>
<g id="a_Node000009"><a xlink:href="../../db/d15/class_a_e_file_writer.html#a05ceb471801ae111d68859f9d3b9eb78" target="_top" xlink:title="Closes the currently opened file.">
<polygon fill="white" stroke="#666666" points="556,-509 439.5,-509 439.5,-489 556,-489 556,-509"/>
<text text-anchor="middle" x="497.75" y="-495.5" font-family="Helvetica,sans-Serif" font-size="10.00">AEFileWriter::closeFile</text>
</a>
</g>
</g>
<!-- Node8&#45;&gt;Node9 -->
<g id="edge9_Node000008_Node000009" class="edge">
<title>Node8&#45;&gt;Node9</title>
<g id="a_edge9_Node000008_Node000009"><a xlink:title=" ">
<path fill="none" stroke="#63b8ff" d="M349.64,-433.32C365.92,-446.01 395.39,-467.42 423.75,-480 427.99,-481.88 432.46,-483.61 437.01,-485.18"/>
<polygon fill="#63b8ff" stroke="#63b8ff" points="435.66,-488.43 446.25,-488.13 437.79,-481.76 435.66,-488.43"/>
</a>
</g>
</g>
<!-- Node10 -->
<g id="Node000010" class="node">
<title>Node10</title>
<g id="a_Node000010"><a xlink:href="../../db/d15/class_a_e_file_writer.html#a26ea7c97bfdbed142df1863d8d47d895" target="_top" xlink:title="Returns the full name of currently open file, including the relative path, if such was provided.">
<polygon fill="white" stroke="#666666" points="571.75,-471 423.75,-471 423.75,-451 571.75,-451 571.75,-471"/>
<text text-anchor="middle" x="497.75" y="-457.5" font-family="Helvetica,sans-Serif" font-size="10.00">AEFileWriter::getFullFileName</text>
</a>
</g>
</g>
<!-- Node8&#45;&gt;Node10 -->
<g id="edge10_Node000008_Node000010" class="edge">
<title>Node8&#45;&gt;Node10</title>
<g id="a_edge10_Node000008_Node000010"><a xlink:title=" ">
<path fill="none" stroke="#63b8ff" d="M380.98,-433.48C399.77,-437.95 421.88,-443.21 441.72,-447.92"/>
<polygon fill="#63b8ff" stroke="#63b8ff" points="440.77,-451.29 451.31,-450.2 442.39,-444.48 440.77,-451.29"/>
</a>
</g>
</g>
<!-- Node11 -->
<g id="Node000011" class="node">
<title>Node11</title>
<g id="a_Node000011"><a xlink:href="../../d8/dfc/class_a_e_logger.html#a4d512bf9f4d0a6a1b6a332b9c99e22ac" target="_top" xlink:title="Checks if a log file isn&#39;t open by this logger.">
<polygon fill="white" stroke="#666666" points="954.75,-585 852.5,-585 852.5,-565 954.75,-565 954.75,-585"/>
<text text-anchor="middle" x="903.62" y="-571.5" font-family="Helvetica,sans-Serif" font-size="10.00">AELogger::isClosed</text>
</a>
</g>
</g>
<!-- Node8&#45;&gt;Node11 -->
<g id="edge11_Node000008_Node000011" class="edge">
<title>Node8&#45;&gt;Node11</title>
<g id="a_edge11_Node000008_Node000011"><a xlink:title=" ">
<path fill="none" stroke="#63b8ff" d="M342.72,-433.22C354.87,-453.39 384.98,-498.1 423.75,-518 559.78,-587.83 745.45,-587.04 840.69,-580.84"/>
<polygon fill="#63b8ff" stroke="#63b8ff" points="840.89,-584.34 850.62,-580.15 840.4,-577.36 840.89,-584.34"/>
</a>
</g>
</g>
<!-- Node12 -->
<g id="Node000012" class="node">
<title>Node12</title>
<g id="a_Node000012"><a xlink:href="../../d8/dfc/class_a_e_logger.html#a53b212c259c40bda694476f09d1f171b" target="_top" xlink:title="Stops the log&#45;writing thread (after flushing the log queue).">
<polygon fill="white" stroke="#666666" points="552.62,-357 442.88,-357 442.88,-337 552.62,-337 552.62,-357"/>
<text text-anchor="middle" x="497.75" y="-343.5" font-family="Helvetica,sans-Serif" font-size="10.00">AELogger::stopWriter</text>
</a>
</g>
</g>
<!-- Node8&#45;&gt;Node12 -->
<g id="edge13_Node000008_Node000012" class="edge">
<title>Node8&#45;&gt;Node12</title>
<g id="a_edge13_Node000008_Node000012"><a xlink:title=" ">
<path fill="none" stroke="#63b8ff" d="M358.77,-412.59C386.2,-399.55 433.41,-377.11 464.86,-362.16"/>
<polygon fill="#63b8ff" stroke="#63b8ff" points="465.97,-365.51 473.5,-358.05 462.96,-359.19 465.97,-365.51"/>
</a>
</g>
</g>
<!-- Node8&#45;&gt;Node13 -->
<g id="edge30_Node000008_Node000013" class="edge">
<title>Node8&#45;&gt;Node13</title>
<g id="a_edge30_Node000008_Node000013"><a xlink:title=" ">
<path fill="none" stroke="#63b8ff" d="M388.24,-418.17C435.85,-413.6 508.64,-406.35 571.75,-399 585,-397.46 599.15,-395.69 612.68,-393.95"/>
<polygon fill="#63b8ff" stroke="#63b8ff" points="612.9,-397.45 622.36,-392.69 611.99,-390.51 612.9,-397.45"/>
</a>
</g>
</g>
<!-- Node19 -->
<g id="Node000019" class="node">
<title>Node19</title>
<g id="a_Node000019"><a xlink:href="../../d8/dfc/class_a_e_logger.html#a54bad71bcfea05c3d17d7ba1bacfec8c" target="_top" xlink:title="Writes to log directly, without thinking of the queue.">
<polygon fill="white" stroke="#666666" points="752,-91 607.75,-91 607.75,-71 752,-71 752,-91"/>
<text text-anchor="middle" x="679.88" y="-77.5" font-family="Helvetica,sans-Serif" font-size="10.00">AELogger::writeToLogDirectly</text>
</a>
</g>
</g>
<!-- Node8&#45;&gt;Node19 -->
<g id="edge31_Node000008_Node000019" class="edge">
<title>Node8&#45;&gt;Node19</title>
<g id="a_edge31_Node000008_Node000019"><a xlink:title=" ">
<path fill="none" stroke="#63b8ff" d="M336.6,-412.55C336.1,-370.94 340.09,-215.53 423.75,-138 469.84,-95.29 540.71,-82.1 596.06,-79"/>
<polygon fill="#63b8ff" stroke="#63b8ff" points="595.93,-82.51 605.76,-78.57 595.61,-75.52 595.93,-82.51"/>
</a>
</g>
</g>
<!-- Node11&#45;&gt;Node5 -->
<g id="edge12_Node000011_Node000005" class="edge">
<title>Node11&#45;&gt;Node5</title>
<g id="a_edge12_Node000011_Node000005"><a xlink:title=" ">
<path fill="none" stroke="#63b8ff" d="M955.13,-575C983.67,-575 1019.73,-575 1050.74,-575"/>
<polygon fill="#63b8ff" stroke="#63b8ff" points="1050.4,-578.5 1060.4,-575 1050.4,-571.5 1050.4,-578.5"/>
</a>
</g>
</g>
<!-- Node12&#45;&gt;Node2 -->
<g id="edge14_Node000012_Node000002" class="edge">
<title>Node12&#45;&gt;Node2</title>
<g id="a_edge14_Node000012_Node000002"><a xlink:title=" ">
<path fill="none" stroke="#63b8ff" d="M552.8,-341.91C610.68,-336.47 704.43,-327.65 780.32,-320.51"/>
<polygon fill="#63b8ff" stroke="#63b8ff" points="780.24,-324.03 789.87,-319.61 779.58,-317.06 780.24,-324.03"/>
</a>
</g>
</g>
<!-- Node12&#45;&gt;Node13 -->
<g id="edge15_Node000012_Node000013" class="edge">
<title>Node12&#45;&gt;Node13</title>
<g id="a_edge15_Node000012_Node000013"><a xlink:title=" ">
<path fill="none" stroke="#63b8ff" d="M548.45,-357.48C570,-362.03 595.45,-367.4 618.12,-372.18"/>
<polygon fill="#63b8ff" stroke="#63b8ff" points="617.35,-375.6 627.86,-374.24 618.8,-368.75 617.35,-375.6"/>
</a>
</g>
</g>
<!-- Node12&#45;&gt;Node19 -->
<g id="edge24_Node000012_Node000019" class="edge">
<title>Node12&#45;&gt;Node19</title>
<g id="a_edge24_Node000012_Node000019"><a xlink:title=" ">
<path fill="none" stroke="#63b8ff" d="M502.42,-336.54C514.06,-304.37 552.66,-205.02 607.75,-138 620.57,-122.41 638.27,-108.2 652.81,-97.87"/>
<polygon fill="#63b8ff" stroke="#63b8ff" points="654.76,-100.77 661.02,-92.23 650.8,-95.01 654.76,-100.77"/>
</a>
</g>
</g>
<!-- Node13&#45;&gt;Node2 -->
<g id="edge16_Node000013_Node000002" class="edge">
<title>Node13&#45;&gt;Node2</title>
<g id="a_edge16_Node000013_Node000002"><a xlink:title=" ">
<path fill="none" stroke="#63b8ff" d="M721.29,-374.6C731.68,-371.07 742.58,-366.57 752,-361 770.69,-349.96 768.49,-337.5 788,-328 791.71,-326.19 795.56,-324.56 799.5,-323.07"/>
<polygon fill="#63b8ff" stroke="#63b8ff" points="800.33,-326.48 808.68,-319.96 798.09,-319.85 800.33,-326.48"/>
</a>
</g>
</g>
<!-- Node13&#45;&gt;Node11 -->
<g id="edge18_Node000013_Node000011" class="edge">
<title>Node13&#45;&gt;Node11</title>
<g id="a_edge18_Node000013_Node000011"><a xlink:title=" ">
<path fill="none" stroke="#63b8ff" d="M686.93,-395.25C701.61,-419.36 741.32,-480.48 788,-518 810.43,-536.03 839.5,-550.41 862.75,-560.21"/>
<polygon fill="#63b8ff" stroke="#63b8ff" points="861.32,-563.41 871.91,-563.95 863.97,-556.93 861.32,-563.41"/>
</a>
</g>
</g>
<!-- Node14 -->
<g id="Node000014" class="node">
<title>Node14</title>
<g id="a_Node000014"><a xlink:href="../../de/dde/namespaceace_1_1utils.html#ac3eadc5f289b54059322023f3c5eed96" target="_top" xlink:title="Checks if the passed string is alpha&#45;numeric with underscores (contains only numbers,...">
<polygon fill="white" stroke="#666666" points="958.88,-509 848.38,-509 848.38,-489 958.88,-489 958.88,-509"/>
<text text-anchor="middle" x="903.62" y="-495.5" font-family="Helvetica,sans-Serif" font-size="10.00">ace::utils::isAlNumUs</text>
</a>
</g>
</g>
<!-- Node13&#45;&gt;Node14 -->
<g id="edge17_Node000013_Node000014" class="edge">
<title>Node13&#45;&gt;Node14</title>
<g id="a_edge17_Node000013_Node000014"><a xlink:title=" ">
<path fill="none" stroke="#63b8ff" d="M689.02,-395.37C705.4,-415.39 744.47,-459.25 788,-480 803.02,-487.16 820.25,-491.68 836.72,-494.51"/>
<polygon fill="#63b8ff" stroke="#63b8ff" points="836.05,-497.95 846.47,-495.99 837.11,-491.03 836.05,-497.95"/>
</a>
</g>
</g>
<!-- Node15 -->
<g id="Node000015" class="node">
<title>Node15</title>
<g id="a_Node000015"><a xlink:href="../../de/dde/namespaceace_1_1utils.html#a878c53ede8589dbc6a50734c9c4ad4d7" target="_top" xlink:title="Checks if the value is within some range.">
<polygon fill="white" stroke="#666666" points="955.88,-471 851.38,-471 851.38,-451 955.88,-451 955.88,-471"/>
<text text-anchor="middle" x="903.62" y="-457.5" font-family="Helvetica,sans-Serif" font-size="10.00">ace::utils::isInRange</text>
</a>
</g>
</g>
<!-- Node13&#45;&gt;Node15 -->
<g id="edge19_Node000013_Node000015" class="edge">
<title>Node13&#45;&gt;Node15</title>
<g id="a_edge19_Node000013_Node000015"><a xlink:title=" ">
<path fill="none" stroke="#63b8ff" d="M696.47,-395.4C716.69,-408.39 753.48,-430.31 788,-442 804.46,-447.57 822.81,-451.55 839.93,-454.37"/>
<polygon fill="#63b8ff" stroke="#63b8ff" points="839.06,-457.78 849.47,-455.83 840.12,-450.86 839.06,-457.78"/>
</a>
</g>
</g>
<!-- Node16 -->
<g id="Node000016" class="node">
<title>Node16</title>
<g id="a_Node000016"><a xlink:href="../../da/dea/struct_a_e_log_entry.html#a42447b345f72f22ec655556af2db7c28" target="_top" xlink:title="Allocates the queue of the given size on the heap and returns the pointer to it&#39;s first node.">
<polygon fill="white" stroke="#666666" points="967.12,-433 840.12,-433 840.12,-413 967.12,-413 967.12,-433"/>
<text text-anchor="middle" x="903.62" y="-419.5" font-family="Helvetica,sans-Serif" font-size="10.00">AELogEntry::makeQueue</text>
</a>
</g>
</g>
<!-- Node13&#45;&gt;Node16 -->
<g id="edge20_Node000013_Node000016" class="edge">
<title>Node13&#45;&gt;Node16</title>
<g id="a_edge20_Node000013_Node000016"><a xlink:title=" ">
<path fill="none" stroke="#63b8ff" d="M735.9,-394.88C752.63,-397.85 771.06,-401.09 788,-404 801.12,-406.25 815.1,-408.61 828.62,-410.86"/>
<polygon fill="#63b8ff" stroke="#63b8ff" points="827.91,-414.29 838.35,-412.48 829.06,-407.38 827.91,-414.29"/>
</a>
</g>
</g>
<!-- Node17 -->
<g id="Node000017" class="node">
<title>Node17</title>
<g id="a_Node000017"><a xlink:href="../../d8/dfc/class_a_e_logger.html#af4bff840ffdcfcb5ecb1251fddbf9690" target="_top" xlink:title="Checks for the given index number and returns the pointer in the queue of log entries.">
<polygon fill="white" stroke="#666666" points="964.5,-395 842.75,-395 842.75,-375 964.5,-375 964.5,-395"/>
<text text-anchor="middle" x="903.62" y="-381.5" font-family="Helvetica,sans-Serif" font-size="10.00">AELogger::ptrFromIndex</text>
</a>
</g>
</g>
<!-- Node13&#45;&gt;Node17 -->
<g id="edge21_Node000013_Node000017" class="edge">
<title>Node13&#45;&gt;Node17</title>
<g id="a_edge21_Node000013_Node000017"><a xlink:title=" ">
<path fill="none" stroke="#63b8ff" d="M735.97,-385C764.76,-385 800.34,-385 831.21,-385"/>
<polygon fill="#63b8ff" stroke="#63b8ff" points="830.84,-388.5 840.84,-385 830.84,-381.5 830.84,-388.5"/>
</a>
</g>
</g>
<!-- Node18 -->
<g id="Node000018" class="node">
<title>Node18</title>
<g id="a_Node000018"><a xlink:href="../../d8/dfc/class_a_e_logger.html#a50dfd96a74d13471faebd4de499db5bf" target="_top" xlink:title="Request a debug log entry to be written to the opened log file.">
<polygon fill="white" stroke="#666666" points="973.12,-357 834.12,-357 834.12,-337 973.12,-337 973.12,-357"/>
<text text-anchor="middle" x="903.62" y="-343.5" font-family="Helvetica,sans-Serif" font-size="10.00">AELogger::writeToLogDebug</text>
</a>
</g>
</g>
<!-- Node13&#45;&gt;Node18 -->
<g id="edge22_Node000013_Node000018" class="edge">
<title>Node13&#45;&gt;Node18</title>
<g id="a_edge22_Node000013_Node000018"><a xlink:title=" ">
<path fill="none" stroke="#63b8ff" d="M701.4,-374.57C722.95,-368.41 757.84,-362.17 788,-357 799.22,-355.07 811.07,-353.07 822.72,-351.22"/>
<polygon fill="#63b8ff" stroke="#63b8ff" points="822.97,-354.73 832.31,-349.73 821.89,-347.81 822.97,-354.73"/>
</a>
</g>
</g>
<!-- Node18&#45;&gt;Node13 -->
<g id="edge23_Node000018_Node000013" class="edge">
<title>Node18&#45;&gt;Node13</title>
<g id="a_edge23_Node000018_Node000013"><a xlink:title=" ">
<path fill="none" stroke="#63b8ff" d="M880.21,-357.4C857.09,-363.41 820.01,-369.51 788,-375 774.76,-377.27 760.62,-379.75 747.09,-381.94"/>
<polygon fill="#63b8ff" stroke="#63b8ff" points="746.73,-378.46 737.4,-383.48 747.82,-385.37 746.73,-378.46"/>
</a>
</g>
</g>
<!-- Node20 -->
<g id="Node000020" class="node">
<title>Node20</title>
<g id="a_Node000020"><a xlink:href="../../db/d15/class_a_e_file_writer.html#a0c238267ee45ca15672d4e9246cdca2c" target="_top" xlink:title="Flushes the opened file.">
<polygon fill="white" stroke="#666666" points="960.38,-110 846.88,-110 846.88,-90 960.38,-90 960.38,-110"/>
<text text-anchor="middle" x="903.62" y="-96.5" font-family="Helvetica,sans-Serif" font-size="10.00">AEFileWriter::flushFile</text>
</a>
</g>
</g>
<!-- Node19&#45;&gt;Node20 -->
<g id="edge25_Node000019_Node000020" class="edge">
<title>Node19&#45;&gt;Node20</title>
<g id="a_edge25_Node000019_Node000020"><a xlink:title=" ">
<path fill="none" stroke="#63b8ff" d="M752.26,-87.12C778.84,-89.39 808.9,-91.97 835.12,-94.22"/>
<polygon fill="#63b8ff" stroke="#63b8ff" points="834.72,-97.69 844.98,-95.06 835.31,-90.72 834.72,-97.69"/>
</a>
</g>
</g>
<!-- Node21 -->
<g id="Node000021" class="node">
<title>Node21</title>
<g id="a_Node000021"><a xlink:href="../../da/dea/struct_a_e_log_entry.html#ab803ea47d06098feab470f265498f617" target="_top" xlink:title="Formats the passed entry to the given c&#45;string.">
<polygon fill="white" stroke="#666666" points="966,-63 841.25,-63 841.25,-43 966,-43 966,-63"/>
<text text-anchor="middle" x="903.62" y="-49.5" font-family="Helvetica,sans-Serif" font-size="10.00">AELogEntry::formatEntry</text>
</a>
</g>
</g>
<!-- Node19&#45;&gt;Node21 -->
<g id="edge26_Node000019_Node000021" class="edge">
<title>Node19&#45;&gt;Node21</title>
<g id="a_edge26_Node000019_Node000021"><a xlink:title=" ">
<path fill="none" stroke="#63b8ff" d="M752.26,-71.99C777.07,-68.85 804.92,-65.34 829.85,-62.19"/>
<polygon fill="#63b8ff" stroke="#63b8ff" points="830.09,-65.69 839.57,-60.96 829.21,-58.74 830.09,-65.69"/>
</a>
</g>
</g>
<!-- Node24 -->
<g id="Node000024" class="node">
<title>Node24</title>
<g id="a_Node000024"><a xlink:href="../../db/d15/class_a_e_file_writer.html#a01d537821c5760615e126f1c159b67da" target="_top" xlink:title="Write binary data, as is, to file, and flush if necessary.">
<polygon fill="white" stroke="#666666" points="970.88,-20 836.38,-20 836.38,0 970.88,0 970.88,-20"/>
<text text-anchor="middle" x="903.62" y="-6.5" font-family="Helvetica,sans-Serif" font-size="10.00">AEFileWriter::writeData_ptr</text>
</a>
</g>
</g>
<!-- Node19&#45;&gt;Node24 -->
<g id="edge29_Node000019_Node000024" class="edge">
<title>Node19&#45;&gt;Node24</title>
<g id="a_edge29_Node000019_Node000024"><a xlink:title=" ">
<path fill="none" stroke="#63b8ff" d="M701.32,-70.51C722.52,-59.99 756.86,-43.97 788,-34 801.37,-29.72 815.86,-26 829.91,-22.85"/>
<polygon fill="#63b8ff" stroke="#63b8ff" points="830.52,-26.3 839.56,-20.77 829.05,-19.46 830.52,-26.3"/>
</a>
</g>
</g>
<!-- Node22 -->
<g id="Node000022" class="node">
<title>Node22</title>
<g id="a_Node000022"><a xlink:href="../../de/dde/namespaceace_1_1utils.html#a2458b79e1a70255b471414a4bb5680ce" target="_top" xlink:title="Formats the current **(c)time point as YYYY&#45;MM&#45;DD.HH:mm:SS string**.">
<polygon fill="white" stroke="#666666" points="1174.38,-44 1065.38,-44 1065.38,-24 1174.38,-24 1174.38,-44"/>
<text text-anchor="middle" x="1119.88" y="-30.5" font-family="Helvetica,sans-Serif" font-size="10.00">ace::utils::formatDate</text>
</a>
</g>
</g>
<!-- Node21&#45;&gt;Node22 -->
<g id="edge27_Node000021_Node000022" class="edge">
<title>Node21&#45;&gt;Node22</title>
<g id="a_edge27_Node000021_Node000022"><a xlink:title=" ">
<path fill="none" stroke="#63b8ff" d="M966.31,-47.53C993.69,-45.1 1025.93,-42.24 1053.7,-39.78"/>
<polygon fill="#63b8ff" stroke="#63b8ff" points="1053.74,-43.29 1063.4,-38.92 1053.13,-36.32 1053.74,-43.29"/>
</a>
</g>
</g>
<!-- Node23 -->
<g id="Node000023" class="node">
<title>Node23</title>
<g id="a_Node000023"><a xlink:href="../../da/dea/struct_a_e_log_entry.html#a958d25c57a94cfae8e7f31843e6c63ef" target="_top" xlink:title="Deduces the entry&#39;s log type and returns a c&#45;string of it.">
<polygon fill="white" stroke="#666666" points="1184.5,-82 1055.25,-82 1055.25,-62 1184.5,-62 1184.5,-82"/>
<text text-anchor="middle" x="1119.88" y="-68.5" font-family="Helvetica,sans-Serif" font-size="10.00">AELogEntry::typeToString</text>
</a>
</g>
</g>
<!-- Node21&#45;&gt;Node23 -->
<g id="edge28_Node000021_Node000023" class="edge">
<title>Node21&#45;&gt;Node23</title>
<g id="a_edge28_Node000021_Node000023"><a xlink:title=" ">
<path fill="none" stroke="#63b8ff" d="M966.31,-58.47C990.43,-60.61 1018.32,-63.08 1043.61,-65.33"/>
<polygon fill="#63b8ff" stroke="#63b8ff" points="1043.24,-68.81 1053.51,-66.2 1043.86,-61.83 1043.24,-68.81"/>
</a>
</g>
</g>
<!-- Node25&#45;&gt;Node2 -->
<g id="edge37_Node000025_Node000002" class="edge">
<title>Node25&#45;&gt;Node2</title>
<g id="a_edge37_Node000025_Node000002"><a xlink:title=" ">
<path fill="none" stroke="#63b8ff" d="M516,-167.35C537.08,-179.69 574.11,-200.34 607.75,-214 669.73,-239.17 688.31,-236.52 752,-257 789.88,-269.18 832.75,-284.09 863.03,-294.81"/>
<polygon fill="#63b8ff" stroke="#63b8ff" points="861.57,-298.01 872.16,-298.06 863.91,-291.41 861.57,-298.01"/>
</a>
</g>
</g>
<!-- Node25&#45;&gt;Node13 -->
<g id="edge40_Node000025_Node000013" class="edge">
<title>Node25&#45;&gt;Node13</title>
<g id="a_edge40_Node000025_Node000013"><a xlink:title=" ">
<path fill="none" stroke="#63b8ff" d="M506.96,-167.39C534.97,-202.85 627.1,-319.47 663.7,-365.79"/>
<polygon fill="#63b8ff" stroke="#63b8ff" points="660.74,-367.69 669.68,-373.36 666.23,-363.35 660.74,-367.69"/>
</a>
</g>
</g>
<!-- Node25&#45;&gt;Node19 -->
<g id="edge41_Node000025_Node000019" class="edge">
<title>Node25&#45;&gt;Node19</title>
<g id="a_edge41_Node000025_Node000019"><a xlink:title=" ">
<path fill="none" stroke="#63b8ff" d="M518.52,-146.69C540.11,-135.63 575.89,-117.92 607.75,-105 616.34,-101.52 625.64,-98.12 634.6,-95.03"/>
<polygon fill="#63b8ff" stroke="#63b8ff" points="635.49,-98.42 643.85,-91.9 633.26,-91.78 635.49,-98.42"/>
</a>
</g>
</g>
<!-- Node25&#45;&gt;Node20 -->
<g id="edge35_Node000025_Node000020" class="edge">
<title>Node25&#45;&gt;Node20</title>
<g id="a_edge35_Node000025_Node000020"><a xlink:title=" ">
<path fill="none" stroke="#63b8ff" d="M556.09,-146.51C572.73,-143.6 590.94,-140.55 607.75,-138 685.66,-126.2 775.51,-114.96 835.35,-107.81"/>
<polygon fill="#63b8ff" stroke="#63b8ff" points="835.52,-111.31 845.04,-106.65 834.69,-104.36 835.52,-111.31"/>
</a>
</g>
</g>
<!-- Node25&#45;&gt;Node21 -->
<g id="edge36_Node000025_Node000021" class="edge">
<title>Node25&#45;&gt;Node21</title>
<g id="a_edge36_Node000025_Node000021"><a xlink:title=" ">
<path fill="none" stroke="#63b8ff" d="M506.36,-146.75C522.39,-126.11 561.95,-79.96 607.75,-62 679.35,-33.93 768.4,-35.69 829.8,-41.95"/>
<polygon fill="#63b8ff" stroke="#63b8ff" points="829.11,-45.39 839.43,-43 829.87,-38.43 829.11,-45.39"/>
</a>
</g>
</g>
<!-- Node25&#45;&gt;Node24 -->
<g id="edge39_Node000025_Node000024" class="edge">
<title>Node25&#45;&gt;Node24</title>
<g id="a_edge39_Node000025_Node000024"><a xlink:title=" ">
<path fill="none" stroke="#63b8ff" d="M504.2,-146.79C517.85,-122.38 556.17,-60.76 607.75,-35 675.36,-1.24 762.63,1.98 824.64,-1.39"/>
<polygon fill="#63b8ff" stroke="#63b8ff" points="824.21,-4.87 834.41,-2 824.64,2.11 824.21,-4.87"/>
</a>
</g>
</g>
<!-- Node26 -->
<g id="Node000026" class="node">
<title>Node26</title>
<g id="a_Node000026"><a xlink:href="../../da/dea/struct_a_e_log_entry.html#a58aeadbca0c2c0863b534a52d40d22a8" target="_top" xlink:title="Clears the current entry and sets its values to zero/invalid.">
<polygon fill="white" stroke="#666666" points="739.25,-205 620.5,-205 620.5,-185 739.25,-185 739.25,-205"/>
<text text-anchor="middle" x="679.88" y="-191.5" font-family="Helvetica,sans-Serif" font-size="10.00">AELogEntry::clearEntry</text>
</a>
</g>
</g>
<!-- Node25&#45;&gt;Node26 -->
<g id="edge34_Node000025_Node000026" class="edge">
<title>Node25&#45;&gt;Node26</title>
<g id="a_edge34_Node000025_Node000026"><a xlink:title=" ">
<path fill="none" stroke="#63b8ff" d="M548.45,-167.48C570,-172.03 595.45,-177.4 618.12,-182.18"/>
<polygon fill="#63b8ff" stroke="#63b8ff" points="617.35,-185.6 627.86,-184.24 618.8,-178.75 617.35,-185.6"/>
</a>
</g>
</g>
<!-- Node27 -->
<g id="Node000027" class="node">
<title>Node27</title>
<g id="a_Node000027"><a xlink:href="../../de/dde/namespaceace_1_1utils.html#ae3cab8babc7164fe97d71c65b247e848" target="_top" xlink:title="Convenient sleep function to sleep the thread for microseconds.">
<polygon fill="white" stroke="#666666" points="729.12,-167 630.62,-167 630.62,-147 729.12,-147 729.12,-167"/>
<text text-anchor="middle" x="679.88" y="-153.5" font-family="Helvetica,sans-Serif" font-size="10.00">ace::utils::sleepUS</text>
</a>
</g>
</g>
<!-- Node25&#45;&gt;Node27 -->
<g id="edge38_Node000025_Node000027" class="edge">
<title>Node25&#45;&gt;Node27</title>
<g id="a_edge38_Node000025_Node000027"><a xlink:title=" ">
<path fill="none" stroke="#63b8ff" d="M564.54,-157C582.35,-157 601.53,-157 618.99,-157"/>
<polygon fill="#63b8ff" stroke="#63b8ff" points="618.67,-160.5 628.67,-157 618.67,-153.5 618.67,-160.5"/>
</a>
</g>
</g>
</g>
</svg>
