<?xml version="1.0" encoding="UTF-8" standalone="no"?>
<!DOCTYPE svg PUBLIC "-//W3C//DTD SVG 1.1//EN"
 "http://www.w3.org/Graphics/SVG/1.1/DTD/svg11.dtd">
<!-- Generated by graphviz version 10.0.1 (20240210.2158)
 -->
<!-- Title: AELogger::startWriter Pages: 1 -->
<svg width="1199pt" height="559pt"
 viewBox="0.00 0.00 1199.25 559.00" xmlns="http://www.w3.org/2000/svg" xmlns:xlink="http://www.w3.org/1999/xlink">
<g id="graph0" class="graph" transform="scale(1 1) rotate(0) translate(4 555)">
<title>AELogger::startWriter</title>
<!-- Node1 -->
<g id="Node000001" class="node">
<title>Node1</title>
<g id="a_Node000001"><a xlink:title="Starts the log&#45;writing thread.">
<polygon fill="#999999" stroke="#666666" points="110.5,-276 0,-276 0,-256 110.5,-256 110.5,-276"/>
<text text-anchor="middle" x="55.25" y="-262.5" font-family="Helvetica,sans-Serif" font-size="10.00">AELogger::startWriter</text>
</a>
</g>
</g>
<!-- Node2 -->
<g id="Node000002" class="node">
<title>Node2</title>
<g id="a_Node000002"><a xlink:href="../../d8/dfc/class_a_e_logger.html#a2f64d8f5de2f249f7cb973a82ec1e48a" target="_top" xlink:title="Close the file, if it was opened.">
<polygon fill="white" stroke="#666666" points="250.25,-333 146.5,-333 146.5,-313 250.25,-313 250.25,-333"/>
<text text-anchor="middle" x="198.38" y="-319.5" font-family="Helvetica,sans-Serif" font-size="10.00">AELogger::closeLog</text>
</a>
</g>
</g>
<!-- Node1&#45;&gt;Node2 -->
<g id="edge1_Node000001_Node000002" class="edge">
<title>Node1&#45;&gt;Node2</title>
<g id="a_edge1_Node000001_Node000002"><a xlink:title=" ">
<path fill="none" stroke="#63b8ff" d="M82.13,-276.45C104.32,-285.41 136.5,-298.41 161.23,-308.4"/>
<polygon fill="#63b8ff" stroke="#63b8ff" points="159.67,-311.54 170.25,-312.04 162.29,-305.05 159.67,-311.54"/>
</a>
</g>
</g>
<!-- Node9 -->
<g id="Node000009" class="node">
<title>Node9</title>
<g id="a_Node000009"><a xlink:href="../../d0/d8a/class_____a_e_module_base.html#a625c82f27195de3f9ab5af4fc7437e2f" target="_top" xlink:title="Get the name of the module.">
<polygon fill="white" stroke="#666666" points="881.75,-323 650.5,-323 650.5,-303 881.75,-303 881.75,-323"/>
<text text-anchor="middle" x="766.12" y="-309.5" font-family="Helvetica,sans-Serif" font-size="10.00">__AEModuleBase&lt; AELogger &gt;::getModuleName</text>
</a>
</g>
</g>
<!-- Node1&#45;&gt;Node9 -->
<g id="edge26_Node000001_Node000009" class="edge">
<title>Node1&#45;&gt;Node9</title>
<g id="a_edge26_Node000001_Node000009"><a xlink:title=" ">
<path fill="none" stroke="#63b8ff" d="M110.79,-263.59C184.35,-260.89 319.36,-257.88 434.25,-266 526.03,-272.49 631.06,-288.97 697.71,-300.58"/>
<polygon fill="#63b8ff" stroke="#63b8ff" points="696.94,-304 707.4,-302.28 698.15,-297.1 696.94,-304"/>
</a>
</g>
</g>
<!-- Node10 -->
<g id="Node000010" class="node">
<title>Node10</title>
<g id="a_Node000010"><a xlink:href="../../d8/dfc/class_a_e_logger.html#ac533941173224cb21fe09326726ce754" target="_top" xlink:title="Request a log entry to be written to the opened log file.">
<polygon fill="white" stroke="#666666" points="598,-418 486.75,-418 486.75,-398 598,-398 598,-418"/>
<text text-anchor="middle" x="542.38" y="-404.5" font-family="Helvetica,sans-Serif" font-size="10.00">AELogger::writeToLog</text>
</a>
</g>
</g>
<!-- Node1&#45;&gt;Node10 -->
<g id="edge36_Node000001_Node000010" class="edge">
<title>Node1&#45;&gt;Node10</title>
<g id="a_edge36_Node000001_Node000010"><a xlink:title=" ">
<path fill="none" stroke="#63b8ff" d="M64.92,-276.41C92.82,-308.96 184.41,-408.58 286.25,-441 361.62,-464.99 454.81,-439.99 505.09,-422.31"/>
<polygon fill="#63b8ff" stroke="#63b8ff" points="506.11,-425.66 514.32,-418.96 503.72,-419.08 506.11,-425.66"/>
</a>
</g>
</g>
<!-- Node22 -->
<g id="Node000022" class="node">
<title>Node22</title>
<g id="a_Node000022"><a xlink:href="../../d8/dfc/class_a_e_logger.html#a5938787b6933f4b96ebff10643bd2497" target="_top" xlink:title="The function of the log writing thread to...read the entries, format them, write them,...">
<polygon fill="white" stroke="#666666" points="426.75,-176 293.75,-176 293.75,-156 426.75,-156 426.75,-176"/>
<text text-anchor="middle" x="360.25" y="-162.5" font-family="Helvetica,sans-Serif" font-size="10.00">AELogger::logWriterThread</text>
</a>
</g>
</g>
<!-- Node1&#45;&gt;Node22 -->
<g id="edge27_Node000001_Node000022" class="edge">
<title>Node1&#45;&gt;Node22</title>
<g id="a_edge27_Node000001_Node000022"><a xlink:title=" ">
<path fill="none" stroke="#63b8ff" d="M65.64,-255.71C80.88,-239.73 112.73,-209.32 146.5,-195 189.16,-176.91 240.56,-169.55 282.15,-166.77"/>
<polygon fill="#63b8ff" stroke="#63b8ff" points="282.31,-170.26 292.09,-166.19 281.9,-163.27 282.31,-170.26"/>
</a>
</g>
</g>
<!-- Node3 -->
<g id="Node000003" class="node">
<title>Node3</title>
<g id="a_Node000003"><a xlink:href="../../db/d15/class_a_e_file_writer.html#a05ceb471801ae111d68859f9d3b9eb78" target="_top" xlink:title="Closes the currently opened file.">
<polygon fill="white" stroke="#666666" points="418.5,-409 302,-409 302,-389 418.5,-389 418.5,-409"/>
<text text-anchor="middle" x="360.25" y="-395.5" font-family="Helvetica,sans-Serif" font-size="10.00">AEFileWriter::closeFile</text>
</a>
</g>
</g>
<!-- Node2&#45;&gt;Node3 -->
<g id="edge2_Node000002_Node000003" class="edge">
<title>Node2&#45;&gt;Node3</title>
<g id="a_edge2_Node000002_Node000003"><a xlink:title=" ">
<path fill="none" stroke="#63b8ff" d="M214.5,-333.47C231.4,-344.83 259.87,-362.95 286.25,-375 294.27,-378.66 303.02,-382.04 311.58,-385.02"/>
<polygon fill="#63b8ff" stroke="#63b8ff" points="310.22,-388.26 320.82,-388.11 312.44,-381.62 310.22,-388.26"/>
</a>
</g>
</g>
<!-- Node4 -->
<g id="Node000004" class="node">
<title>Node4</title>
<g id="a_Node000004"><a xlink:href="../../db/d15/class_a_e_file_writer.html#a26ea7c97bfdbed142df1863d8d47d895" target="_top" xlink:title="Returns the full name of currently open file, including the relative path, if such was provided.">
<polygon fill="white" stroke="#666666" points="434.25,-333 286.25,-333 286.25,-313 434.25,-313 434.25,-333"/>
<text text-anchor="middle" x="360.25" y="-319.5" font-family="Helvetica,sans-Serif" font-size="10.00">AEFileWriter::getFullFileName</text>
</a>
</g>
</g>
<!-- Node2&#45;&gt;Node4 -->
<g id="edge3_Node000002_Node000004" class="edge">
<title>Node2&#45;&gt;Node4</title>
<g id="a_edge3_Node000002_Node000004"><a xlink:title=" ">
<path fill="none" stroke="#63b8ff" d="M250.4,-323C258.19,-323 266.4,-323 274.68,-323"/>
<polygon fill="#63b8ff" stroke="#63b8ff" points="274.47,-326.5 284.47,-323 274.47,-319.5 274.47,-326.5"/>
</a>
</g>
</g>
<!-- Node5 -->
<g id="Node000005" class="node">
<title>Node5</title>
<g id="a_Node000005"><a xlink:href="../../d8/dfc/class_a_e_logger.html#a4d512bf9f4d0a6a1b6a332b9c99e22ac" target="_top" xlink:title="Checks if a log file isn&#39;t open by this logger.">
<polygon fill="white" stroke="#666666" points="817.25,-361 715,-361 715,-341 817.25,-341 817.25,-361"/>
<text text-anchor="middle" x="766.12" y="-347.5" font-family="Helvetica,sans-Serif" font-size="10.00">AELogger::isClosed</text>
</a>
</g>
</g>
<!-- Node2&#45;&gt;Node5 -->
<g id="edge4_Node000002_Node000005" class="edge">
<title>Node2&#45;&gt;Node5</title>
<g id="a_edge4_Node000002_Node000005"><a xlink:title=" ">
<path fill="none" stroke="#63b8ff" d="M239.32,-333.46C253.97,-336.84 270.76,-340.18 286.25,-342 435.14,-359.51 611.83,-356.82 703.31,-353.7"/>
<polygon fill="#63b8ff" stroke="#63b8ff" points="703.19,-357.2 713.06,-353.35 702.94,-350.21 703.19,-357.2"/>
</a>
</g>
</g>
<!-- Node8 -->
<g id="Node000008" class="node">
<title>Node8</title>
<g id="a_Node000008"><a xlink:href="../../d8/dfc/class_a_e_logger.html#a53b212c259c40bda694476f09d1f171b" target="_top" xlink:title="Stops the log&#45;writing thread (after flushing the log queue).">
<polygon fill="white" stroke="#666666" points="415.12,-295 305.38,-295 305.38,-275 415.12,-275 415.12,-295"/>
<text text-anchor="middle" x="360.25" y="-281.5" font-family="Helvetica,sans-Serif" font-size="10.00">AELogger::stopWriter</text>
</a>
</g>
</g>
<!-- Node2&#45;&gt;Node8 -->
<g id="edge7_Node000002_Node000008" class="edge">
<title>Node2&#45;&gt;Node8</title>
<g id="a_edge7_Node000002_Node000008"><a xlink:title=" ">
<path fill="none" stroke="#63b8ff" d="M243.48,-312.52C262.27,-308.05 284.38,-302.79 304.22,-298.08"/>
<polygon fill="#63b8ff" stroke="#63b8ff" points="304.89,-301.52 313.81,-295.8 303.27,-294.71 304.89,-301.52"/>
</a>
</g>
</g>
<!-- Node2&#45;&gt;Node10 -->
<g id="edge24_Node000002_Node000010" class="edge">
<title>Node2&#45;&gt;Node10</title>
<g id="a_edge24_Node000002_Node000010"><a xlink:title=" ">
<path fill="none" stroke="#63b8ff" d="M204.85,-333.3C216.53,-354.03 246.16,-400.34 286.25,-418 354.65,-448.14 443.64,-434.23 496.41,-421.23"/>
<polygon fill="#63b8ff" stroke="#63b8ff" points="497.14,-424.66 505.95,-418.78 495.4,-417.88 497.14,-424.66"/>
</a>
</g>
</g>
<!-- Node16 -->
<g id="Node000016" class="node">
<title>Node16</title>
<g id="a_Node000016"><a xlink:href="../../d8/dfc/class_a_e_logger.html#a54bad71bcfea05c3d17d7ba1bacfec8c" target="_top" xlink:title="Writes to log directly, without thinking of the queue.">
<polygon fill="white" stroke="#666666" points="614.5,-214 470.25,-214 470.25,-194 614.5,-194 614.5,-214"/>
<text text-anchor="middle" x="542.38" y="-200.5" font-family="Helvetica,sans-Serif" font-size="10.00">AELogger::writeToLogDirectly</text>
</a>
</g>
</g>
<!-- Node2&#45;&gt;Node16 -->
<g id="edge25_Node000002_Node000016" class="edge">
<title>Node2&#45;&gt;Node16</title>
<g id="a_edge25_Node000002_Node000016"><a xlink:title=" ">
<path fill="none" stroke="#63b8ff" d="M212.1,-312.61C228.36,-299.84 257.79,-278.35 286.25,-266 341.86,-241.86 408.54,-226.07 459.79,-216.47"/>
<polygon fill="#63b8ff" stroke="#63b8ff" points="460.11,-219.97 469.32,-214.73 458.85,-213.08 460.11,-219.97"/>
</a>
</g>
</g>
<!-- Node6 -->
<g id="Node000006" class="node">
<title>Node6</title>
<g id="a_Node000006"><a xlink:href="../../db/d15/class_a_e_file_writer.html#a0743145db01b527ae9612f359e5c0090" target="_top" xlink:title="Checks if a file isn&#39;t open by this file&#45;writer.">
<polygon fill="white" stroke="#666666" points="1039.88,-361 924.88,-361 924.88,-341 1039.88,-341 1039.88,-361"/>
<text text-anchor="middle" x="982.38" y="-347.5" font-family="Helvetica,sans-Serif" font-size="10.00">AEFileWriter::isClosed</text>
</a>
</g>
</g>
<!-- Node5&#45;&gt;Node6 -->
<g id="edge5_Node000005_Node000006" class="edge">
<title>Node5&#45;&gt;Node6</title>
<g id="a_edge5_Node000005_Node000006"><a xlink:title=" ">
<path fill="none" stroke="#63b8ff" d="M817.63,-351C846.17,-351 882.23,-351 913.24,-351"/>
<polygon fill="#63b8ff" stroke="#63b8ff" points="912.9,-354.5 922.9,-351 912.9,-347.5 912.9,-354.5"/>
</a>
</g>
</g>
<!-- Node7 -->
<g id="Node000007" class="node">
<title>Node7</title>
<g id="a_Node000007"><a xlink:href="../../db/d15/class_a_e_file_writer.html#a47e3c08c276394bce7b612331cf4762d" target="_top" xlink:title="Checks if a file is open by this file&#45;writer.">
<polygon fill="white" stroke="#666666" points="1191.25,-361 1083,-361 1083,-341 1191.25,-341 1191.25,-361"/>
<text text-anchor="middle" x="1137.12" y="-347.5" font-family="Helvetica,sans-Serif" font-size="10.00">AEFileWriter::isOpen</text>
</a>
</g>
</g>
<!-- Node6&#45;&gt;Node7 -->
<g id="edge6_Node000006_Node000007" class="edge">
<title>Node6&#45;&gt;Node7</title>
<g id="a_edge6_Node000006_Node000007"><a xlink:title=" ">
<path fill="none" stroke="#63b8ff" d="M1040.25,-351C1050.36,-351 1060.96,-351 1071.26,-351"/>
<polygon fill="#63b8ff" stroke="#63b8ff" points="1071.23,-354.5 1081.23,-351 1071.23,-347.5 1071.23,-354.5"/>
</a>
</g>
</g>
<!-- Node8&#45;&gt;Node9 -->
<g id="edge8_Node000008_Node000009" class="edge">
<title>Node8&#45;&gt;Node9</title>
<g id="a_edge8_Node000008_Node000009"><a xlink:title=" ">
<path fill="none" stroke="#63b8ff" d="M415.57,-289.68C433.02,-291.13 452.45,-292.69 470.25,-294 525.54,-298.06 586.7,-302.08 638.92,-305.37"/>
<polygon fill="#63b8ff" stroke="#63b8ff" points="638.55,-308.85 648.75,-305.99 638.99,-301.87 638.55,-308.85"/>
</a>
</g>
</g>
<!-- Node8&#45;&gt;Node10 -->
<g id="edge9_Node000008_Node000010" class="edge">
<title>Node8&#45;&gt;Node10</title>
<g id="a_edge9_Node000008_Node000010"><a xlink:title=" ">
<path fill="none" stroke="#63b8ff" d="M414.75,-295.47C421.53,-297.79 428.2,-300.6 434.25,-304 454.75,-315.54 500.02,-362.98 524.64,-389.63"/>
<polygon fill="#63b8ff" stroke="#63b8ff" points="521.77,-391.67 531.11,-396.67 526.92,-386.94 521.77,-391.67"/>
</a>
</g>
</g>
<!-- Node8&#45;&gt;Node16 -->
<g id="edge18_Node000008_Node000016" class="edge">
<title>Node8&#45;&gt;Node16</title>
<g id="a_edge18_Node000008_Node000016"><a xlink:title=" ">
<path fill="none" stroke="#63b8ff" d="M396.98,-274.6C408.98,-270.75 422.35,-266.08 434.25,-261 462.26,-249.05 492.8,-232.42 514.08,-220.2"/>
<polygon fill="#63b8ff" stroke="#63b8ff" points="515.81,-223.24 522.7,-215.19 512.3,-217.19 515.81,-223.24"/>
</a>
</g>
</g>
<!-- Node10&#45;&gt;Node5 -->
<g id="edge12_Node000010_Node000005" class="edge">
<title>Node10&#45;&gt;Node5</title>
<g id="a_edge12_Node000010_Node000005"><a xlink:title=" ">
<path fill="none" stroke="#63b8ff" d="M568.52,-397.65C589.99,-389.17 621.84,-377.4 650.5,-370 667.48,-365.62 686.15,-362.02 703.41,-359.18"/>
<polygon fill="#63b8ff" stroke="#63b8ff" points="703.68,-362.68 713.01,-357.66 702.59,-355.77 703.68,-362.68"/>
</a>
</g>
</g>
<!-- Node10&#45;&gt;Node9 -->
<g id="edge10_Node000010_Node000009" class="edge">
<title>Node10&#45;&gt;Node9</title>
<g id="a_edge10_Node000010_Node000009"><a xlink:title=" ">
<path fill="none" stroke="#63b8ff" d="M554.23,-397.68C572.5,-380.95 611.28,-348.15 650.5,-332 655.43,-329.97 660.56,-328.16 665.8,-326.54"/>
<polygon fill="#63b8ff" stroke="#63b8ff" points="666.55,-329.96 675.23,-323.89 664.65,-323.23 666.55,-329.96"/>
</a>
</g>
</g>
<!-- Node11 -->
<g id="Node000011" class="node">
<title>Node11</title>
<g id="a_Node000011"><a xlink:href="../../de/dde/namespaceace_1_1utils.html#ac3eadc5f289b54059322023f3c5eed96" target="_top" xlink:title="Checks if the passed string is alpha&#45;numeric with underscores (contains only numbers,...">
<polygon fill="white" stroke="#666666" points="821.38,-551 710.88,-551 710.88,-531 821.38,-531 821.38,-551"/>
<text text-anchor="middle" x="766.12" y="-537.5" font-family="Helvetica,sans-Serif" font-size="10.00">ace::utils::isAlNumUs</text>
</a>
</g>
</g>
<!-- Node10&#45;&gt;Node11 -->
<g id="edge11_Node000010_Node000011" class="edge">
<title>Node10&#45;&gt;Node11</title>
<g id="a_edge11_Node000010_Node000011"><a xlink:title=" ">
<path fill="none" stroke="#63b8ff" d="M549.63,-418.31C564.15,-441.23 602.58,-496.42 650.5,-522 665.32,-529.91 682.63,-534.69 699.24,-537.53"/>
<polygon fill="#63b8ff" stroke="#63b8ff" points="698.68,-540.98 709.09,-538.98 699.71,-534.06 698.68,-540.98"/>
</a>
</g>
</g>
<!-- Node12 -->
<g id="Node000012" class="node">
<title>Node12</title>
<g id="a_Node000012"><a xlink:href="../../de/dde/namespaceace_1_1utils.html#a878c53ede8589dbc6a50734c9c4ad4d7" target="_top" xlink:title="Checks if the value is within some range.">
<polygon fill="white" stroke="#666666" points="818.38,-513 713.88,-513 713.88,-493 818.38,-493 818.38,-513"/>
<text text-anchor="middle" x="766.12" y="-499.5" font-family="Helvetica,sans-Serif" font-size="10.00">ace::utils::isInRange</text>
</a>
</g>
</g>
<!-- Node10&#45;&gt;Node12 -->
<g id="edge13_Node000010_Node000012" class="edge">
<title>Node10&#45;&gt;Node12</title>
<g id="a_edge13_Node000010_Node000012"><a xlink:title=" ">
<path fill="none" stroke="#63b8ff" d="M554.23,-418.32C572.5,-435.05 611.28,-467.85 650.5,-484 666.72,-490.68 685.14,-495.01 702.41,-497.82"/>
<polygon fill="#63b8ff" stroke="#63b8ff" points="701.65,-501.25 712.05,-499.24 702.66,-494.32 701.65,-501.25"/>
</a>
</g>
</g>
<!-- Node13 -->
<g id="Node000013" class="node">
<title>Node13</title>
<g id="a_Node000013"><a xlink:href="../../da/dea/struct_a_e_log_entry.html#a42447b345f72f22ec655556af2db7c28" target="_top" xlink:title="Allocates the queue of the given size on the heap and returns the pointer to it&#39;s first node.">
<polygon fill="white" stroke="#666666" points="829.62,-475 702.62,-475 702.62,-455 829.62,-455 829.62,-475"/>
<text text-anchor="middle" x="766.12" y="-461.5" font-family="Helvetica,sans-Serif" font-size="10.00">AELogEntry::makeQueue</text>
</a>
</g>
</g>
<!-- Node10&#45;&gt;Node13 -->
<g id="edge14_Node000010_Node000013" class="edge">
<title>Node10&#45;&gt;Node13</title>
<g id="a_edge14_Node000010_Node000013"><a xlink:title=" ">
<path fill="none" stroke="#63b8ff" d="M568.52,-418.35C589.99,-426.83 621.84,-438.6 650.5,-446 663.47,-449.35 677.42,-452.24 690.98,-454.68"/>
<polygon fill="#63b8ff" stroke="#63b8ff" points="690.3,-458.11 700.75,-456.37 691.49,-451.22 690.3,-458.11"/>
</a>
</g>
</g>
<!-- Node14 -->
<g id="Node000014" class="node">
<title>Node14</title>
<g id="a_Node000014"><a xlink:href="../../d8/dfc/class_a_e_logger.html#af4bff840ffdcfcb5ecb1251fddbf9690" target="_top" xlink:title="Checks for the given index number and returns the pointer in the queue of log entries.">
<polygon fill="white" stroke="#666666" points="827,-437 705.25,-437 705.25,-417 827,-417 827,-437"/>
<text text-anchor="middle" x="766.12" y="-423.5" font-family="Helvetica,sans-Serif" font-size="10.00">AELogger::ptrFromIndex</text>
</a>
</g>
</g>
<!-- Node10&#45;&gt;Node14 -->
<g id="edge15_Node000010_Node000014" class="edge">
<title>Node10&#45;&gt;Node14</title>
<g id="a_edge15_Node000010_Node000014"><a xlink:title=" ">
<path fill="none" stroke="#63b8ff" d="M598.47,-412.72C627.26,-415.19 662.84,-418.24 693.71,-420.88"/>
<polygon fill="#63b8ff" stroke="#63b8ff" points="693.08,-424.34 703.35,-421.71 693.68,-417.37 693.08,-424.34"/>
</a>
</g>
</g>
<!-- Node15 -->
<g id="Node000015" class="node">
<title>Node15</title>
<g id="a_Node000015"><a xlink:href="../../d8/dfc/class_a_e_logger.html#a50dfd96a74d13471faebd4de499db5bf" target="_top" xlink:title="Request a debug log entry to be written to the opened log file.">
<polygon fill="white" stroke="#666666" points="835.62,-399 696.62,-399 696.62,-379 835.62,-379 835.62,-399"/>
<text text-anchor="middle" x="766.12" y="-385.5" font-family="Helvetica,sans-Serif" font-size="10.00">AELogger::writeToLogDebug</text>
</a>
</g>
</g>
<!-- Node10&#45;&gt;Node15 -->
<g id="edge16_Node000010_Node000015" class="edge">
<title>Node10&#45;&gt;Node15</title>
<g id="a_edge16_Node000010_Node000015"><a xlink:title=" ">
<path fill="none" stroke="#63b8ff" d="M597.05,-397.52C623.42,-394.38 655.73,-391.4 684.95,-389.36"/>
<polygon fill="#63b8ff" stroke="#63b8ff" points="685.14,-392.85 694.89,-388.69 684.68,-385.87 685.14,-392.85"/>
</a>
</g>
</g>
<!-- Node15&#45;&gt;Node10 -->
<g id="edge17_Node000015_Node000010" class="edge">
<title>Node15&#45;&gt;Node10</title>
<g id="a_edge17_Node000015_Node000010"><a xlink:title=" ">
<path fill="none" stroke="#63b8ff" d="M711.46,-399.48C680.84,-403.13 642.2,-406.56 609.69,-408.56"/>
<polygon fill="#63b8ff" stroke="#63b8ff" points="609.77,-405.05 599.99,-409.12 610.17,-412.04 609.77,-405.05"/>
</a>
</g>
</g>
<!-- Node17 -->
<g id="Node000017" class="node">
<title>Node17</title>
<g id="a_Node000017"><a xlink:href="../../db/d15/class_a_e_file_writer.html#a0c238267ee45ca15672d4e9246cdca2c" target="_top" xlink:title="Flushes the opened file.">
<polygon fill="white" stroke="#666666" points="822.88,-200 709.38,-200 709.38,-180 822.88,-180 822.88,-200"/>
<text text-anchor="middle" x="766.12" y="-186.5" font-family="Helvetica,sans-Serif" font-size="10.00">AEFileWriter::flushFile</text>
</a>
</g>
</g>
<!-- Node16&#45;&gt;Node17 -->
<g id="edge19_Node000016_Node000017" class="edge">
<title>Node16&#45;&gt;Node17</title>
<g id="a_edge19_Node000016_Node000017"><a xlink:title=" ">
<path fill="none" stroke="#63b8ff" d="M614.76,-199.49C641.34,-197.82 671.4,-195.92 697.62,-194.26"/>
<polygon fill="#63b8ff" stroke="#63b8ff" points="697.72,-197.76 707.48,-193.64 697.28,-190.78 697.72,-197.76"/>
</a>
</g>
</g>
<!-- Node18 -->
<g id="Node000018" class="node">
<title>Node18</title>
<g id="a_Node000018"><a xlink:href="../../da/dea/struct_a_e_log_entry.html#ab803ea47d06098feab470f265498f617" target="_top" xlink:title="Formats the passed entry to the given c&#45;string.">
<polygon fill="white" stroke="#666666" points="828.5,-39 703.75,-39 703.75,-19 828.5,-19 828.5,-39"/>
<text text-anchor="middle" x="766.12" y="-25.5" font-family="Helvetica,sans-Serif" font-size="10.00">AELogEntry::formatEntry</text>
</a>
</g>
</g>
<!-- Node16&#45;&gt;Node18 -->
<g id="edge20_Node000016_Node000018" class="edge">
<title>Node16&#45;&gt;Node18</title>
<g id="a_edge20_Node000016_Node000018"><a xlink:title=" ">
<path fill="none" stroke="#63b8ff" d="M557.93,-193.6C572.78,-182.69 596.19,-164.71 614.5,-147 632.17,-129.9 632.08,-121.28 650.5,-105 677.43,-81.2 712.31,-59.12 736.49,-44.96"/>
<polygon fill="#63b8ff" stroke="#63b8ff" points="737.91,-48.18 744.83,-40.15 734.42,-42.11 737.91,-48.18"/>
</a>
</g>
</g>
<!-- Node21 -->
<g id="Node000021" class="node">
<title>Node21</title>
<g id="a_Node000021"><a xlink:href="../../db/d15/class_a_e_file_writer.html#a01d537821c5760615e126f1c159b67da" target="_top" xlink:title="Write binary data, as is, to file, and flush if necessary.">
<polygon fill="white" stroke="#666666" points="833.38,-134 698.88,-134 698.88,-114 833.38,-114 833.38,-134"/>
<text text-anchor="middle" x="766.12" y="-120.5" font-family="Helvetica,sans-Serif" font-size="10.00">AEFileWriter::writeData_ptr</text>
</a>
</g>
</g>
<!-- Node16&#45;&gt;Node21 -->
<g id="edge23_Node000016_Node000021" class="edge">
<title>Node16&#45;&gt;Node21</title>
<g id="a_edge23_Node000016_Node000021"><a xlink:title=" ">
<path fill="none" stroke="#63b8ff" d="M572.36,-193.54C611.54,-179.41 681.54,-154.15 725.54,-138.28"/>
<polygon fill="#63b8ff" stroke="#63b8ff" points="726.49,-141.66 734.7,-134.97 724.11,-135.08 726.49,-141.66"/>
</a>
</g>
</g>
<!-- Node19 -->
<g id="Node000019" class="node">
<title>Node19</title>
<g id="a_Node000019"><a xlink:href="../../de/dde/namespaceace_1_1utils.html#a2458b79e1a70255b471414a4bb5680ce" target="_top" xlink:title="Formats the current **(c)time point as YYYY&#45;MM&#45;DD.HH:mm:SS string**.">
<polygon fill="white" stroke="#666666" points="1036.88,-20 927.88,-20 927.88,0 1036.88,0 1036.88,-20"/>
<text text-anchor="middle" x="982.38" y="-6.5" font-family="Helvetica,sans-Serif" font-size="10.00">ace::utils::formatDate</text>
</a>
</g>
</g>
<!-- Node18&#45;&gt;Node19 -->
<g id="edge21_Node000018_Node000019" class="edge">
<title>Node18&#45;&gt;Node19</title>
<g id="a_edge21_Node000018_Node000019"><a xlink:title=" ">
<path fill="none" stroke="#63b8ff" d="M828.81,-23.53C856.19,-21.1 888.43,-18.24 916.2,-15.78"/>
<polygon fill="#63b8ff" stroke="#63b8ff" points="916.24,-19.29 925.9,-14.92 915.63,-12.32 916.24,-19.29"/>
</a>
</g>
</g>
<!-- Node20 -->
<g id="Node000020" class="node">
<title>Node20</title>
<g id="a_Node000020"><a xlink:href="../../da/dea/struct_a_e_log_entry.html#a958d25c57a94cfae8e7f31843e6c63ef" target="_top" xlink:title="Deduces the entry&#39;s log type and returns a c&#45;string of it.">
<polygon fill="white" stroke="#666666" points="1047,-58 917.75,-58 917.75,-38 1047,-38 1047,-58"/>
<text text-anchor="middle" x="982.38" y="-44.5" font-family="Helvetica,sans-Serif" font-size="10.00">AELogEntry::typeToString</text>
</a>
</g>
</g>
<!-- Node18&#45;&gt;Node20 -->
<g id="edge22_Node000018_Node000020" class="edge">
<title>Node18&#45;&gt;Node20</title>
<g id="a_edge22_Node000018_Node000020"><a xlink:title=" ">
<path fill="none" stroke="#63b8ff" d="M828.81,-34.47C852.93,-36.61 880.82,-39.08 906.11,-41.33"/>
<polygon fill="#63b8ff" stroke="#63b8ff" points="905.74,-44.81 916.01,-42.2 906.36,-37.83 905.74,-44.81"/>
</a>
</g>
</g>
<!-- Node22&#45;&gt;Node9 -->
<g id="edge31_Node000022_Node000009" class="edge">
<title>Node22&#45;&gt;Node9</title>
<g id="a_edge31_Node000022_Node000009"><a xlink:title=" ">
<path fill="none" stroke="#63b8ff" d="M393.05,-176.4C406.2,-181.27 421.35,-187.62 434.25,-195 451.84,-205.06 452.23,-213.72 470.25,-223 529.73,-253.62 550.51,-246.48 614.5,-266 650.4,-276.95 691.01,-289.64 721.01,-299.07"/>
<polygon fill="#63b8ff" stroke="#63b8ff" points="719.92,-302.4 730.51,-302.06 722.03,-295.72 719.92,-302.4"/>
</a>
</g>
</g>
<!-- Node22&#45;&gt;Node10 -->
<g id="edge34_Node000022_Node000010" class="edge">
<title>Node22&#45;&gt;Node10</title>
<g id="a_edge34_Node000022_Node000010"><a xlink:title=" ">
<path fill="none" stroke="#63b8ff" d="M368.99,-176.4C396.59,-213.48 490.46,-339.6 526.82,-388.45"/>
<polygon fill="#63b8ff" stroke="#63b8ff" points="523.98,-390.49 532.76,-396.43 529.6,-386.31 523.98,-390.49"/>
</a>
</g>
</g>
<!-- Node22&#45;&gt;Node16 -->
<g id="edge35_Node000022_Node000016" class="edge">
<title>Node22&#45;&gt;Node16</title>
<g id="a_edge35_Node000022_Node000016"><a xlink:title=" ">
<path fill="none" stroke="#63b8ff" d="M410.95,-176.48C432.5,-181.03 457.95,-186.4 480.62,-191.18"/>
<polygon fill="#63b8ff" stroke="#63b8ff" points="479.85,-194.6 490.36,-193.24 481.3,-187.75 479.85,-194.6"/>
</a>
</g>
</g>
<!-- Node22&#45;&gt;Node17 -->
<g id="edge29_Node000022_Node000017" class="edge">
<title>Node22&#45;&gt;Node17</title>
<g id="a_edge29_Node000022_Node000017"><a xlink:title=" ">
<path fill="none" stroke="#63b8ff" d="M427.04,-169.91C501.66,-174.34 622.72,-181.54 697.93,-186.01"/>
<polygon fill="#63b8ff" stroke="#63b8ff" points="697.43,-189.48 707.62,-186.58 697.85,-182.5 697.43,-189.48"/>
</a>
</g>
</g>
<!-- Node22&#45;&gt;Node18 -->
<g id="edge30_Node000022_Node000018" class="edge">
<title>Node22&#45;&gt;Node18</title>
<g id="a_edge30_Node000022_Node000018"><a xlink:title=" ">
<path fill="none" stroke="#63b8ff" d="M365.76,-155.82C378.03,-129.55 414.84,-59.69 470.25,-33 546.78,3.87 647.98,-5.38 709.72,-16.44"/>
<polygon fill="#63b8ff" stroke="#63b8ff" points="708.81,-19.83 719.29,-18.24 710.1,-12.96 708.81,-19.83"/>
</a>
</g>
</g>
<!-- Node22&#45;&gt;Node21 -->
<g id="edge33_Node000022_Node000021" class="edge">
<title>Node22&#45;&gt;Node21</title>
<g id="a_edge33_Node000022_Node000021"><a xlink:title=" ">
<path fill="none" stroke="#63b8ff" d="M375.5,-155.64C395.49,-141.81 433.54,-118.02 470.25,-109 550.92,-89.18 647.62,-100.46 707.73,-111.42"/>
<polygon fill="#63b8ff" stroke="#63b8ff" points="706.92,-114.82 717.4,-113.24 708.22,-107.95 706.92,-114.82"/>
</a>
</g>
</g>
<!-- Node23 -->
<g id="Node000023" class="node">
<title>Node23</title>
<g id="a_Node000023"><a xlink:href="../../da/dea/struct_a_e_log_entry.html#a58aeadbca0c2c0863b534a52d40d22a8" target="_top" xlink:title="Clears the current entry and sets its values to zero/invalid.">
<polygon fill="white" stroke="#666666" points="601.75,-62 483,-62 483,-42 601.75,-42 601.75,-62"/>
<text text-anchor="middle" x="542.38" y="-48.5" font-family="Helvetica,sans-Serif" font-size="10.00">AELogEntry::clearEntry</text>
</a>
</g>
</g>
<!-- Node22&#45;&gt;Node23 -->
<g id="edge28_Node000022_Node000023" class="edge">
<title>Node22&#45;&gt;Node23</title>
<g id="a_edge28_Node000022_Node000023"><a xlink:title=" ">
<path fill="none" stroke="#63b8ff" d="M371.12,-155.66C389.2,-137.27 429.51,-98.67 470.25,-76 476.75,-72.38 483.89,-69.18 491.07,-66.4"/>
<polygon fill="#63b8ff" stroke="#63b8ff" points="492.25,-69.69 500.47,-63 489.88,-63.1 492.25,-69.69"/>
</a>
</g>
</g>
<!-- Node24 -->
<g id="Node000024" class="node">
<title>Node24</title>
<g id="a_Node000024"><a xlink:href="../../de/dde/namespaceace_1_1utils.html#ae3cab8babc7164fe97d71c65b247e848" target="_top" xlink:title="Convenient sleep function to sleep the thread for microseconds.">
<polygon fill="white" stroke="#666666" points="591.62,-138 493.12,-138 493.12,-118 591.62,-118 591.62,-138"/>
<text text-anchor="middle" x="542.38" y="-124.5" font-family="Helvetica,sans-Serif" font-size="10.00">ace::utils::sleepUS</text>
</a>
</g>
</g>
<!-- Node22&#45;&gt;Node24 -->
<g id="edge32_Node000022_Node000024" class="edge">
<title>Node22&#45;&gt;Node24</title>
<g id="a_edge32_Node000022_Node000024"><a xlink:title=" ">
<path fill="none" stroke="#63b8ff" d="M410.95,-155.52C432.87,-150.89 458.82,-145.42 481.78,-140.57"/>
<polygon fill="#63b8ff" stroke="#63b8ff" points="482.23,-144.05 491.29,-138.57 480.79,-137.21 482.23,-144.05"/>
</a>
</g>
</g>
</g>
</svg>
