<?xml version="1.0" encoding="UTF-8" standalone="no"?>
<!DOCTYPE svg PUBLIC "-//W3C//DTD SVG 1.1//EN"
 "http://www.w3.org/Graphics/SVG/1.1/DTD/svg11.dtd">
<!-- Generated by graphviz version 10.0.1 (20240210.2158)
 -->
<!-- Title: AELogger::writeStatus Pages: 1 -->
<svg width="868pt" height="256pt"
 viewBox="0.00 0.00 868.00 256.00" xmlns="http://www.w3.org/2000/svg" xmlns:xlink="http://www.w3.org/1999/xlink">
<g id="graph0" class="graph" transform="scale(1 1) rotate(0) translate(4 252)">
<title>AELogger::writeStatus</title>
<!-- Node1 -->
<g id="Node000001" class="node">
<title>Node1</title>
<g id="a_Node000001"><a xlink:title="Writes the current status of the file logger instance (file name, and entries written).">
<polygon fill="#999999" stroke="#666666" points="113.5,-134 0,-134 0,-114 113.5,-114 113.5,-134"/>
<text text-anchor="middle" x="56.75" y="-120.5" font-family="Helvetica,sans-Serif" font-size="10.00">AELogger::writeStatus</text>
</a>
</g>
</g>
<!-- Node2 -->
<g id="Node000002" class="node">
<title>Node2</title>
<g id="a_Node000002"><a xlink:href="../../db/d15/class_a_e_file_writer.html#a26ea7c97bfdbed142df1863d8d47d895" target="_top" xlink:title="Returns the full name of currently open file, including the relative path, if such was provided.">
<polygon fill="white" stroke="#666666" points="297.5,-153 149.5,-153 149.5,-133 297.5,-133 297.5,-153"/>
<text text-anchor="middle" x="223.5" y="-139.5" font-family="Helvetica,sans-Serif" font-size="10.00">AEFileWriter::getFullFileName</text>
</a>
</g>
</g>
<!-- Node1&#45;&gt;Node2 -->
<g id="edge1_Node000001_Node000002" class="edge">
<title>Node1&#45;&gt;Node2</title>
<g id="a_edge1_Node000001_Node000002"><a xlink:title=" ">
<path fill="none" stroke="#63b8ff" d="M113.99,-130.49C121.65,-131.37 129.66,-132.29 137.69,-133.22"/>
<polygon fill="#63b8ff" stroke="#63b8ff" points="137.2,-136.69 147.53,-134.35 138,-129.73 137.2,-136.69"/>
</a>
</g>
</g>
<!-- Node3 -->
<g id="Node000003" class="node">
<title>Node3</title>
<g id="a_Node000003"><a xlink:href="../../d8/dfc/class_a_e_logger.html#ac533941173224cb21fe09326726ce754" target="_top" xlink:title="Request a log entry to be written to the opened log file.">
<polygon fill="white" stroke="#666666" points="279.12,-115 167.88,-115 167.88,-95 279.12,-95 279.12,-115"/>
<text text-anchor="middle" x="223.5" y="-101.5" font-family="Helvetica,sans-Serif" font-size="10.00">AELogger::writeToLog</text>
</a>
</g>
</g>
<!-- Node1&#45;&gt;Node3 -->
<g id="edge2_Node000001_Node000003" class="edge">
<title>Node1&#45;&gt;Node3</title>
<g id="a_edge2_Node000001_Node000003"><a xlink:title=" ">
<path fill="none" stroke="#63b8ff" d="M113.99,-117.51C127.67,-115.94 142.42,-114.24 156.51,-112.61"/>
<polygon fill="#63b8ff" stroke="#63b8ff" points="156.59,-116.12 166.13,-111.5 155.79,-109.17 156.59,-116.12"/>
</a>
</g>
</g>
<!-- Node4 -->
<g id="Node000004" class="node">
<title>Node4</title>
<g id="a_Node000004"><a xlink:href="../../d0/d8a/class_____a_e_module_base.html#a625c82f27195de3f9ab5af4fc7437e2f" target="_top" xlink:title="Get the name of the module.">
<polygon fill="white" stroke="#666666" points="564.75,-248 333.5,-248 333.5,-228 564.75,-228 564.75,-248"/>
<text text-anchor="middle" x="449.12" y="-234.5" font-family="Helvetica,sans-Serif" font-size="10.00">__AEModuleBase&lt; AELogger &gt;::getModuleName</text>
</a>
</g>
</g>
<!-- Node3&#45;&gt;Node4 -->
<g id="edge3_Node000003_Node000004" class="edge">
<title>Node3&#45;&gt;Node4</title>
<g id="a_edge3_Node000003_Node000004"><a xlink:title=" ">
<path fill="none" stroke="#63b8ff" d="M279.3,-113C285.95,-115.7 292.24,-119.28 297.5,-124 331.1,-154.16 298.57,-190.38 333.5,-219 334.64,-219.93 335.81,-220.83 337.01,-221.69"/>
<polygon fill="#63b8ff" stroke="#63b8ff" points="334.99,-224.56 345.34,-226.81 338.65,-218.59 334.99,-224.56"/>
</a>
</g>
</g>
<!-- Node5 -->
<g id="Node000005" class="node">
<title>Node5</title>
<g id="a_Node000005"><a xlink:href="../../de/dde/namespaceace_1_1utils.html#ac3eadc5f289b54059322023f3c5eed96" target="_top" xlink:title="Checks if the passed string is alpha&#45;numeric with underscores (contains only numbers,...">
<polygon fill="white" stroke="#666666" points="504.38,-210 393.88,-210 393.88,-190 504.38,-190 504.38,-210"/>
<text text-anchor="middle" x="449.12" y="-196.5" font-family="Helvetica,sans-Serif" font-size="10.00">ace::utils::isAlNumUs</text>
</a>
</g>
</g>
<!-- Node3&#45;&gt;Node5 -->
<g id="edge4_Node000003_Node000005" class="edge">
<title>Node3&#45;&gt;Node5</title>
<g id="a_edge4_Node000003_Node000005"><a xlink:title=" ">
<path fill="none" stroke="#63b8ff" d="M279.59,-114.46C285.97,-116.93 292.11,-120.06 297.5,-124 321.69,-141.68 308.53,-164.43 333.5,-181 347.91,-190.56 365.52,-195.85 382.57,-198.65"/>
<polygon fill="#63b8ff" stroke="#63b8ff" points="381.78,-202.08 392.16,-199.96 382.72,-195.14 381.78,-202.08"/>
</a>
</g>
</g>
<!-- Node6 -->
<g id="Node000006" class="node">
<title>Node6</title>
<g id="a_Node000006"><a xlink:href="../../d8/dfc/class_a_e_logger.html#a4d512bf9f4d0a6a1b6a332b9c99e22ac" target="_top" xlink:title="Checks if a log file isn&#39;t open by this logger.">
<polygon fill="white" stroke="#666666" points="500.25,-172 398,-172 398,-152 500.25,-152 500.25,-172"/>
<text text-anchor="middle" x="449.12" y="-158.5" font-family="Helvetica,sans-Serif" font-size="10.00">AELogger::isClosed</text>
</a>
</g>
</g>
<!-- Node3&#45;&gt;Node6 -->
<g id="edge5_Node000003_Node000006" class="edge">
<title>Node3&#45;&gt;Node6</title>
<g id="a_edge5_Node000003_Node000006"><a xlink:title=" ">
<path fill="none" stroke="#63b8ff" d="M271.35,-115.48C280.16,-117.93 289.2,-120.78 297.5,-124 314.37,-130.54 316.36,-137.22 333.5,-143 350.28,-148.65 369.03,-152.66 386.42,-155.49"/>
<polygon fill="#63b8ff" stroke="#63b8ff" points="385.71,-158.92 396.13,-156.96 386.76,-152 385.71,-158.92"/>
</a>
</g>
</g>
<!-- Node9 -->
<g id="Node000009" class="node">
<title>Node9</title>
<g id="a_Node000009"><a xlink:href="../../de/dde/namespaceace_1_1utils.html#a878c53ede8589dbc6a50734c9c4ad4d7" target="_top" xlink:title="Checks if the value is within some range.">
<polygon fill="white" stroke="#666666" points="501.38,-134 396.88,-134 396.88,-114 501.38,-114 501.38,-134"/>
<text text-anchor="middle" x="449.12" y="-120.5" font-family="Helvetica,sans-Serif" font-size="10.00">ace::utils::isInRange</text>
</a>
</g>
</g>
<!-- Node3&#45;&gt;Node9 -->
<g id="edge8_Node000003_Node000009" class="edge">
<title>Node3&#45;&gt;Node9</title>
<g id="a_edge8_Node000003_Node000009"><a xlink:title=" ">
<path fill="none" stroke="#63b8ff" d="M279.49,-109.67C311.42,-112.39 351.77,-115.81 384.99,-118.64"/>
<polygon fill="#63b8ff" stroke="#63b8ff" points="384.65,-122.12 394.91,-119.48 385.24,-115.14 384.65,-122.12"/>
</a>
</g>
</g>
<!-- Node10 -->
<g id="Node000010" class="node">
<title>Node10</title>
<g id="a_Node000010"><a xlink:href="../../da/dea/struct_a_e_log_entry.html#a42447b345f72f22ec655556af2db7c28" target="_top" xlink:title="Allocates the queue of the given size on the heap and returns the pointer to it&#39;s first node.">
<polygon fill="white" stroke="#666666" points="512.62,-96 385.62,-96 385.62,-76 512.62,-76 512.62,-96"/>
<text text-anchor="middle" x="449.12" y="-82.5" font-family="Helvetica,sans-Serif" font-size="10.00">AELogEntry::makeQueue</text>
</a>
</g>
</g>
<!-- Node3&#45;&gt;Node10 -->
<g id="edge9_Node000003_Node000010" class="edge">
<title>Node3&#45;&gt;Node10</title>
<g id="a_edge9_Node000003_Node000010"><a xlink:title=" ">
<path fill="none" stroke="#63b8ff" d="M279.49,-100.33C308.06,-97.9 343.36,-94.9 374.27,-92.28"/>
<polygon fill="#63b8ff" stroke="#63b8ff" points="374.26,-95.79 383.93,-91.45 373.67,-88.81 374.26,-95.79"/>
</a>
</g>
</g>
<!-- Node11 -->
<g id="Node000011" class="node">
<title>Node11</title>
<g id="a_Node000011"><a xlink:href="../../d8/dfc/class_a_e_logger.html#af4bff840ffdcfcb5ecb1251fddbf9690" target="_top" xlink:title="Checks for the given index number and returns the pointer in the queue of log entries.">
<polygon fill="white" stroke="#666666" points="510,-58 388.25,-58 388.25,-38 510,-38 510,-58"/>
<text text-anchor="middle" x="449.12" y="-44.5" font-family="Helvetica,sans-Serif" font-size="10.00">AELogger::ptrFromIndex</text>
</a>
</g>
</g>
<!-- Node3&#45;&gt;Node11 -->
<g id="edge10_Node000003_Node000011" class="edge">
<title>Node3&#45;&gt;Node11</title>
<g id="a_edge10_Node000003_Node000011"><a xlink:title=" ">
<path fill="none" stroke="#63b8ff" d="M250.54,-94.5C272.39,-86.05 304.57,-74.38 333.5,-67 347.44,-63.44 362.51,-60.39 377,-57.84"/>
<polygon fill="#63b8ff" stroke="#63b8ff" points="377.17,-61.36 386.44,-56.24 376,-54.46 377.17,-61.36"/>
</a>
</g>
</g>
<!-- Node12 -->
<g id="Node000012" class="node">
<title>Node12</title>
<g id="a_Node000012"><a xlink:href="../../d8/dfc/class_a_e_logger.html#a50dfd96a74d13471faebd4de499db5bf" target="_top" xlink:title="Request a debug log entry to be written to the opened log file.">
<polygon fill="white" stroke="#666666" points="518.62,-20 379.62,-20 379.62,0 518.62,0 518.62,-20"/>
<text text-anchor="middle" x="449.12" y="-6.5" font-family="Helvetica,sans-Serif" font-size="10.00">AELogger::writeToLogDebug</text>
</a>
</g>
</g>
<!-- Node3&#45;&gt;Node12 -->
<g id="edge11_Node000003_Node000012" class="edge">
<title>Node3&#45;&gt;Node12</title>
<g id="a_edge11_Node000003_Node000012"><a xlink:title=" ">
<path fill="none" stroke="#63b8ff" d="M230.77,-94.62C246.58,-75.47 289.91,-37.74 333.5,-20 344.33,-15.59 356.13,-12.2 367.92,-9.71"/>
<polygon fill="#63b8ff" stroke="#63b8ff" points="368.51,-13.16 377.68,-7.86 367.21,-6.28 368.51,-13.16"/>
</a>
</g>
</g>
<!-- Node7 -->
<g id="Node000007" class="node">
<title>Node7</title>
<g id="a_Node000007"><a xlink:href="../../db/d15/class_a_e_file_writer.html#a0743145db01b527ae9612f359e5c0090" target="_top" xlink:title="Checks if a file isn&#39;t open by this file&#45;writer.">
<polygon fill="white" stroke="#666666" points="715.75,-172 600.75,-172 600.75,-152 715.75,-152 715.75,-172"/>
<text text-anchor="middle" x="658.25" y="-158.5" font-family="Helvetica,sans-Serif" font-size="10.00">AEFileWriter::isClosed</text>
</a>
</g>
</g>
<!-- Node6&#45;&gt;Node7 -->
<g id="edge6_Node000006_Node000007" class="edge">
<title>Node6&#45;&gt;Node7</title>
<g id="a_edge6_Node000006_Node000007"><a xlink:title=" ">
<path fill="none" stroke="#63b8ff" d="M500.53,-162C527.17,-162 560.25,-162 589.14,-162"/>
<polygon fill="#63b8ff" stroke="#63b8ff" points="588.88,-165.5 598.88,-162 588.88,-158.5 588.88,-165.5"/>
</a>
</g>
</g>
<!-- Node8 -->
<g id="Node000008" class="node">
<title>Node8</title>
<g id="a_Node000008"><a xlink:href="../../db/d15/class_a_e_file_writer.html#a47e3c08c276394bce7b612331cf4762d" target="_top" xlink:title="Checks if a file is open by this file&#45;writer.">
<polygon fill="white" stroke="#666666" points="860,-172 751.75,-172 751.75,-152 860,-152 860,-172"/>
<text text-anchor="middle" x="805.88" y="-158.5" font-family="Helvetica,sans-Serif" font-size="10.00">AEFileWriter::isOpen</text>
</a>
</g>
</g>
<!-- Node7&#45;&gt;Node8 -->
<g id="edge7_Node000007_Node000008" class="edge">
<title>Node7&#45;&gt;Node8</title>
<g id="a_edge7_Node000007_Node000008"><a xlink:title=" ">
<path fill="none" stroke="#63b8ff" d="M715.97,-162C723.89,-162 732.09,-162 740.15,-162"/>
<polygon fill="#63b8ff" stroke="#63b8ff" points="739.9,-165.5 749.9,-162 739.9,-158.5 739.9,-165.5"/>
</a>
</g>
</g>
<!-- Node12&#45;&gt;Node3 -->
<g id="edge12_Node000012_Node000003" class="edge">
<title>Node12&#45;&gt;Node3</title>
<g id="a_edge12_Node000012_Node000003"><a xlink:title=" ">
<path fill="none" stroke="#63b8ff" d="M406.06,-20.48C383.84,-23.89 356.48,-28.65 333.5,-38 303.25,-50.31 273.12,-72.25 252.23,-87.88"/>
<polygon fill="#63b8ff" stroke="#63b8ff" points="250.15,-85.06 244.25,-93.86 254.35,-90.67 250.15,-85.06"/>
</a>
</g>
</g>
</g>
</svg>
