<?xml version="1.0" encoding="UTF-8" standalone="no"?>
<!DOCTYPE svg PUBLIC "-//W3C//DTD SVG 1.1//EN"
 "http://www.w3.org/Graphics/SVG/1.1/DTD/svg11.dtd">
<!-- Generated by graphviz version 10.0.1 (20240210.2158)
 -->
<!-- Title: AELogger::~AELogger Pages: 1 -->
<!--zoomable 370 -->

<svg id="main" version="1.1" xmlns="http://www.w3.org/2000/svg" xmlns:xlink="http://www.w3.org/1999/xlink" xml:space="preserve" onload="init(evt)">
<style type="text/css"><![CDATA[
.node, .edge {opacity: 0.7;}
.node.selected, .edge.selected {opacity: 1;}
.edge:hover path { stroke: red; }
.edge:hover polygon { stroke: red; fill: red; }
]]></style>

<defs>
  <circle id="rim" cx="0" cy="0" r="7"/>
  <circle id="rim2" cx="0" cy="0" r="3.5"/>
  <g id="zoomPlus">
    <use xlink:href="#rim" fill="#404040"><set attributeName="fill" to="#808080" begin="zoomplus.mouseover" end="zoomplus.mouseout"/></use>
    <path d="M-4,0h8M0,-4v8" fill="none" stroke="white" stroke-width="1.5" pointer-events="none"/>
  </g>
  <g id="zoomMin">
    <use xlink:href="#rim" fill="#404040"><set attributeName="fill" to="#808080" begin="zoomminus.mouseover" end="zoomminus.mouseout"/></use>
    <path d="M-4,0h8" fill="none" stroke="white" stroke-width="1.5" pointer-events="none"/>
  </g>
  <g id="arrowUp" transform="translate(30 24)">
    <use xlink:href="#rim"/>
    <path pointer-events="none" fill="none" stroke="white" stroke-width="1.5" d="M0,-3.0v7 M-2.5,-0.5L0,-3.0L2.5,-0.5"/>
  </g>
  <g id="arrowRight" transform="rotate(90) translate(36 -43)">
    <use xlink:href="#rim"/>
    <path pointer-events="none" fill="none" stroke="white" stroke-width="1.5" d="M0,-3.0v7 M-2.5,-0.5L0,-3.0L2.5,-0.5"/>
  </g>
  <g id="arrowDown" transform="rotate(180) translate(-30 -48)">
    <use xlink:href="#rim"/>
    <path pointer-events="none" fill="none" stroke="white" stroke-width="1.5" d="M0,-3.0v7 M-2.5,-0.5L0,-3.0L2.5,-0.5"/>
  </g>
  <g id="arrowLeft" transform="rotate(270) translate(-36 17)">
    <use xlink:href="#rim"/>
    <path pointer-events="none" fill="none" stroke="white" stroke-width="1.5" d="M0,-3.0v7 M-2.5,-0.5L0,-3.0L2.5,-0.5"/>
  </g>
  <g id="resetDef">
    <use xlink:href="#rim2" fill="#404040"><set attributeName="fill" to="#808080" begin="reset.mouseover" end="reset.mouseout"/></use>
  </g>
</defs>
<script type="application/ecmascript">
var viewWidth = 1202;
var viewHeight = 370;
var sectionId = 'dynsection-3';
</script>
<script type="application/ecmascript" xlink:href="../../svg.min.js"/>
<svg id="graph" class="graph">
<g id="viewport">
<title>AELogger::~AELogger</title>
<!-- Node1 -->
<g id="Node000001" class="node">
<title>Node1</title>
<g id="a_Node000001"><a xlink:title="Class destructor.">
<polygon fill="#999999" stroke="#666666" points="113.5,-96 0,-96 0,-76 113.5,-76 113.5,-96"/>
<text text-anchor="middle" x="56.75" y="-82.5" font-family="Helvetica,sans-Serif" font-size="10.00">AELogger::~AELogger</text>
</a>
</g>
</g>
<!-- Node2 -->
<g id="Node000002" class="node">
<title>Node2</title>
<g id="a_Node000002"><a xlink:href="../../d8/dfc/class_a_e_logger.html#a2f64d8f5de2f249f7cb973a82ec1e48a" target="_top" xlink:title="Close the file, if it was opened.">
<polygon fill="white" stroke="#666666" points="253.25,-210 149.5,-210 149.5,-190 253.25,-190 253.25,-210"/>
<text text-anchor="middle" x="201.38" y="-196.5" font-family="Helvetica,sans-Serif" font-size="10.00">AELogger::closeLog</text>
</a>
</g>
</g>
<!-- Node1&#45;&gt;Node2 -->
<g id="edge1_Node000001_Node000002" class="edge">
<title>Node1&#45;&gt;Node2</title>
<g id="a_edge1_Node000001_Node000002"><a xlink:title=" ">
<path fill="none" stroke="#63b8ff" d="M70.41,-96.12C94.77,-115.59 148.43,-158.48 178.63,-182.62"/>
<polygon fill="#63b8ff" stroke="#63b8ff" points="176.36,-185.29 186.36,-188.8 180.73,-179.82 176.36,-185.29"/>
</a>
</g>
</g>
<!-- Node9 -->
<g id="Node000009" class="node">
<title>Node9</title>
<g id="a_Node000009"><a xlink:href="../../d0/d8a/class_____a_e_module_base.html#a625c82f27195de3f9ab5af4fc7437e2f" target="_top" xlink:title="Get the name of the module.">
<polygon fill="white" stroke="#666666" points="884.75,-20 653.5,-20 653.5,0 884.75,0 884.75,-20"/>
<text text-anchor="middle" x="769.12" y="-6.5" font-family="Helvetica,sans-Serif" font-size="10.00">__AEModuleBase&lt; AELogger &gt;::getModuleName</text>
</a>
</g>
</g>
<!-- Node1&#45;&gt;Node9 -->
<g id="edge26_Node000001_Node000009" class="edge">
<title>Node1&#45;&gt;Node9</title>
<g id="a_edge26_Node000001_Node000009"><a xlink:title=" ">
<path fill="none" stroke="#63b8ff" d="M113.84,-79.39C193.64,-70.05 344.57,-52.61 473.25,-39 530.08,-32.99 593.12,-26.74 646.28,-21.58"/>
<polygon fill="#63b8ff" stroke="#63b8ff" points="646.34,-25.09 655.96,-20.64 645.67,-18.12 646.34,-25.09"/>
</a>
</g>
</g>
<!-- Node10 -->
<g id="Node000010" class="node">
<title>Node10</title>
<g id="a_Node000010"><a xlink:href="../../d8/dfc/class_a_e_logger.html#ac533941173224cb21fe09326726ce754" target="_top" xlink:title="Request a log entry to be written to the opened log file.">
<polygon fill="white" stroke="#666666" points="601,-134 489.75,-134 489.75,-114 601,-114 601,-134"/>
<text text-anchor="middle" x="545.38" y="-120.5" font-family="Helvetica,sans-Serif" font-size="10.00">AELogger::writeToLog</text>
</a>
</g>
</g>
<!-- Node1&#45;&gt;Node10 -->
<g id="edge27_Node000001_Node000010" class="edge">
<title>Node1&#45;&gt;Node10</title>
<g id="a_edge27_Node000001_Node000010"><a xlink:title=" ">
<path fill="none" stroke="#63b8ff" d="M113.57,-90.36C203.89,-97.41 381.68,-111.3 478.22,-118.83"/>
<polygon fill="#63b8ff" stroke="#63b8ff" points="477.83,-122.31 488.07,-119.6 478.37,-115.33 477.83,-122.31"/>
</a>
</g>
</g>
<!-- Node3 -->
<g id="Node000003" class="node">
<title>Node3</title>
<g id="a_Node000003"><a xlink:href="../../db/d15/class_a_e_file_writer.html#a05ceb471801ae111d68859f9d3b9eb78" target="_top" xlink:title="Closes the currently opened file.">
<polygon fill="white" stroke="#666666" points="421.5,-286 305,-286 305,-266 421.5,-266 421.5,-286"/>
<text text-anchor="middle" x="363.25" y="-272.5" font-family="Helvetica,sans-Serif" font-size="10.00">AEFileWriter::closeFile</text>
</a>
</g>
</g>
<!-- Node2&#45;&gt;Node3 -->
<g id="edge2_Node000002_Node000003" class="edge">
<title>Node2&#45;&gt;Node3</title>
<g id="a_edge2_Node000002_Node000003"><a xlink:title=" ">
<path fill="none" stroke="#63b8ff" d="M217.5,-210.47C234.4,-221.83 262.87,-239.95 289.25,-252 297.27,-255.66 306.02,-259.04 314.58,-262.02"/>
<polygon fill="#63b8ff" stroke="#63b8ff" points="313.22,-265.26 323.82,-265.11 315.44,-258.62 313.22,-265.26"/>
</a>
</g>
</g>
<!-- Node4 -->
<g id="Node000004" class="node">
<title>Node4</title>
<g id="a_Node000004"><a xlink:href="../../db/d15/class_a_e_file_writer.html#a26ea7c97bfdbed142df1863d8d47d895" target="_top" xlink:title="Returns the full name of currently open file, including the relative path, if such was provided.">
<polygon fill="white" stroke="#666666" points="437.25,-210 289.25,-210 289.25,-190 437.25,-190 437.25,-210"/>
<text text-anchor="middle" x="363.25" y="-196.5" font-family="Helvetica,sans-Serif" font-size="10.00">AEFileWriter::getFullFileName</text>
</a>
</g>
</g>
<!-- Node2&#45;&gt;Node4 -->
<g id="edge3_Node000002_Node000004" class="edge">
<title>Node2&#45;&gt;Node4</title>
<g id="a_edge3_Node000002_Node000004"><a xlink:title=" ">
<path fill="none" stroke="#63b8ff" d="M253.4,-200C261.19,-200 269.4,-200 277.68,-200"/>
<polygon fill="#63b8ff" stroke="#63b8ff" points="277.47,-203.5 287.47,-200 277.47,-196.5 277.47,-203.5"/>
</a>
</g>
</g>
<!-- Node5 -->
<g id="Node000005" class="node">
<title>Node5</title>
<g id="a_Node000005"><a xlink:href="../../d8/dfc/class_a_e_logger.html#a4d512bf9f4d0a6a1b6a332b9c99e22ac" target="_top" xlink:title="Checks if a log file isn&#39;t open by this logger.">
<polygon fill="white" stroke="#666666" points="820.25,-248 718,-248 718,-228 820.25,-228 820.25,-248"/>
<text text-anchor="middle" x="769.12" y="-234.5" font-family="Helvetica,sans-Serif" font-size="10.00">AELogger::isClosed</text>
</a>
</g>
</g>
<!-- Node2&#45;&gt;Node5 -->
<g id="edge4_Node000002_Node000005" class="edge">
<title>Node2&#45;&gt;Node5</title>
<g id="a_edge4_Node000002_Node000005"><a xlink:title=" ">
<path fill="none" stroke="#63b8ff" d="M243.22,-210.48C257.66,-213.77 274.09,-217.06 289.25,-219 438.04,-238.07 614.77,-239.7 706.29,-239"/>
<polygon fill="#63b8ff" stroke="#63b8ff" points="706.07,-242.5 716.04,-238.91 706.01,-235.5 706.07,-242.5"/>
</a>
</g>
</g>
<!-- Node8 -->
<g id="Node000008" class="node">
<title>Node8</title>
<g id="a_Node000008"><a xlink:href="../../d8/dfc/class_a_e_logger.html#a53b212c259c40bda694476f09d1f171b" target="_top" xlink:title="Stops the log&#45;writing thread (after flushing the log queue).">
<polygon fill="white" stroke="#666666" points="418.12,-172 308.38,-172 308.38,-152 418.12,-152 418.12,-172"/>
<text text-anchor="middle" x="363.25" y="-158.5" font-family="Helvetica,sans-Serif" font-size="10.00">AELogger::stopWriter</text>
</a>
</g>
</g>
<!-- Node2&#45;&gt;Node8 -->
<g id="edge7_Node000002_Node000008" class="edge">
<title>Node2&#45;&gt;Node8</title>
<g id="a_edge7_Node000002_Node000008"><a xlink:title=" ">
<path fill="none" stroke="#63b8ff" d="M246.48,-189.52C265.27,-185.05 287.38,-179.79 307.22,-175.08"/>
<polygon fill="#63b8ff" stroke="#63b8ff" points="307.89,-178.52 316.81,-172.8 306.27,-171.71 307.89,-178.52"/>
</a>
</g>
</g>
<!-- Node2&#45;&gt;Node10 -->
<g id="edge24_Node000002_Node000010" class="edge">
<title>Node2&#45;&gt;Node10</title>
<g id="a_edge24_Node000002_Node000010"><a xlink:title=" ">
<path fill="none" stroke="#63b8ff" d="M213.99,-189.54C229.74,-176.06 259.36,-153.15 289.25,-143 350.86,-122.07 425.51,-118.87 478.09,-119.97"/>
<polygon fill="#63b8ff" stroke="#63b8ff" points="477.69,-123.46 487.78,-120.23 477.88,-116.46 477.69,-123.46"/>
</a>
</g>
</g>
<!-- Node16 -->
<g id="Node000016" class="node">
<title>Node16</title>
<g id="a_Node000016"><a xlink:href="../../d8/dfc/class_a_e_logger.html#a54bad71bcfea05c3d17d7ba1bacfec8c" target="_top" xlink:title="Writes to log directly, without thinking of the queue.">
<polygon fill="white" stroke="#666666" points="617.5,-324 473.25,-324 473.25,-304 617.5,-304 617.5,-324"/>
<text text-anchor="middle" x="545.38" y="-310.5" font-family="Helvetica,sans-Serif" font-size="10.00">AELogger::writeToLogDirectly</text>
</a>
</g>
</g>
<!-- Node2&#45;&gt;Node16 -->
<g id="edge25_Node000002_Node000016" class="edge">
<title>Node2&#45;&gt;Node16</title>
<g id="a_edge25_Node000002_Node000016"><a xlink:title=" ">
<path fill="none" stroke="#63b8ff" d="M208.14,-210.37C220.16,-230.8 250.05,-275.96 289.25,-295 342.57,-320.9 409.63,-324.96 461.62,-322.91"/>
<polygon fill="#63b8ff" stroke="#63b8ff" points="461.48,-326.42 471.29,-322.44 461.14,-319.43 461.48,-326.42"/>
</a>
</g>
</g>
<!-- Node6 -->
<g id="Node000006" class="node">
<title>Node6</title>
<g id="a_Node000006"><a xlink:href="../../db/d15/class_a_e_file_writer.html#a0743145db01b527ae9612f359e5c0090" target="_top" xlink:title="Checks if a file isn&#39;t open by this file&#45;writer.">
<polygon fill="white" stroke="#666666" points="1042.88,-248 927.88,-248 927.88,-228 1042.88,-228 1042.88,-248"/>
<text text-anchor="middle" x="985.38" y="-234.5" font-family="Helvetica,sans-Serif" font-size="10.00">AEFileWriter::isClosed</text>
</a>
</g>
</g>
<!-- Node5&#45;&gt;Node6 -->
<g id="edge5_Node000005_Node000006" class="edge">
<title>Node5&#45;&gt;Node6</title>
<g id="a_edge5_Node000005_Node000006"><a xlink:title=" ">
<path fill="none" stroke="#63b8ff" d="M820.63,-238C849.17,-238 885.23,-238 916.24,-238"/>
<polygon fill="#63b8ff" stroke="#63b8ff" points="915.9,-241.5 925.9,-238 915.9,-234.5 915.9,-241.5"/>
</a>
</g>
</g>
<!-- Node7 -->
<g id="Node000007" class="node">
<title>Node7</title>
<g id="a_Node000007"><a xlink:href="../../db/d15/class_a_e_file_writer.html#a47e3c08c276394bce7b612331cf4762d" target="_top" xlink:title="Checks if a file is open by this file&#45;writer.">
<polygon fill="white" stroke="#666666" points="1194.25,-248 1086,-248 1086,-228 1194.25,-228 1194.25,-248"/>
<text text-anchor="middle" x="1140.12" y="-234.5" font-family="Helvetica,sans-Serif" font-size="10.00">AEFileWriter::isOpen</text>
</a>
</g>
</g>
<!-- Node6&#45;&gt;Node7 -->
<g id="edge6_Node000006_Node000007" class="edge">
<title>Node6&#45;&gt;Node7</title>
<g id="a_edge6_Node000006_Node000007"><a xlink:title=" ">
<path fill="none" stroke="#63b8ff" d="M1043.25,-238C1053.36,-238 1063.96,-238 1074.26,-238"/>
<polygon fill="#63b8ff" stroke="#63b8ff" points="1074.23,-241.5 1084.23,-238 1074.23,-234.5 1074.23,-241.5"/>
</a>
</g>
</g>
<!-- Node8&#45;&gt;Node9 -->
<g id="edge8_Node000008_Node000009" class="edge">
<title>Node8&#45;&gt;Node9</title>
<g id="a_edge8_Node000008_Node000009"><a xlink:title=" ">
<path fill="none" stroke="#63b8ff" d="M381.8,-151.65C425.82,-126.19 545.19,-60.34 653.5,-29 661.58,-26.66 670.08,-24.58 678.63,-22.73"/>
<polygon fill="#63b8ff" stroke="#63b8ff" points="679.3,-26.17 688.4,-20.74 677.9,-19.31 679.3,-26.17"/>
</a>
</g>
</g>
<!-- Node8&#45;&gt;Node10 -->
<g id="edge9_Node000008_Node000010" class="edge">
<title>Node8&#45;&gt;Node10</title>
<g id="a_edge9_Node000008_Node000010"><a xlink:title=" ">
<path fill="none" stroke="#63b8ff" d="M413.95,-151.52C435.5,-146.97 460.95,-141.6 483.62,-136.82"/>
<polygon fill="#63b8ff" stroke="#63b8ff" points="484.3,-140.25 493.36,-134.76 482.85,-133.4 484.3,-140.25"/>
</a>
</g>
</g>
<!-- Node8&#45;&gt;Node16 -->
<g id="edge18_Node000008_Node000016" class="edge">
<title>Node8&#45;&gt;Node16</title>
<g id="a_edge18_Node000008_Node000016"><a xlink:title=" ">
<path fill="none" stroke="#63b8ff" d="M418.54,-171.93C425.12,-174.33 431.53,-177.3 437.25,-181 482.3,-210.11 517.17,-264.49 533.75,-293.89"/>
<polygon fill="#63b8ff" stroke="#63b8ff" points="530.6,-295.41 538.47,-302.5 536.74,-292.05 530.6,-295.41"/>
</a>
</g>
</g>
<!-- Node10&#45;&gt;Node5 -->
<g id="edge12_Node000010_Node000005" class="edge">
<title>Node10&#45;&gt;Node5</title>
<g id="a_edge12_Node000010_Node000005"><a xlink:title=" ">
<path fill="none" stroke="#63b8ff" d="M554.52,-134.37C570.9,-154.39 609.97,-198.25 653.5,-219 669.86,-226.8 688.85,-231.46 706.62,-234.23"/>
<polygon fill="#63b8ff" stroke="#63b8ff" points="705.9,-237.67 716.28,-235.55 706.84,-230.73 705.9,-237.67"/>
</a>
</g>
</g>
<!-- Node10&#45;&gt;Node9 -->
<g id="edge10_Node000010_Node000009" class="edge">
<title>Node10&#45;&gt;Node9</title>
<g id="a_edge10_Node000010_Node000009"><a xlink:title=" ">
<path fill="none" stroke="#63b8ff" d="M579.31,-113.6C592.28,-108.33 606.64,-100.91 617.5,-91 641.04,-69.52 627.28,-47.11 653.5,-29 655.3,-27.75 657.16,-26.58 659.07,-25.47"/>
<polygon fill="#63b8ff" stroke="#63b8ff" points="660.24,-28.8 667.58,-21.16 657.08,-22.55 660.24,-28.8"/>
</a>
</g>
</g>
<!-- Node11 -->
<g id="Node000011" class="node">
<title>Node11</title>
<g id="a_Node000011"><a xlink:href="../../de/dde/namespaceace_1_1utils.html#ac3eadc5f289b54059322023f3c5eed96" target="_top" xlink:title="Checks if the passed string is alpha&#45;numeric with underscores (contains only numbers,...">
<polygon fill="white" stroke="#666666" points="824.38,-134 713.88,-134 713.88,-114 824.38,-114 824.38,-134"/>
<text text-anchor="middle" x="769.12" y="-120.5" font-family="Helvetica,sans-Serif" font-size="10.00">ace::utils::isAlNumUs</text>
</a>
</g>
</g>
<!-- Node10&#45;&gt;Node11 -->
<g id="edge11_Node000010_Node000011" class="edge">
<title>Node10&#45;&gt;Node11</title>
<g id="a_edge11_Node000010_Node000011"><a xlink:title=" ">
<path fill="none" stroke="#63b8ff" d="M601.47,-124C632.11,-124 670.43,-124 702.59,-124"/>
<polygon fill="#63b8ff" stroke="#63b8ff" points="702.18,-127.5 712.18,-124 702.18,-120.5 702.18,-127.5"/>
</a>
</g>
</g>
<!-- Node12 -->
<g id="Node000012" class="node">
<title>Node12</title>
<g id="a_Node000012"><a xlink:href="../../de/dde/namespaceace_1_1utils.html#a878c53ede8589dbc6a50734c9c4ad4d7" target="_top" xlink:title="Checks if the value is within some range.">
<polygon fill="white" stroke="#666666" points="821.38,-96 716.88,-96 716.88,-76 821.38,-76 821.38,-96"/>
<text text-anchor="middle" x="769.12" y="-82.5" font-family="Helvetica,sans-Serif" font-size="10.00">ace::utils::isInRange</text>
</a>
</g>
</g>
<!-- Node10&#45;&gt;Node12 -->
<g id="edge13_Node000010_Node000012" class="edge">
<title>Node10&#45;&gt;Node12</title>
<g id="a_edge13_Node000010_Node000012"><a xlink:title=" ">
<path fill="none" stroke="#63b8ff" d="M601.4,-114.12C618.13,-111.15 636.56,-107.91 653.5,-105 670.38,-102.1 688.67,-99.04 705.58,-96.24"/>
<polygon fill="#63b8ff" stroke="#63b8ff" points="705.68,-99.77 714.97,-94.68 704.53,-92.86 705.68,-99.77"/>
</a>
</g>
</g>
<!-- Node13 -->
<g id="Node000013" class="node">
<title>Node13</title>
<g id="a_Node000013"><a xlink:href="../../da/dea/struct_a_e_log_entry.html#a42447b345f72f22ec655556af2db7c28" target="_top" xlink:title="Allocates the queue of the given size on the heap and returns the pointer to it&#39;s first node.">
<polygon fill="white" stroke="#666666" points="832.62,-58 705.62,-58 705.62,-38 832.62,-38 832.62,-58"/>
<text text-anchor="middle" x="769.12" y="-44.5" font-family="Helvetica,sans-Serif" font-size="10.00">AELogEntry::makeQueue</text>
</a>
</g>
</g>
<!-- Node10&#45;&gt;Node13 -->
<g id="edge14_Node000010_Node000013" class="edge">
<title>Node10&#45;&gt;Node13</title>
<g id="a_edge14_Node000010_Node000013"><a xlink:title=" ">
<path fill="none" stroke="#63b8ff" d="M571.2,-113.6C585.08,-107.52 602.54,-99.39 617.5,-91 634.27,-81.59 635.61,-74.06 653.5,-67 666.31,-61.94 680.43,-58.23 694.26,-55.51"/>
<polygon fill="#63b8ff" stroke="#63b8ff" points="694.55,-59.01 703.77,-53.8 693.31,-52.12 694.55,-59.01"/>
</a>
</g>
</g>
<!-- Node14 -->
<g id="Node000014" class="node">
<title>Node14</title>
<g id="a_Node000014"><a xlink:href="../../d8/dfc/class_a_e_logger.html#af4bff840ffdcfcb5ecb1251fddbf9690" target="_top" xlink:title="Checks for the given index number and returns the pointer in the queue of log entries.">
<polygon fill="white" stroke="#666666" points="830,-210 708.25,-210 708.25,-190 830,-190 830,-210"/>
<text text-anchor="middle" x="769.12" y="-196.5" font-family="Helvetica,sans-Serif" font-size="10.00">AELogger::ptrFromIndex</text>
</a>
</g>
</g>
<!-- Node10&#45;&gt;Node14 -->
<g id="edge15_Node000010_Node000014" class="edge">
<title>Node10&#45;&gt;Node14</title>
<g id="a_edge15_Node000010_Node000014"><a xlink:title=" ">
<path fill="none" stroke="#63b8ff" d="M561.97,-134.4C582.19,-147.39 618.98,-169.31 653.5,-181 667.28,-185.67 682.39,-189.21 696.99,-191.9"/>
<polygon fill="#63b8ff" stroke="#63b8ff" points="696.09,-195.29 706.53,-193.53 697.27,-188.39 696.09,-195.29"/>
</a>
</g>
</g>
<!-- Node15 -->
<g id="Node000015" class="node">
<title>Node15</title>
<g id="a_Node000015"><a xlink:href="../../d8/dfc/class_a_e_logger.html#a50dfd96a74d13471faebd4de499db5bf" target="_top" xlink:title="Request a debug log entry to be written to the opened log file.">
<polygon fill="white" stroke="#666666" points="838.62,-172 699.62,-172 699.62,-152 838.62,-152 838.62,-172"/>
<text text-anchor="middle" x="769.12" y="-158.5" font-family="Helvetica,sans-Serif" font-size="10.00">AELogger::writeToLogDebug</text>
</a>
</g>
</g>
<!-- Node10&#45;&gt;Node15 -->
<g id="edge16_Node000010_Node000015" class="edge">
<title>Node10&#45;&gt;Node15</title>
<g id="a_edge16_Node000010_Node000015"><a xlink:title=" ">
<path fill="none" stroke="#63b8ff" d="M601.4,-125.29C618.13,-127.85 636.56,-131.09 653.5,-134 680.76,-138.68 711.7,-143.79 734.55,-148.92"/>
<polygon fill="#63b8ff" stroke="#63b8ff" points="733.7,-152.31 744.24,-151.25 735.33,-145.51 733.7,-152.31"/>
</a>
</g>
</g>
<!-- Node15&#45;&gt;Node10 -->
<g id="edge17_Node000015_Node000010" class="edge">
<title>Node15&#45;&gt;Node10</title>
<g id="a_edge17_Node000015_Node000010"><a xlink:title=" ">
<path fill="none" stroke="#63b8ff" d="M699.31,-159.5C684.21,-157.21 668.31,-154.54 653.5,-152 628.05,-147.63 599.24,-142.51 577.91,-137.32"/>
<polygon fill="#63b8ff" stroke="#63b8ff" points="578.92,-133.97 568.36,-134.81 577.15,-140.74 578.92,-133.97"/>
</a>
</g>
</g>
<!-- Node17 -->
<g id="Node000017" class="node">
<title>Node17</title>
<g id="a_Node000017"><a xlink:href="../../db/d15/class_a_e_file_writer.html#a0c238267ee45ca15672d4e9246cdca2c" target="_top" xlink:title="Flushes the opened file.">
<polygon fill="white" stroke="#666666" points="825.88,-324 712.38,-324 712.38,-304 825.88,-304 825.88,-324"/>
<text text-anchor="middle" x="769.12" y="-310.5" font-family="Helvetica,sans-Serif" font-size="10.00">AEFileWriter::flushFile</text>
</a>
</g>
</g>
<!-- Node16&#45;&gt;Node17 -->
<g id="edge19_Node000016_Node000017" class="edge">
<title>Node16&#45;&gt;Node17</title>
<g id="a_edge19_Node000016_Node000017"><a xlink:title=" ">
<path fill="none" stroke="#63b8ff" d="M617.76,-314C644.34,-314 674.4,-314 700.62,-314"/>
<polygon fill="#63b8ff" stroke="#63b8ff" points="700.47,-317.5 710.47,-314 700.47,-310.5 700.47,-317.5"/>
</a>
</g>
</g>
<!-- Node18 -->
<g id="Node000018" class="node">
<title>Node18</title>
<g id="a_Node000018"><a xlink:href="../../da/dea/struct_a_e_log_entry.html#ab803ea47d06098feab470f265498f617" target="_top" xlink:title="Formats the passed entry to the given c&#45;string.">
<polygon fill="white" stroke="#666666" points="831.5,-286 706.75,-286 706.75,-266 831.5,-266 831.5,-286"/>
<text text-anchor="middle" x="769.12" y="-272.5" font-family="Helvetica,sans-Serif" font-size="10.00">AELogEntry::formatEntry</text>
</a>
</g>
</g>
<!-- Node16&#45;&gt;Node18 -->
<g id="edge20_Node000016_Node000018" class="edge">
<title>Node16&#45;&gt;Node18</title>
<g id="a_edge20_Node000016_Node000018"><a xlink:title=" ">
<path fill="none" stroke="#63b8ff" d="M604.73,-303.53C620.55,-300.72 637.68,-297.71 653.5,-295 667.07,-292.67 681.55,-290.23 695.49,-287.91"/>
<polygon fill="#63b8ff" stroke="#63b8ff" points="695.75,-291.42 705.04,-286.33 694.6,-284.51 695.75,-291.42"/>
</a>
</g>
</g>
<!-- Node21 -->
<g id="Node000021" class="node">
<title>Node21</title>
<g id="a_Node000021"><a xlink:href="../../db/d15/class_a_e_file_writer.html#a01d537821c5760615e126f1c159b67da" target="_top" xlink:title="Write binary data, as is, to file, and flush if necessary.">
<polygon fill="white" stroke="#666666" points="836.38,-362 701.88,-362 701.88,-342 836.38,-342 836.38,-362"/>
<text text-anchor="middle" x="769.12" y="-348.5" font-family="Helvetica,sans-Serif" font-size="10.00">AEFileWriter::writeData_ptr</text>
</a>
</g>
</g>
<!-- Node16&#45;&gt;Node21 -->
<g id="edge23_Node000016_Node000021" class="edge">
<title>Node16&#45;&gt;Node21</title>
<g id="a_edge23_Node000016_Node000021"><a xlink:title=" ">
<path fill="none" stroke="#63b8ff" d="M604.73,-324.47C620.55,-327.28 637.68,-330.29 653.5,-333 666.31,-335.2 679.94,-337.49 693.16,-339.7"/>
<polygon fill="#63b8ff" stroke="#63b8ff" points="692.21,-343.09 702.65,-341.28 693.36,-336.18 692.21,-343.09"/>
</a>
</g>
</g>
<!-- Node19 -->
<g id="Node000019" class="node">
<title>Node19</title>
<g id="a_Node000019"><a xlink:href="../../de/dde/namespaceace_1_1utils.html#a2458b79e1a70255b471414a4bb5680ce" target="_top" xlink:title="Formats the current **(c)time point as YYYY&#45;MM&#45;DD.HH:mm:SS string**.">
<polygon fill="white" stroke="#666666" points="1039.88,-286 930.88,-286 930.88,-266 1039.88,-266 1039.88,-286"/>
<text text-anchor="middle" x="985.38" y="-272.5" font-family="Helvetica,sans-Serif" font-size="10.00">ace::utils::formatDate</text>
</a>
</g>
</g>
<!-- Node18&#45;&gt;Node19 -->
<g id="edge21_Node000018_Node000019" class="edge">
<title>Node18&#45;&gt;Node19</title>
<g id="a_edge21_Node000018_Node000019"><a xlink:title=" ">
<path fill="none" stroke="#63b8ff" d="M831.81,-276C859.19,-276 891.43,-276 919.2,-276"/>
<polygon fill="#63b8ff" stroke="#63b8ff" points="918.89,-279.5 928.89,-276 918.89,-272.5 918.89,-279.5"/>
</a>
</g>
</g>
<!-- Node20 -->
<g id="Node000020" class="node">
<title>Node20</title>
<g id="a_Node000020"><a xlink:href="../../da/dea/struct_a_e_log_entry.html#a958d25c57a94cfae8e7f31843e6c63ef" target="_top" xlink:title="Deduces the entry&#39;s log type and returns a c&#45;string of it.">
<polygon fill="white" stroke="#666666" points="1050,-324 920.75,-324 920.75,-304 1050,-304 1050,-324"/>
<text text-anchor="middle" x="985.38" y="-310.5" font-family="Helvetica,sans-Serif" font-size="10.00">AELogEntry::typeToString</text>
</a>
</g>
</g>
<!-- Node18&#45;&gt;Node20 -->
<g id="edge22_Node000018_Node000020" class="edge">
<title>Node18&#45;&gt;Node20</title>
<g id="a_edge22_Node000018_Node000020"><a xlink:title=" ">
<path fill="none" stroke="#63b8ff" d="M831.74,-285.93C848.92,-288.78 867.57,-291.94 884.75,-295 896.05,-297.01 908.05,-299.23 919.66,-301.42"/>
<polygon fill="#63b8ff" stroke="#63b8ff" points="918.68,-304.8 929.16,-303.22 919.99,-297.92 918.68,-304.8"/>
</a>
</g>
</g>
</g>
</svg>

<g id="navigator" transform="translate(0 0)" fill="#404254">
  <rect fill="#f2f5e9" fill-opacity="0.5" stroke="#606060" stroke-width=".5" x="0" y="0" width="60" height="60"/>
  <use id="zoomplus" xlink:href="#zoomPlus" x="17" y="9" onmousedown="handleZoom(evt,'in')"/>
  <use id="zoomminus" xlink:href="#zoomMin" x="42" y="9" onmousedown="handleZoom(evt,'out')"/>
  <use id="reset" xlink:href="#resetDef" x="30" y="36" onmousedown="handleReset()"/>
   <use id="arrowup" xlink:href="#arrowUp" x="0" y="0" onmousedown="handlePan(0,-1)"/>
  <use id="arrowright" xlink:href="#arrowRight" x="0" y="0" onmousedown="handlePan(1,0)"/>
  <use id="arrowdown" xlink:href="#arrowDown" x="0" y="0" onmousedown="handlePan(0,1)"/>
  <use id="arrowleft" xlink:href="#arrowLeft" x="0" y="0" onmousedown="handlePan(-1,0)"/>
</g>
<svg viewBox="0 0 15 15" width="100%" height="30px" preserveAspectRatio="xMaxYMin meet">
 <g id="arrow_out" transform="scale(0.3 0.3)">
  <a xlink:href="class_a_e_logger_a4b6c6a8134c8f7f24db7d3f35d62624d_cgraph_org.svg" target="_base">
   <rect id="button" ry="5" rx="5" y="6" x="6" height="38" width="38"
        fill="#f2f5e9" fill-opacity="0.5" stroke="#606060" stroke-width="1.0"/>
   <path id="arrow"
     d="M 11.500037,31.436501 C 11.940474,20.09759 22.043105,11.32322 32.158766,21.979434 L 37.068811,17.246167 C 37.068811,17.246167 37.088388,32 37.088388,32 L 22.160133,31.978069 C 22.160133,31.978069 26.997745,27.140456 26.997745,27.140456 C 18.528582,18.264221 13.291696,25.230495 11.500037,31.436501 z"
     style="fill:#404040;"/>
  </a>
 </g>
</svg>

<style type='text/css'>
<![CDATA[
[data-mouse-over-selected='false'] { opacity: 0.7; }
[data-mouse-over-selected='true']  { opacity: 1.0; }
]]>
</style>
<script type="application/ecmascript"><![CDATA[
document.addEventListener('DOMContentLoaded', (event) => {
  highlightEdges();
  highlightAdjacentNodes();
});
]]></script>
</svg>
