<?xml version="1.0" encoding="UTF-8" standalone="no"?>
<!DOCTYPE svg PUBLIC "-//W3C//DTD SVG 1.1//EN"
 "http://www.w3.org/Graphics/SVG/1.1/DTD/svg11.dtd">
<!-- Generated by graphviz version 10.0.1 (20240210.2158)
 -->
<!-- Title: AELogParser Pages: 1 -->
<svg width="1612pt" height="817pt"
 viewBox="0.00 0.00 1611.80 817.00" xmlns="http://www.w3.org/2000/svg" xmlns:xlink="http://www.w3.org/1999/xlink">
<g id="graph0" class="graph" transform="scale(1 1) rotate(0) translate(4 813)">
<title>AELogParser</title>
<!-- Node1 -->
<g id="Node000001" class="node">
<title>Node1</title>
<g id="a_Node000001"><a xlink:title="ArtyK&#39;s Engine&#39;s Log Parser; it parses the log files that AELogger writes.">
<polygon fill="#999999" stroke="#666666" points="1603.8,-373 1530.05,-373 1530.05,-353 1603.8,-353 1603.8,-373"/>
<text text-anchor="middle" x="1566.93" y="-359.5" font-family="Helvetica,sans-Serif" font-size="10.00">AELogParser</text>
</a>
</g>
</g>
<!-- Node2 -->
<g id="Node000002" class="node">
<title>Node2</title>
<g id="a_Node000002"><a xlink:href="../../d0/d8a/class_____a_e_module_base.html" target="_top" xlink:title=" ">
<polygon fill="white" stroke="#666666" points="1083.18,-623 913.43,-623 913.43,-603 1083.18,-603 1083.18,-623"/>
<text text-anchor="middle" x="998.3" y="-609.5" font-family="Helvetica,sans-Serif" font-size="10.00">__AEModuleBase&lt; AELogParser &gt;</text>
</a>
</g>
</g>
<!-- Node2&#45;&gt;Node1 -->
<g id="edge1_Node000001_Node000002" class="edge">
<title>Node2&#45;&gt;Node1</title>
<g id="a_edge1_Node000001_Node000002"><a xlink:title=" ">
<path fill="none" stroke="#63b8ff" d="M1055.66,-599.8C1154.09,-575 1361.2,-514.94 1512.05,-417 1530.71,-404.89 1548.08,-385.42 1557.82,-373.46"/>
<polygon fill="#63b8ff" stroke="#63b8ff" points="1055.1,-596.33 1046.25,-602.14 1056.8,-603.12 1055.1,-596.33"/>
</a>
</g>
</g>
<!-- Node3 -->
<g id="Node000003" class="node">
<title>Node3</title>
<g id="a_Node000003"><a xlink:title=" ">
<polygon fill="white" stroke="#666666" points="490.8,-693 362.3,-693 362.3,-673 490.8,-673 490.8,-693"/>
<text text-anchor="middle" x="426.55" y="-679.5" font-family="Helvetica,sans-Serif" font-size="10.00">std::atomic&lt; std::size_t &gt;</text>
</a>
</g>
</g>
<!-- Node3&#45;&gt;Node1 -->
<g id="edge50_Node000001_Node000003" class="edge">
<title>Node3&#45;&gt;Node1</title>
<g id="a_edge50_Node000001_Node000003"><a xlink:title=" ">
<path fill="none" stroke="#9a32cd" stroke-dasharray="5,2" d="M448.87,-700.54C464.62,-712.76 487.01,-728.66 508.8,-739 592.27,-778.61 616.03,-797 708.43,-797 708.43,-797 708.43,-797 1296.93,-797 1503.03,-797 1556.64,-439.02 1564.75,-373.3"/>
<polygon fill="#9a32cd" stroke="#9a32cd" points="451.18,-697.9 441.17,-694.43 446.83,-703.39 451.18,-697.9"/>
</a>
</g>
<text text-anchor="middle" x="998.3" y="-799.5" font-family="Helvetica,sans-Serif" font-size="10.00" fill="grey"> m_ullCurrentEntry</text>
</g>
<!-- Node3&#45;&gt;Node2 -->
<g id="edge2_Node000002_Node000003" class="edge">
<title>Node3&#45;&gt;Node2</title>
<g id="a_edge2_Node000002_Node000003"><a xlink:title=" ">
<path fill="none" stroke="#9a32cd" stroke-dasharray="5,2" d="M453.08,-699.2C468.55,-708.08 489.06,-718.22 508.8,-723 538.59,-730.21 776.71,-729.81 795.3,-725 873.33,-704.82 953.36,-647.28 984.14,-623.49"/>
<polygon fill="#9a32cd" stroke="#9a32cd" points="454.92,-696.23 444.54,-694.12 451.34,-702.24 454.92,-696.23"/>
</a>
</g>
<text text-anchor="middle" x="709.43" y="-730.5" font-family="Helvetica,sans-Serif" font-size="10.00" fill="grey"> m_ullModulesAlive</text>
</g>
<!-- Node10 -->
<g id="Node000010" class="node">
<title>Node10</title>
<g id="a_Node000010"><a xlink:href="../../d0/d8a/class_____a_e_module_base.html" target="_top" xlink:title="This is a base class for all the modules in the engine; all basic modules inherit from it.">
<polygon fill="white" stroke="#666666" points="768.05,-577 650.8,-577 650.8,-557 768.05,-557 768.05,-577"/>
<text text-anchor="middle" x="709.43" y="-563.5" font-family="Helvetica,sans-Serif" font-size="10.00">__AEModuleBase&lt; T &gt;</text>
</a>
</g>
</g>
<!-- Node3&#45;&gt;Node10 -->
<g id="edge11_Node000010_Node000003" class="edge">
<title>Node3&#45;&gt;Node10</title>
<g id="a_edge11_Node000010_Node000003"><a xlink:title=" ">
<path fill="none" stroke="#9a32cd" stroke-dasharray="5,2" d="M497.29,-669.87C532.58,-660.53 574.42,-645.05 605.55,-620 617.37,-610.49 611.43,-600.13 623.55,-591 631.5,-585.01 640.89,-580.52 650.46,-577.15"/>
<polygon fill="#9a32cd" stroke="#9a32cd" points="496.87,-666.37 488.03,-672.21 498.59,-673.16 496.87,-666.37"/>
</a>
</g>
<text text-anchor="middle" x="557.18" y="-668.5" font-family="Helvetica,sans-Serif" font-size="10.00" fill="grey"> m_ullModulesAlive</text>
</g>
<!-- Node12 -->
<g id="Node000012" class="node">
<title>Node12</title>
<g id="a_Node000012"><a xlink:href="../../d0/d8a/class_____a_e_module_base.html" target="_top" xlink:title=" ">
<polygon fill="white" stroke="#666666" points="1084.3,-513 912.3,-513 912.3,-493 1084.3,-493 1084.3,-513"/>
<text text-anchor="middle" x="998.3" y="-499.5" font-family="Helvetica,sans-Serif" font-size="10.00">__AEModuleBase&lt; AEFileReader &gt;</text>
</a>
</g>
</g>
<!-- Node3&#45;&gt;Node12 -->
<g id="edge16_Node000012_Node000003" class="edge">
<title>Node3&#45;&gt;Node12</title>
<g id="a_edge16_Node000012_Node000003"><a xlink:title=" ">
<path fill="none" stroke="#9a32cd" stroke-dasharray="5,2" d="M502.71,-690.04C594.4,-697.55 743.57,-705.99 795.3,-687 849.47,-667.12 864.49,-652.41 894.3,-603 913.35,-571.42 886.24,-548.09 912.3,-522 915.72,-518.58 919.61,-515.71 923.81,-513.32"/>
<polygon fill="#9a32cd" stroke="#9a32cd" points="503.04,-686.56 492.79,-689.21 502.46,-693.53 503.04,-686.56"/>
</a>
</g>
<text text-anchor="middle" x="709.43" y="-700.5" font-family="Helvetica,sans-Serif" font-size="10.00" fill="grey"> m_ullModulesAlive</text>
</g>
<!-- Node4 -->
<g id="Node000004" class="node">
<title>Node4</title>
<g id="a_Node000004"><a xlink:title=" ">
<polygon fill="white" stroke="#666666" points="197.8,-540 155.55,-540 155.55,-520 197.8,-520 197.8,-540"/>
<text text-anchor="middle" x="176.68" y="-526.5" font-family="Helvetica,sans-Serif" font-size="10.00">size_t</text>
</a>
</g>
</g>
<!-- Node4&#45;&gt;Node3 -->
<g id="edge3_Node000003_Node000004" class="edge">
<title>Node4&#45;&gt;Node3</title>
<g id="a_edge3_Node000003_Node000004"><a xlink:title=" ">
<path fill="none" stroke="#9a32cd" stroke-dasharray="5,2" d="M209.34,-525.11C251.96,-519.31 324.7,-512.35 344.3,-529 382.05,-561.08 335.88,-597.1 362.3,-639 371.72,-653.94 388.24,-665.17 402.04,-672.54"/>
<polygon fill="#9a32cd" stroke="#9a32cd" points="209.1,-521.61 199.69,-526.49 210.08,-528.54 209.1,-521.61"/>
</a>
</g>
<text text-anchor="middle" x="304.05" y="-531.5" font-family="Helvetica,sans-Serif" font-size="10.00" fill="grey"> ptr</text>
</g>
<!-- Node11 -->
<g id="Node000011" class="node">
<title>Node11</title>
<g id="a_Node000011"><a xlink:href="../../dd/dd5/class_a_e_file_reader.html" target="_top" xlink:title="ArtyK&#39;s Engine File Reader; umm, it reads data from the given file.">
<polygon fill="white" stroke="#666666" points="1333.93,-427 1257.93,-427 1257.93,-407 1333.93,-407 1333.93,-427"/>
<text text-anchor="middle" x="1295.93" y="-413.5" font-family="Helvetica,sans-Serif" font-size="10.00">AEFileReader</text>
</a>
</g>
</g>
<!-- Node4&#45;&gt;Node11 -->
<g id="edge23_Node000011_Node000004" class="edge">
<title>Node4&#45;&gt;Node11</title>
<g id="a_edge23_Node000011_Node000004"><a xlink:title=" ">
<path fill="none" stroke="#9a32cd" stroke-dasharray="5,2" d="M209.29,-526.01C221.56,-523.28 235.18,-518.7 245.8,-511 257.48,-502.53 253.22,-493.81 263.8,-484 324.29,-427.92 343.07,-393 425.55,-393 425.55,-393 425.55,-393 999.3,-393 1092.5,-393 1201.69,-405 1257.67,-412.03"/>
<polygon fill="#9a32cd" stroke="#9a32cd" points="208.76,-522.55 199.57,-527.82 210.04,-529.43 208.76,-522.55"/>
</a>
</g>
<text text-anchor="middle" x="709.43" y="-395.5" font-family="Helvetica,sans-Serif" font-size="10.00" fill="grey"> m_szLastReadAmount</text>
</g>
<!-- Node5 -->
<g id="Node000005" class="node">
<title>Node5</title>
<g id="a_Node000005"><a xlink:title=" ">
<polygon fill="white" stroke="#666666" points="220.68,-578 132.68,-578 132.68,-558 220.68,-558 220.68,-578"/>
<text text-anchor="middle" x="176.68" y="-564.5" font-family="Helvetica,sans-Serif" font-size="10.00">std::atomic&lt; T &gt;</text>
</a>
</g>
</g>
<!-- Node5&#45;&gt;Node3 -->
<g id="edge4_Node000003_Node000005" class="edge">
<title>Node5&#45;&gt;Node3</title>
<g id="a_edge4_Node000003_Node000005"><a xlink:title=" ">
<path fill="none" stroke="orange" stroke-dasharray="5,2" d="M210.27,-583.12C261.34,-606.81 358.94,-652.1 402.99,-672.53"/>
<polygon fill="orange" stroke="orange" points="212.03,-580.08 201.48,-579.05 209.08,-586.43 212.03,-580.08"/>
</a>
</g>
<text text-anchor="middle" x="304.05" y="-644.5" font-family="Helvetica,sans-Serif" font-size="10.00" fill="grey"> &lt; std::size_t &gt;</text>
</g>
<!-- Node7 -->
<g id="Node000007" class="node">
<title>Node7</title>
<g id="a_Node000007"><a xlink:title=" ">
<polygon fill="white" stroke="#666666" points="478.05,-540 375.05,-540 375.05,-520 478.05,-520 478.05,-540"/>
<text text-anchor="middle" x="426.55" y="-526.5" font-family="Helvetica,sans-Serif" font-size="10.00">std::atomic&lt; ullint &gt;</text>
</a>
</g>
</g>
<!-- Node5&#45;&gt;Node7 -->
<g id="edge8_Node000007_Node000005" class="edge">
<title>Node5&#45;&gt;Node7</title>
<g id="a_edge8_Node000007_Node000005"><a xlink:title=" ">
<path fill="none" stroke="orange" stroke-dasharray="5,2" d="M232.02,-561.13C264.63,-556.85 306.91,-551.03 344.3,-545 354.21,-543.4 364.78,-541.56 374.9,-539.72"/>
<polygon fill="orange" stroke="orange" points="231.88,-557.62 222.41,-562.38 232.78,-564.56 231.88,-557.62"/>
</a>
</g>
<text text-anchor="middle" x="304.05" y="-558.5" font-family="Helvetica,sans-Serif" font-size="10.00" fill="grey"> &lt; ullint &gt;</text>
</g>
<!-- Node6 -->
<g id="Node000006" class="node">
<title>Node6</title>
<g id="a_Node000006"><a xlink:title=" ">
<polygon fill="white" stroke="#666666" points="28.8,-333 0,-333 0,-313 28.8,-313 28.8,-333"/>
<text text-anchor="middle" x="14.4" y="-319.5" font-family="Helvetica,sans-Serif" font-size="10.00">T</text>
</a>
</g>
</g>
<!-- Node6&#45;&gt;Node5 -->
<g id="edge5_Node000005_Node000006" class="edge">
<title>Node6&#45;&gt;Node5</title>
<g id="a_edge5_Node000005_Node000006"><a xlink:title=" ">
<path fill="none" stroke="#9a32cd" stroke-dasharray="5,2" d="M17.9,-344.62C24.25,-389.56 45.22,-493.47 107.55,-549 114.52,-555.21 123.35,-559.4 132.33,-562.24"/>
<polygon fill="#9a32cd" stroke="#9a32cd" points="21.39,-344.34 16.64,-334.87 14.45,-345.24 21.39,-344.34"/>
</a>
</g>
<text text-anchor="middle" x="68.18" y="-532.5" font-family="Helvetica,sans-Serif" font-size="10.00" fill="grey"> ptr</text>
</g>
<!-- Node21 -->
<g id="Node000021" class="node">
<title>Node21</title>
<g id="a_Node000021"><a xlink:title=" ">
<polygon fill="white" stroke="#666666" points="1040.43,-357 956.18,-357 956.18,-337 1040.43,-337 1040.43,-357"/>
<text text-anchor="middle" x="998.3" y="-343.5" font-family="Helvetica,sans-Serif" font-size="10.00">std::vector&lt; T &gt;</text>
</a>
</g>
</g>
<!-- Node6&#45;&gt;Node21 -->
<g id="edge31_Node000021_Node000006" class="edge">
<title>Node6&#45;&gt;Node21</title>
<g id="a_edge31_Node000021_Node000006"><a xlink:title=" ">
<path fill="none" stroke="#9a32cd" stroke-dasharray="5,2" d="M40.13,-329.04C71.47,-336.15 127.24,-347 175.68,-347 175.68,-347 175.68,-347 710.43,-347 797.83,-347 900.22,-347 955.97,-347"/>
<polygon fill="#9a32cd" stroke="#9a32cd" points="41.03,-325.65 30.49,-326.78 39.43,-332.47 41.03,-325.65"/>
</a>
</g>
<text text-anchor="middle" x="426.55" y="-349.5" font-family="Helvetica,sans-Serif" font-size="10.00" fill="grey"> elements</text>
</g>
<!-- Node29 -->
<g id="Node000029" class="node">
<title>Node29</title>
<g id="a_Node000029"><a xlink:title=" ">
<polygon fill="white" stroke="#666666" points="245.8,-103 107.55,-103 107.55,-83 245.8,-83 245.8,-103"/>
<text text-anchor="middle" x="176.68" y="-89.5" font-family="Helvetica,sans-Serif" font-size="10.00">std::unordered_map&lt; K, T &gt;</text>
</a>
</g>
</g>
<!-- Node6&#45;&gt;Node29 -->
<g id="edge45_Node000029_Node000006" class="edge">
<title>Node6&#45;&gt;Node29</title>
<g id="a_edge45_Node000029_Node000006"><a xlink:title=" ">
<path fill="none" stroke="#9a32cd" stroke-dasharray="5,2" d="M16.36,-301.52C18.48,-274.46 25.24,-227.45 46.8,-194 74.36,-151.23 126.39,-118.89 155.19,-103.31"/>
<polygon fill="#9a32cd" stroke="#9a32cd" points="12.89,-301.04 15.76,-311.23 19.87,-301.47 12.89,-301.04"/>
</a>
</g>
<text text-anchor="middle" x="68.18" y="-196.5" font-family="Helvetica,sans-Serif" font-size="10.00" fill="grey"> elements</text>
</g>
<!-- Node32 -->
<g id="Node000032" class="node">
<title>Node32</title>
<g id="a_Node000032"><a xlink:title=" ">
<polygon fill="white" stroke="#666666" points="344.3,-191 263.8,-191 263.8,-171 344.3,-171 344.3,-191"/>
<text text-anchor="middle" x="304.05" y="-177.5" font-family="Helvetica,sans-Serif" font-size="10.00">std::array&lt; T &gt;</text>
</a>
</g>
</g>
<!-- Node6&#45;&gt;Node32 -->
<g id="edge49_Node000032_Node000006" class="edge">
<title>Node6&#45;&gt;Node32</title>
<g id="a_edge49_Node000032_Node000006"><a xlink:title=" ">
<path fill="none" stroke="#9a32cd" stroke-dasharray="5,2" d="M39.5,-311.1C94.72,-283.84 229.66,-217.23 281.91,-191.44"/>
<polygon fill="#9a32cd" stroke="#9a32cd" points="38.05,-307.92 30.63,-315.48 41.15,-314.19 38.05,-307.92"/>
</a>
</g>
<text text-anchor="middle" x="68.18" y="-308.5" font-family="Helvetica,sans-Serif" font-size="10.00" fill="grey"> elements</text>
</g>
<!-- Node7&#45;&gt;Node2 -->
<g id="edge6_Node000002_Node000007" class="edge">
<title>Node7&#45;&gt;Node2</title>
<g id="a_edge6_Node000002_Node000007"><a xlink:title=" ">
<path fill="none" stroke="#9a32cd" stroke-dasharray="5,2" d="M455.84,-545.64C471.11,-553.46 490.53,-562.42 508.8,-568 646.04,-609.93 814.25,-616.16 913.21,-615.52"/>
<polygon fill="#9a32cd" stroke="#9a32cd" points="457.81,-542.72 447.33,-541.17 454.56,-548.92 457.81,-542.72"/>
</a>
</g>
<text text-anchor="middle" x="709.43" y="-614.5" font-family="Helvetica,sans-Serif" font-size="10.00" fill="grey"> m_ullInstanceCounter</text>
</g>
<!-- Node7&#45;&gt;Node10 -->
<g id="edge12_Node000010_Node000007" class="edge">
<title>Node7&#45;&gt;Node10</title>
<g id="a_edge12_Node000010_Node000007"><a xlink:title=" ">
<path fill="none" stroke="#9a32cd" stroke-dasharray="5,2" d="M489.61,-538.17C537.66,-544.51 603.74,-553.21 650.67,-559.39"/>
<polygon fill="#9a32cd" stroke="#9a32cd" points="490.29,-534.73 479.91,-536.9 489.37,-541.67 490.29,-534.73"/>
</a>
</g>
<text text-anchor="middle" x="557.18" y="-554.5" font-family="Helvetica,sans-Serif" font-size="10.00" fill="grey"> m_ullInstanceCounter</text>
</g>
<!-- Node7&#45;&gt;Node11 -->
<g id="edge22_Node000011_Node000007" class="edge">
<title>Node7&#45;&gt;Node11</title>
<g id="a_edge22_Node000011_Node000007"><a xlink:title=" ">
<path fill="none" stroke="#9a32cd" stroke-dasharray="5,2" d="M454.1,-513.85C469.52,-505.27 489.62,-495.41 508.8,-490 788.13,-411.18 1143.21,-412.81 1257.62,-415.72"/>
<polygon fill="#9a32cd" stroke="#9a32cd" points="452.49,-510.74 445.56,-518.75 455.98,-516.8 452.49,-510.74"/>
</a>
</g>
<text text-anchor="middle" x="853.8" y="-435.5" font-family="Helvetica,sans-Serif" font-size="10.00" fill="grey"> m_ullTotalReads</text>
</g>
<!-- Node7&#45;&gt;Node12 -->
<g id="edge17_Node000012_Node000007" class="edge">
<title>Node7&#45;&gt;Node12</title>
<g id="a_edge17_Node000012_Node000007"><a xlink:title=" ">
<path fill="none" stroke="#9a32cd" stroke-dasharray="5,2" d="M487.31,-517.26C494.54,-515.79 501.83,-514.34 508.8,-513 559.64,-503.25 571.97,-497.46 623.55,-493 699.6,-486.42 718.99,-491.11 795.3,-493 833.56,-493.95 875.86,-495.9 911.82,-497.83"/>
<polygon fill="#9a32cd" stroke="#9a32cd" points="486.62,-513.83 477.53,-519.27 488.03,-520.68 486.62,-513.83"/>
</a>
</g>
<text text-anchor="middle" x="709.43" y="-495.5" font-family="Helvetica,sans-Serif" font-size="10.00" fill="grey"> m_ullInstanceCounter</text>
</g>
<!-- Node8 -->
<g id="Node000008" class="node">
<title>Node8</title>
<g id="a_Node000008"><a xlink:title=" ">
<polygon fill="white" stroke="#666666" points="194.8,-502 158.55,-502 158.55,-482 194.8,-482 194.8,-502"/>
<text text-anchor="middle" x="176.68" y="-488.5" font-family="Helvetica,sans-Serif" font-size="10.00">ullint</text>
</a>
</g>
</g>
<!-- Node8&#45;&gt;Node7 -->
<g id="edge7_Node000007_Node000008" class="edge">
<title>Node8&#45;&gt;Node7</title>
<g id="a_edge7_Node000007_Node000008"><a xlink:title=" ">
<path fill="none" stroke="#9a32cd" stroke-dasharray="5,2" d="M206.15,-489.82C239.61,-487.95 296.63,-486.94 344.3,-497 366.2,-501.62 389.74,-511.81 405.81,-519.66"/>
<polygon fill="#9a32cd" stroke="#9a32cd" points="206.21,-486.31 196.45,-490.43 206.65,-493.29 206.21,-486.31"/>
</a>
</g>
<text text-anchor="middle" x="304.05" y="-499.5" font-family="Helvetica,sans-Serif" font-size="10.00" fill="grey"> ptr</text>
</g>
<!-- Node9 -->
<g id="Node000009" class="node">
<title>Node9</title>
<g id="a_Node000009"><a xlink:title=" ">
<polygon fill="white" stroke="#666666" points="458.18,-630 394.93,-630 394.93,-610 458.18,-610 458.18,-630"/>
<text text-anchor="middle" x="426.55" y="-616.5" font-family="Helvetica,sans-Serif" font-size="10.00">const ullint</text>
</a>
</g>
</g>
<!-- Node9&#45;&gt;Node2 -->
<g id="edge9_Node000002_Node000009" class="edge">
<title>Node9&#45;&gt;Node2</title>
<g id="a_edge9_Node000002_Node000009"><a xlink:title=" ">
<path fill="none" stroke="#9a32cd" stroke-dasharray="5,2" d="M448.87,-636.92C464.46,-648.17 486.68,-661.95 508.8,-668 590.51,-690.33 839.21,-644.96 946.8,-623.46"/>
<polygon fill="#9a32cd" stroke="#9a32cd" points="451.38,-634.43 441.28,-631.24 447.19,-640.04 451.38,-634.43"/>
</a>
</g>
<text text-anchor="middle" x="709.43" y="-673.5" font-family="Helvetica,sans-Serif" font-size="10.00" fill="grey"> m_ullModuleId</text>
</g>
<!-- Node9&#45;&gt;Node10 -->
<g id="edge13_Node000010_Node000009" class="edge">
<title>Node9&#45;&gt;Node10</title>
<g id="a_edge13_Node000010_Node000009"><a xlink:title=" ">
<path fill="none" stroke="#9a32cd" stroke-dasharray="5,2" d="M469.5,-612.09C518.26,-602.88 598.94,-587.66 652.88,-577.48"/>
<polygon fill="#9a32cd" stroke="#9a32cd" points="469.08,-608.6 459.9,-613.9 470.37,-615.48 469.08,-608.6"/>
</a>
</g>
<text text-anchor="middle" x="557.18" y="-606.5" font-family="Helvetica,sans-Serif" font-size="10.00" fill="grey"> m_ullModuleId</text>
</g>
<!-- Node9&#45;&gt;Node12 -->
<g id="edge18_Node000012_Node000009" class="edge">
<title>Node9&#45;&gt;Node12</title>
<g id="a_edge18_Node000012_Node000009"><a xlink:title=" ">
<path fill="none" stroke="#9a32cd" stroke-dasharray="5,2" d="M441.1,-600.55C455.48,-581.65 480.08,-553.98 508.8,-541 544.48,-524.87 781.54,-512.29 911.84,-506.49"/>
<polygon fill="#9a32cd" stroke="#9a32cd" points="438.34,-598.39 435.26,-608.52 443.99,-602.52 438.34,-598.39"/>
</a>
</g>
<text text-anchor="middle" x="709.43" y="-525.5" font-family="Helvetica,sans-Serif" font-size="10.00" fill="grey"> m_ullModuleId</text>
</g>
<!-- Node10&#45;&gt;Node2 -->
<g id="edge10_Node000002_Node000010" class="edge">
<title>Node10&#45;&gt;Node2</title>
<g id="a_edge10_Node000002_Node000010"><a xlink:title=" ">
<path fill="none" stroke="orange" stroke-dasharray="5,2" d="M779.69,-572.24C814.28,-575.44 856.68,-580.24 894.3,-587 916.81,-591.04 941.68,-597.27 961.34,-602.62"/>
<polygon fill="orange" stroke="orange" points="780.06,-568.76 769.79,-571.35 779.43,-575.73 780.06,-568.76"/>
</a>
</g>
<text text-anchor="middle" x="853.8" y="-589.5" font-family="Helvetica,sans-Serif" font-size="10.00" fill="grey"> &lt; AELogParser &gt;</text>
</g>
<!-- Node10&#45;&gt;Node12 -->
<g id="edge19_Node000012_Node000010" class="edge">
<title>Node10&#45;&gt;Node12</title>
<g id="a_edge19_Node000012_Node000010"><a xlink:title=" ">
<path fill="none" stroke="orange" stroke-dasharray="5,2" d="M779.2,-555.61C814.03,-549.13 856.78,-540.09 894.3,-529 902.53,-526.57 904.09,-524.5 912.3,-522 922.72,-518.83 934,-515.94 944.83,-513.42"/>
<polygon fill="orange" stroke="orange" points="778.88,-552.11 769.67,-557.35 780.14,-559 778.88,-552.11"/>
</a>
</g>
<text text-anchor="middle" x="853.8" y="-550.5" font-family="Helvetica,sans-Serif" font-size="10.00" fill="grey"> &lt; AEFileReader &gt;</text>
</g>
<!-- Node11&#45;&gt;Node1 -->
<g id="edge14_Node000001_Node000011" class="edge">
<title>Node11&#45;&gt;Node1</title>
<g id="a_edge14_Node000001_Node000011"><a xlink:title=" ">
<path fill="none" stroke="#9a32cd" stroke-dasharray="5,2" d="M1345.3,-410.07C1389.11,-403.41 1455.29,-392.39 1512.05,-379 1518.79,-377.41 1525.94,-375.47 1532.75,-373.5"/>
<polygon fill="#9a32cd" stroke="#9a32cd" points="1344.98,-406.58 1335.61,-411.52 1346.02,-413.5 1344.98,-406.58"/>
</a>
</g>
<text text-anchor="middle" x="1456.55" y="-403.5" font-family="Helvetica,sans-Serif" font-size="10.00" fill="grey"> m_frLogReader</text>
</g>
<!-- Node12&#45;&gt;Node11 -->
<g id="edge15_Node000011_Node000012" class="edge">
<title>Node12&#45;&gt;Node11</title>
<g id="a_edge15_Node000011_Node000012"><a xlink:title=" ">
<path fill="none" stroke="#63b8ff" d="M1046.16,-489.37C1105.34,-472.15 1205.88,-442.9 1259.22,-427.39"/>
<polygon fill="#63b8ff" stroke="#63b8ff" points="1045.33,-485.96 1036.71,-492.12 1047.29,-492.69 1045.33,-485.96"/>
</a>
</g>
</g>
<!-- Node13 -->
<g id="Node000013" class="node">
<title>Node13</title>
<g id="a_Node000013"><a xlink:title=" ">
<polygon fill="white" stroke="#666666" points="1028.05,-259 968.55,-259 968.55,-239 1028.05,-239 1028.05,-259"/>
<text text-anchor="middle" x="998.3" y="-245.5" font-family="Helvetica,sans-Serif" font-size="10.00">std::string</text>
</a>
</g>
</g>
<!-- Node13&#45;&gt;Node11 -->
<g id="edge20_Node000011_Node000013" class="edge">
<title>Node13&#45;&gt;Node11</title>
<g id="a_edge20_Node000011_Node000013"><a xlink:title=" ">
<path fill="none" stroke="#9a32cd" stroke-dasharray="5,2" d="M1039.22,-259.45C1053.53,-263.42 1069.72,-268.15 1084.3,-273 1132.42,-289.02 1156.94,-276.24 1190.8,-314 1211.67,-337.27 1188.14,-358.53 1208.8,-382 1221.38,-396.3 1240.66,-404.85 1257.8,-409.92"/>
<polygon fill="#9a32cd" stroke="#9a32cd" points="1040.25,-256.11 1029.68,-256.85 1038.41,-262.86 1040.25,-256.11"/>
</a>
</g>
<text text-anchor="middle" x="1146.55" y="-316.5" font-family="Helvetica,sans-Serif" font-size="10.00" fill="grey"> m_sFilename</text>
</g>
<!-- Node23 -->
<g id="Node000023" class="node">
<title>Node23</title>
<g id="a_Node000023"><a xlink:title=" ">
<polygon fill="white" stroke="#666666" points="1383.05,-123 1208.8,-123 1208.8,-91 1383.05,-91 1383.05,-123"/>
<text text-anchor="start" x="1216.8" y="-109.5" font-family="Helvetica,sans-Serif" font-size="10.00">std::unordered_map&lt; std::string, std</text>
<text text-anchor="middle" x="1295.93" y="-97.5" font-family="Helvetica,sans-Serif" font-size="10.00">::pair&lt; ullint, short &gt; &gt;</text>
</a>
</g>
</g>
<!-- Node13&#45;&gt;Node23 -->
<g id="edge36_Node000023_Node000013" class="edge">
<title>Node13&#45;&gt;Node23</title>
<g id="a_edge36_Node000023_Node000013"><a xlink:title=" ">
<path fill="none" stroke="#9a32cd" stroke-dasharray="5,2" d="M1039.71,-247.31C1055,-244.9 1071.73,-239.94 1084.3,-230 1098.65,-218.66 1089.16,-205.72 1102.3,-193 1137.83,-158.62 1189.45,-136.58 1230.32,-123.43"/>
<polygon fill="#9a32cd" stroke="#9a32cd" points="1039.39,-243.82 1029.89,-248.51 1040.24,-250.77 1039.39,-243.82"/>
</a>
</g>
<text text-anchor="middle" x="1146.55" y="-195.5" font-family="Helvetica,sans-Serif" font-size="10.00" fill="grey"> keys</text>
</g>
<!-- Node14 -->
<g id="Node000014" class="node">
<title>Node14</title>
<g id="a_Node000014"><a xlink:title=" ">
<polygon fill="white" stroke="#666666" points="772.55,-319 646.3,-319 646.3,-299 772.55,-299 772.55,-319"/>
<text text-anchor="middle" x="709.43" y="-305.5" font-family="Helvetica,sans-Serif" font-size="10.00">std::basic_string&lt; Char &gt;</text>
</a>
</g>
</g>
<!-- Node14&#45;&gt;Node13 -->
<g id="edge21_Node000013_Node000014" class="edge">
<title>Node14&#45;&gt;Node13</title>
<g id="a_edge21_Node000013_Node000014"><a xlink:title=" ">
<path fill="none" stroke="#63b8ff" d="M784.15,-305.94C818.43,-302.78 859.26,-296.47 894.3,-284 903.13,-280.86 903.71,-276.75 912.3,-273 930.29,-265.14 951.54,-259.14 968.29,-255.11"/>
<polygon fill="#63b8ff" stroke="#63b8ff" points="783.98,-302.44 774.31,-306.77 784.57,-309.42 783.98,-302.44"/>
</a>
</g>
</g>
<!-- Node15 -->
<g id="Node000015" class="node">
<title>Node15</title>
<g id="a_Node000015"><a xlink:title=" ">
<polygon fill="white" stroke="#666666" points="1019.8,-551 976.8,-551 976.8,-531 1019.8,-531 1019.8,-551"/>
<text text-anchor="middle" x="998.3" y="-537.5" font-family="Helvetica,sans-Serif" font-size="10.00">FILE *</text>
</a>
</g>
</g>
<!-- Node15&#45;&gt;Node11 -->
<g id="edge24_Node000011_Node000015" class="edge">
<title>Node15&#45;&gt;Node11</title>
<g id="a_edge24_Node000011_Node000015"><a xlink:title=" ">
<path fill="none" stroke="#9a32cd" stroke-dasharray="5,2" d="M1031.23,-535.4C1047.34,-532.19 1067.08,-527.66 1084.3,-522 1160.37,-496.98 1243.42,-448.72 1278.18,-427.48"/>
<polygon fill="#9a32cd" stroke="#9a32cd" points="1030.87,-531.91 1021.7,-537.22 1032.18,-538.78 1030.87,-531.91"/>
</a>
</g>
<text text-anchor="middle" x="1146.55" y="-515.5" font-family="Helvetica,sans-Serif" font-size="10.00" fill="grey"> m_fpFilestr</text>
</g>
<!-- Node16 -->
<g id="Node000016" class="node">
<title>Node16</title>
<g id="a_Node000016"><a xlink:title=" ">
<polygon fill="white" stroke="#666666" points="1369.18,-335 1222.68,-335 1222.68,-315 1369.18,-315 1369.18,-335"/>
<text text-anchor="middle" x="1295.93" y="-321.5" font-family="Helvetica,sans-Serif" font-size="10.00">std::vector&lt; AELogEntryInfo &gt;</text>
</a>
</g>
</g>
<!-- Node16&#45;&gt;Node1 -->
<g id="edge25_Node000001_Node000016" class="edge">
<title>Node16&#45;&gt;Node1</title>
<g id="a_edge25_Node000001_Node000016"><a xlink:title=" ">
<path fill="none" stroke="#9a32cd" stroke-dasharray="5,2" d="M1380.94,-329.93C1420.91,-333.21 1469.22,-338.53 1512.05,-347 1519.32,-348.44 1527.03,-350.43 1534.26,-352.53"/>
<polygon fill="#9a32cd" stroke="#9a32cd" points="1381.38,-326.46 1371.13,-329.16 1380.83,-333.44 1381.38,-326.46"/>
</a>
</g>
<text text-anchor="middle" x="1456.55" y="-349.5" font-family="Helvetica,sans-Serif" font-size="10.00" fill="grey"> m_vecEntryIndices</text>
</g>
<!-- Node17 -->
<g id="Node000017" class="node">
<title>Node17</title>
<g id="a_Node000017"><a xlink:href="../../db/d7b/struct_a_e_log_entry_info.html" target="_top" xlink:title="The struct that holds the information about the log entry, used by AELogParser.">
<polygon fill="white" stroke="#666666" points="1040.05,-221 956.55,-221 956.55,-201 1040.05,-201 1040.05,-221"/>
<text text-anchor="middle" x="998.3" y="-207.5" font-family="Helvetica,sans-Serif" font-size="10.00">AELogEntryInfo</text>
</a>
</g>
</g>
<!-- Node17&#45;&gt;Node16 -->
<g id="edge26_Node000016_Node000017" class="edge">
<title>Node17&#45;&gt;Node16</title>
<g id="a_edge26_Node000016_Node000017"><a xlink:title=" ">
<path fill="none" stroke="#9a32cd" stroke-dasharray="5,2" d="M1051.75,-207.09C1091.58,-206.16 1146.8,-209.39 1190.8,-229 1234.59,-248.52 1272.09,-294 1287.47,-314.57"/>
<polygon fill="#9a32cd" stroke="#9a32cd" points="1051.83,-203.58 1041.95,-207.42 1052.06,-210.58 1051.83,-203.58"/>
</a>
</g>
<text text-anchor="middle" x="1146.55" y="-231.5" font-family="Helvetica,sans-Serif" font-size="10.00" fill="grey"> elements</text>
</g>
<!-- Node18 -->
<g id="Node000018" class="node">
<title>Node18</title>
<g id="a_Node000018"><a xlink:title=" ">
<polygon fill="white" stroke="#666666" points="736.93,-281 681.93,-281 681.93,-261 736.93,-261 736.93,-281"/>
<text text-anchor="middle" x="709.43" y="-267.5" font-family="Helvetica,sans-Serif" font-size="10.00">long long</text>
</a>
</g>
</g>
<!-- Node18&#45;&gt;Node17 -->
<g id="edge27_Node000017_Node000018" class="edge">
<title>Node18&#45;&gt;Node17</title>
<g id="a_edge27_Node000017_Node000018"><a xlink:title=" ">
<path fill="none" stroke="#9a32cd" stroke-dasharray="5,2" d="M748.17,-269.1C786.12,-266.21 845.79,-258.99 894.3,-241 903.09,-237.74 903.61,-233.51 912.3,-230 926.18,-224.39 942.03,-220.28 956.26,-217.34"/>
<polygon fill="#9a32cd" stroke="#9a32cd" points="748.37,-265.57 738.63,-269.76 748.85,-272.56 748.37,-265.57"/>
</a>
</g>
<text text-anchor="middle" x="853.8" y="-263.5" font-family="Helvetica,sans-Serif" font-size="10.00" fill="grey"> cursorIndex</text>
</g>
<!-- Node22 -->
<g id="Node000022" class="node">
<title>Node22</title>
<g id="a_Node000022"><a xlink:title=" ">
<polygon fill="white" stroke="#666666" points="1342.93,-373 1248.93,-373 1248.93,-353 1342.93,-353 1342.93,-373"/>
<text text-anchor="middle" x="1295.93" y="-359.5" font-family="Helvetica,sans-Serif" font-size="10.00">std::vector&lt; llint &gt;</text>
</a>
</g>
</g>
<!-- Node18&#45;&gt;Node22 -->
<g id="edge33_Node000022_Node000018" class="edge">
<title>Node18&#45;&gt;Node22</title>
<g id="a_edge33_Node000022_Node000018"><a xlink:title=" ">
<path fill="none" stroke="#9a32cd" stroke-dasharray="5,2" d="M748.45,-273.9C854.99,-282.25 1151.22,-306.9 1190.8,-326 1200.99,-330.92 1198.88,-338.56 1208.8,-344 1220.89,-350.62 1235.12,-354.94 1248.49,-357.75"/>
<polygon fill="#9a32cd" stroke="#9a32cd" points="749.04,-270.44 738.8,-273.15 748.5,-277.42 749.04,-270.44"/>
</a>
</g>
<text text-anchor="middle" x="998.3" y="-307.5" font-family="Helvetica,sans-Serif" font-size="10.00" fill="grey"> elements</text>
</g>
<!-- Node19 -->
<g id="Node000019" class="node">
<title>Node19</title>
<g id="a_Node000019"><a xlink:title=" ">
<polygon fill="white" stroke="#666666" points="728.3,-205 690.55,-205 690.55,-185 728.3,-185 728.3,-205"/>
<text text-anchor="middle" x="709.43" y="-191.5" font-family="Helvetica,sans-Serif" font-size="10.00">short</text>
</a>
</g>
</g>
<!-- Node19&#45;&gt;Node17 -->
<g id="edge28_Node000017_Node000019" class="edge">
<title>Node19&#45;&gt;Node17</title>
<g id="a_edge28_Node000017_Node000019"><a xlink:title=" ">
<path fill="none" stroke="#9a32cd" stroke-dasharray="5,2" d="M739.95,-194.79C776.31,-194.72 839.92,-195.25 894.3,-199 914.77,-200.41 937.44,-202.95 956.28,-205.32"/>
<polygon fill="#9a32cd" stroke="#9a32cd" points="740.22,-191.29 730.23,-194.82 740.25,-198.29 740.22,-191.29"/>
</a>
</g>
<text text-anchor="middle" x="853.8" y="-201.5" font-family="Helvetica,sans-Serif" font-size="10.00" fill="grey"> mnameIndex</text>
</g>
<!-- Node24 -->
<g id="Node000024" class="node">
<title>Node24</title>
<g id="a_Node000024"><a xlink:title=" ">
<polygon fill="white" stroke="#666666" points="1056.93,-85 939.68,-85 939.68,-65 1056.93,-65 1056.93,-85"/>
<text text-anchor="middle" x="998.3" y="-71.5" font-family="Helvetica,sans-Serif" font-size="10.00">std::pair&lt; ullint, short &gt;</text>
</a>
</g>
</g>
<!-- Node19&#45;&gt;Node24 -->
<g id="edge39_Node000024_Node000019" class="edge">
<title>Node19&#45;&gt;Node24</title>
<g id="a_edge39_Node000024_Node000019"><a xlink:title=" ">
<path fill="none" stroke="#9a32cd" stroke-dasharray="5,2" d="M729.83,-176.99C756.87,-152.05 803.66,-109.54 813.3,-105 852.83,-86.38 901.84,-79.06 939.33,-76.29"/>
<polygon fill="#9a32cd" stroke="#9a32cd" points="727.58,-174.3 722.61,-183.66 732.33,-179.44 727.58,-174.3"/>
</a>
</g>
<text text-anchor="middle" x="853.8" y="-107.5" font-family="Helvetica,sans-Serif" font-size="10.00" fill="grey"> second_type</text>
</g>
<!-- Node20 -->
<g id="Node000020" class="node">
<title>Node20</title>
<g id="a_Node000020"><a xlink:title=" ">
<polygon fill="white" stroke="#666666" points="729.43,-243 689.43,-243 689.43,-223 729.43,-223 729.43,-243"/>
<text text-anchor="middle" x="709.43" y="-229.5" font-family="Helvetica,sans-Serif" font-size="10.00">int8_t</text>
</a>
</g>
</g>
<!-- Node20&#45;&gt;Node17 -->
<g id="edge29_Node000017_Node000020" class="edge">
<title>Node20&#45;&gt;Node17</title>
<g id="a_edge29_Node000017_Node000020"><a xlink:title=" ">
<path fill="none" stroke="#9a32cd" stroke-dasharray="5,2" d="M741.09,-230.65C792.94,-226.67 897.97,-218.62 956.16,-214.15"/>
<polygon fill="#9a32cd" stroke="#9a32cd" points="740.91,-227.15 731.2,-231.41 741.44,-234.13 740.91,-227.15"/>
</a>
</g>
<text text-anchor="middle" x="853.8" y="-227.5" font-family="Helvetica,sans-Serif" font-size="10.00" fill="grey"> logType</text>
</g>
<!-- Node21&#45;&gt;Node16 -->
<g id="edge30_Node000016_Node000021" class="edge">
<title>Node21&#45;&gt;Node16</title>
<g id="a_edge30_Node000016_Node000021"><a xlink:title=" ">
<path fill="none" stroke="orange" stroke-dasharray="5,2" d="M1052.22,-340.84C1068.29,-339.11 1086,-337.33 1102.3,-336 1142.03,-332.75 1186.44,-330.14 1222.6,-328.28"/>
<polygon fill="orange" stroke="orange" points="1051.91,-337.35 1042.36,-341.93 1052.68,-344.31 1051.91,-337.35"/>
</a>
</g>
<text text-anchor="middle" x="1146.55" y="-338.5" font-family="Helvetica,sans-Serif" font-size="10.00" fill="grey"> &lt; AELogEntryInfo &gt;</text>
</g>
<!-- Node21&#45;&gt;Node22 -->
<g id="edge34_Node000022_Node000021" class="edge">
<title>Node21&#45;&gt;Node22</title>
<g id="a_edge34_Node000022_Node000021"><a xlink:title=" ">
<path fill="none" stroke="orange" stroke-dasharray="5,2" d="M1052.13,-349.86C1107.95,-352.88 1195.13,-357.6 1248.43,-360.48"/>
<polygon fill="orange" stroke="orange" points="1052.4,-346.37 1042.23,-349.32 1052.02,-353.36 1052.4,-346.37"/>
</a>
</g>
<text text-anchor="middle" x="1146.55" y="-358.5" font-family="Helvetica,sans-Serif" font-size="10.00" fill="grey"> &lt; llint &gt;</text>
</g>
<!-- Node22&#45;&gt;Node1 -->
<g id="edge32_Node000001_Node000022" class="edge">
<title>Node22&#45;&gt;Node1</title>
<g id="a_edge32_Node000001_Node000022"><a xlink:title=" ">
<path fill="none" stroke="#9a32cd" stroke-dasharray="5,2" d="M1354.45,-363C1407.55,-363 1484.8,-363 1529.75,-363"/>
<polygon fill="#9a32cd" stroke="#9a32cd" points="1354.68,-359.5 1344.68,-363 1354.68,-366.5 1354.68,-359.5"/>
</a>
</g>
<text text-anchor="middle" x="1456.55" y="-365.5" font-family="Helvetica,sans-Serif" font-size="10.00" fill="grey"> m_vecInvalidEntryIndices</text>
</g>
<!-- Node23&#45;&gt;Node1 -->
<g id="edge35_Node000001_Node000023" class="edge">
<title>Node23&#45;&gt;Node1</title>
<g id="a_edge35_Node000001_Node000023"><a xlink:title=" ">
<path fill="none" stroke="#9a32cd" stroke-dasharray="5,2" d="M1394.64,-109.68C1435.76,-115.73 1481.13,-129.63 1512.05,-160 1567.72,-214.68 1567.96,-319.8 1566.55,-352.82"/>
<polygon fill="#9a32cd" stroke="#9a32cd" points="1395.33,-106.24 1384.96,-108.4 1394.42,-113.18 1395.33,-106.24"/>
</a>
</g>
<text text-anchor="middle" x="1456.55" y="-162.5" font-family="Helvetica,sans-Serif" font-size="10.00" fill="grey"> m_mapModuleNames</text>
</g>
<!-- Node24&#45;&gt;Node23 -->
<g id="edge37_Node000023_Node000024" class="edge">
<title>Node24&#45;&gt;Node23</title>
<g id="a_edge37_Node000023_Node000024"><a xlink:title=" ">
<path fill="none" stroke="#9a32cd" stroke-dasharray="5,2" d="M1068.2,-80.81C1104.68,-84.05 1150.21,-88.37 1190.8,-93 1196.51,-93.65 1202.39,-94.36 1208.31,-95.09"/>
<polygon fill="#9a32cd" stroke="#9a32cd" points="1068.96,-77.36 1058.69,-79.97 1068.35,-84.33 1068.96,-77.36"/>
</a>
</g>
<text text-anchor="middle" x="1146.55" y="-95.5" font-family="Helvetica,sans-Serif" font-size="10.00" fill="grey"> elements</text>
</g>
<!-- Node25 -->
<g id="Node000025" class="node">
<title>Node25</title>
<g id="a_Node000025"><a xlink:title=" ">
<polygon fill="white" stroke="#666666" points="757.93,-109 660.93,-109 660.93,-89 757.93,-89 757.93,-109"/>
<text text-anchor="middle" x="709.43" y="-95.5" font-family="Helvetica,sans-Serif" font-size="10.00">unsigned long long</text>
</a>
</g>
</g>
<!-- Node25&#45;&gt;Node24 -->
<g id="edge38_Node000024_Node000025" class="edge">
<title>Node25&#45;&gt;Node24</title>
<g id="a_edge38_Node000024_Node000025"><a xlink:title=" ">
<path fill="none" stroke="#9a32cd" stroke-dasharray="5,2" d="M749,-84.93C768.07,-78.71 791.59,-72.1 813.3,-69 855.22,-63.01 903.04,-64.83 939.42,-67.98"/>
<polygon fill="#9a32cd" stroke="#9a32cd" points="748.13,-81.53 739.77,-88.04 750.36,-88.16 748.13,-81.53"/>
</a>
</g>
<text text-anchor="middle" x="853.8" y="-71.5" font-family="Helvetica,sans-Serif" font-size="10.00" fill="grey"> first_type</text>
</g>
<!-- Node31 -->
<g id="Node000031" class="node">
<title>Node31</title>
<g id="a_Node000031"><a xlink:title=" ">
<polygon fill="white" stroke="#666666" points="1051.68,-175 944.93,-175 944.93,-155 1051.68,-155 1051.68,-175"/>
<text text-anchor="middle" x="998.3" y="-161.5" font-family="Helvetica,sans-Serif" font-size="10.00">std::array&lt; ullint, 9 &gt;</text>
</a>
</g>
</g>
<!-- Node25&#45;&gt;Node31 -->
<g id="edge47_Node000031_Node000025" class="edge">
<title>Node25&#45;&gt;Node31</title>
<g id="a_edge47_Node000031_Node000025"><a xlink:title=" ">
<path fill="none" stroke="#9a32cd" stroke-dasharray="5,2" d="M769,-111.23C805.17,-118.9 852.51,-129.18 894.3,-139 915.13,-143.89 938.23,-149.69 957.27,-154.57"/>
<polygon fill="#9a32cd" stroke="#9a32cd" points="770.13,-107.89 759.63,-109.24 768.68,-114.74 770.13,-107.89"/>
</a>
</g>
<text text-anchor="middle" x="853.8" y="-141.5" font-family="Helvetica,sans-Serif" font-size="10.00" fill="grey"> elements</text>
</g>
<!-- Node26 -->
<g id="Node000026" class="node">
<title>Node26</title>
<g id="a_Node000026"><a xlink:title=" ">
<polygon fill="white" stroke="#666666" points="757.55,-50 661.3,-50 661.3,-30 757.55,-30 757.55,-50"/>
<text text-anchor="middle" x="709.43" y="-36.5" font-family="Helvetica,sans-Serif" font-size="10.00">std::pair&lt; T1, T2 &gt;</text>
</a>
</g>
</g>
<!-- Node26&#45;&gt;Node24 -->
<g id="edge40_Node000024_Node000026" class="edge">
<title>Node26&#45;&gt;Node24</title>
<g id="a_edge40_Node000024_Node000026"><a xlink:title=" ">
<path fill="none" stroke="orange" stroke-dasharray="5,2" d="M769.25,-40.45C805.48,-41.41 852.77,-43.88 894.3,-50 916.87,-53.32 941.75,-59.29 961.39,-64.57"/>
<polygon fill="orange" stroke="orange" points="769.49,-36.96 759.42,-40.23 769.33,-43.96 769.49,-36.96"/>
</a>
</g>
<text text-anchor="middle" x="853.8" y="-52.5" font-family="Helvetica,sans-Serif" font-size="10.00" fill="grey"> &lt; ullint, short &gt;</text>
</g>
<!-- Node27 -->
<g id="Node000027" class="node">
<title>Node27</title>
<g id="a_Node000027"><a xlink:title=" ">
<polygon fill="white" stroke="#666666" points="440.95,-87 412.15,-87 412.15,-67 440.95,-67 440.95,-87"/>
<text text-anchor="middle" x="426.55" y="-73.5" font-family="Helvetica,sans-Serif" font-size="10.00">T1</text>
</a>
</g>
</g>
<!-- Node27&#45;&gt;Node26 -->
<g id="edge41_Node000026_Node000027" class="edge">
<title>Node27&#45;&gt;Node26</title>
<g id="a_edge41_Node000026_Node000027"><a xlink:title=" ">
<path fill="none" stroke="#9a32cd" stroke-dasharray="5,2" d="M452.72,-74.06C487.22,-70 551.13,-62.33 605.55,-55 623.62,-52.57 643.44,-49.72 660.82,-47.16"/>
<polygon fill="#9a32cd" stroke="#9a32cd" points="452.44,-70.57 442.91,-75.21 453.25,-77.53 452.44,-70.57"/>
</a>
</g>
<text text-anchor="middle" x="557.18" y="-69.5" font-family="Helvetica,sans-Serif" font-size="10.00" fill="grey"> first_type</text>
</g>
<!-- Node28 -->
<g id="Node000028" class="node">
<title>Node28</title>
<g id="a_Node000028"><a xlink:title=" ">
<polygon fill="white" stroke="#666666" points="440.95,-49 412.15,-49 412.15,-29 440.95,-29 440.95,-49"/>
<text text-anchor="middle" x="426.55" y="-35.5" font-family="Helvetica,sans-Serif" font-size="10.00">T2</text>
</a>
</g>
</g>
<!-- Node28&#45;&gt;Node26 -->
<g id="edge42_Node000026_Node000028" class="edge">
<title>Node28&#45;&gt;Node26</title>
<g id="a_edge42_Node000026_Node000028"><a xlink:title=" ">
<path fill="none" stroke="#9a32cd" stroke-dasharray="5,2" d="M452.51,-39.09C499.31,-39.26 600.91,-39.62 661.07,-39.83"/>
<polygon fill="#9a32cd" stroke="#9a32cd" points="452.62,-35.59 442.61,-39.05 452.6,-42.59 452.62,-35.59"/>
</a>
</g>
<text text-anchor="middle" x="557.18" y="-42.5" font-family="Helvetica,sans-Serif" font-size="10.00" fill="grey"> second_type</text>
</g>
<!-- Node29&#45;&gt;Node23 -->
<g id="edge43_Node000023_Node000029" class="edge">
<title>Node29&#45;&gt;Node23</title>
<g id="a_edge43_Node000023_Node000029"><a xlink:title=" ">
<path fill="none" stroke="orange" stroke-dasharray="5,2" d="M202.93,-76.58C246.49,-49.87 339.38,0 425.55,0 425.55,0 425.55,0 999.3,0 1104.37,0 1218.58,-60.5 1268.78,-90.52"/>
<polygon fill="orange" stroke="orange" points="201.34,-73.44 194.72,-81.71 205.05,-79.38 201.34,-73.44"/>
</a>
</g>
<text text-anchor="middle" x="709.43" y="-2.5" font-family="Helvetica,sans-Serif" font-size="10.00" fill="grey"> &lt; std::string, std::pair&lt; ullint, short &gt; &gt;</text>
</g>
<!-- Node30 -->
<g id="Node000030" class="node">
<title>Node30</title>
<g id="a_Node000030"><a xlink:title=" ">
<polygon fill="white" stroke="#666666" points="28.8,-103 0,-103 0,-83 28.8,-83 28.8,-103"/>
<text text-anchor="middle" x="14.4" y="-89.5" font-family="Helvetica,sans-Serif" font-size="10.00">K</text>
</a>
</g>
</g>
<!-- Node30&#45;&gt;Node29 -->
<g id="edge44_Node000029_Node000030" class="edge">
<title>Node30&#45;&gt;Node29</title>
<g id="a_edge44_Node000029_Node000030"><a xlink:title=" ">
<path fill="none" stroke="#9a32cd" stroke-dasharray="5,2" d="M40.48,-93C58.4,-93 83.43,-93 107.09,-93"/>
<polygon fill="#9a32cd" stroke="#9a32cd" points="40.58,-89.5 30.58,-93 40.58,-96.5 40.58,-89.5"/>
</a>
</g>
<text text-anchor="middle" x="68.18" y="-95.5" font-family="Helvetica,sans-Serif" font-size="10.00" fill="grey"> keys</text>
</g>
<!-- Node31&#45;&gt;Node1 -->
<g id="edge46_Node000001_Node000031" class="edge">
<title>Node31&#45;&gt;Node1</title>
<g id="a_edge46_Node000001_Node000031"><a xlink:title=" ">
<path fill="none" stroke="#9a32cd" stroke-dasharray="5,2" d="M1063.15,-175.74C1100.68,-182.69 1148.85,-192.74 1190.8,-205 1337.39,-247.86 1376.3,-257.02 1512.05,-327 1526.45,-334.42 1541.69,-344.89 1552.28,-352.62"/>
<polygon fill="#9a32cd" stroke="#9a32cd" points="1063.82,-172.3 1053.35,-173.95 1062.56,-179.19 1063.82,-172.3"/>
</a>
</g>
<text text-anchor="middle" x="1295.93" y="-268.5" font-family="Helvetica,sans-Serif" font-size="10.00" fill="grey"> m_arrEntryAmount</text>
</g>
<!-- Node32&#45;&gt;Node31 -->
<g id="edge48_Node000031_Node000032" class="edge">
<title>Node32&#45;&gt;Node31</title>
<g id="a_edge48_Node000031_Node000032"><a xlink:title=" ">
<path fill="none" stroke="orange" stroke-dasharray="5,2" d="M356.09,-179.82C483.58,-176.87 815.02,-169.21 944.44,-166.22"/>
<polygon fill="orange" stroke="orange" points="356.18,-176.32 346.27,-180.05 356.35,-183.32 356.18,-176.32"/>
</a>
</g>
<text text-anchor="middle" x="557.18" y="-179.5" font-family="Helvetica,sans-Serif" font-size="10.00" fill="grey"> &lt; ullint, 9 &gt;</text>
</g>
</g>
</svg>
