<?xml version="1.0" encoding="UTF-8" standalone="no"?>
<!DOCTYPE svg PUBLIC "-//W3C//DTD SVG 1.1//EN"
 "http://www.w3.org/Graphics/SVG/1.1/DTD/svg11.dtd">
<!-- Generated by graphviz version 10.0.1 (20240210.2158)
 -->
<!-- Title: AETimer/include/AETimer.hpp Pages: 1 -->
<svg width="862pt" height="308pt"
 viewBox="0.00 0.00 861.50 308.00" xmlns="http://www.w3.org/2000/svg" xmlns:xlink="http://www.w3.org/1999/xlink">
<g id="graph0" class="graph" transform="scale(1 1) rotate(0) translate(4 304)">
<title>AETimer/include/AETimer.hpp</title>
<!-- Node1 -->
<g id="Node000001" class="node">
<title>Node1</title>
<g id="a_Node000001"><a xlink:title="This file contains the engine&#39;s tick&#45;based timer.">
<polygon fill="#999999" stroke="#666666" points="661.25,-300 514.75,-300 514.75,-280 661.25,-280 661.25,-300"/>
<text text-anchor="middle" x="588" y="-286.5" font-family="Helvetica,sans-Serif" font-size="10.00">AETimer/include/AETimer.hpp</text>
</a>
</g>
</g>
<!-- Node2 -->
<g id="Node000002" class="node">
<title>Node2</title>
<g id="a_Node000002"><a xlink:href="../../de/d72/_a_e_frame_8hpp.html" target="_top" xlink:title="This file contains the engine&#39;s module for frame&#45;precise loop delays.">
<polygon fill="white" stroke="#666666" points="294.88,-244 185.12,-244 185.12,-224 294.88,-224 294.88,-244"/>
<text text-anchor="middle" x="240" y="-230.5" font-family="Helvetica,sans-Serif" font-size="10.00">include/AEFrame.hpp</text>
</a>
</g>
</g>
<!-- Node1&#45;&gt;Node2 -->
<g id="edge1_Node000001_Node000002" class="edge">
<title>Node1&#45;&gt;Node2</title>
<g id="a_edge1_Node000001_Node000002"><a xlink:title=" ">
<path fill="none" stroke="#63b8ff" d="M526.98,-279.53C465.2,-269.94 369.92,-255.16 306.3,-245.29"/>
<polygon fill="#63b8ff" stroke="#63b8ff" points="307.12,-241.87 296.7,-243.8 306.04,-248.79 307.12,-241.87"/>
</a>
</g>
</g>
<!-- Node8 -->
<g id="Node000008" class="node">
<title>Node8</title>
<g id="a_Node000008"><a xlink:title=" ">
<polygon fill="#e0e0e0" stroke="#999999" points="665.5,-20 622.5,-20 622.5,0 665.5,0 665.5,-20"/>
<text text-anchor="middle" x="644" y="-6.5" font-family="Helvetica,sans-Serif" font-size="10.00">thread</text>
</a>
</g>
</g>
<!-- Node1&#45;&gt;Node8 -->
<g id="edge27_Node000001_Node000008" class="edge">
<title>Node1&#45;&gt;Node8</title>
<g id="a_edge27_Node000001_Node000008"><a xlink:title=" ">
<path fill="none" stroke="#63b8ff" d="M653.14,-279.53C709.5,-267.21 782,-239.59 782,-179 782,-179 782,-179 782,-121 782,-90.9 783.45,-78.09 763,-56 740.52,-31.71 703.59,-20.44 676.83,-15.27"/>
<polygon fill="#63b8ff" stroke="#63b8ff" points="677.63,-11.86 667.18,-13.61 676.45,-18.75 677.63,-11.86"/>
</a>
</g>
</g>
<!-- Node14 -->
<g id="Node000014" class="node">
<title>Node14</title>
<g id="a_Node000014"><a xlink:title=" ">
<polygon fill="#e0e0e0" stroke="#999999" points="486.62,-132 441.38,-132 441.38,-112 486.62,-112 486.62,-132"/>
<text text-anchor="middle" x="464" y="-118.5" font-family="Helvetica,sans-Serif" font-size="10.00">atomic</text>
</a>
</g>
</g>
<!-- Node1&#45;&gt;Node14 -->
<g id="edge25_Node000001_Node000014" class="edge">
<title>Node1&#45;&gt;Node14</title>
<g id="a_edge25_Node000001_Node000014"><a xlink:title=" ">
<path fill="none" stroke="#63b8ff" d="M580.98,-279.6C561.11,-253.01 504.25,-176.89 477.82,-141.5"/>
<polygon fill="#63b8ff" stroke="#63b8ff" points="480.64,-139.43 471.85,-133.51 475.03,-143.62 480.64,-139.43"/>
</a>
</g>
</g>
<!-- Node17 -->
<g id="Node000017" class="node">
<title>Node17</title>
<g id="a_Node000017"><a xlink:href="../../d1/da4/_a_e_math_8hpp.html" target="_top" xlink:title="This file contains the engine&#39;s math and math&#45;related functions.">
<polygon fill="white" stroke="#666666" points="639.88,-132 536.12,-132 536.12,-112 639.88,-112 639.88,-132"/>
<text text-anchor="middle" x="588" y="-118.5" font-family="Helvetica,sans-Serif" font-size="10.00">include/AEMath.hpp</text>
</a>
</g>
</g>
<!-- Node1&#45;&gt;Node17 -->
<g id="edge19_Node000001_Node000017" class="edge">
<title>Node1&#45;&gt;Node17</title>
<g id="a_edge19_Node000001_Node000017"><a xlink:title=" ">
<path fill="none" stroke="#63b8ff" d="M588,-279.6C588,-253.46 588,-179.48 588,-143.36"/>
<polygon fill="#63b8ff" stroke="#63b8ff" points="591.5,-143.81 588,-133.81 584.5,-143.81 591.5,-143.81"/>
</a>
</g>
</g>
<!-- Node21 -->
<g id="Node000021" class="node">
<title>Node21</title>
<g id="a_Node000021"><a xlink:title=" ">
<polygon fill="#e0e0e0" stroke="#999999" points="853.5,-244 810.5,-244 810.5,-224 853.5,-224 853.5,-244"/>
<text text-anchor="middle" x="832" y="-230.5" font-family="Helvetica,sans-Serif" font-size="10.00">mutex</text>
</a>
</g>
</g>
<!-- Node1&#45;&gt;Node21 -->
<g id="edge26_Node000001_Node000021" class="edge">
<title>Node1&#45;&gt;Node21</title>
<g id="a_edge26_Node000001_Node000021"><a xlink:title=" ">
<path fill="none" stroke="#63b8ff" d="M633.54,-279.58C675.74,-270.76 740.23,-257 796,-244 797.16,-243.73 798.34,-243.45 799.53,-243.17"/>
<polygon fill="#63b8ff" stroke="#63b8ff" points="799.97,-246.66 808.85,-240.9 798.31,-239.86 799.97,-246.66"/>
</a>
</g>
</g>
<!-- Node3 -->
<g id="Node000003" class="node">
<title>Node3</title>
<g id="a_Node000003"><a xlink:href="../../dd/dd8/_a_e_flags_8hpp.html" target="_top" xlink:title="This file contains the flags to manipulate engine&#39;s funcitonality.">
<polygon fill="white" stroke="#666666" points="106,-76 0,-76 0,-56 106,-56 106,-76"/>
<text text-anchor="middle" x="53" y="-62.5" font-family="Helvetica,sans-Serif" font-size="10.00">include/AEFlags.hpp</text>
</a>
</g>
</g>
<!-- Node2&#45;&gt;Node3 -->
<g id="edge2_Node000002_Node000003" class="edge">
<title>Node2&#45;&gt;Node3</title>
<g id="a_edge2_Node000002_Node000003"><a xlink:title=" ">
<path fill="none" stroke="#63b8ff" d="M187.41,-223.6C137.93,-211.66 66.58,-185.75 33,-132 24.13,-117.8 31.23,-99.38 39.32,-85.78"/>
<polygon fill="#63b8ff" stroke="#63b8ff" points="42.05,-88 44.63,-77.73 36.2,-84.15 42.05,-88"/>
</a>
</g>
</g>
<!-- Node4 -->
<g id="Node000004" class="node">
<title>Node4</title>
<g id="a_Node000004"><a xlink:href="../../d7/d7f/_a_e_module_base_8hpp.html" target="_top" xlink:title="This file contains the engine&#39;s basic module template.">
<polygon fill="white" stroke="#666666" points="308,-188 172,-188 172,-168 308,-168 308,-188"/>
<text text-anchor="middle" x="240" y="-174.5" font-family="Helvetica,sans-Serif" font-size="10.00">include/AEModuleBase.hpp</text>
</a>
</g>
</g>
<!-- Node2&#45;&gt;Node4 -->
<g id="edge3_Node000002_Node000004" class="edge">
<title>Node2&#45;&gt;Node4</title>
<g id="a_edge3_Node000002_Node000004"><a xlink:title=" ">
<path fill="none" stroke="#63b8ff" d="M240,-223.59C240,-217.01 240,-207.96 240,-199.73"/>
<polygon fill="#63b8ff" stroke="#63b8ff" points="243.5,-199.81 240,-189.81 236.5,-199.81 243.5,-199.81"/>
</a>
</g>
</g>
<!-- Node4&#45;&gt;Node3 -->
<g id="edge8_Node000004_Node000003" class="edge">
<title>Node4&#45;&gt;Node3</title>
<g id="a_edge8_Node000004_Node000003"><a xlink:title=" ">
<path fill="none" stroke="#63b8ff" d="M232.69,-167.8C221.27,-153.98 197.92,-127.78 173,-112 150.79,-97.93 123.51,-87.27 100.58,-79.86"/>
<polygon fill="#63b8ff" stroke="#63b8ff" points="101.75,-76.55 91.16,-76.93 99.67,-83.24 101.75,-76.55"/>
</a>
</g>
</g>
<!-- Node5 -->
<g id="Node000005" class="node">
<title>Node5</title>
<g id="a_Node000005"><a xlink:href="../../dc/d89/_a_e_typedefs_8hpp.html" target="_top" xlink:title="This file contains the engine&#39;s typedefs and variable type aliases.">
<polygon fill="white" stroke="#666666" points="442.5,-76 321.5,-76 321.5,-56 442.5,-56 442.5,-76"/>
<text text-anchor="middle" x="382" y="-62.5" font-family="Helvetica,sans-Serif" font-size="10.00">include/AETypedefs.hpp</text>
</a>
</g>
</g>
<!-- Node4&#45;&gt;Node5 -->
<g id="edge4_Node000004_Node000005" class="edge">
<title>Node4&#45;&gt;Node5</title>
<g id="a_edge4_Node000004_Node000005"><a xlink:title=" ">
<path fill="none" stroke="#63b8ff" d="M298.03,-167.52C321.03,-161.04 345.99,-150.18 363,-132 374.31,-119.92 378.92,-101.47 380.79,-87.31"/>
<polygon fill="#63b8ff" stroke="#63b8ff" points="384.24,-88.03 381.68,-77.74 377.27,-87.38 384.24,-88.03"/>
</a>
</g>
</g>
<!-- Node9 -->
<g id="Node000009" class="node">
<title>Node9</title>
<g id="a_Node000009"><a xlink:href="../../d9/d6a/_a_e_utils_macros_8hpp.html" target="_top" xlink:title="This file contains the engine&#39;s macros for trivial tasks.">
<polygon fill="white" stroke="#666666" points="353.88,-132 220.12,-132 220.12,-112 353.88,-112 353.88,-132"/>
<text text-anchor="middle" x="287" y="-118.5" font-family="Helvetica,sans-Serif" font-size="10.00">include/AEUtilsMacros.hpp</text>
</a>
</g>
</g>
<!-- Node4&#45;&gt;Node9 -->
<g id="edge9_Node000004_Node000009" class="edge">
<title>Node4&#45;&gt;Node9</title>
<g id="a_edge9_Node000004_Node000009"><a xlink:title=" ">
<path fill="none" stroke="#63b8ff" d="M248.19,-167.59C254.59,-160.24 263.68,-149.8 271.45,-140.87"/>
<polygon fill="#63b8ff" stroke="#63b8ff" points="273.99,-143.28 277.91,-133.44 268.71,-138.69 273.99,-143.28"/>
</a>
</g>
</g>
<!-- Node4&#45;&gt;Node14 -->
<g id="edge16_Node000004_Node000014" class="edge">
<title>Node4&#45;&gt;Node14</title>
<g id="a_edge16_Node000004_Node000014"><a xlink:title=" ">
<path fill="none" stroke="#63b8ff" d="M279.27,-167.53C321.87,-157.26 389.19,-141.03 429.73,-131.26"/>
<polygon fill="#63b8ff" stroke="#63b8ff" points="430.52,-134.67 439.42,-128.92 428.88,-127.87 430.52,-134.67"/>
</a>
</g>
</g>
<!-- Node15 -->
<g id="Node000015" class="node">
<title>Node15</title>
<g id="a_Node000015"><a xlink:title=" ">
<polygon fill="#e0e0e0" stroke="#999999" points="82,-132 42,-132 42,-112 82,-112 82,-132"/>
<text text-anchor="middle" x="62" y="-118.5" font-family="Helvetica,sans-Serif" font-size="10.00">string</text>
</a>
</g>
</g>
<!-- Node4&#45;&gt;Node15 -->
<g id="edge17_Node000004_Node000015" class="edge">
<title>Node4&#45;&gt;Node15</title>
<g id="a_edge17_Node000004_Node000015"><a xlink:title=" ">
<path fill="none" stroke="#63b8ff" d="M208.3,-167.5C180.36,-159.11 138.27,-146.44 93.17,-132.65"/>
<polygon fill="#63b8ff" stroke="#63b8ff" points="94.31,-129.34 83.72,-129.76 92.26,-136.03 94.31,-129.34"/>
</a>
</g>
</g>
<!-- Node16 -->
<g id="Node000016" class="node">
<title>Node16</title>
<g id="a_Node000016"><a xlink:title=" ">
<polygon fill="#e0e0e0" stroke="#999999" points="163.62,-132 100.38,-132 100.38,-112 163.62,-112 163.62,-132"/>
<text text-anchor="middle" x="132" y="-118.5" font-family="Helvetica,sans-Serif" font-size="10.00">string_view</text>
</a>
</g>
</g>
<!-- Node4&#45;&gt;Node16 -->
<g id="edge18_Node000004_Node000016" class="edge">
<title>Node4&#45;&gt;Node16</title>
<g id="a_edge18_Node000004_Node000016"><a xlink:title=" ">
<path fill="none" stroke="#63b8ff" d="M221.19,-167.59C204.64,-159.32 180.29,-147.14 161.21,-137.6"/>
<polygon fill="#63b8ff" stroke="#63b8ff" points="162.82,-134.5 152.31,-133.16 159.69,-140.76 162.82,-134.5"/>
</a>
</g>
</g>
<!-- Node6 -->
<g id="Node000006" class="node">
<title>Node6</title>
<g id="a_Node000006"><a xlink:title=" ">
<polygon fill="#e0e0e0" stroke="#999999" points="435.25,-20 390.75,-20 390.75,0 435.25,0 435.25,-20"/>
<text text-anchor="middle" x="413" y="-6.5" font-family="Helvetica,sans-Serif" font-size="10.00">climits</text>
</a>
</g>
</g>
<!-- Node5&#45;&gt;Node6 -->
<g id="edge5_Node000005_Node000006" class="edge">
<title>Node5&#45;&gt;Node6</title>
<g id="a_edge5_Node000005_Node000006"><a xlink:title=" ">
<path fill="none" stroke="#63b8ff" d="M387.4,-55.59C391.44,-48.55 397.12,-38.67 402.09,-30"/>
<polygon fill="#63b8ff" stroke="#63b8ff" points="404.97,-32.03 406.91,-21.61 398.89,-28.54 404.97,-32.03"/>
</a>
</g>
</g>
<!-- Node7 -->
<g id="Node000007" class="node">
<title>Node7</title>
<g id="a_Node000007"><a xlink:title=" ">
<polygon fill="#e0e0e0" stroke="#999999" points="372.62,-20 327.38,-20 327.38,0 372.62,0 372.62,-20"/>
<text text-anchor="middle" x="350" y="-6.5" font-family="Helvetica,sans-Serif" font-size="10.00">chrono</text>
</a>
</g>
</g>
<!-- Node5&#45;&gt;Node7 -->
<g id="edge6_Node000005_Node000007" class="edge">
<title>Node5&#45;&gt;Node7</title>
<g id="a_edge6_Node000005_Node000007"><a xlink:title=" ">
<path fill="none" stroke="#63b8ff" d="M376.43,-55.59C372.25,-48.55 366.4,-38.67 361.26,-30"/>
<polygon fill="#63b8ff" stroke="#63b8ff" points="364.39,-28.42 356.28,-21.6 358.37,-31.99 364.39,-28.42"/>
</a>
</g>
</g>
<!-- Node5&#45;&gt;Node8 -->
<g id="edge7_Node000005_Node000008" class="edge">
<title>Node5&#45;&gt;Node8</title>
<g id="a_edge7_Node000005_Node000008"><a xlink:title=" ">
<path fill="none" stroke="#63b8ff" d="M427.94,-55.53C480.32,-44.74 564.67,-27.35 610.96,-17.81"/>
<polygon fill="#63b8ff" stroke="#63b8ff" points="611.57,-21.26 620.66,-15.81 610.16,-14.4 611.57,-21.26"/>
</a>
</g>
</g>
<!-- Node9&#45;&gt;Node3 -->
<g id="edge11_Node000009_Node000003" class="edge">
<title>Node9&#45;&gt;Node3</title>
<g id="a_edge11_Node000009_Node000003"><a xlink:title=" ">
<path fill="none" stroke="#63b8ff" d="M245.97,-111.53C206.75,-102.48 147.45,-88.8 104.95,-78.99"/>
<polygon fill="#63b8ff" stroke="#63b8ff" points="105.99,-75.64 95.46,-76.8 104.41,-82.46 105.99,-75.64"/>
</a>
</g>
</g>
<!-- Node9&#45;&gt;Node5 -->
<g id="edge10_Node000009_Node000005" class="edge">
<title>Node9&#45;&gt;Node5</title>
<g id="a_edge10_Node000009_Node000005"><a xlink:title=" ">
<path fill="none" stroke="#63b8ff" d="M303.55,-111.59C317.9,-103.44 338.93,-91.48 355.6,-82"/>
<polygon fill="#63b8ff" stroke="#63b8ff" points="357.04,-85.21 364.01,-77.23 353.58,-79.13 357.04,-85.21"/>
</a>
</g>
</g>
<!-- Node10 -->
<g id="Node000010" class="node">
<title>Node10</title>
<g id="a_Node000010"><a xlink:title=" ">
<polygon fill="#e0e0e0" stroke="#999999" points="177.75,-76 124.25,-76 124.25,-56 177.75,-56 177.75,-76"/>
<text text-anchor="middle" x="151" y="-62.5" font-family="Helvetica,sans-Serif" font-size="10.00">iostream</text>
</a>
</g>
</g>
<!-- Node9&#45;&gt;Node10 -->
<g id="edge12_Node000009_Node000010" class="edge">
<title>Node9&#45;&gt;Node10</title>
<g id="a_edge12_Node000009_Node000010"><a xlink:title=" ">
<path fill="none" stroke="#63b8ff" d="M263.31,-111.59C241.8,-103.05 209.8,-90.35 185.46,-80.68"/>
<polygon fill="#63b8ff" stroke="#63b8ff" points="186.87,-77.48 176.28,-77.04 184.28,-83.98 186.87,-77.48"/>
</a>
</g>
</g>
<!-- Node11 -->
<g id="Node000011" class="node">
<title>Node11</title>
<g id="a_Node000011"><a xlink:title=" ">
<polygon fill="#e0e0e0" stroke="#999999" points="238.12,-76 195.88,-76 195.88,-56 238.12,-56 238.12,-76"/>
<text text-anchor="middle" x="217" y="-62.5" font-family="Helvetica,sans-Serif" font-size="10.00">cstdio</text>
</a>
</g>
</g>
<!-- Node9&#45;&gt;Node11 -->
<g id="edge13_Node000009_Node000011" class="edge">
<title>Node9&#45;&gt;Node11</title>
<g id="a_edge13_Node000009_Node000011"><a xlink:title=" ">
<path fill="none" stroke="#63b8ff" d="M274.81,-111.59C264.67,-103.77 250.01,-92.46 237.99,-83.19"/>
<polygon fill="#63b8ff" stroke="#63b8ff" points="240.31,-80.56 230.25,-77.22 236.03,-86.1 240.31,-80.56"/>
</a>
</g>
</g>
<!-- Node12 -->
<g id="Node000012" class="node">
<title>Node12</title>
<g id="a_Node000012"><a xlink:title=" ">
<polygon fill="#e0e0e0" stroke="#999999" points="521.88,-76 460.12,-76 460.12,-56 521.88,-56 521.88,-76"/>
<text text-anchor="middle" x="491" y="-62.5" font-family="Helvetica,sans-Serif" font-size="10.00">type_traits</text>
</a>
</g>
</g>
<!-- Node9&#45;&gt;Node12 -->
<g id="edge14_Node000009_Node000012" class="edge">
<title>Node9&#45;&gt;Node12</title>
<g id="a_edge14_Node000009_Node000012"><a xlink:title=" ">
<path fill="none" stroke="#63b8ff" d="M322.53,-111.59C357.71,-102.28 411.56,-88.03 448.87,-78.15"/>
<polygon fill="#63b8ff" stroke="#63b8ff" points="449.64,-81.57 458.41,-75.63 447.85,-74.8 449.64,-81.57"/>
</a>
</g>
</g>
<!-- Node13 -->
<g id="Node000013" class="node">
<title>Node13</title>
<g id="a_Node000013"><a xlink:title=" ">
<polygon fill="#e0e0e0" stroke="#999999" points="303.75,-76 256.25,-76 256.25,-56 303.75,-56 303.75,-76"/>
<text text-anchor="middle" x="280" y="-62.5" font-family="Helvetica,sans-Serif" font-size="10.00">cstddef</text>
</a>
</g>
</g>
<!-- Node9&#45;&gt;Node13 -->
<g id="edge15_Node000009_Node000013" class="edge">
<title>Node9&#45;&gt;Node13</title>
<g id="a_edge15_Node000009_Node000013"><a xlink:title=" ">
<path fill="none" stroke="#63b8ff" d="M285.78,-111.59C284.92,-104.93 283.73,-95.75 282.65,-87.44"/>
<polygon fill="#63b8ff" stroke="#63b8ff" points="286.16,-87.27 281.4,-77.8 279.21,-88.17 286.16,-87.27"/>
</a>
</g>
</g>
<!-- Node17&#45;&gt;Node5 -->
<g id="edge21_Node000017_Node000005" class="edge">
<title>Node17&#45;&gt;Node5</title>
<g id="a_edge21_Node000017_Node000005"><a xlink:title=" ">
<path fill="none" stroke="#63b8ff" d="M552.12,-111.59C518.06,-102.67 466.67,-89.19 429.28,-79.39"/>
<polygon fill="#63b8ff" stroke="#63b8ff" points="430.19,-76.01 419.63,-76.86 428.41,-82.78 430.19,-76.01"/>
</a>
</g>
</g>
<!-- Node17&#45;&gt;Node12 -->
<g id="edge24_Node000017_Node000012" class="edge">
<title>Node17&#45;&gt;Node12</title>
<g id="a_edge24_Node000017_Node000012"><a xlink:title=" ">
<path fill="none" stroke="#63b8ff" d="M571.1,-111.59C556.45,-103.44 534.98,-91.48 517.95,-82"/>
<polygon fill="#63b8ff" stroke="#63b8ff" points="519.79,-79.02 509.35,-77.22 516.39,-85.14 519.79,-79.02"/>
</a>
</g>
</g>
<!-- Node18 -->
<g id="Node000018" class="node">
<title>Node18</title>
<g id="a_Node000018"><a xlink:href="../../d2/d5a/_a_e_math_const_8hpp.html" target="_top" xlink:title="This file contains the engine&#39;s math constants.">
<polygon fill="white" stroke="#666666" points="635.75,-76 540.25,-76 540.25,-56 635.75,-56 635.75,-76"/>
<text text-anchor="middle" x="588" y="-62.5" font-family="Helvetica,sans-Serif" font-size="10.00">AEMathConst.hpp</text>
</a>
</g>
</g>
<!-- Node17&#45;&gt;Node18 -->
<g id="edge20_Node000017_Node000018" class="edge">
<title>Node17&#45;&gt;Node18</title>
<g id="a_edge20_Node000017_Node000018"><a xlink:title=" ">
<path fill="none" stroke="#63b8ff" d="M588,-111.59C588,-105.01 588,-95.96 588,-87.73"/>
<polygon fill="#63b8ff" stroke="#63b8ff" points="591.5,-87.81 588,-77.81 584.5,-87.81 591.5,-87.81"/>
</a>
</g>
</g>
<!-- Node19 -->
<g id="Node000019" class="node">
<title>Node19</title>
<g id="a_Node000019"><a xlink:title=" ">
<polygon fill="#e0e0e0" stroke="#999999" points="692.62,-76 653.38,-76 653.38,-56 692.62,-56 692.62,-76"/>
<text text-anchor="middle" x="673" y="-62.5" font-family="Helvetica,sans-Serif" font-size="10.00">limits</text>
</a>
</g>
</g>
<!-- Node17&#45;&gt;Node19 -->
<g id="edge22_Node000017_Node000019" class="edge">
<title>Node17&#45;&gt;Node19</title>
<g id="a_edge22_Node000017_Node000019"><a xlink:title=" ">
<path fill="none" stroke="#63b8ff" d="M602.81,-111.59C615.4,-103.59 633.75,-91.93 648.53,-82.54"/>
<polygon fill="#63b8ff" stroke="#63b8ff" points="650.24,-85.61 656.8,-77.29 646.48,-79.7 650.24,-85.61"/>
</a>
</g>
</g>
<!-- Node20 -->
<g id="Node000020" class="node">
<title>Node20</title>
<g id="a_Node000020"><a xlink:title=" ">
<polygon fill="#e0e0e0" stroke="#999999" points="753.5,-76 710.5,-76 710.5,-56 753.5,-56 753.5,-76"/>
<text text-anchor="middle" x="732" y="-62.5" font-family="Helvetica,sans-Serif" font-size="10.00">cmath</text>
</a>
</g>
</g>
<!-- Node17&#45;&gt;Node20 -->
<g id="edge23_Node000017_Node000020" class="edge">
<title>Node17&#45;&gt;Node20</title>
<g id="a_edge23_Node000017_Node000020"><a xlink:title=" ">
<path fill="none" stroke="#63b8ff" d="M613.08,-111.59C637.06,-102.6 673.32,-89.01 699.5,-79.19"/>
<polygon fill="#63b8ff" stroke="#63b8ff" points="700.48,-82.56 708.61,-75.77 698.02,-76 700.48,-82.56"/>
</a>
</g>
</g>
</g>
</svg>
