<?xml version="1.0" encoding="UTF-8" standalone="no"?>
<!DOCTYPE svg PUBLIC "-//W3C//DTD SVG 1.1//EN"
 "http://www.w3.org/Graphics/SVG/1.1/DTD/svg11.dtd">
<!-- Generated by graphviz version 10.0.1 (20240210.2158)
 -->
<!-- Title: AETimer::AETimer Pages: 1 -->
<svg width="676pt" height="66pt"
 viewBox="0.00 0.00 676.00 66.00" xmlns="http://www.w3.org/2000/svg" xmlns:xlink="http://www.w3.org/1999/xlink">
<g id="graph0" class="graph" transform="scale(1 1) rotate(0) translate(4 62)">
<title>AETimer::AETimer</title>
<!-- Node1 -->
<g id="Node000001" class="node">
<title>Node1</title>
<g id="a_Node000001"><a xlink:title="Copy constructor – copies the data and, if the original timer was started, starts the timer.">
<polygon fill="#999999" stroke="#666666" points="97,-39 0,-39 0,-19 97,-19 97,-39"/>
<text text-anchor="middle" x="48.5" y="-25.5" font-family="Helvetica,sans-Serif" font-size="10.00">AETimer::AETimer</text>
</a>
</g>
</g>
<!-- Node2 -->
<g id="Node000002" class="node">
<title>Node2</title>
<g id="a_Node000002"><a xlink:href="../../da/d62/class_a_e_timer.html#a022b44a8e9b9e2a314e0ac3ecc759062" target="_top" xlink:title="Starts the timer thread and starts tick counting.">
<polygon fill="white" stroke="#666666" points="241.25,-39 133,-39 133,-19 241.25,-19 241.25,-39"/>
<text text-anchor="middle" x="187.12" y="-25.5" font-family="Helvetica,sans-Serif" font-size="10.00">AETimer::startThread</text>
</a>
</g>
</g>
<!-- Node1&#45;&gt;Node2 -->
<g id="edge1_Node000001_Node000002" class="edge">
<title>Node1&#45;&gt;Node2</title>
<g id="a_edge1_Node000001_Node000002"><a xlink:title=" ">
<path fill="none" stroke="#63b8ff" d="M97.28,-29C105.03,-29 113.15,-29 121.22,-29"/>
<polygon fill="#63b8ff" stroke="#63b8ff" points="121.02,-32.5 131.02,-29 121.02,-25.5 121.02,-32.5"/>
</a>
</g>
</g>
<!-- Node3 -->
<g id="Node000003" class="node">
<title>Node3</title>
<g id="a_Node000003"><a xlink:href="../../df/dd7/class_a_e_frame.html#a3a1eb2a539c632822604d6857dbdc0ce" target="_top" xlink:title="Returns whether the instance has a delay or not (invalid fps/delay was set).">
<polygon fill="white" stroke="#666666" points="381,-58 277.25,-58 277.25,-38 381,-38 381,-58"/>
<text text-anchor="middle" x="329.12" y="-44.5" font-family="Helvetica,sans-Serif" font-size="10.00">AEFrame::hasDelay</text>
</a>
</g>
</g>
<!-- Node2&#45;&gt;Node3 -->
<g id="edge2_Node000002_Node000003" class="edge">
<title>Node2&#45;&gt;Node3</title>
<g id="a_edge2_Node000002_Node000003"><a xlink:title=" ">
<path fill="none" stroke="#63b8ff" d="M241.45,-36.24C249.33,-37.31 257.51,-38.42 265.55,-39.51"/>
<polygon fill="#63b8ff" stroke="#63b8ff" points="264.91,-42.95 275.29,-40.83 265.86,-36.02 264.91,-42.95"/>
</a>
</g>
</g>
<!-- Node4 -->
<g id="Node000004" class="node">
<title>Node4</title>
<g id="a_Node000004"><a xlink:href="../../da/d62/class_a_e_timer.html#ad5fa76b6e9233eaa415a9c70ed6ecc8d" target="_top" xlink:title="The function that does the tick counting for the timer.">
<polygon fill="white" stroke="#666666" points="378.75,-20 279.5,-20 279.5,0 378.75,0 378.75,-20"/>
<text text-anchor="middle" x="329.12" y="-6.5" font-family="Helvetica,sans-Serif" font-size="10.00">AETimer::tickTimer</text>
</a>
</g>
</g>
<!-- Node2&#45;&gt;Node4 -->
<g id="edge3_Node000002_Node000004" class="edge">
<title>Node2&#45;&gt;Node4</title>
<g id="a_edge3_Node000002_Node000004"><a xlink:title=" ">
<path fill="none" stroke="#63b8ff" d="M241.45,-21.76C250.05,-20.6 259,-19.38 267.75,-18.19"/>
<polygon fill="#63b8ff" stroke="#63b8ff" points="268.15,-21.67 277.59,-16.86 267.21,-14.74 268.15,-21.67"/>
</a>
</g>
</g>
<!-- Node5 -->
<g id="Node000005" class="node">
<title>Node5</title>
<g id="a_Node000005"><a xlink:href="../../df/dd7/class_a_e_frame.html#ad9431d91b5784bf5d1f61464e8045b13" target="_top" xlink:title="Puts the current thread to sleep for the delay that was set earlier.">
<polygon fill="white" stroke="#666666" points="503.5,-20 417,-20 417,0 503.5,0 503.5,-20"/>
<text text-anchor="middle" x="460.25" y="-6.5" font-family="Helvetica,sans-Serif" font-size="10.00">AEFrame::sleep</text>
</a>
</g>
</g>
<!-- Node4&#45;&gt;Node5 -->
<g id="edge4_Node000004_Node000005" class="edge">
<title>Node4&#45;&gt;Node5</title>
<g id="a_edge4_Node000004_Node000005"><a xlink:title=" ">
<path fill="none" stroke="#63b8ff" d="M378.94,-10C387.58,-10 396.62,-10 405.39,-10"/>
<polygon fill="#63b8ff" stroke="#63b8ff" points="405.2,-13.5 415.2,-10 405.2,-6.5 405.2,-13.5"/>
</a>
</g>
</g>
<!-- Node6 -->
<g id="Node000006" class="node">
<title>Node6</title>
<g id="a_Node000006"><a xlink:href="../../df/dd7/class_a_e_frame.html#a425f5ba8edab14bdf3e34fc06658e451" target="_top" xlink:title="Resets the time point in the AEFrame to the real (current) time.">
<polygon fill="white" stroke="#666666" points="668,-20 539.5,-20 539.5,0 668,0 668,-20"/>
<text text-anchor="middle" x="603.75" y="-6.5" font-family="Helvetica,sans-Serif" font-size="10.00">AEFrame::resetTimePoint</text>
</a>
</g>
</g>
<!-- Node5&#45;&gt;Node6 -->
<g id="edge5_Node000005_Node000006" class="edge">
<title>Node5&#45;&gt;Node6</title>
<g id="a_edge5_Node000005_Node000006"><a xlink:title=" ">
<path fill="none" stroke="#63b8ff" d="M503.7,-10C511.37,-10 519.57,-10 527.84,-10"/>
<polygon fill="#63b8ff" stroke="#63b8ff" points="527.62,-13.5 537.62,-10 527.62,-6.5 527.62,-13.5"/>
</a>
</g>
</g>
</g>
</svg>
