<?xml version="1.0" encoding="UTF-8" standalone="no"?>
<!DOCTYPE svg PUBLIC "-//W3C//DTD SVG 1.1//EN"
 "http://www.w3.org/Graphics/SVG/1.1/DTD/svg11.dtd">
<!-- Generated by graphviz version 10.0.1 (20240210.2158)
 -->
<!-- Title: AETimer::operator= Pages: 1 -->
<svg width="680pt" height="85pt"
 viewBox="0.00 0.00 679.75 85.00" xmlns="http://www.w3.org/2000/svg" xmlns:xlink="http://www.w3.org/1999/xlink">
<g id="graph0" class="graph" transform="scale(1 1) rotate(0) translate(4 81)">
<title>AETimer::operator=</title>
<!-- Node1 -->
<g id="Node000001" class="node">
<title>Node1</title>
<g id="a_Node000001"><a xlink:title="Copy assignment operator – copies the data and, if the original timer was started,...">
<polygon fill="#999999" stroke="#666666" points="100.75,-39 0,-39 0,-19 100.75,-19 100.75,-39"/>
<text text-anchor="middle" x="50.38" y="-25.5" font-family="Helvetica,sans-Serif" font-size="10.00">AETimer::operator=</text>
</a>
</g>
</g>
<!-- Node2 -->
<g id="Node000002" class="node">
<title>Node2</title>
<g id="a_Node000002"><a xlink:href="../../da/d62/class_a_e_timer.html#a022b44a8e9b9e2a314e0ac3ecc759062" target="_top" xlink:title="Starts the timer thread and starts tick counting.">
<polygon fill="white" stroke="#666666" points="245,-58 136.75,-58 136.75,-38 245,-38 245,-58"/>
<text text-anchor="middle" x="190.88" y="-44.5" font-family="Helvetica,sans-Serif" font-size="10.00">AETimer::startThread</text>
</a>
</g>
</g>
<!-- Node1&#45;&gt;Node2 -->
<g id="edge1_Node000001_Node000002" class="edge">
<title>Node1&#45;&gt;Node2</title>
<g id="a_edge1_Node000001_Node000002"><a xlink:title=" ">
<path fill="none" stroke="#63b8ff" d="M100.99,-35.81C108.79,-36.88 116.96,-38 125.05,-39.11"/>
<polygon fill="#63b8ff" stroke="#63b8ff" points="124.51,-42.57 134.89,-40.46 125.46,-35.63 124.51,-42.57"/>
</a>
</g>
</g>
<!-- Node7 -->
<g id="Node000007" class="node">
<title>Node7</title>
<g id="a_Node000007"><a xlink:href="../../da/d62/class_a_e_timer.html#a29f3aaf12a9832c55dff8875d94c4548" target="_top" xlink:title="Stops the timer thread and stops tick counting.">
<polygon fill="white" stroke="#666666" points="244.62,-20 137.12,-20 137.12,0 244.62,0 244.62,-20"/>
<text text-anchor="middle" x="190.88" y="-6.5" font-family="Helvetica,sans-Serif" font-size="10.00">AETimer::stopThread</text>
</a>
</g>
</g>
<!-- Node1&#45;&gt;Node7 -->
<g id="edge6_Node000001_Node000007" class="edge">
<title>Node1&#45;&gt;Node7</title>
<g id="a_edge6_Node000001_Node000007"><a xlink:title=" ">
<path fill="none" stroke="#63b8ff" d="M100.99,-22.19C108.99,-21.1 117.38,-19.95 125.67,-18.81"/>
<polygon fill="#63b8ff" stroke="#63b8ff" points="125.93,-22.3 135.36,-17.48 124.98,-15.37 125.93,-22.3"/>
</a>
</g>
</g>
<!-- Node3 -->
<g id="Node000003" class="node">
<title>Node3</title>
<g id="a_Node000003"><a xlink:href="../../df/dd7/class_a_e_frame.html#a3a1eb2a539c632822604d6857dbdc0ce" target="_top" xlink:title="Returns whether the instance has a delay or not (invalid fps/delay was set).">
<polygon fill="white" stroke="#666666" points="384.75,-77 281,-77 281,-57 384.75,-57 384.75,-77"/>
<text text-anchor="middle" x="332.88" y="-63.5" font-family="Helvetica,sans-Serif" font-size="10.00">AEFrame::hasDelay</text>
</a>
</g>
</g>
<!-- Node2&#45;&gt;Node3 -->
<g id="edge2_Node000002_Node000003" class="edge">
<title>Node2&#45;&gt;Node3</title>
<g id="a_edge2_Node000002_Node000003"><a xlink:title=" ">
<path fill="none" stroke="#63b8ff" d="M245.2,-55.24C253.08,-56.31 261.26,-57.42 269.3,-58.51"/>
<polygon fill="#63b8ff" stroke="#63b8ff" points="268.66,-61.95 279.04,-59.83 269.61,-55.02 268.66,-61.95"/>
</a>
</g>
</g>
<!-- Node4 -->
<g id="Node000004" class="node">
<title>Node4</title>
<g id="a_Node000004"><a xlink:href="../../da/d62/class_a_e_timer.html#ad5fa76b6e9233eaa415a9c70ed6ecc8d" target="_top" xlink:title="The function that does the tick counting for the timer.">
<polygon fill="white" stroke="#666666" points="382.5,-39 283.25,-39 283.25,-19 382.5,-19 382.5,-39"/>
<text text-anchor="middle" x="332.88" y="-25.5" font-family="Helvetica,sans-Serif" font-size="10.00">AETimer::tickTimer</text>
</a>
</g>
</g>
<!-- Node2&#45;&gt;Node4 -->
<g id="edge3_Node000002_Node000004" class="edge">
<title>Node2&#45;&gt;Node4</title>
<g id="a_edge3_Node000002_Node000004"><a xlink:title=" ">
<path fill="none" stroke="#63b8ff" d="M245.2,-40.76C253.8,-39.6 262.75,-38.38 271.5,-37.19"/>
<polygon fill="#63b8ff" stroke="#63b8ff" points="271.9,-40.67 281.34,-35.86 270.96,-33.74 271.9,-40.67"/>
</a>
</g>
</g>
<!-- Node5 -->
<g id="Node000005" class="node">
<title>Node5</title>
<g id="a_Node000005"><a xlink:href="../../df/dd7/class_a_e_frame.html#ad9431d91b5784bf5d1f61464e8045b13" target="_top" xlink:title="Puts the current thread to sleep for the delay that was set earlier.">
<polygon fill="white" stroke="#666666" points="507.25,-39 420.75,-39 420.75,-19 507.25,-19 507.25,-39"/>
<text text-anchor="middle" x="464" y="-25.5" font-family="Helvetica,sans-Serif" font-size="10.00">AEFrame::sleep</text>
</a>
</g>
</g>
<!-- Node4&#45;&gt;Node5 -->
<g id="edge4_Node000004_Node000005" class="edge">
<title>Node4&#45;&gt;Node5</title>
<g id="a_edge4_Node000004_Node000005"><a xlink:title=" ">
<path fill="none" stroke="#63b8ff" d="M382.69,-29C391.33,-29 400.37,-29 409.14,-29"/>
<polygon fill="#63b8ff" stroke="#63b8ff" points="408.95,-32.5 418.95,-29 408.95,-25.5 408.95,-32.5"/>
</a>
</g>
</g>
<!-- Node6 -->
<g id="Node000006" class="node">
<title>Node6</title>
<g id="a_Node000006"><a xlink:href="../../df/dd7/class_a_e_frame.html#a425f5ba8edab14bdf3e34fc06658e451" target="_top" xlink:title="Resets the time point in the AEFrame to the real (current) time.">
<polygon fill="white" stroke="#666666" points="671.75,-39 543.25,-39 543.25,-19 671.75,-19 671.75,-39"/>
<text text-anchor="middle" x="607.5" y="-25.5" font-family="Helvetica,sans-Serif" font-size="10.00">AEFrame::resetTimePoint</text>
</a>
</g>
</g>
<!-- Node5&#45;&gt;Node6 -->
<g id="edge5_Node000005_Node000006" class="edge">
<title>Node5&#45;&gt;Node6</title>
<g id="a_edge5_Node000005_Node000006"><a xlink:title=" ">
<path fill="none" stroke="#63b8ff" d="M507.45,-29C515.12,-29 523.32,-29 531.59,-29"/>
<polygon fill="#63b8ff" stroke="#63b8ff" points="531.37,-32.5 541.37,-29 531.37,-25.5 531.37,-32.5"/>
</a>
</g>
</g>
</g>
</svg>
