<?xml version="1.0" encoding="UTF-8" standalone="no"?>
<!DOCTYPE svg PUBLIC "-//W3C//DTD SVG 1.1//EN"
 "http://www.w3.org/Graphics/SVG/1.1/DTD/svg11.dtd">
<!-- Generated by graphviz version 10.0.1 (20240210.2158)
 -->
<!-- Title: AETimer::setTPS Pages: 1 -->
<svg width="391pt" height="218pt"
 viewBox="0.00 0.00 391.25 218.00" xmlns="http://www.w3.org/2000/svg" xmlns:xlink="http://www.w3.org/1999/xlink">
<g id="graph0" class="graph" transform="scale(1 1) rotate(0) translate(4 214)">
<title>AETimer::setTPS</title>
<!-- Node1 -->
<g id="Node000001" class="node">
<title>Node1</title>
<g id="a_Node000001"><a xlink:title="Sets the timer&#39;s new delay as ticks&#45;per&#45;second.">
<polygon fill="#999999" stroke="#666666" points="91.75,-115 0,-115 0,-95 91.75,-95 91.75,-115"/>
<text text-anchor="middle" x="45.88" y="-101.5" font-family="Helvetica,sans-Serif" font-size="10.00">AETimer::setTPS</text>
</a>
</g>
</g>
<!-- Node2 -->
<g id="Node000002" class="node">
<title>Node2</title>
<g id="a_Node000002"><a xlink:href="../../da/d62/class_a_e_timer.html#a4bc917c0a7635c0b1744ad31b6cd8cc6" target="_top" xlink:title="Returns the ticks&#45;per&#45;second of the AETimer&#39;s instance (aka AEFrame&#39;s fps goal).">
<polygon fill="white" stroke="#666666" points="227.38,-210 135.62,-210 135.62,-190 227.38,-190 227.38,-210"/>
<text text-anchor="middle" x="181.5" y="-196.5" font-family="Helvetica,sans-Serif" font-size="10.00">AETimer::getTPS</text>
</a>
</g>
</g>
<!-- Node1&#45;&gt;Node2 -->
<g id="edge1_Node000001_Node000002" class="edge">
<title>Node1&#45;&gt;Node2</title>
<g id="a_edge1_Node000001_Node000002"><a xlink:title=" ">
<path fill="none" stroke="#63b8ff" d="M55.3,-115.26C68.97,-131.31 97.53,-162.47 127.75,-181 130.03,-182.4 132.42,-183.71 134.88,-184.94"/>
<polygon fill="#63b8ff" stroke="#63b8ff" points="133.29,-188.07 143.85,-188.96 136.15,-181.68 133.29,-188.07"/>
</a>
</g>
</g>
<!-- Node4 -->
<g id="Node000004" class="node">
<title>Node4</title>
<g id="a_Node000004"><a xlink:href="../../df/dd7/class_a_e_frame.html#a3a1eb2a539c632822604d6857dbdc0ce" target="_top" xlink:title="Returns whether the instance has a delay or not (invalid fps/delay was set).">
<polygon fill="white" stroke="#666666" points="233.38,-172 129.62,-172 129.62,-152 233.38,-152 233.38,-172"/>
<text text-anchor="middle" x="181.5" y="-158.5" font-family="Helvetica,sans-Serif" font-size="10.00">AEFrame::hasDelay</text>
</a>
</g>
</g>
<!-- Node1&#45;&gt;Node4 -->
<g id="edge3_Node000001_Node000004" class="edge">
<title>Node1&#45;&gt;Node4</title>
<g id="a_edge3_Node000001_Node000004"><a xlink:title=" ">
<path fill="none" stroke="#63b8ff" d="M71.38,-115.45C92.2,-124.33 122.32,-137.18 145.64,-147.13"/>
<polygon fill="#63b8ff" stroke="#63b8ff" points="144.18,-150.31 154.75,-151.02 146.93,-143.87 144.18,-150.31"/>
</a>
</g>
</g>
<!-- Node5 -->
<g id="Node000005" class="node">
<title>Node5</title>
<g id="a_Node000005"><a xlink:href="../../df/dd7/class_a_e_frame.html#aff72c01c3729961620ba9393326f321d" target="_top" xlink:title="Returns whether the passed delay as fps is valid.">
<polygon fill="white" stroke="#666666" points="383.25,-115 271.25,-115 271.25,-95 383.25,-95 383.25,-115"/>
<text text-anchor="middle" x="327.25" y="-101.5" font-family="Helvetica,sans-Serif" font-size="10.00">AEFrame::isValidFPS</text>
</a>
</g>
</g>
<!-- Node1&#45;&gt;Node5 -->
<g id="edge4_Node000001_Node000005" class="edge">
<title>Node1&#45;&gt;Node5</title>
<g id="a_edge4_Node000001_Node000005"><a xlink:title=" ">
<path fill="none" stroke="#63b8ff" d="M92.07,-105C137.44,-105 207.85,-105 259.62,-105"/>
<polygon fill="#63b8ff" stroke="#63b8ff" points="259.51,-108.5 269.51,-105 259.51,-101.5 259.51,-108.5"/>
</a>
</g>
</g>
<!-- Node6 -->
<g id="Node000006" class="node">
<title>Node6</title>
<g id="a_Node000006"><a xlink:href="../../da/d62/class_a_e_timer.html#a8ae59d1447bcae7a65ef8099f7e14ac6" target="_top" xlink:title="Sets the timer tick back to 0.">
<polygon fill="white" stroke="#666666" points="231.12,-58 131.88,-58 131.88,-38 231.12,-38 231.12,-58"/>
<text text-anchor="middle" x="181.5" y="-44.5" font-family="Helvetica,sans-Serif" font-size="10.00">AETimer::resetTick</text>
</a>
</g>
</g>
<!-- Node1&#45;&gt;Node6 -->
<g id="edge5_Node000001_Node000006" class="edge">
<title>Node1&#45;&gt;Node6</title>
<g id="a_edge5_Node000001_Node000006"><a xlink:title=" ">
<path fill="none" stroke="#63b8ff" d="M67.58,-94.62C83.78,-86.65 106.97,-75.6 127.75,-67 131.52,-65.44 135.48,-63.88 139.45,-62.36"/>
<polygon fill="#63b8ff" stroke="#63b8ff" points="140.34,-65.76 148.49,-59 137.9,-59.2 140.34,-65.76"/>
</a>
</g>
</g>
<!-- Node8 -->
<g id="Node000008" class="node">
<title>Node8</title>
<g id="a_Node000008"><a xlink:href="../../df/dd7/class_a_e_frame.html#a95580be55882c4baf46fce5dac036cab" target="_top" xlink:title="Sets the delay of the instance as the frames (loop cycles) per second to reach in execution (fps goal...">
<polygon fill="white" stroke="#666666" points="228.12,-96 134.88,-96 134.88,-76 228.12,-76 228.12,-96"/>
<text text-anchor="middle" x="181.5" y="-82.5" font-family="Helvetica,sans-Serif" font-size="10.00">AEFrame::setFps</text>
</a>
</g>
</g>
<!-- Node1&#45;&gt;Node8 -->
<g id="edge7_Node000001_Node000008" class="edge">
<title>Node1&#45;&gt;Node8</title>
<g id="a_edge7_Node000001_Node000008"><a xlink:title=" ">
<path fill="none" stroke="#63b8ff" d="M92.11,-98.57C102.12,-97.14 112.85,-95.62 123.27,-94.14"/>
<polygon fill="#63b8ff" stroke="#63b8ff" points="123.49,-97.64 132.9,-92.77 122.51,-90.71 123.49,-97.64"/>
</a>
</g>
</g>
<!-- Node9 -->
<g id="Node000009" class="node">
<title>Node9</title>
<g id="a_Node000009"><a xlink:href="../../da/d62/class_a_e_timer.html#a29f3aaf12a9832c55dff8875d94c4548" target="_top" xlink:title="Stops the timer thread and stops tick counting.">
<polygon fill="white" stroke="#666666" points="235.25,-20 127.75,-20 127.75,0 235.25,0 235.25,-20"/>
<text text-anchor="middle" x="181.5" y="-6.5" font-family="Helvetica,sans-Serif" font-size="10.00">AETimer::stopThread</text>
</a>
</g>
</g>
<!-- Node1&#45;&gt;Node9 -->
<g id="edge9_Node000001_Node000009" class="edge">
<title>Node1&#45;&gt;Node9</title>
<g id="a_edge9_Node000001_Node000009"><a xlink:title=" ">
<path fill="none" stroke="#63b8ff" d="M55.3,-94.74C68.97,-78.69 97.53,-47.53 127.75,-29 130.03,-27.6 132.42,-26.29 134.88,-25.06"/>
<polygon fill="#63b8ff" stroke="#63b8ff" points="136.15,-28.32 143.85,-21.04 133.29,-21.93 136.15,-28.32"/>
</a>
</g>
</g>
<!-- Node3 -->
<g id="Node000003" class="node">
<title>Node3</title>
<g id="a_Node000003"><a xlink:href="../../df/dd7/class_a_e_frame.html#a73473aaad9b7db977c22216213e4c066" target="_top" xlink:title="Returns the fps goal of the instance.">
<polygon fill="white" stroke="#666666" points="375.38,-210 279.12,-210 279.12,-190 375.38,-190 375.38,-210"/>
<text text-anchor="middle" x="327.25" y="-196.5" font-family="Helvetica,sans-Serif" font-size="10.00">AEFrame::getFPS</text>
</a>
</g>
</g>
<!-- Node2&#45;&gt;Node3 -->
<g id="edge2_Node000002_Node000003" class="edge">
<title>Node2&#45;&gt;Node3</title>
<g id="a_edge2_Node000002_Node000003"><a xlink:title=" ">
<path fill="none" stroke="#63b8ff" d="M227.59,-200C240.2,-200 254.09,-200 267.37,-200"/>
<polygon fill="#63b8ff" stroke="#63b8ff" points="267.32,-203.5 277.32,-200 267.32,-196.5 267.32,-203.5"/>
</a>
</g>
</g>
<!-- Node7 -->
<g id="Node000007" class="node">
<title>Node7</title>
<g id="a_Node000007"><a xlink:href="../../da/d62/class_a_e_timer.html#af5b764f92d2e3fd7a6c9a1b0f1065964" target="_top" xlink:title="Sets the timer&#39;s new tick value to the passed value.">
<polygon fill="white" stroke="#666666" points="372.75,-58 281.75,-58 281.75,-38 372.75,-38 372.75,-58"/>
<text text-anchor="middle" x="327.25" y="-44.5" font-family="Helvetica,sans-Serif" font-size="10.00">AETimer::setTick</text>
</a>
</g>
</g>
<!-- Node6&#45;&gt;Node7 -->
<g id="edge6_Node000006_Node000007" class="edge">
<title>Node6&#45;&gt;Node7</title>
<g id="a_edge6_Node000006_Node000007"><a xlink:title=" ">
<path fill="none" stroke="#63b8ff" d="M231.57,-48C243.9,-48 257.23,-48 269.88,-48"/>
<polygon fill="#63b8ff" stroke="#63b8ff" points="269.75,-51.5 279.75,-48 269.75,-44.5 269.75,-51.5"/>
</a>
</g>
</g>
<!-- Node8&#45;&gt;Node5 -->
<g id="edge8_Node000008_Node000005" class="edge">
<title>Node8&#45;&gt;Node5</title>
<g id="a_edge8_Node000008_Node000005"><a xlink:title=" ">
<path fill="none" stroke="#63b8ff" d="M228.38,-92.06C238.33,-93.38 249.06,-94.8 259.63,-96.2"/>
<polygon fill="#63b8ff" stroke="#63b8ff" points="259.13,-99.66 269.5,-97.5 260.05,-92.72 259.13,-99.66"/>
</a>
</g>
</g>
</g>
</svg>
