<?xml version="1.0" encoding="UTF-8" standalone="no"?>
<!DOCTYPE svg PUBLIC "-//W3C//DTD SVG 1.1//EN"
 "http://www.w3.org/Graphics/SVG/1.1/DTD/svg11.dtd">
<!-- Generated by graphviz version 10.0.1 (20240210.2158)
 -->
<!-- Title: AEMisc/include/AETypedefs.hpp Pages: 1 -->
<svg width="1291pt" height="308pt"
 viewBox="0.00 0.00 1291.38 308.00" xmlns="http://www.w3.org/2000/svg" xmlns:xlink="http://www.w3.org/1999/xlink">
<g id="graph0" class="graph" transform="scale(1 1) rotate(0) translate(4 304)">
<title>AEMisc/include/AETypedefs.hpp</title>
<!-- Node1 -->
<g id="Node000001" class="node">
<title>Node1</title>
<g id="a_Node000001"><a xlink:title="This file contains the engine&#39;s typedefs and variable type aliases.">
<polygon fill="#999999" stroke="#666666" points="735,-300 576.5,-300 576.5,-280 735,-280 735,-300"/>
<text text-anchor="middle" x="655.75" y="-286.5" font-family="Helvetica,sans-Serif" font-size="10.00">AEMisc/include/AETypedefs.hpp</text>
</a>
</g>
</g>
<!-- Node2 -->
<g id="Node000002" class="node">
<title>Node2</title>
<g id="a_Node000002"><a xlink:href="../../db/dcb/_a_e_log_entry_info_8hpp.html" target="_top" xlink:title=" ">
<polygon fill="white" stroke="#666666" points="583,-244 370.5,-244 370.5,-224 583,-224 583,-244"/>
<text text-anchor="middle" x="476.75" y="-230.5" font-family="Helvetica,sans-Serif" font-size="10.00">AECustomTypes/include/AELogEntryInfo.hpp</text>
</a>
</g>
</g>
<!-- Node1&#45;&gt;Node2 -->
<g id="edge1_Node000001_Node000002" class="edge">
<title>Node1&#45;&gt;Node2</title>
<g id="a_edge1_Node000001_Node000002"><a xlink:title=" ">
<path fill="none" stroke="#63b8ff" d="M613.67,-276.31C581.36,-266.56 537.46,-253.32 508.17,-244.48"/>
<polygon fill="#63b8ff" stroke="#63b8ff" points="612.54,-279.62 623.12,-279.16 614.56,-272.92 612.54,-279.62"/>
</a>
</g>
</g>
<!-- Node5 -->
<g id="Node000005" class="node">
<title>Node5</title>
<g id="a_Node000005"><a xlink:href="../../d1/da4/_a_e_math_8hpp.html" target="_top" xlink:title="This file contains the engine&#39;s math and math&#45;related functions.">
<polygon fill="white" stroke="#666666" points="396.38,-132 255.12,-132 255.12,-112 396.38,-112 396.38,-132"/>
<text text-anchor="middle" x="325.75" y="-118.5" font-family="Helvetica,sans-Serif" font-size="10.00">AEMisc/include/AEMath.hpp</text>
</a>
</g>
</g>
<!-- Node1&#45;&gt;Node5 -->
<g id="edge4_Node000001_Node000005" class="edge">
<title>Node1&#45;&gt;Node5</title>
<g id="a_edge4_Node000001_Node000005"><a xlink:title=" ">
<path fill="none" stroke="#63b8ff" d="M564.89,-285.56C489.99,-280.87 391.42,-269.85 361.75,-244 328.04,-214.63 325.2,-155.23 325.43,-132.31"/>
<polygon fill="#63b8ff" stroke="#63b8ff" points="564.52,-289.04 574.71,-286.14 564.94,-282.05 564.52,-289.04"/>
</a>
</g>
</g>
<!-- Node9 -->
<g id="Node000009" class="node">
<title>Node9</title>
<g id="a_Node000009"><a xlink:href="../../de/de8/_a_e_utils_8hpp.html" target="_top" xlink:title="This file contains the engine&#39;s usefull utilities for trivial tasks.">
<polygon fill="white" stroke="#666666" points="981.25,-188 842.25,-188 842.25,-168 981.25,-168 981.25,-188"/>
<text text-anchor="middle" x="911.75" y="-174.5" font-family="Helvetica,sans-Serif" font-size="10.00">AEMisc/include/AEUtils.hpp</text>
</a>
</g>
</g>
<!-- Node1&#45;&gt;Node9 -->
<g id="edge9_Node000001_Node000009" class="edge">
<title>Node1&#45;&gt;Node9</title>
<g id="a_edge9_Node000001_Node000009"><a xlink:title=" ">
<path fill="none" stroke="#63b8ff" d="M746.75,-283.87C785.63,-278.17 829.96,-266.72 864.75,-244 886.21,-229.99 901.1,-202.54 907.78,-188.21"/>
<polygon fill="#63b8ff" stroke="#63b8ff" points="746.36,-280.39 736.92,-285.19 747.29,-287.33 746.36,-280.39"/>
</a>
</g>
</g>
<!-- Node17 -->
<g id="Node000017" class="node">
<title>Node17</title>
<g id="a_Node000017"><a xlink:href="../../d9/d6a/_a_e_utils_macros_8hpp.html" target="_top" xlink:title="This file contains the engine&#39;s macros for trivial tasks.">
<polygon fill="white" stroke="#666666" points="855.38,-244 684.12,-244 684.12,-224 855.38,-224 855.38,-244"/>
<text text-anchor="middle" x="769.75" y="-230.5" font-family="Helvetica,sans-Serif" font-size="10.00">AEMisc/include/AEUtilsMacros.hpp</text>
</a>
</g>
</g>
<!-- Node1&#45;&gt;Node17 -->
<g id="edge20_Node000001_Node000017" class="edge">
<title>Node1&#45;&gt;Node17</title>
<g id="a_edge20_Node000001_Node000017"><a xlink:title=" ">
<path fill="none" stroke="#63b8ff" d="M685.84,-274.75C706.03,-265.18 732.06,-252.85 749.74,-244.48"/>
<polygon fill="#63b8ff" stroke="#63b8ff" points="684.51,-271.5 676.98,-278.95 687.51,-277.83 684.51,-271.5"/>
</a>
</g>
</g>
<!-- Node18 -->
<g id="Node000018" class="node">
<title>Node18</title>
<g id="a_Node000018"><a xlink:href="../../d7/d7f/_a_e_module_base_8hpp.html" target="_top" xlink:title="This file contains the engine&#39;s basic module template.">
<polygon fill="white" stroke="#666666" points="824,-188 617.5,-188 617.5,-168 824,-168 824,-188"/>
<text text-anchor="middle" x="720.75" y="-174.5" font-family="Helvetica,sans-Serif" font-size="10.00">AEModuleBase/include/AEModuleBase.hpp</text>
</a>
</g>
</g>
<!-- Node1&#45;&gt;Node18 -->
<g id="edge28_Node000001_Node000018" class="edge">
<title>Node1&#45;&gt;Node18</title>
<g id="a_edge28_Node000001_Node000018"><a xlink:title=" ">
<path fill="none" stroke="#63b8ff" d="M659.01,-268.25C661.76,-254.91 666.59,-237.6 674.75,-224 683.37,-209.63 697.68,-196.65 708.06,-188.37"/>
<polygon fill="#63b8ff" stroke="#63b8ff" points="655.56,-267.62 657.24,-278.08 662.45,-268.86 655.56,-267.62"/>
</a>
</g>
</g>
<!-- Node3 -->
<g id="Node000003" class="node">
<title>Node3</title>
<g id="a_Node000003"><a xlink:href="../../d0/dab/_a_e_log_parser_8hpp.html" target="_top" xlink:title=" ">
<polygon fill="white" stroke="#666666" points="732.25,-76 545.25,-76 545.25,-56 732.25,-56 732.25,-76"/>
<text text-anchor="middle" x="638.75" y="-62.5" font-family="Helvetica,sans-Serif" font-size="10.00">AELogParser/include/AELogParser.hpp</text>
</a>
</g>
</g>
<!-- Node2&#45;&gt;Node3 -->
<g id="edge2_Node000002_Node000003" class="edge">
<title>Node2&#45;&gt;Node3</title>
<g id="a_edge2_Node000002_Node000003"><a xlink:title=" ">
<path fill="none" stroke="#63b8ff" d="M462.57,-214.39C444.87,-188.74 419.68,-142.25 443.75,-112 457.57,-94.63 506.15,-83.39 551.37,-76.49"/>
<polygon fill="#63b8ff" stroke="#63b8ff" points="459.73,-216.44 468.42,-222.49 465.4,-212.33 459.73,-216.44"/>
</a>
</g>
</g>
<!-- Node4 -->
<g id="Node000004" class="node">
<title>Node4</title>
<g id="a_Node000004"><a xlink:href="../../d2/d77/_a_e_log_parser_8cpp.html" target="_top" xlink:title=" ">
<polygon fill="white" stroke="#666666" points="723.62,-20 553.88,-20 553.88,0 723.62,0 723.62,-20"/>
<text text-anchor="middle" x="638.75" y="-6.5" font-family="Helvetica,sans-Serif" font-size="10.00">AELogParser/src/AELogParser.cpp</text>
</a>
</g>
</g>
<!-- Node3&#45;&gt;Node4 -->
<g id="edge3_Node000003_Node000004" class="edge">
<title>Node3&#45;&gt;Node4</title>
<g id="a_edge3_Node000003_Node000004"><a xlink:title=" ">
<path fill="none" stroke="#63b8ff" d="M638.75,-44.13C638.75,-35.9 638.75,-26.85 638.75,-20.3"/>
<polygon fill="#63b8ff" stroke="#63b8ff" points="635.25,-44.08 638.75,-54.08 642.25,-44.08 635.25,-44.08"/>
</a>
</g>
</g>
<!-- Node5&#45;&gt;Node3 -->
<g id="edge5_Node000005_Node000003" class="edge">
<title>Node5&#45;&gt;Node3</title>
<g id="a_edge5_Node000005_Node000003"><a xlink:title=" ">
<path fill="none" stroke="#63b8ff" d="M391.7,-109.62C448.79,-99.77 530.37,-85.7 583.93,-76.46"/>
<polygon fill="#63b8ff" stroke="#63b8ff" points="391.38,-106.13 382.12,-111.27 392.57,-113.02 391.38,-106.13"/>
</a>
</g>
</g>
<!-- Node6 -->
<g id="Node000006" class="node">
<title>Node6</title>
<g id="a_Node000006"><a xlink:href="../../d2/d57/_a_e_math_trig_lookup_8hpp.html" target="_top" xlink:title="This file contains the engine&#39;s trigonometric function lookup tables.">
<polygon fill="white" stroke="#666666" points="362,-76 173.5,-76 173.5,-56 362,-56 362,-76"/>
<text text-anchor="middle" x="267.75" y="-62.5" font-family="Helvetica,sans-Serif" font-size="10.00">AEMisc/include/AEMathTrigLookup.hpp</text>
</a>
</g>
</g>
<!-- Node5&#45;&gt;Node6 -->
<g id="edge6_Node000005_Node000006" class="edge">
<title>Node5&#45;&gt;Node6</title>
<g id="a_edge6_Node000005_Node000006"><a xlink:title=" ">
<path fill="none" stroke="#63b8ff" d="M307.33,-103.85C297.52,-94.72 285.85,-83.86 277.74,-76.3"/>
<polygon fill="#63b8ff" stroke="#63b8ff" points="304.84,-106.31 314.54,-110.56 309.61,-101.19 304.84,-106.31"/>
</a>
</g>
</g>
<!-- Node7 -->
<g id="Node000007" class="node">
<title>Node7</title>
<g id="a_Node000007"><a xlink:href="../../dc/dc6/_a_e_timer_8hpp.html" target="_top" xlink:title="This file contains the engine&#39;s tick&#45;based timer.">
<polygon fill="white" stroke="#666666" points="527,-76 380.5,-76 380.5,-56 527,-56 527,-76"/>
<text text-anchor="middle" x="453.75" y="-62.5" font-family="Helvetica,sans-Serif" font-size="10.00">AETimer/include/AETimer.hpp</text>
</a>
</g>
</g>
<!-- Node5&#45;&gt;Node7 -->
<g id="edge7_Node000005_Node000007" class="edge">
<title>Node5&#45;&gt;Node7</title>
<g id="a_edge7_Node000005_Node000007"><a xlink:title=" ">
<path fill="none" stroke="#63b8ff" d="M358.6,-107.14C381.39,-97.52 411.16,-84.97 431.28,-76.48"/>
<polygon fill="#63b8ff" stroke="#63b8ff" points="357.29,-103.89 349.44,-111.01 360.01,-110.34 357.29,-103.89"/>
</a>
</g>
</g>
<!-- Node8 -->
<g id="Node000008" class="node">
<title>Node8</title>
<g id="a_Node000008"><a xlink:href="../../d7/d09/_a_e_vector_8hpp.html" target="_top" xlink:title=" ">
<polygon fill="white" stroke="#666666" points="155.5,-76 0,-76 0,-56 155.5,-56 155.5,-76"/>
<text text-anchor="middle" x="77.75" y="-62.5" font-family="Helvetica,sans-Serif" font-size="10.00">AEVector/include/AEVector.hpp</text>
</a>
</g>
</g>
<!-- Node5&#45;&gt;Node8 -->
<g id="edge8_Node000005_Node000008" class="edge">
<title>Node5&#45;&gt;Node8</title>
<g id="a_edge8_Node000005_Node000008"><a xlink:title=" ">
<path fill="none" stroke="#63b8ff" d="M271.22,-109.13C226.11,-99.31 162.91,-85.54 121.18,-76.46"/>
<polygon fill="#63b8ff" stroke="#63b8ff" points="270.27,-112.5 280.79,-111.21 271.76,-105.66 270.27,-112.5"/>
</a>
</g>
</g>
<!-- Node10 -->
<g id="Node000010" class="node">
<title>Node10</title>
<g id="a_Node000010"><a xlink:href="../../dc/dc6/_a_e_log_entry_8hpp.html" target="_top" xlink:title=" ">
<polygon fill="white" stroke="#666666" points="1032.5,-132 835,-132 835,-112 1032.5,-112 1032.5,-132"/>
<text text-anchor="middle" x="933.75" y="-118.5" font-family="Helvetica,sans-Serif" font-size="10.00">AECustomTypes/include/AELogEntry.hpp</text>
</a>
</g>
</g>
<!-- Node9&#45;&gt;Node10 -->
<g id="edge10_Node000009_Node000010" class="edge">
<title>Node9&#45;&gt;Node10</title>
<g id="a_edge10_Node000009_Node000010"><a xlink:title=" ">
<path fill="none" stroke="#63b8ff" d="M919.9,-157C923.35,-148.54 927.2,-139.08 929.96,-132.3"/>
<polygon fill="#63b8ff" stroke="#63b8ff" points="916.68,-155.61 916.15,-166.19 923.17,-158.25 916.68,-155.61"/>
</a>
</g>
</g>
<!-- Node13 -->
<g id="Node000013" class="node">
<title>Node13</title>
<g id="a_Node000013"><a xlink:href="../../d3/dda/_a_e_file_reader_8hpp.html" target="_top" xlink:title=" ">
<polygon fill="white" stroke="#666666" points="816.5,-132 625,-132 625,-112 816.5,-112 816.5,-132"/>
<text text-anchor="middle" x="720.75" y="-118.5" font-family="Helvetica,sans-Serif" font-size="10.00">AEFileReader/include/AEFileReader.hpp</text>
</a>
</g>
</g>
<!-- Node9&#45;&gt;Node13 -->
<g id="edge14_Node000009_Node000013" class="edge">
<title>Node9&#45;&gt;Node13</title>
<g id="a_edge14_Node000009_Node000013"><a xlink:title=" ">
<path fill="none" stroke="#63b8ff" d="M867.75,-164.56C833.19,-154.79 785.81,-141.39 754.28,-132.48"/>
<polygon fill="#63b8ff" stroke="#63b8ff" points="866.45,-167.83 877.02,-167.18 868.35,-161.09 866.45,-167.83"/>
</a>
</g>
</g>
<!-- Node15 -->
<g id="Node000015" class="node">
<title>Node15</title>
<g id="a_Node000015"><a xlink:href="../../db/da4/_a_e_file_writer_8hpp.html" target="_top" xlink:title="This file contains the engine&#39;s simple file writer.">
<polygon fill="white" stroke="#666666" points="1233,-132 1050.5,-132 1050.5,-112 1233,-112 1233,-132"/>
<text text-anchor="middle" x="1141.75" y="-118.5" font-family="Helvetica,sans-Serif" font-size="10.00">AEFileWriter/include/AEFileWriter.hpp</text>
</a>
</g>
</g>
<!-- Node9&#45;&gt;Node15 -->
<g id="edge17_Node000009_Node000015" class="edge">
<title>Node9&#45;&gt;Node15</title>
<g id="a_edge17_Node000009_Node000015"><a xlink:title=" ">
<path fill="none" stroke="#63b8ff" d="M963.13,-164.94C1004.9,-155.13 1063.01,-141.49 1101.47,-132.46"/>
<polygon fill="#63b8ff" stroke="#63b8ff" points="962.48,-161.49 953.55,-167.19 964.08,-168.31 962.48,-161.49"/>
</a>
</g>
</g>
<!-- Node10&#45;&gt;Node3 -->
<g id="edge11_Node000010_Node000003" class="edge">
<title>Node10&#45;&gt;Node3</title>
<g id="a_edge11_Node000010_Node000003"><a xlink:title=" ">
<path fill="none" stroke="#63b8ff" d="M870.92,-109.5C817.15,-99.66 740.68,-85.66 690.41,-76.46"/>
<polygon fill="#63b8ff" stroke="#63b8ff" points="870.07,-112.9 880.54,-111.26 871.33,-106.02 870.07,-112.9"/>
</a>
</g>
</g>
<!-- Node11 -->
<g id="Node000011" class="node">
<title>Node11</title>
<g id="a_Node000011"><a xlink:href="../../d4/d9f/_a_e_logger_8hpp.html" target="_top" xlink:title=" ">
<polygon fill="white" stroke="#666666" points="1100.25,-76 943.25,-76 943.25,-56 1100.25,-56 1100.25,-76"/>
<text text-anchor="middle" x="1021.75" y="-62.5" font-family="Helvetica,sans-Serif" font-size="10.00">AELogger/include/AELogger.hpp</text>
</a>
</g>
</g>
<!-- Node10&#45;&gt;Node11 -->
<g id="edge12_Node000010_Node000011" class="edge">
<title>Node10&#45;&gt;Node11</title>
<g id="a_edge12_Node000010_Node000011"><a xlink:title=" ">
<path fill="none" stroke="#63b8ff" d="M958.5,-105.81C973.85,-96.39 993.1,-84.58 1006.3,-76.48"/>
<polygon fill="#63b8ff" stroke="#63b8ff" points="957.06,-102.59 950.37,-110.8 960.72,-108.56 957.06,-102.59"/>
</a>
</g>
</g>
<!-- Node12 -->
<g id="Node000012" class="node">
<title>Node12</title>
<g id="a_Node000012"><a xlink:href="../../db/da0/_a_e_logger_8cpp.html" target="_top" xlink:title=" ">
<polygon fill="white" stroke="#666666" points="1091.62,-20 951.88,-20 951.88,0 1091.62,0 1091.62,-20"/>
<text text-anchor="middle" x="1021.75" y="-6.5" font-family="Helvetica,sans-Serif" font-size="10.00">AELogger/src/AELogger.cpp</text>
</a>
</g>
</g>
<!-- Node11&#45;&gt;Node12 -->
<g id="edge13_Node000011_Node000012" class="edge">
<title>Node11&#45;&gt;Node12</title>
<g id="a_edge13_Node000011_Node000012"><a xlink:title=" ">
<path fill="none" stroke="#63b8ff" d="M1021.75,-44.13C1021.75,-35.9 1021.75,-26.85 1021.75,-20.3"/>
<polygon fill="#63b8ff" stroke="#63b8ff" points="1018.25,-44.08 1021.75,-54.08 1025.25,-44.08 1018.25,-44.08"/>
</a>
</g>
</g>
<!-- Node13&#45;&gt;Node3 -->
<g id="edge16_Node000013_Node000003" class="edge">
<title>Node13&#45;&gt;Node3</title>
<g id="a_edge16_Node000013_Node000003"><a xlink:title=" ">
<path fill="none" stroke="#63b8ff" d="M696.86,-105.27C682.7,-95.94 665.22,-84.43 653.14,-76.48"/>
<polygon fill="#63b8ff" stroke="#63b8ff" points="694.93,-108.18 705.2,-110.76 698.78,-102.34 694.93,-108.18"/>
</a>
</g>
</g>
<!-- Node14 -->
<g id="Node000014" class="node">
<title>Node14</title>
<g id="a_Node000014"><a xlink:href="../../d9/d6e/_a_e_file_reader_8cpp.html" target="_top" xlink:title=" ">
<polygon fill="white" stroke="#666666" points="924.88,-76 750.62,-76 750.62,-56 924.88,-56 924.88,-76"/>
<text text-anchor="middle" x="837.75" y="-62.5" font-family="Helvetica,sans-Serif" font-size="10.00">AEFileReader/src/AEFileReader.cpp</text>
</a>
</g>
</g>
<!-- Node13&#45;&gt;Node14 -->
<g id="edge15_Node000013_Node000014" class="edge">
<title>Node13&#45;&gt;Node14</title>
<g id="a_edge15_Node000013_Node000014"><a xlink:title=" ">
<path fill="none" stroke="#63b8ff" d="M751.35,-106.88C772.11,-97.3 798.99,-84.89 817.21,-76.48"/>
<polygon fill="#63b8ff" stroke="#63b8ff" points="750.12,-103.59 742.5,-110.96 753.05,-109.95 750.12,-103.59"/>
</a>
</g>
</g>
<!-- Node15&#45;&gt;Node11 -->
<g id="edge19_Node000015_Node000011" class="edge">
<title>Node15&#45;&gt;Node11</title>
<g id="a_edge19_Node000015_Node000011"><a xlink:title=" ">
<path fill="none" stroke="#63b8ff" d="M1110.37,-106.88C1089.08,-97.3 1061.51,-84.89 1042.82,-76.48"/>
<polygon fill="#63b8ff" stroke="#63b8ff" points="1108.91,-110.06 1119.47,-110.97 1111.78,-103.68 1108.91,-110.06"/>
</a>
</g>
</g>
<!-- Node16 -->
<g id="Node000016" class="node">
<title>Node16</title>
<g id="a_Node000016"><a xlink:href="../../d0/d56/_a_e_file_writer_8cpp.html" target="_top" xlink:title=" ">
<polygon fill="white" stroke="#666666" points="1283.38,-76 1118.12,-76 1118.12,-56 1283.38,-56 1283.38,-76"/>
<text text-anchor="middle" x="1200.75" y="-62.5" font-family="Helvetica,sans-Serif" font-size="10.00">AEFileWriter/src/AEFileWriter.cpp</text>
</a>
</g>
</g>
<!-- Node15&#45;&gt;Node16 -->
<g id="edge18_Node000015_Node000016" class="edge">
<title>Node15&#45;&gt;Node16</title>
<g id="a_edge18_Node000015_Node000016"><a xlink:title=" ">
<path fill="none" stroke="#63b8ff" d="M1160.49,-103.85C1170.46,-94.72 1182.33,-83.86 1190.59,-76.3"/>
<polygon fill="#63b8ff" stroke="#63b8ff" points="1158.16,-101.24 1153.14,-110.57 1162.88,-106.4 1158.16,-101.24"/>
</a>
</g>
</g>
<!-- Node17&#45;&gt;Node9 -->
<g id="edge21_Node000017_Node000009" class="edge">
<title>Node17&#45;&gt;Node9</title>
<g id="a_edge21_Node000017_Node000009"><a xlink:title=" ">
<path fill="none" stroke="#63b8ff" d="M805.17,-219.53C830.58,-209.87 864.19,-197.08 886.82,-188.48"/>
<polygon fill="#63b8ff" stroke="#63b8ff" points="804,-216.23 795.9,-223.06 806.49,-222.77 804,-216.23"/>
</a>
</g>
</g>
<!-- Node17&#45;&gt;Node18 -->
<g id="edge22_Node000017_Node000018" class="edge">
<title>Node17&#45;&gt;Node18</title>
<g id="a_edge22_Node000017_Node000018"><a xlink:title=" ">
<path fill="none" stroke="#63b8ff" d="M753.68,-215.29C745.5,-206.28 735.9,-195.7 729.19,-188.3"/>
<polygon fill="#63b8ff" stroke="#63b8ff" points="750.89,-217.42 760.2,-222.47 756.07,-212.72 750.89,-217.42"/>
</a>
</g>
</g>
<!-- Node18&#45;&gt;Node10 -->
<g id="edge23_Node000018_Node000010" class="edge">
<title>Node18&#45;&gt;Node10</title>
<g id="a_edge23_Node000018_Node000010"><a xlink:title=" ">
<path fill="none" stroke="#63b8ff" d="M768.82,-164.81C807.44,-155.02 860.9,-141.47 896.36,-132.48"/>
<polygon fill="#63b8ff" stroke="#63b8ff" points="768.15,-161.37 759.32,-167.22 769.87,-168.16 768.15,-161.37"/>
</a>
</g>
</g>
<!-- Node18&#45;&gt;Node13 -->
<g id="edge24_Node000018_Node000013" class="edge">
<title>Node18&#45;&gt;Node13</title>
<g id="a_edge24_Node000018_Node000013"><a xlink:title=" ">
<path fill="none" stroke="#63b8ff" d="M720.75,-156.13C720.75,-147.9 720.75,-138.85 720.75,-132.3"/>
<polygon fill="#63b8ff" stroke="#63b8ff" points="717.25,-156.08 720.75,-166.08 724.25,-156.08 717.25,-156.08"/>
</a>
</g>
</g>
<!-- Node18&#45;&gt;Node15 -->
<g id="edge25_Node000018_Node000015" class="edge">
<title>Node18&#45;&gt;Node15</title>
<g id="a_edge25_Node000018_Node000015"><a xlink:title=" ">
<path fill="none" stroke="#63b8ff" d="M805.65,-166.11C882.57,-156.24 994.78,-141.85 1068.02,-132.46"/>
<polygon fill="#63b8ff" stroke="#63b8ff" points="805.54,-162.6 796.07,-167.34 806.43,-169.54 805.54,-162.6"/>
</a>
</g>
</g>
<!-- Node19 -->
<g id="Node000019" class="node">
<title>Node19</title>
<g id="a_Node000019"><a xlink:href="../../de/d72/_a_e_frame_8hpp.html" target="_top" xlink:title="This file contains the engine&#39;s module for frame&#45;precise loop delays.">
<polygon fill="white" stroke="#666666" points="606.75,-132 452.75,-132 452.75,-112 606.75,-112 606.75,-132"/>
<text text-anchor="middle" x="529.75" y="-118.5" font-family="Helvetica,sans-Serif" font-size="10.00">AEFrame/include/AEFrame.hpp</text>
</a>
</g>
</g>
<!-- Node18&#45;&gt;Node19 -->
<g id="edge26_Node000018_Node000019" class="edge">
<title>Node18&#45;&gt;Node19</title>
<g id="a_edge26_Node000018_Node000019"><a xlink:title=" ">
<path fill="none" stroke="#63b8ff" d="M676.75,-164.56C642.19,-154.79 594.81,-141.39 563.28,-132.48"/>
<polygon fill="#63b8ff" stroke="#63b8ff" points="675.45,-167.83 686.02,-167.18 677.35,-161.09 675.45,-167.83"/>
</a>
</g>
</g>
<!-- Node19&#45;&gt;Node7 -->
<g id="edge27_Node000019_Node000007" class="edge">
<title>Node19&#45;&gt;Node7</title>
<g id="a_edge27_Node000019_Node000007"><a xlink:title=" ">
<path fill="none" stroke="#63b8ff" d="M507.23,-105C494.17,-95.72 478.17,-84.35 467.09,-76.48"/>
<polygon fill="#63b8ff" stroke="#63b8ff" points="505.1,-107.78 515.28,-110.72 509.15,-102.07 505.1,-107.78"/>
</a>
</g>
</g>
</g>
</svg>
