<?xml version="1.0" encoding="UTF-8" standalone="no"?>
<!DOCTYPE svg PUBLIC "-//W3C//DTD SVG 1.1//EN"
 "http://www.w3.org/Graphics/SVG/1.1/DTD/svg11.dtd">
<!-- Generated by graphviz version 10.0.1 (20240210.2158)
 -->
<!-- Title: ace::math::equals Pages: 1 -->
<svg width="430pt" height="142pt"
 viewBox="0.00 0.00 429.50 142.00" xmlns="http://www.w3.org/2000/svg" xmlns:xlink="http://www.w3.org/1999/xlink">
<g id="graph0" class="graph" transform="scale(1 1) rotate(0) translate(4 138)">
<title>ace::math::equals</title>
<!-- Node1 -->
<g id="Node000001" class="node">
<title>Node1</title>
<g id="a_Node000001"><a xlink:title="Checks if given 2 numbers are equal, a generic function for all types.">
<polygon fill="#999999" stroke="#666666" points="421.5,-77 327.5,-77 327.5,-57 421.5,-57 421.5,-77"/>
<text text-anchor="middle" x="374.5" y="-63.5" font-family="Helvetica,sans-Serif" font-size="10.00">ace::math::equals</text>
</a>
</g>
</g>
<!-- Node2 -->
<g id="Node000002" class="node">
<title>Node2</title>
<g id="a_Node000002"><a xlink:href="../../d5/d0f/namespaceace_1_1math.html#a8817b5477b6aa93591bab27abdb9d64e" target="_top" xlink:title="Newton&#39;s method cbrt implementation, compatible with constexpr evaluation.">
<polygon fill="white" stroke="#666666" points="285.12,-134 203.12,-134 203.12,-114 285.12,-114 285.12,-134"/>
<text text-anchor="middle" x="244.12" y="-120.5" font-family="Helvetica,sans-Serif" font-size="10.00">ace::math::cbrt</text>
</a>
</g>
</g>
<!-- Node1&#45;&gt;Node2 -->
<g id="edge1_Node000001_Node000002" class="edge">
<title>Node1&#45;&gt;Node2</title>
<g id="a_edge1_Node000001_Node000002"><a xlink:title=" ">
<path fill="none" stroke="#63b8ff" d="M339.54,-82.08C317.14,-92.02 288.38,-104.79 268.52,-113.61"/>
<polygon fill="#63b8ff" stroke="#63b8ff" points="340.85,-85.33 348.57,-78.07 338.01,-78.93 340.85,-85.33"/>
</a>
</g>
</g>
<!-- Node3 -->
<g id="Node000003" class="node">
<title>Node3</title>
<g id="a_Node000003"><a xlink:href="../../d5/d0f/namespaceace_1_1math.html#a43dfe745f66a0345771e8ba5d70e184e" target="_top" xlink:title="Calculate the n&#39;th root of a number.">
<polygon fill="white" stroke="#666666" points="121.38,-96 39.38,-96 39.38,-76 121.38,-76 121.38,-96"/>
<text text-anchor="middle" x="80.38" y="-82.5" font-family="Helvetica,sans-Serif" font-size="10.00">ace::math::root</text>
</a>
</g>
</g>
<!-- Node1&#45;&gt;Node3 -->
<g id="edge4_Node000001_Node000003" class="edge">
<title>Node1&#45;&gt;Node3</title>
<g id="a_edge4_Node000001_Node000003"><a xlink:title=" ">
<path fill="none" stroke="#63b8ff" d="M315.81,-70.75C258.51,-74.48 172.15,-80.1 121.8,-83.37"/>
<polygon fill="#63b8ff" stroke="#63b8ff" points="315.95,-74.25 325.7,-70.11 315.5,-67.27 315.95,-74.25"/>
</a>
</g>
</g>
<!-- Node4 -->
<g id="Node000004" class="node">
<title>Node4</title>
<g id="a_Node000004"><a xlink:href="../../d5/d0f/namespaceace_1_1math.html#a0447feb296aec26be391db73b3b66292" target="_top" xlink:title="Calculate the integer exponent of a given number.">
<polygon fill="white" stroke="#666666" points="291.5,-58 196.75,-58 196.75,-38 291.5,-38 291.5,-58"/>
<text text-anchor="middle" x="244.12" y="-44.5" font-family="Helvetica,sans-Serif" font-size="10.00">ace::math::intPow</text>
</a>
</g>
</g>
<!-- Node1&#45;&gt;Node4 -->
<g id="edge3_Node000001_Node000004" class="edge">
<title>Node1&#45;&gt;Node4</title>
<g id="a_edge3_Node000001_Node000004"><a xlink:title=" ">
<path fill="none" stroke="#63b8ff" d="M315.91,-58.48C307.85,-57.28 299.66,-56.07 291.83,-54.91"/>
<polygon fill="#63b8ff" stroke="#63b8ff" points="315.25,-61.92 325.66,-59.92 316.28,-54.99 315.25,-61.92"/>
</a>
</g>
</g>
<!-- Node5 -->
<g id="Node000005" class="node">
<title>Node5</title>
<g id="a_Node000005"><a xlink:href="../../d5/d0f/namespaceace_1_1math.html#a934ea1d09debbfd89edc14bd99c2f665" target="_top" xlink:title="Newton&#39;s method sqrt implementation, compatible with constexpr evaluation.">
<polygon fill="white" stroke="#666666" points="285.12,-20 203.12,-20 203.12,0 285.12,0 285.12,-20"/>
<text text-anchor="middle" x="244.12" y="-6.5" font-family="Helvetica,sans-Serif" font-size="10.00">ace::math::sqrt</text>
</a>
</g>
</g>
<!-- Node1&#45;&gt;Node5 -->
<g id="edge5_Node000001_Node000005" class="edge">
<title>Node1&#45;&gt;Node5</title>
<g id="a_edge5_Node000001_Node000005"><a xlink:title=" ">
<path fill="none" stroke="#63b8ff" d="M341.35,-51.7C326.29,-44.63 308.05,-36.22 291.5,-29 284.96,-26.15 277.85,-23.17 271.21,-20.45"/>
<polygon fill="#63b8ff" stroke="#63b8ff" points="339.79,-54.83 350.33,-55.92 342.77,-48.49 339.79,-54.83"/>
</a>
</g>
</g>
<!-- Node2&#45;&gt;Node3 -->
<g id="edge2_Node000002_Node000003" class="edge">
<title>Node2&#45;&gt;Node3</title>
<g id="a_edge2_Node000002_Node000003"><a xlink:title=" ">
<path fill="none" stroke="#63b8ff" d="M191.63,-111.9C169.06,-106.6 142.96,-100.47 121.82,-95.5"/>
<polygon fill="#63b8ff" stroke="#63b8ff" points="190.72,-115.28 201.25,-114.16 192.32,-108.47 190.72,-115.28"/>
</a>
</g>
</g>
<!-- Node5&#45;&gt;Node3 -->
<g id="edge7_Node000005_Node000003" class="edge">
<title>Node5&#45;&gt;Node3</title>
<g id="a_edge7_Node000005_Node000003"><a xlink:title=" ">
<path fill="none" stroke="#63b8ff" d="M206.5,-24.73C203.19,-26.14 199.9,-27.58 196.75,-29 162.74,-44.34 124.01,-63.93 101.18,-75.69"/>
<polygon fill="#63b8ff" stroke="#63b8ff" points="207.72,-28.01 215.59,-20.92 205.02,-21.55 207.72,-28.01"/>
</a>
</g>
</g>
<!-- Node6 -->
<g id="Node000006" class="node">
<title>Node6</title>
<g id="a_Node000006"><a xlink:href="../../dc/df6/struct_a_e_vector.html#a4fbe00c7ab3e00bc2cd62b9c3414679c" target="_top" xlink:title="Calculates the vector that is perpendicular to &quot;this&quot;, with the length of projection of the given vec...">
<polygon fill="white" stroke="#666666" points="160.75,-20 0,-20 0,0 160.75,0 160.75,-20"/>
<text text-anchor="middle" x="80.38" y="-6.5" font-family="Helvetica,sans-Serif" font-size="10.00">AEVector::perpendicularToVector</text>
</a>
</g>
</g>
<!-- Node5&#45;&gt;Node6 -->
<g id="edge6_Node000005_Node000006" class="edge">
<title>Node5&#45;&gt;Node6</title>
<g id="a_edge6_Node000005_Node000006"><a xlink:title=" ">
<path fill="none" stroke="#63b8ff" d="M191.28,-10C181.61,-10 171.29,-10 161,-10"/>
<polygon fill="#63b8ff" stroke="#63b8ff" points="191.21,-13.5 201.21,-10 191.21,-6.5 191.21,-13.5"/>
</a>
</g>
</g>
</g>
</svg>
