<?xml version="1.0" encoding="UTF-8" standalone="no"?>
<!DOCTYPE svg PUBLIC "-//W3C//DTD SVG 1.1//EN"
 "http://www.w3.org/Graphics/SVG/1.1/DTD/svg11.dtd">
<!-- Generated by graphviz version 10.0.1 (20240210.2158)
 -->
<!-- Title: ace::math::root Pages: 1 -->
<svg width="338pt" height="104pt"
 viewBox="0.00 0.00 338.00 104.00" xmlns="http://www.w3.org/2000/svg" xmlns:xlink="http://www.w3.org/1999/xlink">
<g id="graph0" class="graph" transform="scale(1 1) rotate(0) translate(4 100)">
<title>ace::math::root</title>
<!-- Node1 -->
<g id="Node000001" class="node">
<title>Node1</title>
<g id="a_Node000001"><a xlink:title="Calculate the n&#39;th root of a number.">
<polygon fill="#999999" stroke="#666666" points="82,-58 0,-58 0,-38 82,-38 82,-58"/>
<text text-anchor="middle" x="41" y="-44.5" font-family="Helvetica,sans-Serif" font-size="10.00">ace::math::root</text>
</a>
</g>
</g>
<!-- Node2 -->
<g id="Node000002" class="node">
<title>Node2</title>
<g id="a_Node000002"><a xlink:href="../../d5/d0f/namespaceace_1_1math.html#a8817b5477b6aa93591bab27abdb9d64e" target="_top" xlink:title="Newton&#39;s method cbrt implementation, compatible with constexpr evaluation.">
<polygon fill="white" stroke="#666666" points="200,-96 118,-96 118,-76 200,-76 200,-96"/>
<text text-anchor="middle" x="159" y="-82.5" font-family="Helvetica,sans-Serif" font-size="10.00">ace::math::cbrt</text>
</a>
</g>
</g>
<!-- Node1&#45;&gt;Node2 -->
<g id="edge1_Node000001_Node000002" class="edge">
<title>Node1&#45;&gt;Node2</title>
<g id="a_edge1_Node000001_Node000002"><a xlink:title=" ">
<path fill="none" stroke="#63b8ff" d="M74,-58.48C86.81,-62.68 101.75,-67.57 115.44,-72.06"/>
<polygon fill="#63b8ff" stroke="#63b8ff" points="114.07,-75.29 124.66,-75.08 116.25,-68.64 114.07,-75.29"/>
</a>
</g>
</g>
<!-- Node3 -->
<g id="Node000003" class="node">
<title>Node3</title>
<g id="a_Node000003"><a xlink:href="../../d5/d0f/namespaceace_1_1math.html#abbf6692848afd0e5861c84feae9d4a1a" target="_top" xlink:title="Checks if given 2 numbers are equal, a generic function for all types.">
<polygon fill="white" stroke="#666666" points="330,-58 236,-58 236,-38 330,-38 330,-58"/>
<text text-anchor="middle" x="283" y="-44.5" font-family="Helvetica,sans-Serif" font-size="10.00">ace::math::equals</text>
</a>
</g>
</g>
<!-- Node1&#45;&gt;Node3 -->
<g id="edge3_Node000001_Node000003" class="edge">
<title>Node1&#45;&gt;Node3</title>
<g id="a_edge3_Node000001_Node000003"><a xlink:title=" ">
<path fill="none" stroke="#63b8ff" d="M82.44,-48C121.32,-48 180.46,-48 224.28,-48"/>
<polygon fill="#63b8ff" stroke="#63b8ff" points="224.12,-51.5 234.12,-48 224.12,-44.5 224.12,-51.5"/>
</a>
</g>
</g>
<!-- Node4 -->
<g id="Node000004" class="node">
<title>Node4</title>
<g id="a_Node000004"><a xlink:href="../../d5/d0f/namespaceace_1_1math.html#a934ea1d09debbfd89edc14bd99c2f665" target="_top" xlink:title="Newton&#39;s method sqrt implementation, compatible with constexpr evaluation.">
<polygon fill="white" stroke="#666666" points="200,-20 118,-20 118,0 200,0 200,-20"/>
<text text-anchor="middle" x="159" y="-6.5" font-family="Helvetica,sans-Serif" font-size="10.00">ace::math::sqrt</text>
</a>
</g>
</g>
<!-- Node1&#45;&gt;Node4 -->
<g id="edge4_Node000001_Node000004" class="edge">
<title>Node1&#45;&gt;Node4</title>
<g id="a_edge4_Node000001_Node000004"><a xlink:title=" ">
<path fill="none" stroke="#63b8ff" d="M74,-37.52C86.81,-33.32 101.75,-28.43 115.44,-23.94"/>
<polygon fill="#63b8ff" stroke="#63b8ff" points="116.25,-27.36 124.66,-20.92 114.07,-20.71 116.25,-27.36"/>
</a>
</g>
</g>
<!-- Node2&#45;&gt;Node3 -->
<g id="edge2_Node000002_Node000003" class="edge">
<title>Node2&#45;&gt;Node3</title>
<g id="a_edge2_Node000002_Node000003"><a xlink:title=" ">
<path fill="none" stroke="#63b8ff" d="M193.66,-75.52C207.26,-71.28 223.15,-66.33 237.67,-61.81"/>
<polygon fill="#63b8ff" stroke="#63b8ff" points="238.5,-65.22 247,-58.9 236.42,-58.53 238.5,-65.22"/>
</a>
</g>
</g>
<!-- Node4&#45;&gt;Node3 -->
<g id="edge5_Node000004_Node000003" class="edge">
<title>Node4&#45;&gt;Node3</title>
<g id="a_edge5_Node000004_Node000003"><a xlink:title=" ">
<path fill="none" stroke="#63b8ff" d="M193.66,-20.48C207.26,-24.72 223.15,-29.67 237.67,-34.19"/>
<polygon fill="#63b8ff" stroke="#63b8ff" points="236.42,-37.47 247,-37.1 238.5,-30.78 236.42,-37.47"/>
</a>
</g>
</g>
</g>
</svg>
