<?xml version="1.0" encoding="UTF-8" standalone="no"?>
<!DOCTYPE svg PUBLIC "-//W3C//DTD SVG 1.1//EN"
 "http://www.w3.org/Graphics/SVG/1.1/DTD/svg11.dtd">
<!-- Generated by graphviz version 10.0.1 (20240210.2158)
 -->
<!-- Title: AETimer Pages: 1 -->
<svg width="1325pt" height="401pt"
 viewBox="0.00 0.00 1325.30 401.00" xmlns="http://www.w3.org/2000/svg" xmlns:xlink="http://www.w3.org/1999/xlink">
<g id="graph0" class="graph" transform="scale(1 1) rotate(0) translate(4 397)">
<title>AETimer</title>
<!-- Node1 -->
<g id="Node000001" class="node">
<title>Node1</title>
<g id="a_Node000001"><a xlink:title="This module is the engine&#39;s tick timer.">
<polygon fill="#999999" stroke="#666666" points="1317.3,-155 1263.8,-155 1263.8,-135 1317.3,-135 1317.3,-155"/>
<text text-anchor="middle" x="1290.55" y="-141.5" font-family="Helvetica,sans-Serif" font-size="10.00">AETimer</text>
</a>
</g>
</g>
<!-- Node2 -->
<g id="Node000002" class="node">
<title>Node2</title>
<g id="a_Node000002"><a xlink:href="../../d0/d8a/class_____a_e_module_base.html" target="_top" xlink:title=" ">
<polygon fill="white" stroke="#666666" points="908.8,-300 759.3,-300 759.3,-280 908.8,-280 908.8,-300"/>
<text text-anchor="middle" x="834.05" y="-286.5" font-family="Helvetica,sans-Serif" font-size="10.00">__AEModuleBase&lt; AETimer &gt;</text>
</a>
</g>
</g>
<!-- Node2&#45;&gt;Node1 -->
<g id="edge1_Node000001_Node000002" class="edge">
<title>Node2&#45;&gt;Node1</title>
<g id="a_edge1_Node000001_Node000002"><a xlink:title=" ">
<path fill="none" stroke="#63b8ff" d="M920.39,-300.12C981.74,-305.1 1066.09,-307.18 1138.55,-292 1189.49,-281.33 1209.01,-281.81 1245.8,-245 1271.65,-219.13 1283.39,-175.43 1287.6,-155.49"/>
<polygon fill="#63b8ff" stroke="#63b8ff" points="920.98,-296.66 910.71,-299.29 920.38,-303.64 920.98,-296.66"/>
</a>
</g>
</g>
<!-- Node3 -->
<g id="Node000003" class="node">
<title>Node3</title>
<g id="a_Node000003"><a xlink:title=" ">
<polygon fill="white" stroke="#666666" points="398.3,-220 269.8,-220 269.8,-200 398.3,-200 398.3,-220"/>
<text text-anchor="middle" x="334.05" y="-206.5" font-family="Helvetica,sans-Serif" font-size="10.00">std::atomic&lt; std::size_t &gt;</text>
</a>
</g>
</g>
<!-- Node3&#45;&gt;Node2 -->
<g id="edge2_Node000002_Node000003" class="edge">
<title>Node3&#45;&gt;Node2</title>
<g id="a_edge2_Node000002_Node000003"><a xlink:title=" ">
<path fill="none" stroke="#9a32cd" stroke-dasharray="5,2" d="M409.91,-219.12C487.63,-228.7 603.92,-243.42 648.3,-251 674.15,-255.41 739.86,-269.54 785.5,-279.52"/>
<polygon fill="#9a32cd" stroke="#9a32cd" points="410.6,-215.67 400.24,-217.93 409.74,-222.62 410.6,-215.67"/>
</a>
</g>
<text text-anchor="middle" x="589.68" y="-253.5" font-family="Helvetica,sans-Serif" font-size="10.00" fill="grey"> m_ullModulesAlive</text>
</g>
<!-- Node10 -->
<g id="Node000010" class="node">
<title>Node10</title>
<g id="a_Node000010"><a xlink:href="../../d0/d8a/class_____a_e_module_base.html" target="_top" xlink:title="This is a base class for all the modules in the engine; all basic modules inherit from it.">
<polygon fill="white" stroke="#666666" points="648.3,-201 531.05,-201 531.05,-181 648.3,-181 648.3,-201"/>
<text text-anchor="middle" x="589.68" y="-187.5" font-family="Helvetica,sans-Serif" font-size="10.00">__AEModuleBase&lt; T &gt;</text>
</a>
</g>
</g>
<!-- Node3&#45;&gt;Node10 -->
<g id="edge11_Node000010_Node000003" class="edge">
<title>Node3&#45;&gt;Node10</title>
<g id="a_edge11_Node000010_Node000003"><a xlink:title=" ">
<path fill="none" stroke="#9a32cd" stroke-dasharray="5,2" d="M409.9,-204.39C448.47,-201.5 494.79,-198.03 530.62,-195.35"/>
<polygon fill="#9a32cd" stroke="#9a32cd" points="409.94,-200.88 400.23,-205.12 410.47,-207.86 409.94,-200.88"/>
</a>
</g>
<text text-anchor="middle" x="464.68" y="-205.5" font-family="Helvetica,sans-Serif" font-size="10.00" fill="grey"> m_ullModulesAlive</text>
</g>
<!-- Node12 -->
<g id="Node000012" class="node">
<title>Node12</title>
<g id="a_Node000012"><a xlink:href="../../d0/d8a/class_____a_e_module_base.html" target="_top" xlink:title=" ">
<polygon fill="white" stroke="#666666" points="910.68,-174 757.43,-174 757.43,-154 910.68,-154 910.68,-174"/>
<text text-anchor="middle" x="834.05" y="-160.5" font-family="Helvetica,sans-Serif" font-size="10.00">__AEModuleBase&lt; AEFrame &gt;</text>
</a>
</g>
</g>
<!-- Node3&#45;&gt;Node12 -->
<g id="edge16_Node000012_Node000003" class="edge">
<title>Node3&#45;&gt;Node12</title>
<g id="a_edge16_Node000012_Node000003"><a xlink:title=" ">
<path fill="none" stroke="#9a32cd" stroke-dasharray="5,2" d="M354.66,-192.11C370.13,-179.28 392.94,-163.06 416.3,-156 544.29,-117.35 704.59,-138.65 783.91,-153.5"/>
<polygon fill="#9a32cd" stroke="#9a32cd" points="352.47,-189.38 347.18,-198.56 357.04,-194.68 352.47,-189.38"/>
</a>
</g>
<text text-anchor="middle" x="589.68" y="-138.5" font-family="Helvetica,sans-Serif" font-size="10.00" fill="grey"> m_ullModulesAlive</text>
</g>
<!-- Node4 -->
<g id="Node000004" class="node">
<title>Node4</title>
<g id="a_Node000004"><a xlink:title=" ">
<polygon fill="white" stroke="#666666" points="144.18,-238 101.93,-238 101.93,-218 144.18,-218 144.18,-238"/>
<text text-anchor="middle" x="123.05" y="-224.5" font-family="Helvetica,sans-Serif" font-size="10.00">size_t</text>
</a>
</g>
</g>
<!-- Node4&#45;&gt;Node3 -->
<g id="edge3_Node000003_Node000004" class="edge">
<title>Node4&#45;&gt;Node3</title>
<g id="a_edge3_Node000003_Node000004"><a xlink:title=" ">
<path fill="none" stroke="#9a32cd" stroke-dasharray="5,2" d="M155.55,-225.29C185.67,-222.69 231.94,-218.71 269.7,-215.46"/>
<polygon fill="#9a32cd" stroke="#9a32cd" points="155.64,-221.77 145.98,-226.11 156.24,-228.74 155.64,-221.77"/>
</a>
</g>
<text text-anchor="middle" x="218.43" y="-224.5" font-family="Helvetica,sans-Serif" font-size="10.00" fill="grey"> ptr</text>
</g>
<!-- Node5 -->
<g id="Node000005" class="node">
<title>Node5</title>
<g id="a_Node000005"><a xlink:title=" ">
<polygon fill="white" stroke="#666666" points="167.05,-200 79.05,-200 79.05,-180 167.05,-180 167.05,-200"/>
<text text-anchor="middle" x="123.05" y="-186.5" font-family="Helvetica,sans-Serif" font-size="10.00">std::atomic&lt; T &gt;</text>
</a>
</g>
</g>
<!-- Node5&#45;&gt;Node3 -->
<g id="edge4_Node000003_Node000005" class="edge">
<title>Node5&#45;&gt;Node3</title>
<g id="a_edge4_Node000003_Node000005"><a xlink:title=" ">
<path fill="none" stroke="orange" stroke-dasharray="5,2" d="M178.96,-194.43C201.53,-196.33 227.94,-198.65 251.8,-201 257.59,-201.57 263.61,-202.19 269.64,-202.82"/>
<polygon fill="orange" stroke="orange" points="179.3,-190.95 169.04,-193.61 178.72,-197.92 179.3,-190.95"/>
</a>
</g>
<text text-anchor="middle" x="218.43" y="-203.5" font-family="Helvetica,sans-Serif" font-size="10.00" fill="grey"> &lt; std::size_t &gt;</text>
</g>
<!-- Node7 -->
<g id="Node000007" class="node">
<title>Node7</title>
<g id="a_Node000007"><a xlink:title=" ">
<polygon fill="white" stroke="#666666" points="385.55,-104 282.55,-104 282.55,-84 385.55,-84 385.55,-104"/>
<text text-anchor="middle" x="334.05" y="-90.5" font-family="Helvetica,sans-Serif" font-size="10.00">std::atomic&lt; ullint &gt;</text>
</a>
</g>
</g>
<!-- Node5&#45;&gt;Node7 -->
<g id="edge8_Node000007_Node000005" class="edge">
<title>Node5&#45;&gt;Node7</title>
<g id="a_edge8_Node000007_Node000005"><a xlink:title=" ">
<path fill="none" stroke="orange" stroke-dasharray="5,2" d="M157.25,-174.75C200.05,-155.09 273.35,-121.42 310.31,-104.44"/>
<polygon fill="orange" stroke="orange" points="155.82,-171.56 148.19,-178.91 158.74,-177.92 155.82,-171.56"/>
</a>
</g>
<text text-anchor="middle" x="218.43" y="-163.5" font-family="Helvetica,sans-Serif" font-size="10.00" fill="grey"> &lt; ullint &gt;</text>
</g>
<!-- Node20 -->
<g id="Node000020" class="node">
<title>Node20</title>
<g id="a_Node000020"><a xlink:title=" ">
<polygon fill="white" stroke="#666666" points="1138.55,-283 1037.8,-283 1037.8,-263 1138.55,-263 1138.55,-283"/>
<text text-anchor="middle" x="1088.18" y="-269.5" font-family="Helvetica,sans-Serif" font-size="10.00">std::atomic&lt; bool &gt;</text>
</a>
</g>
</g>
<!-- Node5&#45;&gt;Node20 -->
<g id="edge30_Node000020_Node000005" class="edge">
<title>Node5&#45;&gt;Node20</title>
<g id="a_edge30_Node000020_Node000005"><a xlink:title=" ">
<path fill="none" stroke="orange" stroke-dasharray="5,2" d="M163.68,-206.31C164.85,-207.17 165.98,-208.07 167.05,-209 178.5,-218.95 175.52,-226.2 185.05,-238 242.49,-309.18 241.58,-381 333.05,-381 333.05,-381 333.05,-381 835.05,-381 933.62,-381 1037.63,-310.39 1073.83,-283.36"/>
<polygon fill="orange" stroke="orange" points="165.78,-203.49 155.42,-201.27 162.13,-209.47 165.78,-203.49"/>
</a>
</g>
<text text-anchor="middle" x="589.68" y="-383.5" font-family="Helvetica,sans-Serif" font-size="10.00" fill="grey"> &lt; bool &gt;</text>
</g>
<!-- Node6 -->
<g id="Node000006" class="node">
<title>Node6</title>
<g id="a_Node000006"><a xlink:title=" ">
<polygon fill="white" stroke="#666666" points="28.8,-200 0,-200 0,-180 28.8,-180 28.8,-200"/>
<text text-anchor="middle" x="14.4" y="-186.5" font-family="Helvetica,sans-Serif" font-size="10.00">T</text>
</a>
</g>
</g>
<!-- Node6&#45;&gt;Node5 -->
<g id="edge5_Node000005_Node000006" class="edge">
<title>Node6&#45;&gt;Node5</title>
<g id="a_edge5_Node000005_Node000006"><a xlink:title=" ">
<path fill="none" stroke="#9a32cd" stroke-dasharray="5,2" d="M40.2,-190C51.66,-190 65.6,-190 78.71,-190"/>
<polygon fill="#9a32cd" stroke="#9a32cd" points="40.42,-186.5 30.42,-190 40.42,-193.5 40.42,-186.5"/>
</a>
</g>
<text text-anchor="middle" x="53.93" y="-192.5" font-family="Helvetica,sans-Serif" font-size="10.00" fill="grey"> ptr</text>
</g>
<!-- Node7&#45;&gt;Node1 -->
<g id="edge27_Node000001_Node000007" class="edge">
<title>Node7&#45;&gt;Node1</title>
<g id="a_edge27_Node000001_Node000007"><a xlink:title=" ">
<path fill="none" stroke="#9a32cd" stroke-dasharray="5,2" d="M360.59,-77.6C405.06,-50.66 500.42,0 588.68,0 588.68,0 588.68,0 1089.18,0 1168.59,0 1185.96,-33.79 1245.8,-86 1262.33,-100.42 1276.4,-122.1 1283.85,-134.77"/>
<polygon fill="#9a32cd" stroke="#9a32cd" points="358.86,-74.55 352.19,-82.79 362.54,-80.51 358.86,-74.55"/>
</a>
</g>
<text text-anchor="middle" x="834.05" y="-2.5" font-family="Helvetica,sans-Serif" font-size="10.00" fill="grey"> m_ullTicks</text>
</g>
<!-- Node7&#45;&gt;Node2 -->
<g id="edge6_Node000002_Node000007" class="edge">
<title>Node7&#45;&gt;Node2</title>
<g id="a_edge6_Node000002_Node000007"><a xlink:title=" ">
<path fill="none" stroke="#9a32cd" stroke-dasharray="5,2" d="M397.16,-90.65C461.5,-89.03 564.2,-91.7 648.3,-118 687.75,-130.34 705.05,-130.99 728.55,-165 755.71,-204.31 713.58,-236.41 746.55,-271 750.16,-274.78 754.33,-277.9 758.86,-280.45"/>
<polygon fill="#9a32cd" stroke="#9a32cd" points="397.41,-87.14 387.52,-90.94 397.62,-94.14 397.41,-87.14"/>
</a>
</g>
<text text-anchor="middle" x="589.68" y="-120.5" font-family="Helvetica,sans-Serif" font-size="10.00" fill="grey"> m_ullInstanceCounter</text>
</g>
<!-- Node7&#45;&gt;Node10 -->
<g id="edge12_Node000010_Node000007" class="edge">
<title>Node7&#45;&gt;Node10</title>
<g id="a_edge12_Node000010_Node000007"><a xlink:title=" ">
<path fill="none" stroke="#9a32cd" stroke-dasharray="5,2" d="M372.89,-108.47C424.53,-128.22 515.86,-163.15 561.34,-180.55"/>
<polygon fill="#9a32cd" stroke="#9a32cd" points="374.2,-105.22 363.61,-104.92 371.7,-111.76 374.2,-105.22"/>
</a>
</g>
<text text-anchor="middle" x="464.68" y="-161.5" font-family="Helvetica,sans-Serif" font-size="10.00" fill="grey"> m_ullInstanceCounter</text>
</g>
<!-- Node7&#45;&gt;Node12 -->
<g id="edge17_Node000012_Node000007" class="edge">
<title>Node7&#45;&gt;Node12</title>
<g id="a_edge17_Node000012_Node000007"><a xlink:title=" ">
<path fill="none" stroke="#9a32cd" stroke-dasharray="5,2" d="M387.22,-80.98C449.44,-67.16 556.55,-48.74 648.3,-60 684.78,-64.48 702.22,-54.35 728.55,-80 750.02,-100.92 724.79,-124.38 746.55,-145 750.12,-148.38 754.15,-151.22 758.47,-153.59"/>
<polygon fill="#9a32cd" stroke="#9a32cd" points="386.59,-77.54 377.62,-83.17 388.14,-84.36 386.59,-77.54"/>
</a>
</g>
<text text-anchor="middle" x="589.68" y="-62.5" font-family="Helvetica,sans-Serif" font-size="10.00" fill="grey"> m_ullInstanceCounter</text>
</g>
<!-- Node8 -->
<g id="Node000008" class="node">
<title>Node8</title>
<g id="a_Node000008"><a xlink:title=" ">
<polygon fill="white" stroke="#666666" points="141.18,-104 104.93,-104 104.93,-84 141.18,-84 141.18,-104"/>
<text text-anchor="middle" x="123.05" y="-90.5" font-family="Helvetica,sans-Serif" font-size="10.00">ullint</text>
</a>
</g>
</g>
<!-- Node8&#45;&gt;Node7 -->
<g id="edge7_Node000007_Node000008" class="edge">
<title>Node8&#45;&gt;Node7</title>
<g id="a_edge7_Node000007_Node000008"><a xlink:title=" ">
<path fill="none" stroke="#9a32cd" stroke-dasharray="5,2" d="M152.7,-94C185.99,-94 241.54,-94 282.22,-94"/>
<polygon fill="#9a32cd" stroke="#9a32cd" points="153.02,-90.5 143.02,-94 153.02,-97.5 153.02,-90.5"/>
</a>
</g>
<text text-anchor="middle" x="218.43" y="-96.5" font-family="Helvetica,sans-Serif" font-size="10.00" fill="grey"> ptr</text>
</g>
<!-- Node9 -->
<g id="Node000009" class="node">
<title>Node9</title>
<g id="a_Node000009"><a xlink:title=" ">
<polygon fill="white" stroke="#666666" points="365.68,-307 302.43,-307 302.43,-287 365.68,-287 365.68,-307"/>
<text text-anchor="middle" x="334.05" y="-293.5" font-family="Helvetica,sans-Serif" font-size="10.00">const ullint</text>
</a>
</g>
</g>
<!-- Node9&#45;&gt;Node2 -->
<g id="edge9_Node000002_Node000009" class="edge">
<title>Node9&#45;&gt;Node2</title>
<g id="a_edge9_Node000002_Node000009"><a xlink:title=" ">
<path fill="none" stroke="#9a32cd" stroke-dasharray="5,2" d="M377.22,-305.67C389.74,-307.87 403.52,-309.91 416.3,-311 554.68,-322.83 590.02,-308.82 728.55,-299 738.36,-298.3 748.68,-297.5 758.86,-296.67"/>
<polygon fill="#9a32cd" stroke="#9a32cd" points="378.1,-302.27 367.63,-303.91 376.83,-309.16 378.1,-302.27"/>
</a>
</g>
<text text-anchor="middle" x="589.68" y="-317.5" font-family="Helvetica,sans-Serif" font-size="10.00" fill="grey"> m_ullModuleId</text>
</g>
<!-- Node9&#45;&gt;Node10 -->
<g id="edge13_Node000010_Node000009" class="edge">
<title>Node9&#45;&gt;Node10</title>
<g id="a_edge13_Node000010_Node000009"><a xlink:title=" ">
<path fill="none" stroke="#9a32cd" stroke-dasharray="5,2" d="M370.71,-282.06C409.99,-265.61 475.01,-238.39 531.05,-215 541.75,-210.53 553.57,-205.61 563.71,-201.39"/>
<polygon fill="#9a32cd" stroke="#9a32cd" points="369.37,-278.83 361.5,-285.92 372.08,-285.28 369.37,-278.83"/>
</a>
</g>
<text text-anchor="middle" x="464.68" y="-263.5" font-family="Helvetica,sans-Serif" font-size="10.00" fill="grey"> m_ullModuleId</text>
</g>
<!-- Node9&#45;&gt;Node12 -->
<g id="edge18_Node000012_Node000009" class="edge">
<title>Node9&#45;&gt;Node12</title>
<g id="a_edge18_Node000012_Node000009"><a xlink:title=" ">
<path fill="none" stroke="#9a32cd" stroke-dasharray="5,2" d="M377.31,-296.58C438.22,-295.05 553.76,-288.65 648.3,-263 686.03,-252.77 701.37,-255.1 728.55,-227 743.24,-211.81 730.38,-196.6 746.55,-183 750.55,-179.63 755.01,-176.83 759.75,-174.49"/>
<polygon fill="#9a32cd" stroke="#9a32cd" points="377.31,-293.08 367.39,-296.8 377.46,-300.08 377.31,-293.08"/>
</a>
</g>
<text text-anchor="middle" x="589.68" y="-286.5" font-family="Helvetica,sans-Serif" font-size="10.00" fill="grey"> m_ullModuleId</text>
</g>
<!-- Node10&#45;&gt;Node2 -->
<g id="edge10_Node000002_Node000010" class="edge">
<title>Node10&#45;&gt;Node2</title>
<g id="a_edge10_Node000002_Node000010"><a xlink:title=" ">
<path fill="none" stroke="orange" stroke-dasharray="5,2" d="M660.01,-194.21C688.8,-196.9 717.96,-201.87 728.55,-211 749.63,-229.18 726.14,-252.07 746.55,-271 750.27,-274.45 754.47,-277.33 758.96,-279.72"/>
<polygon fill="orange" stroke="orange" points="660.37,-190.72 650.12,-193.37 659.79,-197.7 660.37,-190.72"/>
</a>
</g>
<text text-anchor="middle" x="697.43" y="-213.5" font-family="Helvetica,sans-Serif" font-size="10.00" fill="grey"> &lt; AETimer &gt;</text>
</g>
<!-- Node10&#45;&gt;Node12 -->
<g id="edge19_Node000012_Node000010" class="edge">
<title>Node10&#45;&gt;Node12</title>
<g id="a_edge19_Node000012_Node000010"><a xlink:title=" ">
<path fill="none" stroke="orange" stroke-dasharray="5,2" d="M650.1,-178.49C655.56,-177.56 661.02,-176.71 666.3,-176 695.93,-172.01 728.71,-169.29 757.31,-167.46"/>
<polygon fill="orange" stroke="orange" points="649.65,-175.02 640.43,-180.23 650.89,-181.91 649.65,-175.02"/>
</a>
</g>
<text text-anchor="middle" x="697.43" y="-178.5" font-family="Helvetica,sans-Serif" font-size="10.00" fill="grey"> &lt; AEFrame &gt;</text>
</g>
<!-- Node11 -->
<g id="Node000011" class="node">
<title>Node11</title>
<g id="a_Node000011"><a xlink:href="../../df/dd7/class_a_e_frame.html" target="_top" xlink:title="This module is the engine&#39;s precise frame/loop&#45;cycle limiter.">
<polygon fill="white" stroke="#666666" points="1116.8,-174 1059.55,-174 1059.55,-154 1116.8,-154 1116.8,-174"/>
<text text-anchor="middle" x="1088.18" y="-160.5" font-family="Helvetica,sans-Serif" font-size="10.00">AEFrame</text>
</a>
</g>
</g>
<!-- Node11&#45;&gt;Node1 -->
<g id="edge14_Node000001_Node000011" class="edge">
<title>Node11&#45;&gt;Node1</title>
<g id="a_edge14_Node000001_Node000011"><a xlink:title=" ">
<path fill="none" stroke="#9a32cd" stroke-dasharray="5,2" d="M1128.46,-160.27C1168.41,-156.49 1229.17,-150.73 1263.52,-147.47"/>
<polygon fill="#9a32cd" stroke="#9a32cd" points="1128.17,-156.79 1118.54,-161.22 1128.83,-163.76 1128.17,-156.79"/>
</a>
</g>
<text text-anchor="middle" x="1201.18" y="-159.5" font-family="Helvetica,sans-Serif" font-size="10.00" fill="grey"> m_rDelay</text>
</g>
<!-- Node12&#45;&gt;Node11 -->
<g id="edge15_Node000011_Node000012" class="edge">
<title>Node12&#45;&gt;Node11</title>
<g id="a_edge15_Node000011_Node000012"><a xlink:title=" ">
<path fill="none" stroke="#63b8ff" d="M922.37,-164C970.2,-164 1026.28,-164 1059.15,-164"/>
<polygon fill="#63b8ff" stroke="#63b8ff" points="922.55,-160.5 912.55,-164 922.55,-167.5 922.55,-160.5"/>
</a>
</g>
</g>
<!-- Node13 -->
<g id="Node000013" class="node">
<title>Node13</title>
<g id="a_Node000013"><a xlink:title=" ">
<polygon fill="white" stroke="#666666" points="918.55,-98 749.55,-98 749.55,-78 918.55,-78 918.55,-98"/>
<text text-anchor="middle" x="834.05" y="-84.5" font-family="Helvetica,sans-Serif" font-size="10.00">static constexpr timeDur&lt; double &gt;</text>
</a>
</g>
</g>
<!-- Node13&#45;&gt;Node11 -->
<g id="edge20_Node000011_Node000013" class="edge">
<title>Node13&#45;&gt;Node11</title>
<g id="a_edge20_Node000011_Node000013"><a xlink:title=" ">
<path fill="none" stroke="#9a32cd" stroke-dasharray="5,2" d="M930.12,-90.42C960.58,-94.75 993.26,-103.39 1019.8,-120 1031.41,-127.26 1026.96,-136.64 1037.8,-145 1044.13,-149.88 1051.86,-153.64 1059.3,-156.47"/>
<polygon fill="#9a32cd" stroke="#9a32cd" points="930.88,-86.99 920.52,-89.21 930,-93.94 930.88,-86.99"/>
</a>
</g>
<text text-anchor="middle" x="979.68" y="-122.5" font-family="Helvetica,sans-Serif" font-size="10.00" fill="grey"> m_tdResetTime</text>
</g>
<!-- Node14 -->
<g id="Node000014" class="node">
<title>Node14</title>
<g id="a_Node000014"><a xlink:title=" ">
<polygon fill="white" stroke="#666666" points="882.18,-136 785.93,-136 785.93,-116 882.18,-116 882.18,-136"/>
<text text-anchor="middle" x="834.05" y="-122.5" font-family="Helvetica,sans-Serif" font-size="10.00">timeDur&lt; double &gt;</text>
</a>
</g>
</g>
<!-- Node14&#45;&gt;Node11 -->
<g id="edge21_Node000011_Node000014" class="edge">
<title>Node14&#45;&gt;Node11</title>
<g id="a_edge21_Node000011_Node000014"><a xlink:title=" ">
<path fill="none" stroke="#9a32cd" stroke-dasharray="5,2" d="M893.76,-131.26C930.2,-134.95 977.9,-140.56 1019.8,-148 1032.82,-150.31 1047.09,-153.59 1059.13,-156.58"/>
<polygon fill="#9a32cd" stroke="#9a32cd" points="894.15,-127.78 883.86,-130.27 893.46,-134.74 894.15,-127.78"/>
</a>
</g>
<text text-anchor="middle" x="979.68" y="-150.5" font-family="Helvetica,sans-Serif" font-size="10.00" fill="grey"> m_tdChronoDelay</text>
</g>
<!-- Node15 -->
<g id="Node000015" class="node">
<title>Node15</title>
<g id="a_Node000015"><a xlink:title=" ">
<polygon fill="white" stroke="#666666" points="921.55,-224 746.55,-224 746.55,-192 921.55,-192 921.55,-224"/>
<text text-anchor="start" x="754.55" y="-210.5" font-family="Helvetica,sans-Serif" font-size="10.00">timePoint&lt; AEFrameClock, decltype</text>
<text text-anchor="middle" x="834.05" y="-198.5" font-family="Helvetica,sans-Serif" font-size="10.00">(m_tdChronoDelay)&gt;</text>
</a>
</g>
</g>
<!-- Node15&#45;&gt;Node11 -->
<g id="edge22_Node000011_Node000015" class="edge">
<title>Node15&#45;&gt;Node11</title>
<g id="a_edge22_Node000011_Node000015"><a xlink:title=" ">
<path fill="none" stroke="#9a32cd" stroke-dasharray="5,2" d="M932.72,-192.96C960.87,-188.41 991.59,-183.22 1019.8,-178 1032.84,-175.59 1047.24,-172.64 1059.37,-170.06"/>
<polygon fill="#9a32cd" stroke="#9a32cd" points="932.47,-189.46 923.15,-194.5 933.58,-196.37 932.47,-189.46"/>
</a>
</g>
<text text-anchor="middle" x="979.68" y="-193.5" font-family="Helvetica,sans-Serif" font-size="10.00" fill="grey"> m_tpTimepoint</text>
</g>
<!-- Node16 -->
<g id="Node000016" class="node">
<title>Node16</title>
<g id="a_Node000016"><a xlink:title=" ">
<polygon fill="white" stroke="#666666" points="856.3,-60 811.8,-60 811.8,-40 856.3,-40 856.3,-60"/>
<text text-anchor="middle" x="834.05" y="-46.5" font-family="Helvetica,sans-Serif" font-size="10.00">double</text>
</a>
</g>
</g>
<!-- Node16&#45;&gt;Node11 -->
<g id="edge23_Node000011_Node000016" class="edge">
<title>Node16&#45;&gt;Node11</title>
<g id="a_edge23_Node000011_Node000016"><a xlink:title=" ">
<path fill="none" stroke="#9a32cd" stroke-dasharray="5,2" d="M867.9,-44.86C908.72,-40.45 978.09,-39.78 1019.8,-77 1043.13,-97.82 1016.93,-121.73 1037.8,-145 1043.44,-151.29 1051.41,-155.51 1059.29,-158.34"/>
<polygon fill="#9a32cd" stroke="#9a32cd" points="867.69,-41.36 858.2,-46.05 868.55,-48.31 867.69,-41.36"/>
</a>
</g>
<text text-anchor="middle" x="979.68" y="-79.5" font-family="Helvetica,sans-Serif" font-size="10.00" fill="grey"> m_fFPS</text>
</g>
<!-- Node17 -->
<g id="Node000017" class="node">
<title>Node17</title>
<g id="a_Node000017"><a xlink:title=" ">
<polygon fill="white" stroke="#666666" points="851.05,-262 817.05,-262 817.05,-242 851.05,-242 851.05,-262"/>
<text text-anchor="middle" x="834.05" y="-248.5" font-family="Helvetica,sans-Serif" font-size="10.00">bool</text>
</a>
</g>
</g>
<!-- Node17&#45;&gt;Node11 -->
<g id="edge24_Node000011_Node000017" class="edge">
<title>Node17&#45;&gt;Node11</title>
<g id="a_edge24_Node000011_Node000017"><a xlink:title=" ">
<path fill="none" stroke="#9a32cd" stroke-dasharray="5,2" d="M862.82,-248.32C899.84,-242.74 966.84,-230.23 1019.8,-207 1039.75,-198.25 1060.57,-184.06 1073.69,-174.39"/>
<polygon fill="#9a32cd" stroke="#9a32cd" points="862.38,-244.85 852.98,-249.74 863.37,-251.78 862.38,-244.85"/>
</a>
</g>
<text text-anchor="middle" x="979.68" y="-234.5" font-family="Helvetica,sans-Serif" font-size="10.00" fill="grey"> m_bNoDelay</text>
</g>
<!-- Node17&#45;&gt;Node20 -->
<g id="edge29_Node000020_Node000017" class="edge">
<title>Node17&#45;&gt;Node20</title>
<g id="a_edge29_Node000020_Node000017"><a xlink:title=" ">
<path fill="none" stroke="#9a32cd" stroke-dasharray="5,2" d="M862.41,-254.28C904.31,-257.77 985,-264.49 1037.43,-268.86"/>
<polygon fill="#9a32cd" stroke="#9a32cd" points="862.97,-250.81 852.71,-253.47 862.39,-257.79 862.97,-250.81"/>
</a>
</g>
<text text-anchor="middle" x="979.68" y="-269.5" font-family="Helvetica,sans-Serif" font-size="10.00" fill="grey"> ptr</text>
</g>
<!-- Node18 -->
<g id="Node000018" class="node">
<title>Node18</title>
<g id="a_Node000018"><a xlink:title=" ">
<polygon fill="white" stroke="#666666" points="1119.43,-136 1056.93,-136 1056.93,-116 1119.43,-116 1119.43,-136"/>
<text text-anchor="middle" x="1088.18" y="-122.5" font-family="Helvetica,sans-Serif" font-size="10.00">std::thread</text>
</a>
</g>
</g>
<!-- Node18&#45;&gt;Node1 -->
<g id="edge25_Node000001_Node000018" class="edge">
<title>Node18&#45;&gt;Node1</title>
<g id="a_edge25_Node000001_Node000018"><a xlink:title=" ">
<path fill="none" stroke="#9a32cd" stroke-dasharray="5,2" d="M1131.17,-125.35C1162.86,-125.47 1207.3,-126.94 1245.8,-133 1251.56,-133.91 1257.64,-135.29 1263.38,-136.8"/>
<polygon fill="#9a32cd" stroke="#9a32cd" points="1131.2,-121.85 1121.21,-125.36 1131.21,-128.85 1131.2,-121.85"/>
</a>
</g>
<text text-anchor="middle" x="1201.18" y="-135.5" font-family="Helvetica,sans-Serif" font-size="10.00" fill="grey"> m_trdCounting</text>
</g>
<!-- Node19 -->
<g id="Node000019" class="node">
<title>Node19</title>
<g id="a_Node000019"><a xlink:title=" ">
<polygon fill="white" stroke="#666666" points="1119.43,-98 1056.93,-98 1056.93,-78 1119.43,-78 1119.43,-98"/>
<text text-anchor="middle" x="1088.18" y="-84.5" font-family="Helvetica,sans-Serif" font-size="10.00">std::mutex</text>
</a>
</g>
</g>
<!-- Node19&#45;&gt;Node1 -->
<g id="edge26_Node000001_Node000019" class="edge">
<title>Node19&#45;&gt;Node1</title>
<g id="a_edge26_Node000001_Node000019"><a xlink:title=" ">
<path fill="none" stroke="#9a32cd" stroke-dasharray="5,2" d="M1130.99,-87.45C1163.54,-88.44 1209.18,-93.04 1245.8,-109 1259.33,-114.89 1272.02,-126.24 1280.22,-134.63"/>
<polygon fill="#9a32cd" stroke="#9a32cd" points="1131.22,-83.95 1121.15,-87.26 1131.08,-90.95 1131.22,-83.95"/>
</a>
</g>
<text text-anchor="middle" x="1201.18" y="-111.5" font-family="Helvetica,sans-Serif" font-size="10.00" fill="grey"> m_mtxThreadMutex</text>
</g>
<!-- Node20&#45;&gt;Node1 -->
<g id="edge28_Node000001_Node000020" class="edge">
<title>Node20&#45;&gt;Node1</title>
<g id="a_edge28_Node000001_Node000020"><a xlink:title=" ">
<path fill="none" stroke="#9a32cd" stroke-dasharray="5,2" d="M1114.79,-256.66C1145.81,-236.87 1199.64,-202.51 1245.8,-173 1254.92,-167.17 1265.1,-160.66 1273.35,-155.38"/>
<polygon fill="#9a32cd" stroke="#9a32cd" points="1113.01,-253.64 1106.46,-261.97 1116.78,-259.54 1113.01,-253.64"/>
</a>
</g>
<text text-anchor="middle" x="1201.18" y="-231.5" font-family="Helvetica,sans-Serif" font-size="10.00" fill="grey"> m_bRunTrd</text>
</g>
</g>
</svg>
