<?xml version="1.0" encoding="UTF-8" standalone="no"?>
<!DOCTYPE svg PUBLIC "-//W3C//DTD SVG 1.1//EN"
 "http://www.w3.org/Graphics/SVG/1.1/DTD/svg11.dtd">
<!-- Generated by graphviz version 10.0.1 (20240210.2158)
 -->
<!-- Title: AEMisc/include/AEMathConst.hpp Pages: 1 -->
<svg width="740pt" height="196pt"
 viewBox="0.00 0.00 740.25 196.00" xmlns="http://www.w3.org/2000/svg" xmlns:xlink="http://www.w3.org/1999/xlink">
<g id="graph0" class="graph" transform="scale(1 1) rotate(0) translate(4 192)">
<title>AEMisc/include/AEMathConst.hpp</title>
<!-- Node1 -->
<g id="Node000001" class="node">
<title>Node1</title>
<g id="a_Node000001"><a xlink:title="This file contains the engine&#39;s math constants.">
<polygon fill="#999999" stroke="#666666" points="475.88,-188 309.12,-188 309.12,-168 475.88,-168 475.88,-188"/>
<text text-anchor="middle" x="392.5" y="-174.5" font-family="Helvetica,sans-Serif" font-size="10.00">AEMisc/include/AEMathConst.hpp</text>
</a>
</g>
</g>
<!-- Node2 -->
<g id="Node000002" class="node">
<title>Node2</title>
<g id="a_Node000002"><a xlink:href="../../d1/da4/_a_e_math_8hpp.html" target="_top" xlink:title="This file contains the engine&#39;s math and math&#45;related functions.">
<polygon fill="white" stroke="#666666" points="463.12,-132 321.88,-132 321.88,-112 463.12,-112 463.12,-132"/>
<text text-anchor="middle" x="392.5" y="-118.5" font-family="Helvetica,sans-Serif" font-size="10.00">AEMisc/include/AEMath.hpp</text>
</a>
</g>
</g>
<!-- Node1&#45;&gt;Node2 -->
<g id="edge1_Node000001_Node000002" class="edge">
<title>Node1&#45;&gt;Node2</title>
<g id="a_edge1_Node000001_Node000002"><a xlink:title=" ">
<path fill="none" stroke="#63b8ff" d="M392.5,-156.13C392.5,-147.9 392.5,-138.85 392.5,-132.3"/>
<polygon fill="#63b8ff" stroke="#63b8ff" points="389,-156.08 392.5,-166.08 396,-156.08 389,-156.08"/>
</a>
</g>
</g>
<!-- Node3 -->
<g id="Node000003" class="node">
<title>Node3</title>
<g id="a_Node000003"><a xlink:href="../../d0/dab/_a_e_log_parser_8hpp.html" target="_top" xlink:title=" ">
<polygon fill="white" stroke="#666666" points="187,-76 0,-76 0,-56 187,-56 187,-76"/>
<text text-anchor="middle" x="93.5" y="-62.5" font-family="Helvetica,sans-Serif" font-size="10.00">AELogParser/include/AELogParser.hpp</text>
</a>
</g>
</g>
<!-- Node2&#45;&gt;Node3 -->
<g id="edge2_Node000002_Node000003" class="edge">
<title>Node2&#45;&gt;Node3</title>
<g id="a_edge2_Node000002_Node000003"><a xlink:title=" ">
<path fill="none" stroke="#63b8ff" d="M328.81,-109.5C274.32,-99.66 196.82,-85.66 145.86,-76.46"/>
<polygon fill="#63b8ff" stroke="#63b8ff" points="328.12,-112.93 338.59,-111.26 329.37,-106.04 328.12,-112.93"/>
</a>
</g>
</g>
<!-- Node5 -->
<g id="Node000005" class="node">
<title>Node5</title>
<g id="a_Node000005"><a xlink:href="../../d2/d57/_a_e_math_trig_lookup_8hpp.html" target="_top" xlink:title="This file contains the engine&#39;s trigonometric function lookup tables.">
<polygon fill="white" stroke="#666666" points="393.75,-76 205.25,-76 205.25,-56 393.75,-56 393.75,-76"/>
<text text-anchor="middle" x="299.5" y="-62.5" font-family="Helvetica,sans-Serif" font-size="10.00">AEMisc/include/AEMathTrigLookup.hpp</text>
</a>
</g>
</g>
<!-- Node2&#45;&gt;Node5 -->
<g id="edge4_Node000002_Node000005" class="edge">
<title>Node2&#45;&gt;Node5</title>
<g id="a_edge4_Node000002_Node000005"><a xlink:title=" ">
<path fill="none" stroke="#63b8ff" d="M366.8,-106.08C350.51,-96.62 329.91,-84.66 315.83,-76.48"/>
<polygon fill="#63b8ff" stroke="#63b8ff" points="364.59,-108.84 374.99,-110.83 368.1,-102.79 364.59,-108.84"/>
</a>
</g>
</g>
<!-- Node6 -->
<g id="Node000006" class="node">
<title>Node6</title>
<g id="a_Node000006"><a xlink:href="../../dc/dc6/_a_e_timer_8hpp.html" target="_top" xlink:title="This file contains the engine&#39;s tick&#45;based timer.">
<polygon fill="white" stroke="#666666" points="558.75,-76 412.25,-76 412.25,-56 558.75,-56 558.75,-76"/>
<text text-anchor="middle" x="485.5" y="-62.5" font-family="Helvetica,sans-Serif" font-size="10.00">AETimer/include/AETimer.hpp</text>
</a>
</g>
</g>
<!-- Node2&#45;&gt;Node6 -->
<g id="edge5_Node000002_Node000006" class="edge">
<title>Node2&#45;&gt;Node6</title>
<g id="a_edge5_Node000002_Node000006"><a xlink:title=" ">
<path fill="none" stroke="#63b8ff" d="M418.2,-106.08C434.49,-96.62 455.09,-84.66 469.17,-76.48"/>
<polygon fill="#63b8ff" stroke="#63b8ff" points="416.9,-102.79 410.01,-110.83 420.41,-108.84 416.9,-102.79"/>
</a>
</g>
</g>
<!-- Node7 -->
<g id="Node000007" class="node">
<title>Node7</title>
<g id="a_Node000007"><a xlink:href="../../d7/d09/_a_e_vector_8hpp.html" target="_top" xlink:title=" ">
<polygon fill="white" stroke="#666666" points="732.25,-76 576.75,-76 576.75,-56 732.25,-56 732.25,-76"/>
<text text-anchor="middle" x="654.5" y="-62.5" font-family="Helvetica,sans-Serif" font-size="10.00">AEVector/include/AEVector.hpp</text>
</a>
</g>
</g>
<!-- Node2&#45;&gt;Node7 -->
<g id="edge6_Node000002_Node000007" class="edge">
<title>Node2&#45;&gt;Node7</title>
<g id="a_edge6_Node000002_Node000007"><a xlink:title=" ">
<path fill="none" stroke="#63b8ff" d="M449.51,-109.25C497.19,-99.42 564.34,-85.58 608.62,-76.46"/>
<polygon fill="#63b8ff" stroke="#63b8ff" points="449.01,-105.78 439.92,-111.23 450.42,-112.64 449.01,-105.78"/>
</a>
</g>
</g>
<!-- Node4 -->
<g id="Node000004" class="node">
<title>Node4</title>
<g id="a_Node000004"><a xlink:href="../../d2/d77/_a_e_log_parser_8cpp.html" target="_top" xlink:title=" ">
<polygon fill="white" stroke="#666666" points="178.38,-20 8.62,-20 8.62,0 178.38,0 178.38,-20"/>
<text text-anchor="middle" x="93.5" y="-6.5" font-family="Helvetica,sans-Serif" font-size="10.00">AELogParser/src/AELogParser.cpp</text>
</a>
</g>
</g>
<!-- Node3&#45;&gt;Node4 -->
<g id="edge3_Node000003_Node000004" class="edge">
<title>Node3&#45;&gt;Node4</title>
<g id="a_edge3_Node000003_Node000004"><a xlink:title=" ">
<path fill="none" stroke="#63b8ff" d="M93.5,-44.13C93.5,-35.9 93.5,-26.85 93.5,-20.3"/>
<polygon fill="#63b8ff" stroke="#63b8ff" points="90,-44.08 93.5,-54.08 97,-44.08 90,-44.08"/>
</a>
</g>
</g>
</g>
</svg>
