<?xml version="1.0" encoding="UTF-8" standalone="no"?>
<!DOCTYPE svg PUBLIC "-//W3C//DTD SVG 1.1//EN"
 "http://www.w3.org/Graphics/SVG/1.1/DTD/svg11.dtd">
<!-- Generated by graphviz version 10.0.1 (20240210.2158)
 -->
<!-- Title: AEFrame::sleep Pages: 1 -->
<svg width="521pt" height="104pt"
 viewBox="0.00 0.00 520.50 104.00" xmlns="http://www.w3.org/2000/svg" xmlns:xlink="http://www.w3.org/1999/xlink">
<g id="graph0" class="graph" transform="scale(1 1) rotate(0) translate(4 100)">
<title>AEFrame::sleep</title>
<!-- Node1 -->
<g id="Node000001" class="node">
<title>Node1</title>
<g id="a_Node000001"><a xlink:title="Puts the current thread to sleep for the delay that was set earlier.">
<polygon fill="#999999" stroke="#666666" points="512.5,-39 426,-39 426,-19 512.5,-19 512.5,-39"/>
<text text-anchor="middle" x="469.25" y="-25.5" font-family="Helvetica,sans-Serif" font-size="10.00">AEFrame::sleep</text>
</a>
</g>
</g>
<!-- Node2 -->
<g id="Node000002" class="node">
<title>Node2</title>
<g id="a_Node000002"><a xlink:href="../../da/d62/class_a_e_timer.html#ad5fa76b6e9233eaa415a9c70ed6ecc8d" target="_top" xlink:title="The function that does the tick counting for the timer.">
<polygon fill="white" stroke="#666666" points="385.12,-58 285.88,-58 285.88,-38 385.12,-38 385.12,-58"/>
<text text-anchor="middle" x="335.5" y="-44.5" font-family="Helvetica,sans-Serif" font-size="10.00">AETimer::tickTimer</text>
</a>
</g>
</g>
<!-- Node1&#45;&gt;Node2 -->
<g id="edge1_Node000001_Node000002" class="edge">
<title>Node1&#45;&gt;Node2</title>
<g id="a_edge1_Node000001_Node000002"><a xlink:title=" ">
<path fill="none" stroke="#63b8ff" d="M414.64,-36.73C404.92,-38.13 394.82,-39.59 385.25,-40.97"/>
<polygon fill="#63b8ff" stroke="#63b8ff" points="414.94,-40.22 424.34,-35.33 413.94,-33.3 414.94,-40.22"/>
</a>
</g>
</g>
<!-- Node7 -->
<g id="Node000007" class="node">
<title>Node7</title>
<g id="a_Node000007"><a xlink:href="../../da/d62/class_a_e_timer.html#ab5e98fa75b71f6280ae8ae16367dd97c" target="_top" xlink:title="Stops and sleeps the thread untill the given timer hits the certain tick number.">
<polygon fill="white" stroke="#666666" points="390,-20 281,-20 281,0 390,0 390,-20"/>
<text text-anchor="middle" x="335.5" y="-6.5" font-family="Helvetica,sans-Serif" font-size="10.00">AETimer::waitForTick</text>
</a>
</g>
</g>
<!-- Node1&#45;&gt;Node7 -->
<g id="edge6_Node000001_Node000007" class="edge">
<title>Node1&#45;&gt;Node7</title>
<g id="a_edge6_Node000001_Node000007"><a xlink:title=" ">
<path fill="none" stroke="#63b8ff" d="M414.45,-21.24C406.51,-20.1 398.34,-18.92 390.41,-17.77"/>
<polygon fill="#63b8ff" stroke="#63b8ff" points="413.94,-24.7 424.34,-22.67 414.94,-17.78 413.94,-24.7"/>
</a>
</g>
</g>
<!-- Node3 -->
<g id="Node000003" class="node">
<title>Node3</title>
<g id="a_Node000003"><a xlink:href="../../da/d62/class_a_e_timer.html#a022b44a8e9b9e2a314e0ac3ecc759062" target="_top" xlink:title="Starts the timer thread and starts tick counting.">
<polygon fill="white" stroke="#666666" points="245,-58 136.75,-58 136.75,-38 245,-38 245,-58"/>
<text text-anchor="middle" x="190.88" y="-44.5" font-family="Helvetica,sans-Serif" font-size="10.00">AETimer::startThread</text>
</a>
</g>
</g>
<!-- Node2&#45;&gt;Node3 -->
<g id="edge2_Node000002_Node000003" class="edge">
<title>Node2&#45;&gt;Node3</title>
<g id="a_edge2_Node000002_Node000003"><a xlink:title=" ">
<path fill="none" stroke="#63b8ff" d="M274.01,-48C264.52,-48 254.76,-48 245.44,-48"/>
<polygon fill="#63b8ff" stroke="#63b8ff" points="273.9,-51.5 283.9,-48 273.9,-44.5 273.9,-51.5"/>
</a>
</g>
</g>
<!-- Node4 -->
<g id="Node000004" class="node">
<title>Node4</title>
<g id="a_Node000004"><a xlink:href="../../da/d62/class_a_e_timer.html#ab6d5a811e0d1d8f3ab3427ae3c15756b" target="_top" xlink:title="Copy constructor – copies the data and, if the original timer was started, starts the timer.">
<polygon fill="white" stroke="#666666" points="98.88,-96 1.88,-96 1.88,-76 98.88,-76 98.88,-96"/>
<text text-anchor="middle" x="50.38" y="-82.5" font-family="Helvetica,sans-Serif" font-size="10.00">AETimer::AETimer</text>
</a>
</g>
</g>
<!-- Node3&#45;&gt;Node4 -->
<g id="edge3_Node000003_Node000004" class="edge">
<title>Node3&#45;&gt;Node4</title>
<g id="a_edge3_Node000003_Node000004"><a xlink:title=" ">
<path fill="none" stroke="#63b8ff" d="M140.87,-61.45C123.99,-66.08 105.34,-71.19 89.46,-75.55"/>
<polygon fill="#63b8ff" stroke="#63b8ff" points="141.49,-64.91 150.2,-58.88 139.63,-58.16 141.49,-64.91"/>
</a>
</g>
</g>
<!-- Node5 -->
<g id="Node000005" class="node">
<title>Node5</title>
<g id="a_Node000005"><a xlink:href="../../da/d62/class_a_e_timer.html#a289e9379b703642e126b3c938b290d1e" target="_top" xlink:title="Class constructor – sets the delay in ticks per second, and starts the thread.">
<polygon fill="white" stroke="#666666" points="98.88,-58 1.88,-58 1.88,-38 98.88,-38 98.88,-58"/>
<text text-anchor="middle" x="50.38" y="-44.5" font-family="Helvetica,sans-Serif" font-size="10.00">AETimer::AETimer</text>
</a>
</g>
</g>
<!-- Node3&#45;&gt;Node5 -->
<g id="edge4_Node000003_Node000005" class="edge">
<title>Node3&#45;&gt;Node5</title>
<g id="a_edge4_Node000003_Node000005"><a xlink:title=" ">
<path fill="none" stroke="#63b8ff" d="M125.05,-48C116.4,-48 107.65,-48 99.35,-48"/>
<polygon fill="#63b8ff" stroke="#63b8ff" points="124.81,-51.5 134.81,-48 124.81,-44.5 124.81,-51.5"/>
</a>
</g>
</g>
<!-- Node6 -->
<g id="Node000006" class="node">
<title>Node6</title>
<g id="a_Node000006"><a xlink:href="../../da/d62/class_a_e_timer.html#a7bdf64ddc743a1223164764b9cb15091" target="_top" xlink:title="Copy assignment operator – copies the data and, if the original timer was started,...">
<polygon fill="white" stroke="#666666" points="100.75,-20 0,-20 0,0 100.75,0 100.75,-20"/>
<text text-anchor="middle" x="50.38" y="-6.5" font-family="Helvetica,sans-Serif" font-size="10.00">AETimer::operator=</text>
</a>
</g>
</g>
<!-- Node3&#45;&gt;Node6 -->
<g id="edge5_Node000003_Node000006" class="edge">
<title>Node3&#45;&gt;Node6</title>
<g id="a_edge5_Node000003_Node000006"><a xlink:title=" ">
<path fill="none" stroke="#63b8ff" d="M140.87,-34.55C123.99,-29.92 105.34,-24.81 89.46,-20.45"/>
<polygon fill="#63b8ff" stroke="#63b8ff" points="139.63,-37.84 150.2,-37.12 141.49,-31.09 139.63,-37.84"/>
</a>
</g>
</g>
<!-- Node8 -->
<g id="Node000008" class="node">
<title>Node8</title>
<g id="a_Node000008"><a xlink:href="../../da/d62/class_a_e_timer.html#a0468cc72aa8d96dd32bfed912c75be0f" target="_top" xlink:title="Stops and sleeps the thread untill the given timer goes through certain amount of ticks.">
<polygon fill="white" stroke="#666666" points="240.88,-20 140.88,-20 140.88,0 240.88,0 240.88,-20"/>
<text text-anchor="middle" x="190.88" y="-6.5" font-family="Helvetica,sans-Serif" font-size="10.00">AETimer::waitTicks</text>
</a>
</g>
</g>
<!-- Node7&#45;&gt;Node8 -->
<g id="edge7_Node000007_Node000008" class="edge">
<title>Node7&#45;&gt;Node8</title>
<g id="a_edge7_Node000007_Node000008"><a xlink:title=" ">
<path fill="none" stroke="#63b8ff" d="M269.2,-10C259.78,-10 250.22,-10 241.18,-10"/>
<polygon fill="#63b8ff" stroke="#63b8ff" points="269.07,-13.5 279.07,-10 269.07,-6.5 269.07,-13.5"/>
</a>
</g>
</g>
</g>
</svg>
