<?xml version="1.0" encoding="UTF-8" standalone="no"?>
<!DOCTYPE svg PUBLIC "-//W3C//DTD SVG 1.1//EN"
 "http://www.w3.org/Graphics/SVG/1.1/DTD/svg11.dtd">
<!-- Generated by graphviz version 10.0.1 (20240210.2158)
 -->
<!-- Title: AEFrame::getFPS Pages: 1 -->
<svg width="360pt" height="28pt"
 viewBox="0.00 0.00 359.75 28.00" xmlns="http://www.w3.org/2000/svg" xmlns:xlink="http://www.w3.org/1999/xlink">
<g id="graph0" class="graph" transform="scale(1 1) rotate(0) translate(4 24)">
<title>AEFrame::getFPS</title>
<!-- Node1 -->
<g id="Node000001" class="node">
<title>Node1</title>
<g id="a_Node000001"><a xlink:title="Returns the fps goal of the instance.">
<polygon fill="#999999" stroke="#666666" points="351.75,-20 255.5,-20 255.5,0 351.75,0 351.75,-20"/>
<text text-anchor="middle" x="303.62" y="-6.5" font-family="Helvetica,sans-Serif" font-size="10.00">AEFrame::getFPS</text>
</a>
</g>
</g>
<!-- Node2 -->
<g id="Node000002" class="node">
<title>Node2</title>
<g id="a_Node000002"><a xlink:href="../../da/d62/class_a_e_timer.html#a4bc917c0a7635c0b1744ad31b6cd8cc6" target="_top" xlink:title="Returns the ticks&#45;per&#45;second of the AETimer&#39;s instance (aka AEFrame&#39;s fps goal).">
<polygon fill="white" stroke="#666666" points="219.5,-20 127.75,-20 127.75,0 219.5,0 219.5,-20"/>
<text text-anchor="middle" x="173.62" y="-6.5" font-family="Helvetica,sans-Serif" font-size="10.00">AETimer::getTPS</text>
</a>
</g>
</g>
<!-- Node1&#45;&gt;Node2 -->
<g id="edge1_Node000001_Node000002" class="edge">
<title>Node1&#45;&gt;Node2</title>
<g id="a_edge1_Node000001_Node000002"><a xlink:title=" ">
<path fill="none" stroke="#63b8ff" d="M243.91,-10C235.75,-10 227.46,-10 219.6,-10"/>
<polygon fill="#63b8ff" stroke="#63b8ff" points="243.81,-13.5 253.81,-10 243.81,-6.5 243.81,-13.5"/>
</a>
</g>
</g>
<!-- Node3 -->
<g id="Node000003" class="node">
<title>Node3</title>
<g id="a_Node000003"><a xlink:href="../../da/d62/class_a_e_timer.html#aac80d840ac49ad2b9b6d598856ae0b33" target="_top" xlink:title="Sets the timer&#39;s new delay as ticks&#45;per&#45;second.">
<polygon fill="white" stroke="#666666" points="91.75,-20 0,-20 0,0 91.75,0 91.75,-20"/>
<text text-anchor="middle" x="45.88" y="-6.5" font-family="Helvetica,sans-Serif" font-size="10.00">AETimer::setTPS</text>
</a>
</g>
</g>
<!-- Node2&#45;&gt;Node3 -->
<g id="edge2_Node000002_Node000003" class="edge">
<title>Node2&#45;&gt;Node3</title>
<g id="a_edge2_Node000002_Node000003"><a xlink:title=" ">
<path fill="none" stroke="#63b8ff" d="M116.26,-10C108.15,-10 99.89,-10 92.03,-10"/>
<polygon fill="#63b8ff" stroke="#63b8ff" points="116.07,-13.5 126.07,-10 116.07,-6.5 116.07,-13.5"/>
</a>
</g>
</g>
</g>
</svg>
